<svg width="24" height="24" viewBox="0 0 24 24" xmlns="http://www.w3.org/2000/svg">
<path opacity="0.1" d="M12 19.4641C13.9796 19.4641 15.8781 18.6777 17.2779 17.2779C18.6777 15.8781 19.4641 13.9796 19.4641 12C19.4641 10.0204 18.6777 8.12187 17.2779 6.72208C15.8781 5.32228 13.9796 4.53589 12 4.53589C10.0204 4.53589 8.12187 5.32228 6.72208 6.72208C5.32228 8.12187 4.53589 10.0204 4.53589 12C4.53589 13.9796 5.32228 15.8781 6.72208 17.2779C8.12187 18.6777 10.0204 19.4641 12 19.4641Z" fill="#000"/>
<path fill-rule="evenodd" clip-rule="evenodd" d="M6.34315 6.34315C7.84344 4.84285 9.87827 4 12 4C14.1217 4 16.1566 4.84285 17.6569 6.34315C19.1571 7.84344 20 9.87827 20 12C20 14.1217 19.1571 16.1566 17.6569 17.6569C16.1566 19.1571 14.1217 20 12 20C9.87827 20 7.84344 19.1571 6.34315 17.6569C4.84285 16.1566 4 14.1217 4 12C4 9.87827 4.84285 7.84344 6.34315 6.34315ZM12 5.07177C10.1625 5.07177 8.4003 5.80171 7.101 7.101C5.80171 8.4003 5.07177 10.1625 5.07177 12C5.07177 13.8375 5.80171 15.5997 7.101 16.899C8.4003 18.1983 10.1625 18.9282 12 18.9282C13.8375 18.9282 15.5997 18.1983 16.899 16.899C18.1983 15.5997 18.9282 13.8375 18.9282 12C18.9282 10.1625 18.1983 8.4003 16.899 7.101C15.5997 5.80171 13.8375 5.07177 12 5.07177Z" fill="#000"/>
<path fill-rule="evenodd" clip-rule="evenodd" d="M11.9999 8.05841C11.9999 8.05841 11.9999 8.05841 11.9999 8.05841C11.8918 8.05841 11.7848 8.0797 11.685 8.12106C11.5851 8.16242 11.4944 8.22304 11.418 8.29945C11.3416 8.37587 11.2809 8.46659 11.2396 8.56644C11.1982 8.66629 11.1769 8.7733 11.1769 8.88138C11.1769 8.98945 11.1982 9.09647 11.2396 9.19631C11.2809 9.29616 11.3416 9.38688 11.418 9.4633C11.4944 9.53973 11.5851 9.60034 11.685 9.6417C11.7848 9.68306 11.8918 9.70434 11.9999 9.70434C11.9999 9.70434 11.9999 9.70434 11.9999 9.70434C12.108 9.70434 12.215 9.68306 12.3149 9.6417C12.4147 9.60034 12.5054 9.53973 12.5819 9.4633C12.6583 9.38688 12.7189 9.29616 12.7603 9.19631C12.8016 9.09647 12.8229 8.98945 12.8229 8.88138C12.8229 8.7733 12.8016 8.66629 12.7603 8.56644C12.7189 8.46659 12.6583 8.37587 12.5819 8.29945C12.5054 8.22304 12.4147 8.16242 12.3149 8.12106C12.215 8.0797 12.108 8.05841 11.9999 8.05841ZM10.8516 10.89C10.5556 10.89 10.3157 11.1299 10.3157 11.4259C10.3157 11.7218 10.5556 11.9617 10.8516 11.9617H11.464V14.9091H10.2775C9.9815 14.9091 9.74158 15.149 9.74158 15.445C9.74158 15.741 9.9815 15.9809 10.2775 15.9809L11.9999 15.9809L13.7224 15.9809C14.0184 15.9809 14.2583 15.741 14.2583 15.445C14.2583 15.149 14.0184 14.9091 13.7224 14.9091H12.5358V11.4259C12.5358 11.1299 12.2958 10.89 11.9999 10.89H10.8516Z" fill="#000"/>
</svg>
