<svg width="24" height="24" viewBox="0 0 24 24" xmlns="http://www.w3.org/2000/svg">
<path fill-rule="evenodd" clip-rule="evenodd" d="M7.65789 4.00977C6.49102 4.10598 5.43901 4.69984 4.74909 5.65178C4.32415 6.23811 4.07049 6.9307 4.01123 7.66644C3.99626 7.85227 3.99626 16.146 4.01123 16.3318C4.08929 17.3009 4.50159 18.1835 5.19235 18.8603C5.86885 19.5232 6.72337 19.9127 7.66818 19.9888C7.85401 20.0037 16.1477 20.0037 16.3336 19.9888C17.2781 19.9127 18.1327 19.5232 18.8094 18.8603C19.4997 18.1843 19.9125 17.3005 19.9905 16.3318C20.0055 16.146 20.0055 7.85227 19.9905 7.66644C19.8959 6.49224 19.3039 5.43999 18.3482 4.74735C17.8211 4.36533 17.1911 4.11556 16.5394 4.03021C16.2955 3.99828 16.4803 3.99949 11.9871 4.00027C8.62475 4.00085 7.74256 4.00279 7.65789 4.00977ZM7.78481 5.07708C7.41679 5.10179 7.05845 5.19633 6.71958 5.35812C6.13163 5.63883 5.64057 6.12988 5.35986 6.71784C5.19498 7.06317 5.10415 7.41137 5.07839 7.79679C5.06893 7.93843 5.06893 16.0598 5.07839 16.2015C5.10431 16.5893 5.19564 16.9378 5.36244 17.2855C5.50381 17.5801 5.68566 17.8349 5.92562 18.0745C6.16763 18.3161 6.42021 18.4964 6.71451 18.6375C7.0638 18.805 7.40772 18.8949 7.8008 18.9216C7.94717 18.9315 16.0546 18.9315 16.2009 18.9216C16.594 18.8949 16.9379 18.805 17.2872 18.6375C17.5817 18.4963 17.8351 18.3155 18.0761 18.0744C18.3163 17.8342 18.4992 17.5781 18.6393 17.2855C18.8069 16.9356 18.8967 16.5922 18.9233 16.1992C18.9332 16.0528 18.9332 7.94543 18.9233 7.79906C18.8967 7.40598 18.8068 7.06205 18.6393 6.71276C18.4981 6.41831 18.3172 6.16491 18.0761 5.92386C17.5685 5.41621 16.9244 5.12484 16.2032 5.07665C16.0783 5.06831 7.9093 5.06872 7.78481 5.07708ZM11.8644 8.03344C11.7646 8.0603 11.6882 8.10644 11.6124 8.18557C11.5383 8.263 11.4973 8.3397 11.4766 8.43977C11.4668 8.48712 11.4657 8.64677 11.4657 9.97829V11.464H9.98003C8.64851 11.464 8.48887 11.4651 8.44151 11.4749C8.33238 11.4974 8.24679 11.5468 8.16446 11.6346C8.10459 11.6984 8.06898 11.7564 8.04384 11.831C8.02672 11.8818 8.02535 11.8943 8.02535 11.9991C8.02535 12.1039 8.02672 12.1164 8.04384 12.1672C8.06898 12.2418 8.10459 12.2999 8.16446 12.3637C8.24679 12.4515 8.33238 12.5008 8.44151 12.5234C8.48887 12.5332 8.64851 12.5343 9.98003 12.5343H11.4657V14.02C11.4657 15.6406 11.4637 15.5526 11.5037 15.651C11.5576 15.7837 11.6935 15.9093 11.8343 15.9566C11.8833 15.973 11.897 15.9745 12.0009 15.9745C12.1047 15.9745 12.1185 15.973 12.1674 15.9566C12.3331 15.901 12.4675 15.7607 12.5205 15.5882C12.5315 15.5524 12.5326 15.4438 12.5359 14.0437L12.5395 12.5377L14.0454 12.5341C15.4553 12.5308 15.5539 12.5298 15.5907 12.5185C15.7626 12.4659 15.9026 12.3315 15.9583 12.1657C15.9747 12.1167 15.9762 12.103 15.9762 11.9991C15.9762 11.8953 15.9747 11.8815 15.9583 11.8326C15.911 11.6918 15.7854 11.5558 15.6527 11.5019C15.5543 11.4619 15.6423 11.464 14.0217 11.464H12.536V9.97829C12.536 8.35771 12.5381 8.44569 12.4981 8.34726C12.4441 8.21438 12.3074 8.08815 12.1674 8.04201C12.0925 8.0173 11.9404 8.013 11.8644 8.03344Z" fill="#000"/>
</svg>
