<svg width="24" height="24" viewBox="0 0 24 24" xmlns="http://www.w3.org/2000/svg">
<path fill-rule="evenodd" clip-rule="evenodd" d="M7.93259 4.0013C7.71696 4.0242 7.53721 4.16712 7.46784 4.37082L7.44916 4.42568L7.44721 6.23255C7.44581 7.52806 7.4474 8.05203 7.45283 8.08399C7.46295 8.14353 7.49437 8.22022 7.53158 8.27619C7.58877 8.36221 7.70241 8.45465 7.78859 8.48526C7.88777 8.52048 8.01657 8.52735 8.11431 8.50263C8.30044 8.45554 8.451 8.30544 8.50325 8.11484C8.51815 8.06054 8.51832 8.05362 8.52069 7.42747L8.52309 6.79494L11.1781 6.79318L13.8332 6.79141L13.8891 6.77185C14.0625 6.71124 14.1971 6.56688 14.2416 6.39369C14.261 6.31824 14.2611 6.20199 14.2417 6.12626C14.194 5.93976 14.0453 5.79057 13.8538 5.73702L13.7989 5.72169L11.161 5.71987L8.52309 5.71805L8.52069 5.08901C8.51831 4.46521 8.51817 4.45951 8.50317 4.40511C8.46012 4.24903 8.35453 4.12133 8.21122 4.05205C8.18055 4.03722 8.13539 4.02059 8.11088 4.01509C8.06267 4.00427 7.97119 3.9972 7.93259 4.0013ZM15.944 4.00431C15.7326 4.03029 15.5511 4.1935 15.4943 4.40854L15.4789 4.46683V6.25998V8.05313L15.4942 8.11142C15.5446 8.30329 15.6957 8.45512 15.8835 8.50263C15.9812 8.52735 16.11 8.52048 16.2092 8.48526C16.3299 8.44241 16.4611 8.31427 16.5143 8.18728C16.5522 8.09663 16.5518 8.10496 16.552 7.42398L16.5521 6.79484L17.4212 6.79484C17.9627 6.79484 18.3183 6.79751 18.3646 6.80189C18.5312 6.81769 18.6709 6.89006 18.7781 7.01619C18.8404 7.08935 18.8811 7.16937 18.908 7.27161C18.92 7.31697 18.9207 7.38108 18.9228 8.52799L18.9251 9.73657H11.9989H5.07275L5.07493 8.52799C5.07733 7.19731 5.07398 7.30146 5.11819 7.18485C5.1802 7.02127 5.3268 6.88354 5.49721 6.82879C5.54795 6.81248 5.58598 6.80611 5.68017 6.79816C5.8127 6.78697 5.87284 6.77174 5.94516 6.73111C6.07054 6.66065 6.17641 6.52244 6.20887 6.38684C6.22544 6.31763 6.22393 6.19019 6.20575 6.12185C6.15669 5.93749 6.0035 5.78633 5.81715 5.73843C5.77345 5.7272 5.74138 5.72438 5.65944 5.72454C5.10872 5.72566 4.57226 6.02241 4.26932 6.49351C4.13764 6.69828 4.0563 6.91454 4.01544 7.16855L4 7.26455V12.86V18.4555L4.01544 18.5515C4.09449 19.0433 4.35103 19.448 4.7544 19.7174C4.95599 19.852 5.18941 19.9415 5.44687 19.9829L5.54287 19.9983H11.9989H18.4549L18.5509 19.9829C18.9254 19.9227 19.2471 19.7612 19.5038 19.5044C19.7587 19.2495 19.9191 18.9318 19.9824 18.5562L19.9971 18.4692L19.9994 12.9492C20.001 9.30935 19.9994 7.39059 19.9949 7.31598C19.9674 6.86488 19.7755 6.46064 19.4467 6.1616C19.193 5.93089 18.8841 5.78745 18.5269 5.73451C18.4563 5.72404 18.3489 5.72253 17.5003 5.72013L16.5525 5.71743L16.5506 5.07156L16.5486 4.42568L16.5271 4.36561C16.4389 4.11902 16.2024 3.97252 15.944 4.00431ZM5.07486 14.6069L5.0767 18.4006L5.09231 18.4589C5.15173 18.6809 5.32225 18.8502 5.54287 18.9061L5.60458 18.9218H11.9989H18.3932L18.4549 18.9062C18.5428 18.8841 18.6422 18.8328 18.7068 18.7762C18.8132 18.6831 18.8691 18.5914 18.9089 18.4452C18.9204 18.4029 18.9211 18.2086 18.9229 14.6069L18.9248 10.8131H11.9989H5.07303L5.07486 14.6069Z" fill="#000"/>
</svg>
