<svg width="24" height="24" viewBox="0 0 24 24" xmlns="http://www.w3.org/2000/svg">
<path fill-rule="evenodd" clip-rule="evenodd" d="M11.5885 4.0062C9.82251 4.09603 8.14577 4.76394 6.80273 5.91257C6.5081 6.16455 6.16577 6.50689 5.91373 6.80157C4.99845 7.87174 4.38299 9.16263 4.12765 10.5478C4.00471 11.2148 3.9683 11.9575 4.02423 12.6577C4.15752 14.3264 4.81989 15.9174 5.91373 17.1964C6.16462 17.4898 6.50938 17.8345 6.80273 18.0854C8.0815 19.1791 9.67305 19.8416 11.3415 19.9749C11.7602 20.0084 12.2401 20.0084 12.6588 19.9749C14.3272 19.8416 15.9188 19.179 17.1976 18.0854C17.4909 17.8345 17.8357 17.4898 18.0866 17.1964C19.1227 15.9849 19.775 14.4864 19.9519 12.9115C20.008 12.4123 20.0167 11.8482 19.9761 11.3403C19.8429 9.67258 19.1788 8.07749 18.0866 6.80157C17.8344 6.50698 17.4908 6.16338 17.1976 5.91257C16.4867 5.30463 15.6821 4.83023 14.8029 4.50076C14.0281 4.21038 13.2392 4.04841 12.3912 4.00562C12.2374 3.99786 11.7455 3.99821 11.5885 4.0062ZM11.7531 5.07319C11.213 5.09845 10.7821 5.15924 10.3168 5.2758C8.79814 5.65628 7.47137 6.52803 6.49914 7.78417C5.86523 8.60321 5.40871 9.6093 5.20465 10.637C5.1115 11.1061 5.07411 11.4963 5.07411 11.999C5.07411 12.6054 5.13616 13.1203 5.27696 13.6823C5.65743 15.2009 6.52924 16.5278 7.78533 17.5C8.67144 18.1858 9.78036 18.6646 10.8886 18.8397C11.2875 18.9028 11.577 18.925 12.0002 18.925C12.6067 18.925 13.1209 18.8631 13.6812 18.7227C15.2015 18.3417 16.5287 17.4702 17.5 16.2152C18.1788 15.3382 18.6507 14.2548 18.8338 13.1528C18.9023 12.7408 18.9255 12.4481 18.9255 11.999C18.9255 11.5499 18.9023 11.2571 18.8338 10.8452C18.6508 9.7439 18.1788 8.65967 17.5012 7.78417C16.5291 6.52823 15.2013 5.65583 13.6835 5.27583C13.2843 5.17587 12.9161 5.11785 12.4804 5.08618C12.343 5.07619 11.8697 5.06774 11.7531 5.07319ZM11.9247 8.59523C11.7232 8.62381 11.5509 8.7704 11.4844 8.96973L11.4684 9.01776L11.4666 10.5341C11.4646 12.1986 11.4623 12.1019 11.5059 12.2067C11.5177 12.2351 11.5404 12.2767 11.5562 12.2993C11.5798 12.333 14.4027 15.6279 14.5143 15.7521C14.6148 15.8638 14.7329 15.9222 14.8832 15.9343C15.1365 15.9547 15.3788 15.7772 15.4385 15.5276C15.4577 15.447 15.4541 15.306 15.431 15.2375C15.4144 15.1882 15.3781 15.1182 15.3497 15.0808C15.3396 15.0674 14.7023 14.3234 13.9334 13.4274L12.5356 11.7983L12.5337 10.408L12.5319 9.01776L12.5159 8.96973C12.4579 8.79576 12.3147 8.65722 12.1441 8.60995C12.0884 8.59449 11.9807 8.58727 11.9247 8.59523Z" fill="#000"/>
</svg>
