<svg width="24" height="24" viewBox="0 0 24 24" xmlns="http://www.w3.org/2000/svg">
<path fill-rule="evenodd" clip-rule="evenodd" d="M8.99437 4.01424C8.93138 4.03069 8.85771 4.0651 8.81452 4.09825C8.7689 4.13327 4.18131 8.14857 4.14491 8.18534C4.09359 8.23719 4.05231 8.30709 4.01936 8.39793L4.00327 8.4423L4.00153 13.9877C4.00004 18.7388 4.00118 19.5397 4.00947 19.5791C4.02386 19.6475 4.04527 19.699 4.08227 19.7541C4.1652 19.8776 4.28336 19.9603 4.41834 19.9892C4.48534 20.0036 19.5133 20.0036 19.5803 19.9892C19.6477 19.9748 19.6993 19.9532 19.7539 19.9166C19.846 19.8548 19.9315 19.7526 19.9645 19.6649C20.0008 19.5684 19.9985 19.8507 19.9987 15.4457C19.9988 10.9142 20.003 11.3082 19.9538 11.2043C19.8867 11.0622 19.7654 10.9554 19.6188 10.9091L19.5631 10.8915L16.9098 10.8898L14.2565 10.888V9.69058C14.2565 8.63458 14.2552 8.48693 14.2458 8.44029C14.2301 8.3623 14.1787 8.26124 14.1251 8.20253C14.0832 8.15667 9.50994 4.14983 9.44246 4.09985C9.3935 4.06357 9.3204 4.02926 9.25912 4.01377C9.18578 3.99523 9.06637 3.99544 8.99437 4.01424ZM7.09821 7.0236L5.0701 8.79817V13.8635V18.9287H6.82965H8.58922L8.59119 18.0043L8.59316 17.0798L8.60808 17.0273C8.65938 16.8467 8.80474 16.7012 8.98539 16.6496C9.06174 16.6278 9.19456 16.6278 9.27091 16.6496C9.45446 16.702 9.60053 16.8509 9.65109 17.037C9.6617 17.0761 9.66292 17.1608 9.66493 18.0043L9.66714 18.9287H11.4267H13.1862V13.8635V8.79818L11.1679 7.032C10.0579 6.06061 9.14443 5.26205 9.138 5.25742C9.12779 5.25009 8.86838 5.47471 7.09821 7.0236ZM7.28276 9.75373C7.12735 9.78715 6.97868 9.91036 6.91211 10.0609C6.84159 10.2203 6.85856 10.4231 6.95449 10.5674C7.01508 10.6585 7.11823 10.7445 7.20682 10.7776C7.30677 10.815 7.19881 10.8132 9.15216 10.811C10.8661 10.8091 10.9551 10.8084 10.9942 10.7966C11.1735 10.7426 11.3194 10.5958 11.3679 10.4206C11.4456 10.1405 11.2909 9.85758 11.008 9.76203L10.9599 9.74581L9.1453 9.74462C7.55401 9.74357 7.32477 9.7447 7.28276 9.75373ZM14.2565 15.447V18.9287H16.5925H18.9285V15.447V11.9652H16.5925H14.2565V15.447ZM7.32038 13.1912C7.12896 13.2233 6.96673 13.3575 6.9008 13.5382C6.80625 13.7972 6.92325 14.0842 7.17288 14.2054C7.28834 14.2614 7.12231 14.2572 9.15216 14.2551L10.9599 14.2532L11.008 14.237C11.0748 14.2144 11.1167 14.1925 11.1732 14.1502C11.3497 14.0185 11.4269 13.7912 11.3678 13.5779C11.3252 13.424 11.2013 13.284 11.0552 13.2247C10.9551 13.184 11.0754 13.1863 9.12329 13.1873C8.14112 13.1879 7.32981 13.1896 7.32038 13.1912Z" fill="#000"/>
</svg>
