<svg width="25" height="24" viewBox="0 0 25 24"  xmlns="http://www.w3.org/2000/svg">
<path fill-rule="evenodd" clip-rule="evenodd" d="M19.6398 8.28743C20.028 8.24235 20.3293 7.91246 20.3293 7.5122C20.3293 7.08115 19.9798 6.73171 19.5488 6.73171H15.6463C15.6463 5.22302 14.4233 4 12.9146 4C11.406 4 10.1829 5.22302 10.1829 6.73171H6.28049C5.84944 6.73171 5.5 7.08115 5.5 7.5122C5.5 7.94324 5.84944 8.29268 6.28049 8.29268H6.9398L7.90089 18.0638C8.00896 19.1625 8.9329 20 10.0369 20H15.7924C16.8964 20 17.8203 19.1625 17.9284 18.0638L18.8895 8.29268H19.5488L19.6398 8.28743ZM14.0907 10.5547C14.1295 10.269 14.3744 10.0488 14.6707 10.0488C14.9671 10.0488 15.212 10.269 15.2508 10.5547L15.2561 10.6341V16.0976L15.2508 16.177C15.212 16.4627 14.9671 16.6829 14.6707 16.6829C14.3744 16.6829 14.1295 16.4627 14.0907 16.177L14.0854 16.0976V10.6341L14.0907 10.5547ZM11.1585 10.0488C10.8622 10.0488 10.6173 10.269 10.5785 10.5547L10.5732 10.6341V16.0976L10.5785 16.177C10.6173 16.4627 10.8622 16.6829 11.1585 16.6829C11.4549 16.6829 11.6998 16.4627 11.7386 16.177L11.7439 16.0976V10.6341L11.7386 10.5547C11.6998 10.269 11.4549 10.0488 11.1585 10.0488ZM11.7439 6.73171C11.7439 6.08513 12.2681 5.56098 12.9146 5.56098C13.5612 5.56098 14.0854 6.08513 14.0854 6.73171H11.7439Z" fill="#000"/>
</svg>
