<svg width="24" height="24" viewBox="0 0 24 24" xmlns="http://www.w3.org/2000/svg">
<path fill-rule="evenodd" clip-rule="evenodd" d="M16.167 4.00002C15.8254 4.01895 15.4859 4.14959 15.213 4.3671C15.181 4.39261 14.9758 4.59167 14.7569 4.80946C14.538 5.02724 12.395 7.15915 9.99465 9.54703C7.59432 11.9349 5.60957 13.9124 5.58409 13.9414C5.53664 13.9954 5.50152 14.0543 5.47692 14.1211C5.46265 14.1598 4.04673 19.2119 4.01723 19.3293C3.94336 19.6234 4.1134 19.913 4.40462 19.989C4.4712 20.0064 4.5813 20.0075 4.64915 19.9914C4.7299 19.9724 9.84106 18.5404 9.88142 18.5256C9.95126 18.4998 10.0091 18.4645 10.0688 18.4113C10.1156 18.3695 13.7251 14.7436 19.1964 9.24219C19.6155 8.82077 19.6585 8.77252 19.7529 8.61775C20.0854 8.07229 20.0821 7.39211 19.7443 6.84591C19.6615 6.71214 19.6082 6.65105 19.3204 6.36037C18.3607 5.39085 17.3835 4.41393 17.3336 4.37405C16.9975 4.10527 16.5952 3.9763 16.167 4.00002ZM16.1464 5.08338C16.071 5.09931 15.9974 5.13024 15.9306 5.17412C15.8865 5.20303 15.0499 6.03246 11.1689 9.89477L6.46072 14.5803L5.88605 16.6335C5.56999 17.7627 5.31239 18.6876 5.31362 18.6889C5.31486 18.6901 6.23979 18.4325 7.36904 18.1164L9.42221 17.5418L14.0985 12.8428C16.6705 10.2584 18.789 8.12469 18.8063 8.1012C18.8481 8.04449 18.8802 7.9796 18.9028 7.90608C18.9195 7.85163 18.9213 7.83545 18.9213 7.73941C18.9213 7.64284 18.9195 7.62737 18.9024 7.57129C18.8777 7.4906 18.8302 7.40158 18.783 7.34725C18.7622 7.32328 18.2757 6.83181 17.7019 6.2551C16.8668 5.41574 16.6484 5.19978 16.6072 5.17277C16.4706 5.08311 16.3023 5.05045 16.1464 5.08338Z" fill="#000"/>
</svg>
