<svg width="24" height="24" viewBox="0 0 24 24" xmlns="http://www.w3.org/2000/svg">
<path fill-rule="evenodd" clip-rule="evenodd" d="M11.8219 4.00124C10.6898 4.01973 9.57059 4.43619 8.69412 5.16516C8.3846 5.42258 8.09524 5.72854 7.85928 6.04788C7.36216 6.72066 7.03647 7.51671 6.92081 8.34172C6.88061 8.62845 6.87521 8.72826 6.87147 9.25541L6.868 9.74382L6.17771 9.74644C5.51588 9.74895 5.48433 9.74963 5.41199 9.76318C5.11985 9.81787 4.88123 9.92235 4.65061 10.0965C4.5852 10.1459 4.41765 10.3114 4.36472 10.3789C4.16646 10.6317 4.0423 10.9361 4.00946 11.25C4.00372 11.3049 4.00216 11.6786 4.00377 12.6219L4.00598 13.9183L4.02189 14.0031C4.1116 14.4813 4.36505 14.8688 4.76036 15.1321C4.90833 15.2306 5.13167 15.3256 5.30865 15.3653C5.497 15.4075 5.47814 15.4067 6.23509 15.4067C6.96501 15.4067 6.97366 15.4064 7.09935 15.3749C7.2989 15.3249 7.47194 15.2268 7.61752 15.0812C7.78429 14.9144 7.8861 14.7162 7.93116 14.4704C7.94068 14.4185 7.94235 14.1024 7.94637 11.5793C7.95123 8.52759 7.94889 8.71966 7.98423 8.4789C8.08722 7.77736 8.38586 7.09292 8.82373 6.5549C9.28675 5.98597 9.87267 5.56657 10.553 5.31709C11.021 5.14546 11.4492 5.07333 12.0003 5.07333C12.4815 5.07333 12.8551 5.12657 13.2589 5.25276C14.0164 5.48942 14.6718 5.93438 15.1768 6.5549C15.6212 7.10101 15.922 7.79779 16.0192 8.50634C16.0562 8.77591 16.0546 8.58675 16.0525 12.4024L16.0505 15.928L16.035 16.0137C15.9683 16.3809 15.8109 16.6951 15.5663 16.9496C15.3894 17.1336 15.1775 17.2757 14.9369 17.3715C14.8753 17.396 14.7589 17.4336 14.7444 17.4336C14.7418 17.4336 14.7341 17.4158 14.7273 17.3942C14.709 17.3352 14.6598 17.217 14.6234 17.1445C14.4228 16.7449 14.0811 16.4163 13.6775 16.2349C13.5299 16.1685 13.3434 16.1109 13.1972 16.0864C13.0317 16.0587 13.0174 16.0583 12.0003 16.0583C10.9831 16.0583 10.9688 16.0587 10.8033 16.0864C10.7141 16.1013 10.597 16.132 10.4947 16.1671C9.85658 16.3865 9.37476 16.9203 9.21883 17.5805C9.18193 17.7367 9.17161 17.8351 9.17161 18.0304C9.17161 18.2321 9.18232 18.3286 9.22335 18.4965C9.41939 19.299 10.0985 19.8971 10.9176 19.9886C11.0537 20.0038 12.9468 20.0038 13.0829 19.9886C13.5493 19.9365 13.9863 19.7159 14.3056 19.3713C14.5147 19.1458 14.6704 18.872 14.7536 18.5838L14.7698 18.5277L14.7998 18.5221C15.5677 18.3773 16.2308 17.9414 16.6536 17.3033C16.741 17.1713 16.7807 17.1014 16.8493 16.9589C16.9635 16.7213 17.0391 16.4884 17.0859 16.2298C17.1166 16.0602 17.125 15.9516 17.129 15.6729L17.1327 15.4109L17.8023 15.4083C18.5292 15.4054 18.5086 15.4064 18.6922 15.3652C18.9296 15.312 19.1763 15.1922 19.3739 15.0343C19.6524 14.8117 19.863 14.4824 19.9494 14.1343C19.9969 13.9433 19.9935 14.0539 19.9963 12.6219C19.9982 11.677 19.9968 11.305 19.9911 11.25C19.9589 10.9423 19.8427 10.6534 19.6463 10.3929C19.5928 10.322 19.4207 10.1498 19.3499 10.0965C19.1588 9.95238 18.9213 9.83777 18.712 9.78859C18.5375 9.74758 18.5734 9.74928 17.8228 9.74644L17.1326 9.74382L17.129 9.25198C17.1252 8.72116 17.12 8.62411 17.0802 8.3417C16.8818 6.93564 16.0999 5.68077 14.9189 4.87317C14.2515 4.41684 13.4425 4.1182 12.6382 4.03127C12.4091 4.00651 12.1293 3.99622 11.8219 4.00124ZM5.59719 10.8221C5.45305 10.8429 5.31061 10.923 5.21439 11.0376C5.16559 11.0957 5.11211 11.2013 5.0912 11.2809L5.07589 11.3392V12.5739C5.07589 13.7677 5.07632 13.8102 5.08902 13.86C5.11817 13.9741 5.16499 14.0609 5.2401 14.14C5.32048 14.2246 5.40201 14.2751 5.51627 14.3109L5.57661 14.3298L6.21211 14.3317C6.78731 14.3335 6.84865 14.3326 6.85859 14.3227C6.8686 14.3127 6.86957 14.1582 6.86957 12.5737V10.8358L6.85432 10.8251C6.84079 10.8157 6.77188 10.8146 6.23871 10.8153C5.9085 10.8158 5.61982 10.8188 5.59719 10.8221ZM17.1464 10.8249L17.1309 10.8358V12.5737C17.1309 14.1582 17.1319 14.3127 17.1419 14.3227C17.1519 14.3326 17.2132 14.3335 17.7884 14.3317L18.4239 14.3298L18.4842 14.3109C18.5985 14.2751 18.68 14.2246 18.7604 14.14C18.8417 14.0544 18.8896 13.9606 18.9146 13.8381C18.9281 13.7721 18.9283 13.7478 18.9265 12.5516L18.9246 11.3323L18.9091 11.2775C18.8463 11.0552 18.6866 10.8955 18.4651 10.8336C18.4104 10.8183 18.4082 10.8182 17.786 10.8161C17.2247 10.8142 17.1603 10.8151 17.1464 10.8249ZM11.0022 17.1425C10.7988 17.1768 10.6286 17.2666 10.4876 17.4138C10.3672 17.5397 10.2854 17.7023 10.2542 17.8783C10.2407 17.9547 10.2406 18.1052 10.2541 18.1816C10.3195 18.5518 10.6011 18.8375 10.9748 18.913C11.0327 18.9247 11.096 18.9255 12.0003 18.9255C12.9046 18.9255 12.9678 18.9247 13.0257 18.913C13.1953 18.8788 13.3477 18.8018 13.4701 18.6886C13.6142 18.5553 13.7119 18.3761 13.7457 18.183C13.7591 18.106 13.7593 17.9538 13.746 17.8775C13.7156 17.7034 13.6333 17.5396 13.5129 17.4138C13.3698 17.2643 13.1998 17.1757 12.9916 17.1419C12.9035 17.1276 11.0871 17.1281 11.0022 17.1425Z" fill="#000"/>
</svg>
