<svg width="24" height="24" viewBox="0 0 24 24" xmlns="http://www.w3.org/2000/svg">
<path fill-rule="evenodd" clip-rule="evenodd" d="M11.5885 4.0062C9.82251 4.09603 8.14577 4.76394 6.80273 5.91257C6.5081 6.16455 6.16577 6.50689 5.91373 6.80157C4.99845 7.87174 4.38299 9.16263 4.12765 10.5478C4.00471 11.2148 3.9683 11.9575 4.02423 12.6577C4.15752 14.3264 4.81989 15.9174 5.91373 17.1964C6.16462 17.4898 6.50938 17.8345 6.80273 18.0854C8.0815 19.1791 9.67305 19.8416 11.3415 19.9749C11.7602 20.0084 12.2401 20.0084 12.6588 19.9749C14.3272 19.8416 15.9188 19.179 17.1976 18.0854C17.4909 17.8345 17.8357 17.4898 18.0866 17.1964C19.1227 15.9849 19.775 14.4864 19.9519 12.9115C20.008 12.4123 20.0167 11.8482 19.9761 11.3403C19.8429 9.67258 19.1788 8.07749 18.0866 6.80157C17.8344 6.50698 17.4908 6.16338 17.1976 5.91257C16.4867 5.30463 15.6821 4.83023 14.8029 4.50076C14.0281 4.21038 13.2392 4.04841 12.3912 4.00562C12.2374 3.99786 11.7455 3.99821 11.5885 4.0062ZM11.7531 5.07319C11.213 5.09845 10.7821 5.15924 10.3168 5.2758C8.79814 5.65628 7.47137 6.52803 6.49914 7.78417C5.86523 8.60321 5.40871 9.6093 5.20465 10.637C5.1115 11.1061 5.07411 11.4963 5.07411 11.999C5.07411 12.6054 5.13616 13.1203 5.27696 13.6823C5.65743 15.2009 6.52924 16.5278 7.78533 17.5C8.67144 18.1858 9.78036 18.6646 10.8886 18.8397C11.2875 18.9028 11.577 18.925 12.0002 18.925C12.6067 18.925 13.1209 18.8631 13.6812 18.7227C15.2015 18.3417 16.5287 17.4702 17.5 16.2152C18.1788 15.3382 18.6507 14.2548 18.8338 13.1528C18.9023 12.7408 18.9255 12.4481 18.9255 11.999C18.9255 11.5499 18.9023 11.2571 18.8338 10.8452C18.6508 9.7439 18.1788 8.65967 17.5012 7.78417C16.5291 6.52823 15.2013 5.65583 13.6835 5.27583C13.2843 5.17587 12.9161 5.11785 12.4804 5.08618C12.343 5.07619 11.8697 5.06774 11.7531 5.07319ZM11.935 7.73192C11.4499 7.77795 11.1105 8.2106 11.1874 8.68481C11.2218 8.89677 11.3462 9.09754 11.5202 9.22163C11.81 9.42834 12.1903 9.42834 12.4801 9.22163C12.6918 9.07063 12.8235 8.81471 12.8234 8.55463C12.8233 8.20173 12.5971 7.88566 12.2643 7.77348C12.1604 7.73844 12.0341 7.72251 11.935 7.73192ZM10.764 10.8944C10.6464 10.9146 10.5463 10.9686 10.4621 11.0571C10.3924 11.1303 10.3485 11.2124 10.3253 11.3129C10.3121 11.3705 10.3154 11.4983 10.3318 11.5607C10.371 11.7098 10.4762 11.8373 10.6176 11.9071C10.7215 11.9583 10.7296 11.9592 11.1202 11.9628L11.465 11.966V13.4368V14.9077L10.8217 14.9098L10.1785 14.9119L10.1281 14.9274C9.93648 14.9863 9.79122 15.1433 9.75274 15.3332C9.73598 15.416 9.74164 15.5366 9.76582 15.6116C9.81571 15.7663 9.95191 15.9029 10.1097 15.9564L10.1648 15.9751L11.0825 15.9785C11.5872 15.9804 12.4131 15.9804 12.9178 15.9785L13.8355 15.9751L13.8906 15.9564C14.0484 15.9029 14.1846 15.7663 14.2345 15.6116C14.2587 15.5366 14.2643 15.416 14.2476 15.3332C14.2098 15.147 14.0641 14.9879 13.8775 14.9292L13.8218 14.9117L13.1786 14.9097L12.5355 14.9077L12.5337 13.112L12.5319 11.3163L12.5139 11.2637C12.4544 11.0893 12.316 10.9558 12.1408 10.9037C12.1027 10.8924 12.051 10.8914 11.4478 10.8902C11.0893 10.8894 10.7816 10.8913 10.764 10.8944Z" fill="#000"/>
</svg>
