<svg width="24" height="25" viewBox="0 0 24 25" xmlns="http://www.w3.org/2000/svg">
<path fill-rule="evenodd" clip-rule="evenodd" d="M8.99541 4.51305C8.85115 4.54849 8.7091 4.6639 8.64437 4.79828C8.60696 4.87595 8.5934 4.93961 8.59399 5.03492C8.59462 5.13826 8.60971 5.20269 8.65181 5.28169C8.72305 5.41539 8.83355 5.50464 8.99075 5.55543C9.02211 5.56556 9.35397 5.56682 12.8573 5.57003L16.6895 5.57355L16.7444 5.58903C16.965 5.65122 17.1296 5.81716 17.1884 6.03671L17.204 6.09504L17.2075 11.6461C17.2108 16.9249 17.2116 17.1992 17.2231 17.2383C17.3111 17.5376 17.6311 17.7038 17.9229 17.6018C18.0768 17.5481 18.204 17.4155 18.2585 17.2521L18.2745 17.204L18.2764 11.6427C18.2781 6.70031 18.2771 6.07111 18.2679 5.98958C18.2116 5.49521 17.9364 5.0494 17.5163 4.77222C17.3586 4.66816 17.1273 4.57147 16.9468 4.5342C16.7695 4.49759 17.0187 4.49967 12.8816 4.50022C9.21348 4.5007 9.04344 4.50126 8.99541 4.51305ZM7.29249 6.79868C6.88427 6.82372 6.49951 7.00021 6.20675 7.29671C5.95195 7.55477 5.79898 7.85847 5.73719 8.22901C5.72506 8.30176 5.72461 8.49729 5.72461 13.6463C5.72461 18.7677 5.72512 18.9913 5.73703 19.0664C5.82073 19.5947 6.13262 20.0408 6.59787 20.2975C6.78676 20.4018 7.01575 20.4728 7.23074 20.4939C7.28859 20.4996 8.2682 20.5011 10.9017 20.4993C14.2377 20.497 14.4984 20.496 14.559 20.4853C14.897 20.4251 15.1941 20.2817 15.4307 20.0643C15.7181 19.8004 15.8982 19.4665 15.9633 19.0772C15.9754 19.0044 15.9759 18.8127 15.9759 13.6463V8.29076L15.9607 8.20499C15.8774 7.73512 15.6178 7.33448 15.2303 7.07762C15.0132 6.93366 14.7903 6.84918 14.5178 6.80748C14.4433 6.79608 14.2406 6.79535 10.9086 6.79441C8.9669 6.79386 7.33967 6.79578 7.29249 6.79868ZM7.30388 7.87593C7.06121 7.91684 6.86037 8.10688 6.80718 8.34595C6.79561 8.39793 6.79502 8.65234 6.79502 13.6531C6.79502 18.6629 6.79559 18.9079 6.80722 18.9537C6.82568 19.0265 6.85126 19.089 6.88216 19.137C6.97142 19.2754 7.10069 19.3715 7.25193 19.4118L7.30965 19.4272H10.8503H14.3909L14.4492 19.4118C14.6632 19.3554 14.8326 19.1858 14.89 18.9706L14.9055 18.9126V13.6497V8.38682L14.89 8.3285C14.8614 8.22112 14.8155 8.13969 14.7378 8.05841C14.6599 7.97692 14.5555 7.91418 14.4492 7.88497C14.4066 7.87329 14.2403 7.87266 10.8708 7.87153C8.92728 7.87087 7.32215 7.87286 7.30388 7.87593ZM8.45734 9.67357C8.27297 9.70481 8.10112 9.85451 8.04227 10.0351C8.01675 10.1135 8.01227 10.2508 8.03259 10.3324C8.07647 10.5087 8.21241 10.6554 8.38692 10.7148L8.44182 10.7335L10.8331 10.7353C13.2059 10.737 13.2248 10.7369 13.2793 10.7233C13.4648 10.6768 13.6193 10.5245 13.668 10.3399C13.6857 10.273 13.6873 10.1442 13.6713 10.0766C13.6497 9.9855 13.6063 9.90849 13.5335 9.83225C13.4643 9.75966 13.4013 9.72029 13.2999 9.68612L13.2518 9.66995L10.8708 9.66901C9.56129 9.66849 8.47523 9.67054 8.45734 9.67357ZM8.50014 12.5418C8.42388 12.5496 8.38622 12.5598 8.32426 12.5897C8.17911 12.6597 8.06374 12.8018 8.03074 12.9512C8.01724 13.0123 8.01668 13.1328 8.02961 13.1938C8.06893 13.3793 8.21992 13.5383 8.40882 13.593L8.4624 13.6085H10.8503H13.2381L13.2917 13.593C13.4852 13.5369 13.6346 13.3768 13.6744 13.1831C13.6873 13.12 13.6842 13.0006 13.668 12.9387C13.6289 12.7897 13.5236 12.6621 13.3822 12.5923C13.2621 12.533 13.5171 12.5386 10.888 12.5375C9.60298 12.5369 8.52844 12.5389 8.50014 12.5418ZM8.46467 15.4167C8.27037 15.4498 8.1065 15.5899 8.0432 15.7768C8.01649 15.8557 8.01167 15.9916 8.03259 16.0756C8.07962 16.2645 8.23345 16.4195 8.42061 16.4665C8.47376 16.4798 8.5003 16.4801 9.70031 16.48C11.0553 16.4799 10.9731 16.4825 11.0725 16.4354C11.3172 16.3192 11.4389 16.0576 11.3678 15.8005C11.3262 15.6502 11.205 15.5128 11.0595 15.4511C10.964 15.4106 11.0642 15.4136 9.72494 15.4123C9.04941 15.4117 8.48229 15.4137 8.46467 15.4167Z" fill="#000"/>
</svg>
