<svg width="33" height="33" viewBox="0 0 33 33" xmlns="http://www.w3.org/2000/svg">
<path opacity="0.15" d="M10.4724 25.209H23.1997C22.6667 25.209 22.1556 24.9973 21.7787 24.6204C21.4018 24.2435 21.1901 23.7324 21.1901 23.1994V7.79272L17.8408 9.80229L14.4915 7.79272L11.1423 9.80229L7.79297 7.79272V22.5296C7.79297 23.2402 8.07526 23.9217 8.57775 24.4242C9.08024 24.9267 9.76177 25.209 10.4724 25.209Z" fill="#000"/>
<path fill-rule="evenodd" clip-rule="evenodd" d="M15.6133 13.055C15.6133 13.4496 15.9332 13.7695 16.3278 13.7695H18.6244C19.0191 13.7695 19.339 13.4496 19.339 13.055C19.339 12.6604 19.0191 12.3405 18.6244 12.3405H16.3278C15.9332 12.3405 15.6133 12.6604 15.6133 13.055Z" fill="#000"/>
<path fill-rule="evenodd" clip-rule="evenodd" d="M10.2812 17.055C10.2812 17.4496 10.6011 17.7695 10.9958 17.7695H18.6257C19.0204 17.7695 19.3403 17.4496 19.3403 17.055C19.3403 16.6604 19.0204 16.3405 18.6257 16.3405H10.9958C10.6011 16.3405 10.2812 16.6604 10.2812 17.055Z" fill="#000"/>
<path fill-rule="evenodd" clip-rule="evenodd" d="M12.9453 21.055C12.9453 21.4496 13.2652 21.7695 13.6598 21.7695H18.6231C19.0178 21.7695 19.3377 21.4496 19.3377 21.055C19.3377 20.6604 19.0178 20.3405 18.6231 20.3405H13.6598C13.2652 20.3405 12.9453 20.6604 12.9453 21.055Z" fill="#000"/>
<path fill-rule="evenodd" clip-rule="evenodd" d="M8.13587 24.8661C8.75561 25.4858 9.59615 25.834 10.4726 25.834H23.1999C23.8987 25.834 24.5688 25.5564 25.0629 25.0623C25.557 24.5682 25.8346 23.898 25.8346 23.1992V18.5102C25.8346 18.1649 25.5547 17.885 25.2094 17.885H21.8155V7.79252C21.8155 7.56727 21.6943 7.35945 21.4983 7.24847C21.3023 7.13749 21.0618 7.14053 20.8686 7.25641L17.841 9.07298L14.8134 7.25641C14.6154 7.13762 14.3681 7.13762 14.1701 7.25641L11.1425 9.07298L8.11483 7.25641C7.92169 7.14053 7.68114 7.13749 7.48513 7.24847C7.28913 7.35945 7.16797 7.56727 7.16797 7.79252V22.5294C7.16797 23.4058 7.51613 24.2463 8.13587 24.8661ZM21.8155 19.1354H24.5842V23.1992C24.5842 23.5664 24.4384 23.9185 24.1788 24.1781C23.9191 24.4377 23.567 24.5836 23.1999 24.5836C22.8327 24.5836 22.4806 24.4377 22.221 24.1781C21.9613 23.9185 21.8155 23.5664 21.8155 23.1992V19.1354ZM20.9581 24.5836C20.7032 24.1709 20.5651 23.6922 20.5651 23.1992V8.89674L18.1627 10.3382C17.9647 10.457 17.7173 10.457 17.5194 10.3382L14.4917 8.52162L11.4641 10.3382C11.2661 10.457 11.0188 10.457 10.8208 10.3382L8.41837 8.89674V22.5294C8.41837 23.0742 8.63479 23.5967 9.02004 23.9819C9.40528 24.3672 9.92778 24.5836 10.4726 24.5836H20.9581Z" fill="#000"/>
</svg>
