<svg width="24" height="24" viewBox="0 0 24 24" xmlns="http://www.w3.org/2000/svg">
<path fill-rule="evenodd" clip-rule="evenodd" d="M12.1344 5.48181C11.1806 5.53532 10.2472 5.86884 9.47351 6.4326C8.73235 6.97267 8.13988 7.72642 7.7995 8.56227L7.76981 8.63519L7.65563 8.65052C6.70968 8.77757 5.84786 9.21116 5.18786 9.8921C4.51988 10.5813 4.12203 11.4354 4.01619 12.4076C3.99613 12.5919 3.99434 13.0223 4.01289 13.206C4.06837 13.7559 4.19698 14.2113 4.43045 14.6843C4.69888 15.2282 5.04777 15.673 5.50626 16.0558C6.08652 16.5403 6.7333 16.8295 7.5277 16.9595C7.74767 16.9955 7.9576 17.0152 8.22902 17.0253C8.47583 17.0345 9.12067 17.0344 9.19467 17.0251C9.41542 16.9974 9.60314 16.8243 9.64905 16.6061C9.66111 16.5487 9.66111 16.4365 9.64905 16.3792C9.62729 16.2757 9.57164 16.178 9.4913 16.1022C9.44111 16.0549 9.37066 16.0092 9.31881 15.9903C9.22884 15.9576 9.24169 15.9583 8.66906 15.9529C8.06375 15.9471 7.97209 15.9417 7.68085 15.8946C7.17363 15.8126 6.70652 15.6201 6.33134 15.3386C6.15558 15.2067 5.91229 14.9742 5.78221 14.8138C5.41798 14.3648 5.18409 13.8322 5.10487 13.2714C5.08021 13.0968 5.07441 13.0112 5.07436 12.821C5.07422 12.3325 5.17887 11.8837 5.39669 11.439C5.85093 10.5115 6.74754 9.86328 7.77396 9.72034C7.81486 9.71464 7.90459 9.70515 7.97335 9.69925C8.11747 9.68687 8.19104 9.67139 8.27351 9.63607C8.45 9.5605 8.57948 9.44439 8.6691 9.28135C8.68302 9.25603 8.71381 9.1835 8.73751 9.12017C8.79854 8.95712 8.83762 8.86648 8.90993 8.72024C9.23919 8.05433 9.7649 7.48639 10.4047 7.1054C10.9215 6.79766 11.4893 6.61638 12.1 6.56418C12.2633 6.55023 12.5656 6.55035 12.7301 6.56445C13.5498 6.63471 14.3041 6.9452 14.9328 7.47122C15.0351 7.55682 15.2513 7.7683 15.3452 7.87459C15.6478 8.21731 15.8854 8.60576 16.0527 9.03133C16.1845 9.36675 16.2577 9.6647 16.3046 10.057C16.3224 10.2056 16.3435 10.2854 16.3902 10.3802C16.4557 10.5133 16.5521 10.6235 16.6737 10.7044C16.7527 10.757 16.8326 10.7906 16.9577 10.8238C17.2783 10.9091 17.5318 11.0229 17.7862 11.1958C18.6057 11.7527 19.0405 12.7291 18.9036 13.7049C18.8371 14.1789 18.6464 14.6196 18.3475 14.9901C18.2718 15.0839 18.0953 15.2628 17.9986 15.3436C17.6508 15.6343 17.2407 15.828 16.7961 15.9114C16.5966 15.9488 16.6264 15.9477 15.6754 15.9527C15.0127 15.9562 14.7806 15.9595 14.7575 15.9657C14.6585 15.9925 14.5797 16.0358 14.5093 16.1022C14.3824 16.222 14.3229 16.3876 14.3447 16.5607C14.3601 16.6831 14.4088 16.7812 14.499 16.8714C14.5883 16.9606 14.6873 17.0102 14.806 17.0251C14.8807 17.0345 16.3041 17.0347 16.4936 17.0254C17.0141 16.9998 17.4912 16.8771 17.9512 16.6505C18.6568 16.3029 19.2286 15.7423 19.5917 15.0418C19.8132 14.6145 19.9396 14.1815 19.991 13.6736C20.0029 13.5559 20.0031 13.1393 19.9913 13.0238C19.9144 12.2704 19.6496 11.6157 19.189 11.0402C18.7529 10.4953 18.1415 10.0719 17.479 9.85621C17.3689 9.82038 17.3565 9.81479 17.3565 9.80103C17.3563 9.75145 17.2928 9.41339 17.256 9.26629C16.9963 8.22901 16.4234 7.31401 15.6066 6.6321C15.0104 6.13436 14.2862 5.77512 13.5301 5.60209C13.0783 5.49868 12.5875 5.45639 12.1344 5.48181Z" fill="#000"/>
<path fill-rule="evenodd" clip-rule="evenodd" d="M12.076 11.1449C11.9914 11.1601 11.9124 11.196 11.841 11.2515C11.8203 11.2676 11.2748 11.8099 10.6289 12.4566C9.83052 13.256 9.44525 13.6463 9.42558 13.6758C9.36065 13.7733 9.34024 13.8446 9.33986 13.9756C9.33963 14.0576 9.34192 14.0791 9.35566 14.1229C9.38623 14.2204 9.43514 14.2981 9.51024 14.3683C9.61282 14.4643 9.72632 14.5083 9.87081 14.5082C9.9892 14.5081 10.0757 14.483 10.1713 14.421C10.1971 14.4044 10.4622 14.1446 10.9231 13.6846L11.6351 12.9739V15.515C11.6351 18.2936 11.6324 18.1014 11.6731 18.2015C11.727 18.3342 11.863 18.4598 12.0038 18.5071C12.0528 18.5236 12.0666 18.525 12.1704 18.525C12.2743 18.525 12.2881 18.5236 12.3371 18.5071C12.478 18.4598 12.6102 18.3378 12.6666 18.203C12.7086 18.1028 12.7057 18.301 12.7057 15.515V12.9739L13.4178 13.6846C13.8787 14.1446 14.1438 14.4044 14.1695 14.421C14.2652 14.483 14.3517 14.5081 14.4701 14.5082C14.6146 14.5083 14.7281 14.4643 14.8306 14.3683C14.9057 14.2981 14.9546 14.2204 14.9852 14.1229C14.999 14.0791 15.0013 14.0576 15.001 13.9756C15.0006 13.8446 14.9802 13.7733 14.9153 13.6758C14.8813 13.6248 12.5648 11.3015 12.493 11.2464C12.4414 11.2068 12.3701 11.1711 12.3111 11.1552C12.2616 11.1418 12.1261 11.1359 12.076 11.1449Z" fill="#000"/>
</svg>
