<svg width="24" height="24" viewBox="0 0 24 24" xmlns="http://www.w3.org/2000/svg">
<path fill-rule="evenodd" clip-rule="evenodd" d="M9.48662 4.00445C9.16517 4.02708 8.8571 4.14307 8.58825 4.34271C8.51529 4.3969 8.27339 4.63638 6.45472 6.45505C4.63605 8.27373 4.39656 8.51562 4.34238 8.58858C4.16335 8.82968 4.05901 9.08367 4.01275 9.39095C4.00098 9.46916 4.00037 9.59852 4.00037 12.0003C4.00037 14.4022 4.00098 14.5315 4.01275 14.6098C4.05901 14.917 4.16335 15.171 4.34238 15.4121C4.39656 15.4851 4.63605 15.727 6.45472 17.5456C8.27339 19.3643 8.51529 19.6038 8.58825 19.658C8.82934 19.837 9.08334 19.9414 9.39061 19.9876C9.46883 19.9994 9.59819 20 12 20C14.4018 20 14.5312 19.9994 14.6094 19.9876C14.9181 19.9412 15.1698 19.8373 15.4152 19.6554C15.4838 19.6045 15.7617 19.3293 17.5453 17.5456C19.329 15.762 19.6042 15.4841 19.655 15.4155C19.837 15.1702 19.9408 14.9184 19.9873 14.6098C19.999 14.5315 19.9997 14.4022 19.9997 12.0003C19.9997 9.59852 19.999 9.46916 19.9873 9.39095C19.941 9.08367 19.8367 8.82968 19.6577 8.58858C19.6035 8.51562 19.364 8.27373 17.5453 6.45505C15.7266 4.63638 15.4847 4.3969 15.4118 4.34271C15.1761 4.16771 14.9317 4.06544 14.6305 4.01579L14.5408 4.00102L12.0515 4.00008C10.6823 3.99957 9.52811 4.00153 9.48662 4.00445ZM9.53134 5.08162C9.43816 5.09249 9.35484 5.12308 9.27082 5.17728C9.22823 5.20475 8.86722 5.56268 7.21211 7.21847C5.06375 9.36773 5.16816 9.25992 5.12109 9.37745C5.07302 9.49752 5.07704 9.25771 5.07704 12.0003C5.07704 14.743 5.07302 14.5032 5.12109 14.6232C5.16814 14.7407 5.0642 14.6334 7.20869 16.779C9.36034 18.9317 9.25634 18.8309 9.37602 18.8788C9.49738 18.9274 9.25536 18.9233 12 18.9233C14.7447 18.9233 14.5027 18.9274 14.624 18.8788C14.7437 18.8309 14.6397 18.9317 16.7913 16.779C18.9358 14.6334 18.8319 14.7407 18.8789 14.6232C18.927 14.5032 18.923 14.743 18.923 12.0003C18.923 9.2557 18.9271 9.49771 18.8785 9.37635C18.8306 9.25667 18.9313 9.36067 16.7786 7.20902C14.6332 5.06464 14.7404 5.16846 14.623 5.12145C14.5037 5.07371 14.7434 5.07785 12.0309 5.07668C10.6727 5.0761 9.5598 5.0783 9.53134 5.08162ZM11.9228 8.02366C11.8095 8.03824 11.7139 8.08795 11.6224 8.17982C11.5503 8.25222 11.5158 8.30599 11.4865 8.39199L11.4685 8.44457L11.4664 10.3922C11.4648 11.8553 11.4663 12.3518 11.4723 12.3878C11.4819 12.4452 11.513 12.5245 11.5464 12.5764C11.5788 12.6269 11.6723 12.7184 11.7206 12.7469C11.8095 12.7993 11.8966 12.823 12 12.823C12.252 12.823 12.4589 12.6586 12.5261 12.405C12.5371 12.3634 12.5381 12.2333 12.5402 10.4813C12.5417 9.21006 12.5401 8.57633 12.5352 8.522C12.5217 8.37128 12.4825 8.28625 12.3772 8.17982C12.2833 8.0849 12.1922 8.03872 12.0682 8.02317C12.0038 8.01509 11.989 8.01514 11.9228 8.02366ZM11.8937 14.3393C11.5846 14.381 11.3183 14.6015 11.219 14.8978C11.1132 15.2137 11.21 15.5639 11.4632 15.7811C11.8091 16.0778 12.3233 16.0404 12.622 15.6967C12.7522 15.5469 12.8229 15.3573 12.8229 15.1576C12.823 14.7658 12.5472 14.4294 12.16 14.3491C12.0944 14.3355 11.9588 14.3305 11.8937 14.3393Z" fill="#000"/>
</svg>
