<svg width="33" height="33" viewBox="0 0 33 33" xmlns="http://www.w3.org/2000/svg">
<path opacity="0.15" d="M26.4512 22.2414V14.5859H6.54688V22.2414C6.54688 22.6475 6.70819 23.037 6.99532 23.3241C7.28246 23.6112 7.6719 23.7725 8.07798 23.7725H24.9201C25.3262 23.7725 25.7156 23.6112 26.0027 23.3241C26.2899 23.037 26.4512 22.6475 26.4512 22.2414Z" fill="#000"/>
<path fill-rule="evenodd" clip-rule="evenodd" d="M6.48976 9.1714C6.91089 8.75026 7.48207 8.51367 8.07765 8.51367H24.9197C25.5153 8.51367 26.0865 8.75026 26.5076 9.1714C26.9288 9.59253 27.1654 10.1637 27.1654 10.7593V22.2425C27.1654 22.8381 26.9288 23.4093 26.5076 23.8304C26.0865 24.2516 25.5153 24.4882 24.9197 24.4882H8.07765C7.48207 24.4882 6.91089 24.2516 6.48976 23.8304C6.06862 23.4093 5.83203 22.8381 5.83203 22.2425V10.7593C5.83203 10.1637 6.06862 9.59253 6.48976 9.1714ZM8.07765 9.9427C7.86107 9.9427 7.65337 10.0287 7.50023 10.1819C7.34709 10.335 7.26106 10.5427 7.26106 10.7593V22.2425C7.26106 22.4591 7.34709 22.6668 7.50023 22.82C7.65337 22.9731 7.86107 23.0591 8.07765 23.0591H24.9197C25.1363 23.0591 25.344 22.9731 25.4972 22.82C25.6503 22.6668 25.7363 22.4591 25.7363 22.2425V10.7593C25.7363 10.5427 25.6503 10.335 25.4972 10.1819C25.344 10.0287 25.1363 9.9427 24.9197 9.9427H8.07765Z" fill="#000"/>
<path fill-rule="evenodd" clip-rule="evenodd" d="M5.83203 14.5856C5.83203 14.191 6.15193 13.8711 6.54654 13.8711H26.4508C26.8455 13.8711 27.1654 14.191 27.1654 14.5856C27.1654 14.9802 26.8455 15.3001 26.4508 15.3001H6.54654C6.15193 15.3001 5.83203 14.9802 5.83203 14.5856Z" fill="#000"/>
<path fill-rule="evenodd" clip-rule="evenodd" d="M19.6133 19.945C19.6133 19.5504 19.9332 19.2305 20.3278 19.2305H22.6244C23.0191 19.2305 23.339 19.5504 23.339 19.945C23.339 20.3396 23.0191 20.6595 22.6244 20.6595H20.3278C19.9332 20.6595 19.6133 20.3396 19.6133 19.945Z" fill="#000"/>
</svg>
