<svg width="24" height="24" viewBox="0 0 24 24" xmlns="http://www.w3.org/2000/svg">
<path fill-rule="evenodd" clip-rule="evenodd" d="M8.38766 4.01047C7.94197 4.08159 7.58474 4.40724 7.4753 4.84217C7.44373 4.96767 7.44452 4.91713 7.44439 6.80777L7.44426 8.58967L6.48542 8.59206C5.42947 8.59469 5.48384 8.59259 5.29331 8.63819C5.11369 8.68119 4.90338 8.77164 4.75814 8.86837C4.36146 9.13254 4.10538 9.52524 4.01933 10.0013L4.00342 10.0894V12.8612V15.6331L4.01933 15.7212C4.10417 16.1905 4.35672 16.5841 4.73756 16.8404C4.98205 17.005 5.24915 17.0993 5.54374 17.1252C5.59196 17.1295 5.97676 17.1322 6.53345 17.1322L7.44426 17.1323L7.44439 18.0534C7.44452 19.0224 7.44494 19.0375 7.4753 19.1582C7.57462 19.5529 7.88479 19.8659 8.2764 19.9665C8.41433 20.0019 8.19526 20 12 20C15.8048 20 15.5857 20.0019 15.7237 19.9665C16.1142 19.8661 16.4276 19.5504 16.5242 19.1597C16.5556 19.033 16.5558 19.0252 16.5558 18.0525V17.1323L17.4666 17.1322C18.0233 17.1322 18.4081 17.1295 18.4563 17.1252C18.6718 17.1063 18.8509 17.0572 19.0454 16.9637C19.3227 16.8304 19.5384 16.645 19.7114 16.3912C19.8461 16.1936 19.9356 15.971 19.9807 15.7212L19.9967 15.6331V12.8647C19.9967 10.2094 19.9961 10.0931 19.984 10.0208C19.9545 9.84391 19.9068 9.69473 19.828 9.53287C19.7234 9.31788 19.5606 9.11397 19.3757 8.96616C19.1805 8.81013 18.9472 8.69574 18.7068 8.63819C18.5162 8.59259 18.5706 8.59469 17.5146 8.59206L16.5558 8.58967V6.80865C16.5558 4.90807 16.5568 4.97239 16.5242 4.84062C16.4762 4.64649 16.3604 4.44714 16.2152 4.30861C16.0446 4.14579 15.8411 4.04608 15.6055 4.00987C15.5174 3.99633 8.47264 3.99691 8.38766 4.01047ZM8.53134 5.0802C8.51823 5.08979 8.518 5.11661 8.51627 6.84007L8.51451 8.59021H12H15.4856L15.4838 6.84007C15.4821 5.11661 15.4818 5.08979 15.4687 5.0802C15.4486 5.06552 8.55143 5.06552 8.53134 5.0802ZM5.56509 9.67799C5.43006 9.70732 5.33131 9.76249 5.23801 9.8607C5.16288 9.93979 5.11604 10.0266 5.08689 10.1408C5.07406 10.1911 5.07375 10.2545 5.07375 12.8647C5.07375 15.4215 5.07429 15.539 5.08616 15.5817C5.12277 15.7133 5.16432 15.7876 5.25058 15.8757C5.31372 15.9402 5.38692 15.9871 5.47759 16.021C5.57027 16.0557 5.54413 16.0548 6.52639 16.055L7.44386 16.0551L7.44591 15.4119L7.44796 14.7686L7.46375 14.7172C7.48401 14.6512 7.51125 14.6005 7.55779 14.5421C7.63361 14.447 7.74443 14.3746 7.85333 14.3491C7.90557 14.3368 8.04451 14.3364 12 14.3364C15.9556 14.3364 16.0945 14.3368 16.1467 14.3491C16.3255 14.391 16.4855 14.545 16.5396 14.7275C16.5509 14.7654 16.552 14.8187 16.554 15.4119L16.5562 16.0551L17.4737 16.055C18.4559 16.0548 18.4298 16.0557 18.5225 16.021C18.6131 15.9871 18.6864 15.9402 18.7495 15.8757C18.8357 15.7876 18.8773 15.7133 18.9139 15.5817C18.9258 15.539 18.9263 15.4215 18.9263 12.8647C18.9263 10.2545 18.926 10.1911 18.9132 10.1408C18.884 10.0266 18.8372 9.93979 18.7621 9.8607C18.6817 9.77606 18.6002 9.72563 18.4858 9.68977L18.4255 9.67084L12.0172 9.66966C6.57482 9.66865 5.60231 9.66991 5.56509 9.67799ZM15.3302 11.4752C15.1407 11.5168 14.9818 11.6662 14.9285 11.8527C14.9154 11.8986 14.9129 11.9232 14.9133 12.0036C14.9137 12.085 14.9164 12.1081 14.9306 12.1546C14.9825 12.3251 15.1196 12.4616 15.2934 12.5158L15.3448 12.5319H16.0241H16.7033L16.7559 12.514C16.9179 12.4587 17.0478 12.3329 17.1013 12.1797C17.1398 12.0696 17.1398 11.9307 17.1013 11.8207C17.0478 11.6674 16.9179 11.5417 16.7559 11.4864L16.7033 11.4684L16.0378 11.4672C15.5011 11.4662 15.3641 11.4677 15.3302 11.4752ZM8.51632 17.1603C8.518 18.8838 8.51823 18.9106 8.53134 18.9202C8.55143 18.9348 15.4486 18.9348 15.4687 18.9202C15.4818 18.9106 15.4821 18.8838 15.4837 17.1603L15.4854 15.4101H12H8.51462L8.51632 17.1603Z" fill="#000"/>
</svg>
