<svg width="24" height="24" viewBox="0 0 24 24" xmlns="http://www.w3.org/2000/svg">
<path fill-rule="evenodd" clip-rule="evenodd" d="M11.7038 4.00659C10.578 4.05783 9.49204 4.41387 8.55072 5.04038C7.38402 5.81689 6.5124 6.96203 6.07804 8.28899C5.79112 9.16549 5.70408 10.0962 5.82194 11.0271C5.90568 11.6885 6.10047 12.3393 6.39758 12.9502L6.46586 13.0906L5.23782 15.2175C4.56239 16.3873 4.00223 17.3646 3.99303 17.3892C3.9682 17.4556 3.96436 17.5669 3.98436 17.6398C4.01886 17.7655 4.09078 17.8544 4.20649 17.9144C4.29339 17.9594 4.3943 17.9724 4.49288 17.9511C4.51871 17.9456 5.0655 17.8001 5.70796 17.6278C6.35042 17.4555 6.87721 17.3157 6.87862 17.3171C6.88002 17.3185 7.02504 17.8571 7.2009 18.514C7.55875 19.8506 7.53856 19.7858 7.62314 19.8696C7.70311 19.9489 7.79623 19.992 7.90291 19.9991C8.04276 20.0086 8.1934 19.9397 8.27354 19.8298C8.28953 19.8078 8.76435 18.9899 9.32868 18.0121L10.3547 16.2343L10.4865 16.2673C11.2754 16.4653 12.1383 16.5044 12.951 16.3789C13.1618 16.3463 13.3422 16.3096 13.5401 16.2589C13.5969 16.2444 13.6439 16.233 13.6444 16.2337C13.645 16.2344 14.1082 17.0366 14.6738 18.0164C15.2394 18.9962 15.7129 19.8125 15.7261 19.8305C15.806 19.9398 15.9573 20.0085 16.0969 19.9991C16.2036 19.992 16.2967 19.9489 16.3767 19.8696C16.4612 19.7859 16.4411 19.8505 16.7987 18.5141C16.9745 17.8574 17.1196 17.3188 17.1211 17.3173C17.1226 17.3158 17.6494 17.4556 18.2919 17.6278C18.9343 17.8001 19.4811 17.9456 19.507 17.9511C19.6056 17.9723 19.7065 17.9594 19.7934 17.9144C19.9091 17.8544 19.981 17.7655 20.0155 17.6398C20.0355 17.5667 20.0316 17.4556 20.0068 17.3892C19.9975 17.3646 19.4384 16.3893 18.7643 15.2219C18.0902 14.0544 17.5374 13.0946 17.5359 13.0889C17.5344 13.0832 17.564 13.015 17.6016 12.9373C18.1256 11.8563 18.3221 10.6605 18.1745 9.45021C18.0436 8.37654 17.6202 7.33647 16.9596 6.46618C16.6721 6.08745 16.3137 5.71488 15.9455 5.41208C14.7562 4.434 13.2535 3.93604 11.7038 4.00659ZM11.8518 4.86482C10.8937 4.89084 9.9677 5.16997 9.15028 5.67912C8.48281 6.09486 7.86584 6.71184 7.45009 7.3793C6.88053 8.29371 6.5988 9.34559 6.63827 10.4102C6.66728 11.1927 6.84124 11.889 7.18285 12.5902C7.23723 12.7018 7.25739 12.7362 7.28592 12.766C7.33462 12.8167 7.36479 12.8686 7.38939 12.9439C7.41183 13.0126 7.44629 13.0727 7.55342 13.2302C7.88713 13.7208 8.3154 14.1692 8.78864 14.5235C9.17096 14.8096 9.58184 15.0387 10.0283 15.2144C10.1344 15.2562 10.1653 15.2655 10.2081 15.2686C10.2692 15.273 10.3343 15.2953 10.3991 15.334C10.4301 15.3525 10.4753 15.3703 10.533 15.3867C11.4821 15.6559 12.5267 15.6546 13.4705 15.3831C13.5345 15.3647 13.581 15.3466 13.6108 15.3286C13.6674 15.2945 13.7262 15.2749 13.7957 15.267C13.8381 15.2622 13.8779 15.2497 13.9736 15.2114C14.5676 14.9738 15.066 14.6669 15.5559 14.2371C15.6638 14.1425 15.9214 13.8841 16.0171 13.7746C16.2918 13.4604 16.5718 13.0648 16.6139 12.9314C16.6319 12.8745 16.6674 12.814 16.7096 12.7685C16.7692 12.7042 16.952 12.3013 17.059 11.9983C17.3481 11.1799 17.4305 10.2724 17.2953 9.39507C17.0957 8.09979 16.4218 6.9246 15.3906 6.07355C14.5403 5.37188 13.4535 4.94372 12.3479 4.87492C12.2215 4.86705 11.9632 4.86179 11.8518 4.86482ZM11.9103 6.50766C11.7218 6.52955 11.5292 6.64453 11.4224 6.79902C11.4026 6.8277 11.2206 7.18565 10.995 7.63961C10.7789 8.07447 10.599 8.43026 10.5953 8.43026C10.572 8.43026 8.88678 8.68016 8.85101 8.68893C8.65126 8.73791 8.47988 8.87654 8.39127 9.06084C8.2767 9.29914 8.30227 9.57832 8.45778 9.78691C8.48299 9.82073 8.69986 10.0333 9.10893 10.4252C9.44627 10.7483 9.7278 11.0189 9.73456 11.0265C9.74642 11.0398 9.7417 11.0709 9.59845 11.9218C9.4351 12.8922 9.43646 12.8813 9.46311 13.0097C9.51824 13.2754 9.7226 13.4877 9.98415 13.5511C10.1179 13.5835 10.268 13.5736 10.4012 13.5237C10.422 13.516 10.7879 13.3249 11.2143 13.0991L11.9896 12.6886L12.0125 12.6994C12.0252 12.7054 12.3539 12.8788 12.7431 13.0848C13.5653 13.5201 13.5572 13.516 13.6313 13.5393C13.9486 13.6394 14.3031 13.4913 14.4546 13.1952C14.5096 13.0877 14.536 12.9836 14.536 12.8745C14.536 12.8412 14.4869 12.4751 14.4085 11.9235C14.3384 11.4302 14.281 11.0196 14.281 11.0111C14.281 10.9994 14.4322 10.8518 14.8863 10.4201C15.2192 10.1037 15.5027 9.83121 15.5162 9.81462C15.7407 9.54026 15.7219 9.13087 15.4733 8.87946C15.3939 8.7991 15.2827 8.73059 15.1817 8.69977C15.1557 8.69183 14.7445 8.62633 14.2586 8.55269L13.3824 8.41992L12.9971 7.64463C12.7853 7.21822 12.595 6.84377 12.5743 6.81253C12.4309 6.59617 12.172 6.47727 11.9103 6.50766ZM11.6543 8.25453C11.467 8.62977 11.3002 8.95695 11.2836 8.98158C11.2054 9.09744 11.0704 9.19746 10.9317 9.24223C10.8718 9.26158 10.8645 9.26275 10.0772 9.37772C9.70005 9.43279 9.38717 9.47861 9.38192 9.47954C9.37665 9.48046 9.61723 9.71575 9.91652 10.0024C10.281 10.3515 10.4715 10.5388 10.4935 10.5696C10.5295 10.6201 10.5736 10.7042 10.5895 10.7529C10.6231 10.8555 10.633 11.0073 10.6125 11.1076C10.5954 11.192 10.366 12.56 10.3682 12.5651C10.3692 12.5675 10.5887 12.4537 10.8559 12.312C11.8063 11.8084 11.7488 11.8357 11.9 11.8159C12.0304 11.7989 12.1594 11.8163 12.2795 11.8671C12.3058 11.8782 12.6184 12.0416 12.9741 12.2301C13.3299 12.4186 13.6225 12.5713 13.6243 12.5695C13.6282 12.5656 13.4364 11.2032 13.4263 11.1628C13.4225 11.1476 13.4147 11.1181 13.4089 11.0973C13.3573 10.9097 13.411 10.6511 13.5279 10.5249C13.5497 10.5013 13.8044 10.2569 14.0938 9.98183C14.3832 9.70674 14.6174 9.48091 14.6142 9.48C14.611 9.47909 14.2889 9.43003 13.8985 9.37098C13.5081 9.31192 13.1654 9.25928 13.137 9.25401C13.0824 9.24386 13.0005 9.21666 12.9544 9.19339C12.8627 9.14706 12.758 9.05572 12.7014 8.97272C12.6854 8.94917 12.5198 8.62443 12.3335 8.25108L11.9947 7.57227L11.6543 8.25453ZM16.9567 13.9897C16.6834 14.353 16.2996 14.7496 15.9239 15.057C15.6694 15.2653 15.3838 15.4613 15.0839 15.6334C14.9472 15.7119 14.6648 15.8556 14.5463 15.9071C14.5084 15.9235 14.4763 15.9379 14.475 15.9391C14.4737 15.9402 14.7976 16.5042 15.1949 17.1923C15.5922 17.8804 15.9193 18.4412 15.9219 18.4384C15.9245 18.4356 16.0327 18.0364 16.1625 17.5512C16.2922 17.066 16.4055 16.6501 16.4142 16.6269C16.4228 16.6037 16.4383 16.5713 16.4486 16.5551C16.4958 16.4802 16.5896 16.4058 16.6739 16.3761C16.7337 16.3551 16.8455 16.3498 16.9106 16.3649C16.9369 16.371 17.3507 16.4812 17.8302 16.6098C18.3096 16.7384 18.7022 16.8431 18.7025 16.8425C18.703 16.8416 17.0518 13.9808 17.0221 13.9311C17.0129 13.9157 17.0112 13.9172 16.9567 13.9897ZM6.97609 13.9341C6.9575 13.9642 5.29664 16.8415 5.29725 16.8425C5.29761 16.8431 5.70107 16.7349 6.19381 16.602L7.08971 16.3605L7.18275 16.3597C7.29336 16.3588 7.33788 16.3709 7.41873 16.4238C7.50533 16.4804 7.56055 16.5517 7.59273 16.6484C7.60156 16.6749 7.71328 17.0874 7.84099 17.565C7.9687 18.0426 8.07528 18.4356 8.07784 18.4383C8.08191 18.4427 9.51707 15.9655 9.52093 15.9474C9.52175 15.9436 9.50071 15.9311 9.47418 15.9198C9.38491 15.8817 9.12365 15.7521 9.00818 15.6888C8.67596 15.5064 8.34787 15.2856 8.06711 15.0556C7.70003 14.7548 7.30578 14.3481 7.04797 14.0043C6.98034 13.9141 6.98537 13.919 6.97609 13.9341Z" fill="#000"/>
</svg>
