<svg width="24" height="24" viewBox="0 0 24 24" xmlns="http://www.w3.org/2000/svg">
<path fill-rule="evenodd" clip-rule="evenodd" d="M11.5886 4.00797C9.8229 4.09778 8.14643 4.76559 6.80362 5.91403C6.50904 6.16596 6.16676 6.50825 5.91476 6.80288C4.99963 7.87287 4.38427 9.16356 4.12897 10.5485C4.00605 11.2154 3.96965 11.958 4.02556 12.658C4.15884 14.3265 4.82109 15.9172 5.91476 17.196C6.16397 17.4874 6.52098 17.8445 6.80362 18.0851C7.80645 18.9389 8.98075 19.5263 10.2508 19.8095C10.8363 19.9401 11.3756 19.9983 12.0002 19.9983C12.4329 19.9983 12.7696 19.9746 13.1767 19.9155C14.5582 19.7151 15.9116 19.1251 16.9976 18.2499C17.3846 17.938 17.7716 17.5631 18.0856 17.196C19.1216 15.9847 19.7738 14.4864 19.9506 12.9118C20.0067 12.4127 20.0154 11.8487 19.9748 11.3409C19.8416 9.67342 19.1777 8.0786 18.0857 6.80288C17.8335 6.50833 17.49 6.16479 17.1967 5.91403C16.486 5.30618 15.6815 4.83186 14.8025 4.50245C14.0278 4.21211 13.239 4.05017 12.3912 4.00739C12.2374 3.99963 11.7456 3.99998 11.5886 4.00797ZM11.7532 5.07479C11.2132 5.10004 10.7823 5.16082 10.3171 5.27736C8.79869 5.65778 7.47215 6.52938 6.50008 7.78532C5.86627 8.60423 5.40983 9.61015 5.20579 10.6377C5.11266 11.1067 5.07528 11.4968 5.07528 11.9994C5.07528 12.2884 5.08048 12.4125 5.10277 12.6546C5.21391 13.8624 5.65127 15.0333 6.36352 16.0298C6.5305 16.2634 6.75483 16.5359 6.94186 16.7324L7.00991 16.8039L7.05738 16.7427C7.31806 16.4067 7.6718 16.0453 8.02472 15.7543C8.19578 15.6133 8.43807 15.4392 8.65243 15.3032C9.44665 14.7995 10.3747 14.4754 11.3142 14.3738C11.5857 14.3444 11.6333 14.3422 12.0002 14.3422C12.3673 14.3422 12.4156 14.3444 12.6862 14.3738C13.6161 14.4749 14.5319 14.7917 15.3171 15.2841C15.741 15.5499 16.0829 15.8217 16.4322 16.1704C16.637 16.3749 16.7945 16.5514 16.943 16.7426L16.9904 16.8038L17.0552 16.7358C17.2422 16.5398 17.4699 16.2634 17.6368 16.0298C18.334 15.0544 18.7688 13.9091 18.8909 12.7266C18.9176 12.4674 18.9244 12.3201 18.9244 11.9994C18.9244 11.5505 18.9012 11.2577 18.8327 10.8458C18.6497 9.74473 18.1778 8.66067 17.5003 7.78532C16.5284 6.52959 15.2008 5.65733 13.6832 5.27739C13.2841 5.17745 12.916 5.11943 12.4804 5.08778C12.343 5.07779 11.8698 5.06933 11.7532 5.07479ZM11.7944 6.87568C10.3043 6.95975 9.02744 8.03363 8.68341 9.49206C8.58002 9.93036 8.56552 10.4162 8.64263 10.8588C8.78611 11.6823 9.21822 12.4133 9.87011 12.9354C10.6333 13.5466 11.6065 13.7983 12.5764 13.6354C13.5153 13.4777 14.3508 12.9219 14.8759 12.1058C15.2479 11.5276 15.4364 10.8191 15.403 10.1249C15.3696 9.42848 15.1444 8.79485 14.7345 8.24362C14.4073 7.8036 13.9803 7.45043 13.4854 7.21041C12.9575 6.9544 12.3901 6.84207 11.7944 6.87568ZM11.815 7.94917C11.8018 7.95067 11.7616 7.95521 11.7258 7.95926C10.9365 8.04842 10.2353 8.55224 9.8914 9.27729C9.78615 9.4992 9.72009 9.72363 9.68378 9.98256C9.66661 10.105 9.66664 10.4508 9.68383 10.5719C9.72073 10.8319 9.7856 11.0517 9.89327 11.2815C10.0654 11.6488 10.3629 11.9911 10.7105 12.2219C10.9749 12.3974 11.2944 12.525 11.5954 12.5753C11.7612 12.603 11.8039 12.6063 12.0002 12.6063C12.1964 12.6063 12.2391 12.603 12.4049 12.5753C12.7493 12.5178 13.111 12.3615 13.3962 12.1469C13.6992 11.9189 13.9534 11.6095 14.1071 11.2815C14.2148 11.0517 14.2796 10.8319 14.3165 10.5719C14.3337 10.4508 14.3338 10.105 14.3166 9.98256C14.2799 9.72092 14.2139 9.49778 14.1062 9.27167C13.8263 8.68394 13.3026 8.23248 12.6828 8.04465C12.5524 8.00513 12.457 7.98431 12.302 7.96158C12.2336 7.95153 11.8747 7.94239 11.815 7.94917ZM11.7704 15.4132C10.2215 15.4948 8.8466 16.2049 7.89512 17.4145C7.83047 17.4967 7.81653 17.5183 7.82302 17.5261C7.82743 17.5314 7.86999 17.5641 7.9176 17.5988C8.86646 18.2892 9.96713 18.7264 11.1255 18.873C11.4262 18.9111 11.6517 18.9243 12.0002 18.9243C12.2886 18.9243 12.4131 18.9191 12.6553 18.8969C13.7954 18.7927 14.9179 18.3909 15.8727 17.7452C16.0095 17.6527 16.1651 17.5409 16.1771 17.5264C16.1833 17.519 16.171 17.4991 16.1188 17.432C15.5403 16.688 14.7821 16.1174 13.9191 15.7767C13.4343 15.5853 12.9525 15.4726 12.4187 15.4258C12.305 15.4159 11.8774 15.4075 11.7704 15.4132Z" fill="#000"/>
</svg>
