<svg width="24" height="24" viewBox="0 0 24 24" xmlns="http://www.w3.org/2000/svg">
<path fill-rule="evenodd" clip-rule="evenodd" d="M8.90844 5.28063C9.72841 4.46066 10.8405 4 12.0001 4C13.1598 4 14.2719 4.46066 15.0919 5.28063C15.9118 6.1006 16.3725 7.21273 16.3725 8.37234C16.3725 9.53196 15.9118 10.6441 15.0919 11.4641C14.2719 12.284 13.1598 12.7447 12.0001 12.7447C10.8405 12.7447 9.72841 12.284 8.90844 11.4641C8.08846 10.6441 7.62781 9.53196 7.62781 8.37234C7.62781 7.21273 8.08846 6.1006 8.90844 5.28063ZM12.0001 5.05705C11.1209 5.05705 10.2776 5.40634 9.65588 6.02808C9.03414 6.64981 8.68486 7.49307 8.68486 8.37234C8.68486 9.25161 9.03414 10.0949 9.65588 10.7166C10.2776 11.3383 11.1209 11.6876 12.0001 11.6876C12.8794 11.6876 13.7227 11.3383 14.3444 10.7166C14.9662 10.0949 15.3154 9.25161 15.3154 8.37234C15.3154 7.49307 14.9662 6.64981 14.3444 6.02808C13.7227 5.40634 12.8794 5.05705 12.0001 5.05705Z" fill="#000"/>
<path fill-rule="evenodd" clip-rule="evenodd" d="M12 15.3873C9.06509 15.3873 6.54153 17.1534 5.43631 19.683C5.31945 19.9505 5.00787 20.0726 4.74039 19.9557C4.47291 19.8388 4.35082 19.5272 4.46768 19.2598C5.73505 16.3591 8.62999 14.3303 12 14.3303C15.3699 14.3303 18.2649 16.3591 19.5322 19.2598C19.6491 19.5272 19.527 19.8388 19.2595 19.9557C18.992 20.0725 18.6804 19.9505 18.5636 19.683C17.4584 17.1534 14.9348 15.3873 12 15.3873Z" fill="#000"/>
</svg>
