<svg width="134" height="164" viewBox="0 0 134 164" fill="none" xmlns="http://www.w3.org/2000/svg">
<path d="M98.3782 149.987C98.4956 150.032 98.5965 150.112 98.667 150.217C98.7376 150.321 98.7744 150.445 98.7725 150.572C98.7706 150.698 98.73 150.821 98.6563 150.923C98.5826 151.026 98.4794 151.103 98.3607 151.144C98.0472 151.298 97.7024 151.375 97.3539 151.37C97.0055 151.365 96.6631 151.277 96.3545 151.114C96.2371 151.069 96.1362 150.989 96.0657 150.884C95.9951 150.78 95.9583 150.656 95.9602 150.529C95.9621 150.403 96.0027 150.28 96.0764 150.177C96.1501 150.075 96.2533 149.998 96.3721 149.956C96.6855 149.803 97.0303 149.726 97.3788 149.731C97.7273 149.736 98.0696 149.824 98.3782 149.987V149.987Z" fill="#065566"/>
<path d="M103.656 147.018C103.773 147.062 103.874 147.143 103.944 147.247C104.015 147.352 104.052 147.476 104.05 147.602C104.048 147.729 104.007 147.852 103.934 147.954C103.86 148.057 103.757 148.134 103.638 148.175C103.325 148.329 102.98 148.406 102.631 148.401C102.283 148.395 101.94 148.308 101.632 148.145C101.514 148.1 101.414 148.02 101.343 147.915C101.272 147.81 101.236 147.686 101.238 147.56C101.239 147.433 101.28 147.31 101.354 147.208C101.427 147.106 101.531 147.028 101.649 146.987C101.963 146.834 102.308 146.756 102.656 146.762C103.005 146.767 103.347 146.855 103.656 147.018V147.018Z" fill="#065566"/>
<path d="M91.1689 146.829C91.4824 146.675 91.8272 146.598 92.1757 146.603C92.5241 146.608 92.8665 146.696 93.1751 146.859C93.2925 146.904 93.3934 146.984 93.4639 147.089C93.5345 147.193 93.5713 147.317 93.5694 147.444C93.5675 147.57 93.5269 147.693 93.4532 147.796C93.3795 147.898 93.2763 147.975 93.1575 148.016C92.8451 148.173 92.4998 148.253 92.1507 148.247C91.8016 148.242 91.4589 148.152 91.1514 147.986C91.034 147.941 90.9331 147.861 90.8626 147.756C90.792 147.652 90.7552 147.528 90.7571 147.401C90.759 147.275 90.7996 147.152 90.8733 147.049C90.947 146.947 91.0502 146.87 91.1689 146.829Z" fill="#065566"/>
<path d="M98.4681 143.89C98.5855 143.935 98.6863 144.015 98.7569 144.119C98.8274 144.224 98.8643 144.348 98.8623 144.475C98.8604 144.601 98.8198 144.724 98.7462 144.826C98.6725 144.929 98.5692 145.006 98.4505 145.047C98.1371 145.201 97.7922 145.278 97.4438 145.273C97.0953 145.267 96.753 145.18 96.4443 145.017C96.3269 144.972 96.2261 144.892 96.1555 144.787C96.085 144.682 96.0481 144.558 96.0501 144.432C96.052 144.305 96.0926 144.182 96.1663 144.08C96.2399 143.978 96.3432 143.9 96.4619 143.859C96.7753 143.706 97.1202 143.628 97.4686 143.634C97.8171 143.639 98.1594 143.727 98.4681 143.89Z" fill="#065566"/>
<path d="M85.9814 143.701C86.2949 143.547 86.6397 143.47 86.9882 143.475C87.3366 143.48 87.679 143.568 87.9876 143.731C88.105 143.776 88.2059 143.856 88.2764 143.961C88.347 144.065 88.3838 144.189 88.3819 144.316C88.38 144.442 88.3394 144.565 88.2657 144.668C88.192 144.77 88.0888 144.847 87.9701 144.888C87.6557 145.039 87.3113 145.114 86.9634 145.109C86.6155 145.104 86.2735 145.018 85.9639 144.858C85.8465 144.813 85.7456 144.733 85.6751 144.628C85.6045 144.524 85.5677 144.4 85.5696 144.273C85.5715 144.147 85.6121 144.024 85.6858 143.921C85.7595 143.819 85.8627 143.742 85.9814 143.701Z" fill="#065566"/>
<path d="M93.2686 140.762C93.386 140.807 93.4869 140.887 93.5575 140.992C93.628 141.096 93.6648 141.22 93.6629 141.347C93.661 141.473 93.6204 141.596 93.5467 141.699C93.473 141.801 93.3698 141.878 93.2511 141.919C92.9405 142.074 92.5979 142.152 92.2516 142.147C91.9052 142.142 91.5651 142.053 91.2595 141.889C90.6974 141.558 90.7052 141.046 91.277 140.732C91.5875 140.577 91.9302 140.499 92.2765 140.504C92.6228 140.51 92.9629 140.598 93.2686 140.762Z" fill="#065566"/>
<path d="M80.7818 140.572C81.0952 140.419 81.44 140.341 81.7885 140.347C82.137 140.352 82.4793 140.44 82.7879 140.603C82.9053 140.648 83.0062 140.728 83.0767 140.832C83.1473 140.937 83.1841 141.061 83.1822 141.188C83.1803 141.314 83.1397 141.437 83.066 141.539C82.9923 141.642 82.8891 141.719 82.7704 141.76C82.4569 141.914 82.1121 141.991 81.7636 141.986C81.4152 141.98 81.0728 141.893 80.7642 141.73C80.2164 141.414 80.2244 140.886 80.7818 140.572Z" fill="#065566"/>
<path d="M88.0223 137.633C88.57 137.949 88.562 138.476 88.0047 138.79C87.6913 138.944 87.3465 139.021 86.998 139.016C86.6495 139.011 86.3072 138.923 85.9986 138.76C85.451 138.429 85.459 137.902 86.0161 137.603C86.3296 137.449 86.6744 137.372 87.0229 137.377C87.3713 137.382 87.7137 137.47 88.0223 137.633V137.633Z" fill="#065566"/>
<path d="M75.5908 137.444C75.9042 137.291 76.2491 137.213 76.5975 137.219C76.946 137.224 77.2884 137.312 77.597 137.475C77.7144 137.519 77.8152 137.6 77.8858 137.704C77.9563 137.809 77.9932 137.933 77.9913 138.059C77.9893 138.186 77.9488 138.309 77.8751 138.411C77.8014 138.514 77.6981 138.591 77.5794 138.632C77.266 138.786 76.9211 138.863 76.5727 138.858C76.2242 138.852 75.8819 138.765 75.5733 138.602C75.4558 138.557 75.355 138.477 75.2844 138.372C75.2139 138.267 75.1771 138.143 75.179 138.017C75.1809 137.89 75.2215 137.767 75.2952 137.665C75.3689 137.563 75.4721 137.485 75.5908 137.444Z" fill="#065566"/>
<path d="M82.8917 134.491C83.0144 134.533 83.1207 134.613 83.1954 134.719C83.2701 134.826 83.3092 134.953 83.3073 135.084C83.3053 135.214 83.2622 135.34 83.1844 135.444C83.1065 135.549 82.9978 135.625 82.874 135.663C82.5605 135.817 82.2157 135.894 81.8672 135.889C81.5188 135.883 81.1764 135.796 80.8678 135.633C80.7452 135.591 80.6389 135.511 80.5642 135.405C80.4895 135.298 80.4503 135.171 80.4523 135.04C80.4543 134.91 80.4973 134.783 80.5752 134.679C80.6531 134.575 80.7618 134.499 80.8856 134.461C81.199 134.307 81.5439 134.23 81.8923 134.235C82.2408 134.24 82.5831 134.328 82.8917 134.491V134.491Z" fill="#065566"/>
<path d="M70.3463 134.286C70.6587 134.129 71.004 134.05 71.3531 134.055C71.7022 134.06 72.0449 134.15 72.3524 134.317C72.4751 134.358 72.5814 134.438 72.6561 134.545C72.7308 134.651 72.7699 134.779 72.768 134.909C72.766 135.039 72.7229 135.166 72.6451 135.27C72.5672 135.374 72.4585 135.451 72.3347 135.489C72.0241 135.643 71.6815 135.721 71.3352 135.716C70.9888 135.711 70.6487 135.623 70.343 135.458C69.7812 135.113 69.789 134.6 70.3463 134.286Z" fill="#065566"/>
<path d="M76.6235 132.724C77.4023 132.736 78.0392 132.378 78.0461 131.925C78.053 131.472 77.4272 131.095 76.6484 131.083C75.8696 131.072 75.2327 131.429 75.2258 131.882C75.219 132.335 75.8447 132.712 76.6235 132.724Z" fill="#065566"/>
<path d="M65.159 131.144C65.4724 130.99 65.8173 130.913 66.1658 130.918C66.5142 130.923 66.8566 131.011 67.1652 131.174C67.2878 131.216 67.3941 131.296 67.4688 131.402C67.5435 131.509 67.5827 131.636 67.5807 131.767C67.5787 131.897 67.5357 132.023 67.4578 132.128C67.3799 132.232 67.2712 132.308 67.1474 132.346C66.834 132.5 66.4891 132.577 66.1407 132.572C65.7922 132.567 65.4499 132.479 65.1412 132.316C65.0186 132.274 64.9123 132.194 64.8376 132.088C64.7629 131.981 64.7238 131.854 64.7257 131.723C64.7277 131.593 64.7707 131.467 64.8486 131.362C64.9265 131.258 65.0352 131.182 65.159 131.144Z" fill="#065566"/>
<path d="M72.4621 128.205C72.5847 128.247 72.691 128.327 72.7657 128.433C72.8404 128.54 72.8795 128.668 72.8776 128.798C72.8756 128.928 72.8326 129.055 72.7547 129.159C72.6768 129.263 72.5681 129.34 72.4443 129.377C72.1309 129.531 71.786 129.608 71.4375 129.603C71.0891 129.598 70.7467 129.51 70.4381 129.347C70.3155 129.305 70.2092 129.226 70.1345 129.119C70.0598 129.013 70.0206 128.885 70.0226 128.755C70.0246 128.624 70.0676 128.498 70.1455 128.394C70.2234 128.289 70.3321 128.213 70.4559 128.175C70.7693 128.021 71.1142 127.944 71.4626 127.949C71.8111 127.955 72.1534 128.042 72.4621 128.205V128.205Z" fill="#065566"/>
<path d="M59.9599 128.016C60.2733 127.862 60.6182 127.785 60.9667 127.79C61.3151 127.795 61.6575 127.883 61.9661 128.046C62.5136 128.377 62.5202 128.904 61.9483 129.218C61.6349 129.372 61.29 129.449 60.9416 129.444C60.5931 129.438 60.2508 129.351 59.9421 129.188C59.4091 128.857 59.4026 128.33 59.9599 128.016Z" fill="#065566"/>
<path d="M66.2368 126.468C67.0156 126.48 67.6525 126.122 67.6594 125.669C67.6662 125.216 67.0405 124.839 66.2617 124.828C65.4829 124.816 64.846 125.173 64.8391 125.627C64.8322 126.08 65.458 126.457 66.2368 126.468Z" fill="#065566"/>
<path d="M54.7723 124.888C55.0857 124.734 55.4306 124.657 55.779 124.662C56.1275 124.668 56.4699 124.755 56.7785 124.918C56.9011 124.96 57.0074 125.04 57.0821 125.146C57.1568 125.253 57.196 125.38 57.194 125.511C57.192 125.641 57.149 125.768 57.0711 125.872C56.9932 125.976 56.8845 126.052 56.7607 126.09C56.4473 126.244 56.1024 126.321 55.754 126.316C55.4055 126.311 55.0631 126.223 54.7545 126.06C54.6319 126.018 54.5256 125.938 54.4509 125.832C54.3762 125.726 54.337 125.598 54.339 125.467C54.341 125.337 54.384 125.211 54.4619 125.107C54.5398 125.002 54.6485 124.926 54.7723 124.888Z" fill="#065566"/>
<path d="M62.0892 121.92C62.2066 121.965 62.3074 122.045 62.378 122.15C62.4485 122.254 62.4854 122.378 62.4834 122.505C62.4815 122.631 62.441 122.754 62.3673 122.857C62.2936 122.959 62.1903 123.036 62.0716 123.077C61.7582 123.231 61.4133 123.308 61.0649 123.303C60.7164 123.298 60.3741 123.21 60.0654 123.047C59.948 123.002 59.8472 122.922 59.7766 122.817C59.7061 122.713 59.6692 122.589 59.6712 122.462C59.6731 122.336 59.7137 122.213 59.7873 122.11C59.861 122.008 59.9643 121.931 60.083 121.89C60.3964 121.736 60.7413 121.659 61.0897 121.664C61.4382 121.669 61.7805 121.757 62.0892 121.92Z" fill="#065566"/>
<path d="M56.804 119.711C56.9214 119.755 57.0223 119.835 57.0928 119.94C57.1634 120.045 57.2002 120.169 57.1983 120.295C57.1964 120.422 57.1558 120.545 57.0821 120.647C57.0084 120.75 56.9052 120.827 56.7864 120.868C56.473 121.021 56.1282 121.099 55.7797 121.093C55.4312 121.088 55.0889 121 54.7803 120.837C54.6629 120.793 54.562 120.712 54.4915 120.608C54.4209 120.503 54.3841 120.379 54.386 120.253C54.3879 120.126 54.4285 120.003 54.5022 119.901C54.5759 119.798 54.6791 119.721 54.7978 119.68C55.1113 119.526 55.4561 119.449 55.8046 119.454C56.153 119.46 56.4954 119.547 56.804 119.711Z" fill="#065566"/>
<path d="M51.5384 116.436C51.6558 116.481 51.7566 116.561 51.8272 116.666C51.8978 116.77 51.9346 116.894 51.9327 117.021C51.9307 117.147 51.8902 117.27 51.8165 117.373C51.7428 117.475 51.6395 117.552 51.5208 117.593C51.2074 117.747 50.8626 117.824 50.5141 117.819C50.1656 117.814 49.8233 117.726 49.5147 117.563C49.3972 117.518 49.2964 117.438 49.2258 117.333C49.1553 117.229 49.1185 117.105 49.1204 116.978C49.1223 116.852 49.1629 116.729 49.2366 116.626C49.3103 116.524 49.4135 116.447 49.5322 116.406C49.8456 116.252 50.1905 116.175 50.539 116.18C50.8874 116.185 51.2298 116.273 51.5384 116.436Z" fill="#065566"/>
<path d="M46.2727 113.162C46.3902 113.206 46.491 113.287 46.5616 113.391C46.6321 113.496 46.6689 113.62 46.667 113.746C46.6651 113.873 46.6245 113.996 46.5508 114.098C46.4771 114.201 46.3739 114.278 46.2552 114.319C45.9418 114.473 45.5969 114.55 45.2485 114.545C44.9 114.539 44.5577 114.452 44.249 114.289C44.1316 114.244 44.0308 114.164 43.9602 114.059C43.8897 113.954 43.8528 113.83 43.8548 113.704C43.8567 113.577 43.8972 113.454 43.9709 113.352C44.0446 113.25 44.1479 113.172 44.2666 113.131C44.58 112.978 44.9249 112.9 45.2733 112.906C45.6218 112.911 45.9641 112.999 46.2727 113.162Z" fill="#065566"/>
<path d="M41.0032 109.887C41.1206 109.932 41.2215 110.012 41.292 110.117C41.3626 110.222 41.3994 110.346 41.3975 110.472C41.3956 110.599 41.355 110.721 41.2813 110.824C41.2076 110.926 41.1044 111.003 40.9857 111.045C40.6722 111.198 40.3274 111.276 39.9789 111.27C39.6305 111.265 39.2881 111.177 38.9795 111.014C38.8621 110.969 38.7612 110.889 38.6907 110.785C38.6201 110.68 38.5833 110.556 38.5852 110.429C38.5871 110.303 38.6277 110.18 38.7014 110.078C38.7751 109.975 38.8783 109.898 38.9971 109.857C39.3105 109.703 39.6553 109.626 40.0038 109.631C40.3523 109.636 40.6946 109.724 41.0032 109.887Z" fill="#065566"/>
<path d="M35.7376 106.613C35.855 106.658 35.9559 106.738 36.0264 106.843C36.097 106.948 36.1338 107.072 36.1319 107.198C36.13 107.325 36.0894 107.447 36.0157 107.55C35.942 107.652 35.8388 107.729 35.72 107.771C35.4066 107.924 35.0618 108.002 34.7133 107.996C34.3648 107.991 34.0225 107.903 33.7139 107.74C33.5965 107.695 33.4956 107.615 33.4251 107.511C33.3545 107.406 33.3177 107.282 33.3196 107.155C33.3215 107.029 33.3621 106.906 33.4358 106.804C33.5095 106.701 33.6127 106.624 33.7314 106.583C34.0449 106.429 34.3897 106.352 34.7382 106.357C35.0866 106.363 35.429 106.45 35.7376 106.613Z" fill="#065566"/>
<path d="M30.472 103.339C30.5894 103.384 30.6902 103.464 30.7608 103.569C30.8313 103.673 30.8682 103.797 30.8663 103.924C30.8643 104.05 30.8238 104.173 30.7501 104.276C30.6764 104.378 30.5731 104.455 30.4544 104.496C30.141 104.65 29.7961 104.727 29.4477 104.722C29.0992 104.717 28.7569 104.629 28.4483 104.466C28.3308 104.421 28.23 104.341 28.1594 104.236C28.0889 104.132 28.0521 104.008 28.054 103.881C28.0559 103.755 28.0965 103.632 28.1702 103.529C28.2439 103.427 28.3471 103.35 28.4658 103.309C28.7792 103.155 29.1241 103.078 29.4725 103.083C29.821 103.088 30.1634 103.176 30.472 103.339Z" fill="#065566"/>
<path d="M25.2063 100.065C25.3238 100.109 25.4246 100.189 25.4952 100.294C25.5657 100.399 25.6025 100.523 25.6006 100.649C25.5987 100.776 25.5581 100.899 25.4844 101.001C25.4107 101.104 25.3075 101.181 25.1888 101.222C24.8754 101.375 24.5305 101.453 24.1821 101.447C23.8336 101.442 23.4912 101.354 23.1826 101.191C23.0652 101.147 22.9644 101.066 22.8938 100.962C22.8233 100.857 22.7864 100.733 22.7883 100.607C22.7903 100.48 22.8308 100.357 22.9045 100.255C22.9782 100.152 23.0815 100.075 23.2002 100.034C23.5136 99.8804 23.8585 99.8032 24.2069 99.8084C24.5554 99.8137 24.8977 99.9014 25.2063 100.065Z" fill="#065566"/>
<path d="M19.9407 96.7906C20.0581 96.8354 20.159 96.9156 20.2295 97.0202C20.3001 97.1248 20.3369 97.2488 20.335 97.3754C20.3331 97.5019 20.2925 97.6247 20.2188 97.7272C20.1451 97.8296 20.0419 97.9067 19.9232 97.9479C19.6097 98.1015 19.2649 98.1788 18.9164 98.1735C18.568 98.1683 18.2256 98.0805 17.917 97.9175C17.7996 97.8727 17.6987 97.7925 17.6282 97.6879C17.5576 97.5832 17.5208 97.4592 17.5227 97.3327C17.5246 97.2062 17.5652 97.0833 17.6389 96.9809C17.7126 96.8784 17.8158 96.8014 17.9346 96.7602C18.248 96.6065 18.5928 96.5292 18.9413 96.5345C19.2898 96.5398 19.6321 96.6275 19.9407 96.7906Z" fill="#065566"/>
<path d="M15.7376 93.5323C15.855 93.5771 15.9559 93.6573 16.0264 93.7619C16.097 93.8665 16.1338 93.9905 16.1319 94.1171C16.13 94.2436 16.0894 94.3664 16.0157 94.4689C15.942 94.5713 15.8388 94.6484 15.72 94.6896C15.4066 94.8432 15.0618 94.9205 14.7133 94.9152C14.3648 94.91 14.0225 94.8222 13.7139 94.6592C13.5965 94.6144 13.4956 94.5342 13.4251 94.4296C13.3545 94.3249 13.3177 94.2009 13.3196 94.0744C13.3215 93.9479 13.3621 93.825 13.4358 93.7226C13.5095 93.6201 13.6127 93.5431 13.7314 93.5019C14.0449 93.3482 14.3897 93.2709 14.7382 93.2762C15.0866 93.2815 15.429 93.3692 15.7376 93.5323Z" fill="#065566"/>
<path d="M49.5844 121.731C49.8949 121.576 50.2375 121.498 50.5839 121.503C50.9302 121.508 51.2703 121.597 51.576 121.761C52.1381 122.092 52.1301 122.619 51.5582 122.933C51.2448 123.086 50.9 123.164 50.5515 123.158C50.203 123.153 49.8607 123.065 49.5521 122.902C49.4299 122.859 49.3246 122.778 49.2512 122.671C49.1778 122.563 49.1402 122.435 49.1438 122.305C49.1474 122.174 49.192 122.048 49.2712 121.945C49.3504 121.842 49.4601 121.767 49.5844 121.731V121.731Z" fill="#065566"/>
<path d="M44.3188 118.456C44.6293 118.301 44.9719 118.223 45.3183 118.229C45.6646 118.234 46.0047 118.322 46.3104 118.486C46.8725 118.817 46.8645 119.345 46.2926 119.658C45.9792 119.812 45.6343 119.889 45.2859 119.884C44.9374 119.879 44.5951 119.791 44.2865 119.628C44.1643 119.585 44.059 119.504 43.9856 119.396C43.9122 119.289 43.8746 119.161 43.8782 119.03C43.8818 118.9 43.9264 118.774 44.0056 118.671C44.0848 118.568 44.1944 118.492 44.3188 118.456V118.456Z" fill="#065566"/>
<path d="M39.0375 116.247C39.3481 116.092 39.6907 116.014 40.037 116.019C40.3833 116.024 40.7234 116.113 41.0291 116.277C41.5912 116.608 41.5832 117.135 41.0114 117.449C40.6979 117.602 40.3531 117.68 40.0046 117.674C39.6562 117.669 39.3138 117.581 39.0052 117.418C38.8831 117.375 38.7777 117.294 38.7043 117.187C38.6309 117.079 38.5933 116.951 38.5969 116.821C38.6005 116.69 38.6451 116.564 38.7243 116.461C38.8035 116.358 38.9132 116.283 39.0375 116.247V116.247Z" fill="#065566"/>
<path d="M33.768 112.972C34.0785 112.818 34.4211 112.74 34.7675 112.745C35.1138 112.75 35.4539 112.838 35.7596 113.002C36.3217 113.333 36.3137 113.861 35.7418 114.174C35.4284 114.328 35.0836 114.405 34.7351 114.4C34.3866 114.395 34.0443 114.307 33.7357 114.144C33.6135 114.101 33.5082 114.02 33.4348 113.912C33.3614 113.805 33.3238 113.677 33.3274 113.546C33.331 113.416 33.3756 113.29 33.4548 113.187C33.534 113.084 33.6437 113.009 33.768 112.972V112.972Z" fill="#065566"/>
<path d="M28.5024 109.698C28.8129 109.543 29.1555 109.465 29.5019 109.47C29.8482 109.476 30.1883 109.564 30.494 109.728C31.0561 110.059 31.0481 110.586 30.4762 110.9C30.1628 111.054 29.8179 111.131 29.4695 111.126C29.121 111.12 28.7787 111.033 28.47 110.87C28.3479 110.826 28.2426 110.745 28.1692 110.638C28.0958 110.53 28.0582 110.402 28.0618 110.272C28.0654 110.142 28.11 110.016 28.1892 109.912C28.2684 109.809 28.378 109.734 28.5024 109.698V109.698Z" fill="#065566"/>
<path d="M23.2367 106.423C23.5473 106.269 23.8899 106.191 24.2362 106.196C24.5826 106.201 24.9227 106.29 25.2284 106.454C25.7904 106.784 25.7824 107.312 25.2106 107.626C24.8972 107.779 24.5523 107.857 24.2039 107.851C23.8554 107.846 23.513 107.758 23.2044 107.595C23.0823 107.552 22.9769 107.471 22.9035 107.363C22.8302 107.256 22.7926 107.128 22.7962 106.997C22.7998 106.867 22.8444 106.741 22.9236 106.638C23.0027 106.535 23.1124 106.46 23.2367 106.423V106.423Z" fill="#065566"/>
<path d="M17.9711 103.149C18.2816 102.995 18.6243 102.917 18.9706 102.922C19.3169 102.927 19.657 103.016 19.9627 103.18C20.5248 103.511 20.5168 104.038 19.945 104.352C19.6315 104.505 19.2867 104.583 18.9382 104.577C18.5898 104.572 18.2474 104.484 17.9388 104.321C17.8167 104.278 17.7113 104.197 17.6379 104.089C17.5645 103.982 17.5269 103.854 17.5305 103.724C17.5341 103.593 17.5787 103.467 17.6579 103.364C17.7371 103.261 17.8468 103.186 17.9711 103.149V103.149Z" fill="#065566"/>
<path d="M12.7016 99.875C13.0121 99.7203 13.3547 99.6424 13.7011 99.6476C14.0474 99.6529 14.3875 99.7412 14.6932 99.9053C15.2553 100.236 15.2473 100.764 14.6754 101.077C14.362 101.231 14.0172 101.308 13.6687 101.303C13.3202 101.298 12.9779 101.21 12.6693 101.047C12.5471 101.004 12.4418 100.923 12.3684 100.815C12.295 100.708 12.2574 100.58 12.261 100.449C12.2646 100.319 12.3092 100.193 12.3884 100.09C12.4676 99.9865 12.5773 99.9113 12.7016 99.875V99.875Z" fill="#065566"/>
<path d="M8.50237 96.6172C8.8129 96.4625 9.15552 96.3846 9.50186 96.3898C9.84819 96.3951 10.1883 96.4834 10.494 96.6474C11.0561 96.9783 11.0481 97.5057 10.4762 97.8194C10.1628 97.9731 9.81794 98.0504 9.46948 98.0451C9.12101 98.0398 8.77867 97.9521 8.47005 97.789C8.34792 97.7458 8.24255 97.6647 8.16917 97.5573C8.09579 97.4498 8.05818 97.3217 8.06178 97.1913C8.06538 97.0609 8.10999 96.9351 8.18918 96.8319C8.26837 96.7287 8.37804 96.6535 8.50237 96.6172V96.6172Z" fill="#065566"/>
<path d="M117.343 161.988C117.657 161.834 118.001 161.757 118.35 161.762C118.698 161.768 119.041 161.855 119.349 162.018C119.472 162.06 119.578 162.14 119.653 162.246C119.728 162.353 119.767 162.481 119.765 162.611C119.763 162.741 119.72 162.868 119.642 162.972C119.564 163.076 119.455 163.153 119.331 163.19C119.021 163.345 118.678 163.423 118.332 163.418C117.986 163.413 117.646 163.324 117.34 163.16C116.72 162.828 116.727 162.33 117.343 161.988Z" fill="#065566"/>
<path d="M124.644 159.049C124.761 159.094 124.862 159.174 124.933 159.279C125.003 159.384 125.04 159.508 125.038 159.634C125.036 159.761 124.996 159.884 124.922 159.986C124.848 160.088 124.745 160.166 124.626 160.207C124.313 160.36 123.968 160.438 123.62 160.432C123.271 160.427 122.929 160.339 122.62 160.176C122.503 160.132 122.402 160.051 122.331 159.947C122.261 159.842 122.224 159.718 122.226 159.592C122.228 159.465 122.268 159.342 122.342 159.24C122.416 159.137 122.519 159.06 122.638 159.019C122.951 158.865 123.296 158.788 123.644 158.793C123.993 158.799 124.335 158.886 124.644 159.049V159.049Z" fill="#065566"/>
<path d="M112.159 158.86C112.472 158.706 112.817 158.629 113.166 158.634C113.514 158.64 113.857 158.727 114.165 158.891C114.288 158.932 114.394 159.012 114.469 159.118C114.544 159.225 114.583 159.353 114.581 159.483C114.579 159.613 114.536 159.74 114.458 159.844C114.38 159.948 114.271 160.025 114.147 160.063C113.834 160.216 113.489 160.293 113.141 160.288C112.792 160.283 112.45 160.195 112.141 160.032C112.019 159.99 111.912 159.911 111.838 159.804C111.763 159.698 111.724 159.57 111.726 159.44C111.728 159.309 111.771 159.183 111.849 159.079C111.927 158.975 112.035 158.898 112.159 158.86V158.86Z" fill="#065566"/>
<path d="M119.456 155.921C119.574 155.966 119.675 156.046 119.745 156.151C119.816 156.256 119.853 156.38 119.851 156.506C119.849 156.633 119.808 156.756 119.734 156.858C119.661 156.961 119.558 157.038 119.439 157.079C119.125 157.232 118.781 157.31 118.432 157.305C118.084 157.299 117.741 157.211 117.433 157.048C117.315 157.004 117.214 156.923 117.144 156.819C117.073 156.714 117.036 156.59 117.038 156.464C117.04 156.337 117.081 156.214 117.155 156.112C117.228 156.009 117.331 155.932 117.45 155.891C117.764 155.737 118.108 155.66 118.457 155.665C118.805 155.671 119.148 155.758 119.456 155.921V155.921Z" fill="#065566"/>
<path d="M106.956 155.732C107.269 155.578 107.614 155.501 107.963 155.506C108.311 155.512 108.654 155.599 108.962 155.762C109.51 156.093 109.516 156.606 108.945 156.92C108.631 157.073 108.286 157.151 107.938 157.145C107.589 157.14 107.247 157.052 106.938 156.889C106.405 156.573 106.399 156.046 106.956 155.732Z" fill="#065566"/>
<path d="M114.257 152.794C114.375 152.838 114.475 152.919 114.546 153.023C114.616 153.128 114.653 153.252 114.651 153.378C114.649 153.505 114.609 153.628 114.535 153.73C114.462 153.833 114.358 153.91 114.24 153.951C113.926 154.105 113.581 154.182 113.233 154.177C112.884 154.171 112.542 154.084 112.233 153.92C112.116 153.876 112.015 153.795 111.945 153.691C111.874 153.586 111.837 153.462 111.839 153.336C111.841 153.209 111.882 153.086 111.955 152.984C112.029 152.881 112.132 152.804 112.251 152.763C112.564 152.609 112.909 152.532 113.258 152.537C113.606 152.543 113.948 152.63 114.257 152.794V152.794Z" fill="#065566"/>
<path d="M101.77 152.604C102.084 152.45 102.429 152.373 102.777 152.378C103.126 152.384 103.468 152.471 103.777 152.634C103.894 152.679 103.995 152.759 104.065 152.864C104.136 152.969 104.173 153.093 104.171 153.219C104.169 153.346 104.128 153.469 104.055 153.571C103.981 153.673 103.878 153.75 103.759 153.792C103.445 153.942 103.1 154.017 102.752 154.012C102.405 154.007 102.063 153.921 101.753 153.761C101.636 153.716 101.535 153.636 101.464 153.532C101.394 153.427 101.357 153.303 101.359 153.176C101.361 153.05 101.401 152.927 101.475 152.825C101.549 152.722 101.652 152.645 101.77 152.604V152.604Z" fill="#065566"/>
<path d="M109.07 149.666C109.187 149.71 109.288 149.791 109.358 149.895C109.429 150 109.466 150.124 109.464 150.25C109.462 150.377 109.421 150.5 109.348 150.602C109.274 150.705 109.171 150.782 109.052 150.823C108.739 150.977 108.394 151.054 108.045 151.049C107.697 151.043 107.355 150.956 107.046 150.793C106.929 150.748 106.828 150.668 106.757 150.563C106.687 150.458 106.65 150.334 106.652 150.208C106.654 150.081 106.694 149.958 106.768 149.856C106.842 149.753 106.945 149.676 107.063 149.635C107.377 149.482 107.722 149.404 108.07 149.41C108.419 149.415 108.761 149.503 109.07 149.666V149.666Z" fill="#065566"/>
<path d="M125.825 156.471L23.3415 90.1159C21.958 89.371 20.8938 87.2427 20.8938 85.4335L18.875 5.84878C18.875 4.13025 24.0864 2.54667 25.4698 3.39801L128.16 60.2939C129.544 61.0389 130.608 63.1672 130.608 64.9764L131.672 152.653C131.672 154.462 127.102 157.323 125.825 156.471Z" fill="url(#paint0_linear_2924_41073)"/>
<path fill-rule="evenodd" clip-rule="evenodd" d="M18.8775 5.84892C18.8775 4.13039 24.0889 1.48262 25.4723 2.33397L128.163 60.2941C129.546 61.039 130.61 63.1674 130.61 64.9765L131.675 152.653C131.675 154.462 127.105 157.323 125.828 156.471L23.344 90.1161C21.9605 89.3711 20.8964 87.2428 20.8964 85.4337L18.8775 5.84892ZM19.3001 85.4554L17.2812 5.86916V5.84892C17.2812 4.61546 18.1678 3.77836 18.765 3.33726C19.449 2.83209 20.3062 2.43423 21.14 2.14932C21.9824 1.86146 22.8939 0.593004 23.7288 0.525062C24.4546 0.465991 25.4678 0.476725 26.2702 0.951109L128.92 58.8886C128.923 58.8903 128.926 58.8921 128.929 58.8938C129.993 59.4702 130.797 60.4817 131.324 61.5047C131.861 62.5448 132.205 63.7741 132.207 64.9657C132.207 64.9693 132.207 64.9729 132.207 64.9765L133.271 152.643V152.653C133.271 153.709 132.653 154.604 132.139 155.187C131.57 155.833 130.836 156.426 130.092 156.904C129.349 157.38 128.518 157.791 127.725 158.021C127.33 158.136 126.891 158.222 126.447 158.222C126.017 158.223 125.463 158.142 124.954 157.808C124.95 157.805 124.946 157.802 124.942 157.8L22.5243 91.487C21.4868 90.9061 20.7013 89.9114 20.1826 88.9055C19.6479 87.8685 19.3043 86.6436 19.3001 85.4554Z" fill="#065566"/>
<path d="M123.903 155.526L19.0843 94.3726C17.7009 93.6277 16.6367 91.4993 16.6367 89.6902V5.82102C16.6367 4.01191 18.0232 3.37337 19.4067 4.22472L123.903 64.5506C125.287 65.2955 126.351 67.4239 126.351 69.233V153.717C126.351 155.526 125.18 156.377 123.903 155.526Z" fill="#F7F8FA"/>
<path d="M124.991 157.443C124.338 157.443 123.848 157.28 123.195 156.953L21.4923 97.2587C19.207 95.9528 17.4114 92.5248 17.4114 89.5865L16.1055 7.12881C16.1055 5.49642 16.7584 4.19051 17.7379 3.53755C18.5541 3.04784 19.6967 3.04784 20.8394 3.70079L123.606 63.3951C125.892 64.701 126.623 68.129 126.623 71.0673L127.929 153.362C127.929 154.994 127.276 156.3 126.297 156.953C125.97 157.28 125.48 157.443 124.991 157.443ZM19.0438 4.35375C18.8805 4.35375 18.554 4.35375 18.3908 4.51699C17.7379 4.84346 17.4114 5.8229 17.4114 6.96557L18.7173 89.26C18.7173 91.7086 20.3497 94.8101 22.1453 95.7896L123.848 155.484C124.338 155.81 124.991 155.974 125.644 155.647C126.297 155.321 126.623 154.341 126.623 153.199L125.317 71.0673C125.317 68.6187 124.749 65.5172 122.953 64.5377L20.1864 4.84346C19.86 4.51699 19.5335 4.35375 19.0438 4.35375Z" fill="#065566"/>
<path d="M73.9984 54.5166L24.0883 25.6774C22.9178 25.0389 22.0664 23.2298 22.0664 21.7399C22.0664 20.2501 23.0242 19.5051 24.0883 20.1436L73.9984 48.9829C75.169 49.6214 76.0203 51.4305 76.0203 52.9204C76.1267 54.4102 75.169 55.1551 73.9984 54.5166Z" fill="#F2F5FA"/>
<path d="M73.5723 52.6011C73.253 52.6011 72.9338 52.4947 72.5081 52.2819L22.5981 23.4426C21.321 22.6977 20.3633 20.8886 20.3633 19.1859C20.3633 18.2281 20.6825 17.4832 21.321 17.164C21.8531 16.8447 22.4916 16.9511 23.1301 17.2704L73.0402 46.1096C74.3172 46.8546 75.275 48.7701 75.275 50.3664C75.275 51.3241 74.9557 52.0691 74.3172 52.3883C74.1044 52.4947 73.8915 52.6011 73.5723 52.6011ZM22.066 17.8025C21.9596 17.8025 21.8531 17.8025 21.7467 17.9089C21.4275 18.0153 21.2146 18.5474 21.2146 19.1859C21.2146 20.5693 22.066 22.1656 23.0237 22.6977L72.9338 51.537C73.1466 51.6434 73.5723 51.8562 73.8915 51.6434C74.2108 51.4305 74.4236 51.0049 74.4236 50.3664C74.4236 48.9829 73.5723 47.3867 72.6145 46.8546L22.5981 18.0153C22.4916 17.9089 22.2788 17.8025 22.066 17.8025Z" fill="#065566"/>
<path d="M73.9984 64.9458L24.0883 36.1066C22.9178 35.4681 22.0664 33.659 22.0664 32.1691C22.0664 30.6793 23.0242 29.9343 24.0883 30.5728L73.9984 59.5185C75.169 60.157 76.0203 61.9661 76.0203 63.456C76.1267 64.9458 75.169 65.5843 73.9984 64.9458Z" fill="#F2F5FA"/>
<path d="M73.5723 63.0303C73.253 63.0303 72.9338 62.9239 72.5081 62.7111L22.5981 33.9782C21.321 33.2333 20.3633 31.3178 20.3633 29.7215C20.3633 28.6573 20.6825 27.9124 21.321 27.5932C21.8531 27.2739 22.4916 27.3803 23.1301 27.6996L73.0402 56.5388C74.3172 57.2838 75.275 59.1993 75.275 60.7956C75.275 61.7533 74.9557 62.4982 74.3172 62.8175C74.1044 63.0303 73.8915 63.0303 73.5723 63.0303ZM22.066 28.2317C21.9596 28.2317 21.8531 28.2317 21.7467 28.3381C21.4275 28.5509 21.2146 28.9766 21.2146 29.6151C21.2146 30.9985 22.066 32.5948 23.0237 33.1269L72.9338 61.9662C73.1466 62.0726 73.5723 62.2854 73.8915 62.0726C74.2108 61.8597 74.4236 61.4341 74.4236 60.7956C74.4236 59.4121 73.5723 57.8159 72.6145 57.2838L22.5981 28.4445C22.4916 28.3381 22.2788 28.2317 22.066 28.2317Z" fill="#065566"/>
<path d="M73.9984 75.3746L24.0883 46.6417C22.9178 46.0032 22.0664 44.1941 22.0664 42.7043C22.0664 41.2144 23.0242 40.4695 24.0883 41.108L73.9984 69.9473C75.169 70.5858 76.0203 72.3949 76.0203 73.8847C76.1267 75.3746 75.169 76.1195 73.9984 75.3746Z" fill="#F2F5FA"/>
<path d="M73.5723 73.5655C73.253 73.5655 72.9338 73.4591 72.5081 73.2462L22.5981 44.407C21.321 43.662 20.3633 41.7465 20.3633 40.1503C20.3633 39.1925 20.6825 38.4476 21.321 38.1283C21.8531 37.8091 22.4916 37.9155 23.1301 38.2347L72.9338 66.9676C74.2108 67.7125 75.1685 69.628 75.1685 71.2243C75.1685 72.1821 74.8493 72.927 74.2108 73.2462C74.1044 73.4591 73.8915 73.5655 73.5723 73.5655ZM22.066 38.7668C21.9596 38.7668 21.8531 38.7668 21.7467 38.8732C21.4275 39.0861 21.2146 39.5117 21.2146 40.1503C21.2146 41.5337 22.066 43.13 23.0237 43.662L72.9338 72.5013C73.1466 72.6077 73.5723 72.8206 73.8915 72.6077C74.2108 72.3949 74.4236 71.9692 74.4236 71.3307C74.4236 69.9473 73.5723 68.351 72.6145 67.8189L22.5981 38.8732C22.4916 38.7668 22.2788 38.7668 22.066 38.7668Z" fill="#065566"/>
<path d="M73.9984 85.9097L24.0883 57.0704C22.9178 56.4319 22.0664 54.6228 22.0664 53.133C22.0664 51.6431 23.0242 50.8982 24.0883 51.5367L73.9984 80.376C75.169 81.0145 76.0203 82.8236 76.0203 84.3134C76.1267 85.8033 75.169 86.5482 73.9984 85.9097Z" fill="#F2F5FA"/>
<path d="M73.5723 83.9942C73.253 83.9942 72.9338 83.8878 72.5081 83.675L22.5981 54.8357C21.321 54.0908 20.3633 52.1752 20.3633 50.579C20.3633 49.6212 20.6825 48.8763 21.321 48.557C21.8531 48.2378 22.4916 48.3442 23.1301 48.6634L73.0402 77.5027C74.3172 78.2476 75.275 80.1632 75.275 81.7594C75.275 82.7172 74.9557 83.4621 74.3172 83.7814C74.1044 83.8878 73.8915 83.9942 73.5723 83.9942ZM22.066 49.1955C21.9596 49.1955 21.8531 49.1955 21.7467 49.3019C21.4275 49.4084 21.2146 49.9405 21.2146 50.579C21.2146 51.9624 22.066 53.5587 23.0237 54.0908L72.9338 82.93C73.1466 83.0365 73.5723 83.2493 73.8915 83.0365C74.2108 82.8236 74.4236 82.3979 74.4236 81.7594C74.4236 80.376 73.5723 78.7797 72.6145 78.2476L22.5981 49.4084C22.4916 49.3019 22.2788 49.1955 22.066 49.1955Z" fill="#065566"/>
<path d="M73.9984 96.3389L24.0883 67.4996C22.9178 66.8611 22.0664 65.052 22.0664 63.5622C22.0664 62.0723 23.0242 61.3274 24.0883 61.9659L73.9984 90.8052C75.169 91.4437 76.0203 93.2528 76.0203 94.7426C76.1267 96.3389 75.169 96.9774 73.9984 96.3389Z" fill="#F2F5FA"/>
<path d="M73.5723 94.4234C73.253 94.4234 72.9338 94.317 72.5081 94.1042L22.5981 65.3713C21.321 64.6264 20.3633 62.7109 20.3633 61.0082C20.3633 60.0504 20.6825 59.3055 21.321 58.9862C21.8531 58.667 22.4916 58.7734 23.1301 59.0926L73.0402 87.9319C74.3172 88.6768 75.275 90.5924 75.275 92.1886C75.275 93.1464 74.9557 93.8913 74.3172 94.2106C74.1044 94.4234 73.8915 94.4234 73.5723 94.4234ZM22.066 59.6247C21.9596 59.6247 21.8531 59.6247 21.7467 59.7311C21.4275 59.944 21.2146 60.3697 21.2146 61.0082C21.2146 62.3916 22.066 63.9879 23.0237 64.52L72.9338 93.3592C73.1466 93.4656 73.5723 93.6785 73.8915 93.4656C74.2108 93.2528 74.4236 92.8271 74.4236 92.1886C74.4236 90.8052 73.5723 89.2089 72.6145 88.6768L22.5981 59.8376C22.4916 59.7311 22.2788 59.6247 22.066 59.6247Z" fill="#065566"/>
<path d="M73.9984 106.768L24.0883 78.0348C22.9178 77.3963 22.0664 75.5872 22.0664 74.0973C22.0664 72.6075 23.0242 71.8625 24.0883 72.5011L73.9984 101.34C75.169 101.979 76.0203 103.788 76.0203 105.278C76.1267 106.768 75.169 107.513 73.9984 106.768Z" fill="#F2F5FA"/>
<path d="M73.5723 104.959C73.253 104.959 72.9338 104.852 72.5081 104.639L22.5981 75.8C21.321 75.0551 20.3633 73.1396 20.3633 71.5433C20.3633 70.5856 20.6825 69.8406 21.321 69.5214C21.8531 69.2021 22.4916 69.3085 23.1301 69.6278L73.0402 98.4671C74.3172 99.212 75.275 101.128 75.275 102.724C75.275 103.682 74.9557 104.426 74.3172 104.746C74.1044 104.852 73.8915 104.959 73.5723 104.959ZM22.066 70.1599C21.9596 70.1599 21.8531 70.1599 21.7467 70.2663C21.4275 70.4791 21.2146 70.9048 21.2146 71.5433C21.2146 72.9268 22.066 74.523 23.0237 75.0551L72.9338 103.894C73.1466 104.001 73.5723 104.214 73.8915 104.001C74.2108 103.788 74.4236 103.362 74.4236 102.724C74.4236 101.34 73.5723 99.7441 72.6145 99.212L22.5981 70.2663C22.4916 70.1599 22.2788 70.1599 22.066 70.1599Z" fill="#065566"/>
<path d="M121.088 114.518C119.811 108.984 116.938 100.364 111.404 97.1717C110.34 96.5332 108.956 95.6818 108.105 95.2562L107.786 91.5315C108.105 91.4251 108.424 91.2123 108.743 90.9994L108.85 90.893C109.595 90.3609 110.233 89.7224 110.446 88.6582L110.872 86.7427L112.362 80.0384C112.468 79.8256 112.468 79.6127 112.468 79.3999V79.187C112.574 78.655 112.574 78.1229 112.574 77.5908C112.681 71.6314 108.531 64.3949 103.529 61.4152C101.188 60.0318 99.2722 59.7126 97.6759 60.3511L97.4631 60.4575L97.3567 60.5639C97.1438 60.6703 96.931 60.7767 96.8246 60.8832L92.5679 63.2243L92.355 63.65L94.4834 65.2463C94.377 65.672 94.377 66.0976 94.377 66.6297C94.377 67.1618 94.377 67.5875 94.4834 68.226V68.3324V68.6517C94.4834 68.9709 94.5898 69.1838 94.5898 69.503L96.2925 80.2512C96.6118 82.1667 97.5695 84.7208 98.8465 86.6363L98.4209 89.5096C97.5695 89.0839 96.1861 88.1262 95.1219 87.4876C92.9935 86.2106 91.3973 86.1042 89.9074 86.8491L89.6946 86.9556L89.1625 87.2748L85.4379 89.4032L86.2892 90.7866C85.8635 91.6379 85.4379 92.4893 85.1186 93.3406C84.4801 95.1497 85.8635 98.2359 87.7791 99.4065L102.678 108.239L103.316 108.665L114.809 115.476C114.916 116.859 115.235 118.668 115.341 119.732C115.341 120.052 115.767 120.264 115.98 120.052L120.13 117.71C121.088 117.178 121.407 116.008 121.088 114.518Z" fill="#F2F5FA"/>
<path d="M120.661 116.646C119.384 111.112 116.511 102.492 110.977 99.2996C109.913 98.6611 108.53 97.8098 107.678 97.3841L98.4198 102.492L97.6749 96.852L101.932 94.1916L107.04 93.1274L107.359 91.6375C108.104 91.1055 108.21 90.5734 108.53 89.4028L110.551 88.9771L112.041 82.2728C112.148 82.0599 112.148 81.8471 112.148 81.6343V81.4214C112.254 80.8893 112.254 80.3572 112.254 79.8251C112.361 73.8657 108.21 66.6293 103.209 63.6496C100.867 62.2662 98.9519 61.9469 97.3556 62.5854L97.1428 62.6919L97.0364 62.7983C96.8235 62.9047 96.6107 63.0111 96.5043 63.1175L92.2476 65.4587L92.0347 65.8844L94.1631 67.4807C94.0567 67.9063 94.0567 68.332 94.0567 68.8641C94.0567 69.3962 94.0567 69.8219 94.1631 70.4604V70.5668V70.886C94.1631 71.2053 94.2695 71.4181 94.2695 71.7374L95.9722 82.4856C96.2914 84.4011 97.2492 86.9552 98.5262 88.8707L98.1005 91.744C97.2492 91.3183 95.8658 90.3605 94.8016 89.722C92.6732 88.445 91.077 88.3386 89.5871 89.0835L89.3743 89.1899L88.8422 89.5092L85.1176 91.6375L85.9689 93.021C85.5432 93.8723 85.1176 94.7237 84.7983 95.575C84.1598 97.3841 85.5432 100.47 87.4587 101.641L102.357 110.474L102.996 110.899L114.489 117.71C114.595 119.093 114.808 117.71 114.915 118.668C114.915 118.987 115.34 119.2 115.553 118.987L118.639 118.774L118.746 117.391C119.597 116.646 120.98 118.136 120.661 116.646Z" fill="white"/>
<path d="M115.872 120.371C115.766 120.371 115.659 120.371 115.447 120.264C115.234 120.158 115.021 119.945 115.021 119.626C114.915 118.668 114.702 116.965 114.489 115.582L87.5651 99.6191C85.4368 98.3421 84.0533 95.0431 84.6918 93.1276C85.0111 92.2763 85.3303 91.4249 85.756 90.68L84.7982 89.1902L89.6935 86.5297C91.2897 85.6784 93.0988 85.8912 95.2272 87.1682C95.7593 87.4875 96.5042 87.9131 97.1427 88.3388C97.462 88.5516 97.7812 88.7645 98.1005 88.8709L98.4197 86.7425C97.1427 84.827 96.185 82.273 95.8657 80.251L94.163 69.29C94.163 69.0772 94.0566 68.9707 94.0566 68.6515L93.9502 68.2258C93.8438 67.5873 93.8438 67.0552 93.8438 66.5231C93.8438 66.0975 93.8438 65.7782 93.9502 65.3525L91.8218 63.7563L92.2475 62.9049L96.6106 60.4573C96.8235 60.3509 96.9299 60.2445 97.1427 60.1381L97.3556 60.0316L97.6748 59.9252C99.3775 59.1803 101.399 59.4995 103.847 60.9894C109.062 64.0755 113.212 71.4184 113.105 77.4842C113.105 77.9099 113.105 78.4419 112.999 78.8676L112.893 79.2933C112.893 79.5061 112.786 79.719 112.786 79.9318L110.871 88.5516C110.551 89.9351 109.806 90.5736 109.168 90.9993L109.062 91.1057C108.742 91.3185 108.529 91.4249 108.317 91.5314L108.636 94.7239L111.722 96.533C117.149 99.7255 120.129 107.92 121.512 114.198C121.938 115.795 121.512 117.178 120.555 117.71L116.404 120.051C116.192 120.264 115.979 120.371 115.872 120.371ZM86.0753 89.403L86.8202 90.5736L86.7138 90.8928C86.2881 91.6378 85.9688 92.4891 85.5432 93.4469C84.9047 95.0431 86.2881 97.9164 88.0972 98.9806L115.34 115.156V115.369C115.447 116.752 115.766 118.562 115.872 119.519L120.129 117.178C120.768 116.859 120.98 115.795 120.661 114.624C119.49 109.622 116.724 100.79 111.19 97.4908L107.785 95.4688L107.359 91.3185L107.572 91.2121C107.891 91.1057 108.21 90.8928 108.423 90.68L108.529 90.5736C109.381 90.0415 109.806 89.403 109.913 88.5516L111.828 79.9318C111.935 79.719 111.935 79.5061 111.935 79.2933V79.0805C112.041 78.5484 112.041 78.0163 112.041 77.4842C112.148 71.7376 108.104 64.6076 103.102 61.6279C100.867 60.3509 99.0583 60.0316 97.5684 60.6701L97.2492 60.7766C97.0363 60.883 96.9299 60.9894 96.7171 61.0958L92.4603 63.5434L94.4823 65.0333V65.2461C94.3759 65.7782 94.3759 66.2039 94.3759 66.6295C94.3759 67.2681 94.3759 67.5873 94.4823 68.1194V68.2258V68.6515C94.4823 68.8643 94.5887 68.9707 94.5887 69.1836V69.3964L96.2914 80.1446C96.6106 82.0602 97.5684 84.6142 98.8454 86.4233L98.9518 86.5297L98.4197 90.1479L97.8877 89.8287C97.462 89.6158 97.0363 89.2966 96.3978 88.9773C95.7593 88.5517 95.1208 88.126 94.5887 87.8067C92.6732 86.6361 91.1833 86.5297 89.7999 87.1682L89.5871 87.2746L86.0753 89.403Z" fill="#065566"/>
<path d="M116.406 117.071C115.129 111.537 112.256 102.918 106.722 99.7251C105.658 99.0866 104.275 98.2352 103.423 97.8096L103.104 94.0849C104.168 93.5528 105.445 92.8079 105.764 91.2116L106.19 89.2961L107.68 82.5918C107.786 82.379 107.786 82.1661 107.786 81.9533V81.7404C107.893 81.2084 107.893 80.6763 107.893 80.1442C107.999 74.1848 103.849 66.9483 98.8472 63.9686C93.7392 60.9889 89.5889 63.3301 89.4824 69.1831C89.4824 69.7152 89.4824 70.1409 89.5889 70.7794V70.8858V71.2051C89.5889 71.5243 89.6953 71.7372 89.6953 72.0564L91.398 82.8046C91.7172 84.7202 92.675 87.2742 93.952 89.1897L93.5263 92.063C92.675 91.6373 91.2915 90.6796 90.2274 90.041C84.6936 86.7421 81.7139 91.8502 80.2241 95.7876C79.5856 97.5967 80.969 100.683 82.8845 101.853L97.783 110.686L98.4216 111.112L113.32 119.945C115.661 121.115 117.045 119.625 116.406 117.071Z" fill="#F2F5FA"/>
<path d="M114.916 120.69C114.491 120.69 113.959 120.583 113.426 120.264L82.9909 102.279C80.8625 101.002 79.4791 97.7034 80.1176 95.7878C81.0754 93.2338 82.6716 89.9348 85.4385 88.9771C87.0348 88.445 88.8439 88.6578 90.653 89.8284C91.1851 90.1477 91.93 90.5734 92.4621 90.999C92.7813 91.2119 93.1006 91.4247 93.4199 91.5311L93.7391 89.4028C92.4621 87.4872 91.5043 84.9332 91.1851 82.9113L89.4824 71.9502C89.4824 71.7374 89.376 71.631 89.376 71.3117L89.2696 70.886C89.1631 70.2475 89.1631 69.7154 89.1631 69.1833C89.1631 66.2036 90.2273 63.9689 92.1428 62.9047C94.0584 61.8405 96.506 62.0533 99.06 63.6496C104.274 66.7357 108.425 74.185 108.318 80.1444C108.318 80.5701 108.318 81.1022 108.212 81.5278L108.106 81.9535C108.106 82.1663 107.999 82.3792 107.999 82.592L106.084 91.2119C105.764 92.8081 104.594 93.6595 103.423 94.1916L103.742 97.3841L106.935 99.406C112.362 102.599 115.342 110.793 116.725 117.071C117.045 118.561 116.832 119.838 115.98 120.37C115.768 120.583 115.342 120.69 114.916 120.69ZM87.1412 89.4028C86.6091 89.4028 86.1834 89.5092 85.7578 89.6156C83.3101 90.4669 81.8203 93.5531 80.9689 95.8943C80.3304 97.4905 81.7139 100.364 83.523 101.428L113.959 119.413C114.703 119.838 115.236 119.838 115.661 119.625C116.193 119.2 116.406 118.242 116.087 117.071C114.916 112.07 112.149 103.237 106.616 99.9381L103.21 97.9162L102.785 93.7659L102.997 93.6595C104.062 93.1274 105.232 92.3825 105.445 91.1054L107.361 82.4856C107.467 82.2727 107.467 82.0599 107.467 81.8471V81.6342C107.573 81.1022 107.573 80.5701 107.573 80.038C107.68 74.2914 103.636 67.1614 98.6343 64.1817C96.2931 62.7983 94.1648 62.5854 92.4621 63.4368C90.8658 64.3945 89.9081 66.3101 89.9081 69.0769C89.9081 69.7154 89.9081 70.0347 90.0145 70.5668V70.6732V71.0989C90.0145 71.3117 90.1209 71.4181 90.1209 71.631V71.8438L91.8236 82.592C92.1428 84.5075 93.1006 87.0616 94.3776 88.8707L94.484 88.9771L93.9519 92.5953L93.4199 92.276C92.9942 92.0632 92.5685 91.7439 91.93 91.4247C91.2915 90.999 90.653 90.5734 90.1209 90.2541C89.1631 89.722 88.2054 89.4028 87.1412 89.4028Z" fill="#065566"/>
<path d="M112.79 78.3354L112.364 74.2915L107.788 76.8455L108.32 79.6124L106.192 89.6157L106.085 89.7221L105.553 91.8505L103.85 93.766L103.105 94.0852L103.531 97.8099L108.107 95.1494L107.788 91.5312L109.81 90.3606L110.555 87.913L110.768 87.0617L112.79 78.3354Z" fill="#065566"/>
<path d="M115.344 113.028L119.813 110.474L120.984 113.773L121.197 115.795L120.771 117.391L116.089 119.838L116.514 117.923L115.663 113.879L115.344 113.028Z" fill="#065566"/>
<path d="M32.166 99.6523C30.7384 97.3076 28.7393 95.373 26.3602 94.0338C23.7123 92.4866 21.6939 92.0586 20.3048 92.728L3.77734 102.791L15.6059 122.28L32.1008 112.206C33.4899 111.526 34.1844 109.836 34.1844 107.169C34.2102 104.523 33.5116 101.922 32.166 99.6523V99.6523Z" fill="#FFDF87"/>
<path d="M15.3556 123.169L2.88672 102.572L19.9459 92.1687C21.6063 91.3566 23.7767 91.7956 26.6524 93.4745C29.1192 94.8696 31.1925 96.8792 32.6752 99.3124C34.0745 101.687 34.8027 104.405 34.7805 107.169C34.7805 110.099 33.9666 111.987 32.3497 112.799L15.3556 123.169ZM4.66643 103.011L15.7896 121.38L31.7745 111.658C32.9574 111.054 33.5434 109.562 33.5434 107.169C33.566 104.643 32.8975 102.159 31.6117 99.9928C30.2399 97.743 28.3191 95.8876 26.0339 94.6048C23.5922 93.1782 21.7582 92.7393 20.6079 93.3209L4.66643 103.011Z" fill="#065566"/>
<path d="M1.69167 107.916C1.69167 105.172 2.38619 103.471 3.77524 102.791C5.16428 102.111 7.18274 102.55 9.83061 104.097C12.201 105.436 14.1896 107.371 15.6038 109.715C16.957 111.982 17.6596 114.585 17.6331 117.232C17.6331 119.899 16.9386 121.622 15.5496 122.28C14.1605 122.938 12.294 122.598 9.80891 121.183C7.38324 119.813 5.33511 117.851 3.8512 115.476C2.42516 113.22 1.67517 110.594 1.69167 107.916V107.916Z" fill="#FFDF87"/>
<path d="M9.9499 107.718C10.8124 108.232 11.6326 108.816 12.4024 109.463L28.9408 99.4114C28.167 98.7508 27.3352 98.1631 26.4557 97.6556C23.8078 96.1047 21.7893 95.6694 20.4003 96.3498L3.89453 106.412C5.28358 105.732 7.30204 106.167 9.9499 107.718Z" fill="#FFDF87"/>
<path d="M14.0406 123.268C12.4243 123.161 10.8623 122.635 9.50448 121.742C6.99564 120.311 4.87475 118.275 3.32973 115.817C1.83459 113.459 1.04335 110.716 1.05083 107.916C1.05083 104.92 1.87558 102.999 3.49251 102.209C5.10945 101.419 7.27983 101.869 10.1447 103.537C12.6201 104.929 14.6983 106.944 16.1784 109.386C17.6064 111.748 18.3578 114.464 18.3488 117.232C18.3488 120.162 17.5349 122.049 15.9071 122.862C15.3264 123.147 14.686 123.286 14.0406 123.268V123.268ZM5.21797 103.131C4.81701 103.125 4.41997 103.212 4.05681 103.384C2.97162 103.932 2.34221 105.458 2.34221 107.916C2.3371 110.47 3.05643 112.972 4.41493 115.125C5.85469 117.399 7.82158 119.282 10.1447 120.612C12.3802 121.918 14.1057 122.28 15.2885 121.709C16.4714 121.139 17.014 119.635 17.014 117.243C17.0332 114.717 16.365 112.234 15.0824 110.066C13.7105 107.817 11.7898 105.961 9.50448 104.678C8.22505 103.81 6.75178 103.279 5.21797 103.131V103.131Z" fill="#065566"/>
<path d="M16.668 111.471L32.9675 101.211L34.1829 105.908L33.5427 110.703L27.3897 114.873L17.0152 121.402L17.5904 116.541L16.668 111.471Z" fill="#065566"/>
<path d="M15.9313 99.1145L3.33225 91.7622L1.37891 48.4497L17.8738 58.0845L15.9313 99.1145Z" fill="#FFDF87"/>
<path d="M1.37891 48.4498L17.6568 38.9248C18.0149 39.2211 34.1409 48.5486 34.1409 48.5486L17.863 58.0846L1.37891 48.4498Z" fill="#FFDF87"/>
<path d="M1.37891 54.4086L17.6568 44.8726C18.0258 45.1688 34.1517 54.4963 34.1517 54.4963L17.8738 64.0323L1.37891 54.4086Z" fill="#FFDF87"/>
<path d="M34.1939 47.8024C27.8563 44.1263 18.5563 38.7273 18.1005 38.4091L17.7749 38.1348L1.37768 47.7037L0.726562 48.0878V48.834L2.64735 91.7843V92.1465L15.2681 99.4768L15.9301 99.8609L16.5487 99.4987L32.8265 89.9737L34.769 48.9327V48.1865L34.1939 47.8024ZM17.699 39.682C19.7066 40.9001 28.7788 46.1564 32.8916 48.5486L28.2362 51.303L17.8726 57.3494L7.62838 51.303L2.66906 48.4499L17.699 39.682ZM3.96043 91.3783L2.08305 49.6131L17.2106 58.4468L15.3332 98.0173L3.96043 91.3783Z" fill="#065566"/>
<defs>
<linearGradient id="paint0_linear_2924_41073" x1="22.0675" y1="1.101" x2="130.082" y2="156.471" gradientUnits="userSpaceOnUse">
<stop stop-color="white"/>
<stop offset="0.583333" stop-color="white"/>
<stop offset="0.583433" stop-color="#065566"/>
<stop offset="1" stop-color="#065566"/>
</linearGradient>
</defs>
</svg>
