<svg width="98" height="121" viewBox="0 0 98 121" fill="none" xmlns="http://www.w3.org/2000/svg">
<path d="M71.2462 110.574C71.333 110.607 71.4076 110.666 71.4598 110.744C71.512 110.821 71.5392 110.913 71.5378 111.006C71.5364 111.1 71.5064 111.191 71.4519 111.267C71.3974 111.342 71.321 111.399 71.2332 111.43C71.0013 111.544 70.7463 111.601 70.4885 111.597C70.2307 111.593 69.9775 111.528 69.7492 111.407C69.6624 111.374 69.5878 111.315 69.5356 111.238C69.4834 111.16 69.4562 111.068 69.4576 110.975C69.459 110.881 69.489 110.79 69.5435 110.715C69.5981 110.639 69.6744 110.582 69.7622 110.551C69.9941 110.438 70.2491 110.381 70.5069 110.384C70.7647 110.388 71.0179 110.453 71.2462 110.574Z" fill="#065566"/>
<path d="M75.1505 108.378C75.2373 108.411 75.3119 108.47 75.3641 108.547C75.4163 108.625 75.4435 108.717 75.4421 108.81C75.4407 108.904 75.4107 108.995 75.3562 109.07C75.3017 109.146 75.2253 109.203 75.1375 109.234C74.9056 109.347 74.6506 109.404 74.3928 109.401C74.1351 109.397 73.8818 109.332 73.6535 109.211C73.5667 109.178 73.4921 109.119 73.4399 109.041C73.3877 108.964 73.3605 108.872 73.3619 108.779C73.3633 108.685 73.3933 108.594 73.4478 108.518C73.5024 108.443 73.5787 108.386 73.6665 108.355C73.8984 108.241 74.1534 108.184 74.4112 108.188C74.669 108.192 74.9222 108.257 75.1505 108.378Z" fill="#065566"/>
<path d="M65.9146 108.237C66.1464 108.124 66.4015 108.067 66.6592 108.07C66.917 108.074 67.1702 108.139 67.3985 108.26C67.4854 108.293 67.56 108.352 67.6121 108.43C67.6643 108.507 67.6916 108.599 67.6901 108.692C67.6887 108.786 67.6587 108.877 67.6042 108.953C67.5497 109.028 67.4733 109.085 67.3855 109.116C67.1544 109.232 66.899 109.291 66.6408 109.287C66.3826 109.283 66.1291 109.217 65.9016 109.093C65.8147 109.06 65.7401 109.001 65.688 108.924C65.6358 108.846 65.6085 108.754 65.6099 108.661C65.6114 108.567 65.6414 108.476 65.6959 108.401C65.7504 108.325 65.8268 108.268 65.9146 108.237Z" fill="#065566"/>
<path d="M71.3145 106.064C71.4014 106.097 71.476 106.157 71.5282 106.234C71.5803 106.311 71.6076 106.403 71.6062 106.497C71.6047 106.59 71.5747 106.681 71.5202 106.757C71.4657 106.833 71.3893 106.89 71.3015 106.92C71.0697 107.034 70.8146 107.091 70.5569 107.087C70.2991 107.083 70.0459 107.018 69.8176 106.898C69.7308 106.865 69.6562 106.805 69.604 106.728C69.5518 106.65 69.5245 106.559 69.526 106.465C69.5274 106.372 69.5574 106.281 69.6119 106.205C69.6664 106.129 69.7428 106.072 69.8306 106.042C70.0624 105.928 70.3175 105.871 70.5753 105.875C70.833 105.879 71.0862 105.943 71.3145 106.064Z" fill="#065566"/>
<path d="M62.0767 105.924C62.3085 105.81 62.5636 105.753 62.8214 105.757C63.0791 105.761 63.3323 105.826 63.5606 105.946C63.6475 105.98 63.7221 106.039 63.7743 106.116C63.8264 106.194 63.8537 106.285 63.8523 106.379C63.8509 106.473 63.8208 106.563 63.7663 106.639C63.7118 106.715 63.6355 106.772 63.5476 106.802C63.3151 106.914 63.0603 106.969 62.803 106.966C62.5457 106.962 62.2927 106.898 62.0637 106.78C61.9769 106.747 61.9022 106.688 61.8501 106.61C61.7979 106.533 61.7706 106.441 61.7721 106.347C61.7735 106.254 61.8035 106.163 61.858 106.087C61.9125 106.011 61.9889 105.954 62.0767 105.924Z" fill="#065566"/>
<path d="M67.4666 103.75C67.5535 103.783 67.6281 103.842 67.6803 103.92C67.7324 103.997 67.7597 104.089 67.7583 104.183C67.7568 104.276 67.7268 104.367 67.6723 104.443C67.6178 104.519 67.5414 104.576 67.4536 104.606C67.2239 104.72 66.9705 104.778 66.7143 104.774C66.4581 104.77 66.2066 104.705 65.9805 104.584C65.5647 104.339 65.5705 103.96 65.9934 103.728C66.2231 103.613 66.4766 103.556 66.7328 103.559C66.9889 103.563 67.2405 103.629 67.4666 103.75Z" fill="#065566"/>
<path d="M58.2295 103.61C58.4614 103.496 58.7165 103.439 58.9742 103.443C59.232 103.447 59.4852 103.512 59.7135 103.633C59.8003 103.666 59.8749 103.725 59.9271 103.802C59.9793 103.88 60.0065 103.972 60.0051 104.065C60.0037 104.159 59.9737 104.25 59.9192 104.325C59.8647 104.401 59.7883 104.458 59.7005 104.489C59.4687 104.602 59.2136 104.659 58.9558 104.656C58.6981 104.652 58.4448 104.587 58.2166 104.466C57.8114 104.232 57.8173 103.842 58.2295 103.61Z" fill="#065566"/>
<path d="M63.5865 101.436C63.9917 101.67 63.9858 102.06 63.5735 102.292C63.3417 102.406 63.0866 102.463 62.8289 102.459C62.5711 102.455 62.3179 102.39 62.0896 102.269C61.6846 102.025 61.6905 101.635 62.1026 101.413C62.3344 101.3 62.5895 101.242 62.8473 101.246C63.105 101.25 63.3582 101.315 63.5865 101.436Z" fill="#065566"/>
<path d="M54.3931 101.296C54.6249 101.183 54.88 101.126 55.1378 101.13C55.3955 101.133 55.6487 101.198 55.877 101.319C55.9639 101.352 56.0385 101.411 56.0907 101.489C56.1429 101.566 56.1701 101.658 56.1687 101.752C56.1673 101.845 56.1372 101.936 56.0827 102.012C56.0282 102.088 55.9519 102.145 55.864 102.175C55.6322 102.289 55.3771 102.346 55.1194 102.342C54.8616 102.338 54.6084 102.273 54.3801 102.153C54.2933 102.119 54.2187 102.06 54.1665 101.983C54.1143 101.905 54.087 101.814 54.0885 101.72C54.0899 101.626 54.1199 101.536 54.1744 101.46C54.2289 101.384 54.3053 101.327 54.3931 101.296Z" fill="#065566"/>
<path d="M59.7932 99.1117C59.8839 99.1425 59.9625 99.2015 60.0178 99.2803C60.073 99.359 60.102 99.4535 60.1005 99.5499C60.0991 99.6464 60.0672 99.7398 60.0096 99.8169C59.952 99.8939 59.8716 99.9506 59.78 99.9786C59.5482 100.092 59.2931 100.149 59.0354 100.146C58.7776 100.142 58.5244 100.077 58.2961 99.9561C58.2054 99.9253 58.1268 99.8662 58.0715 99.7875C58.0163 99.7087 57.9873 99.6143 57.9888 99.5179C57.9902 99.4214 58.0221 99.3279 58.0797 99.2509C58.1373 99.1738 58.2177 99.1172 58.3093 99.0892C58.5411 98.9755 58.7962 98.9184 59.0539 98.9223C59.3117 98.9262 59.5649 98.9911 59.7932 99.1117Z" fill="#065566"/>
<path d="M50.5133 98.9602C50.7444 98.844 50.9998 98.7854 51.258 98.7893C51.5163 98.7932 51.7698 98.8596 51.9972 98.9828C52.0879 99.0135 52.1666 99.0726 52.2218 99.1513C52.2771 99.2301 52.306 99.3245 52.3046 99.421C52.3031 99.5174 52.2713 99.6109 52.2137 99.688C52.1561 99.765 52.0757 99.8216 51.9841 99.8497C51.7544 99.9641 51.501 100.022 51.2448 100.018C50.9886 100.014 50.737 99.9487 50.5109 99.8273C50.0953 99.5717 50.1011 99.1924 50.5133 98.9602Z" fill="#065566"/>
<path d="M55.1555 97.8047C55.7316 97.8134 56.2027 97.5488 56.2078 97.2137C56.2128 96.8785 55.75 96.5998 55.1739 96.591C54.5979 96.5823 54.1267 96.8469 54.1217 97.182C54.1166 97.5172 54.5794 97.7959 55.1555 97.8047Z" fill="#065566"/>
<path d="M46.6765 96.6356C46.9083 96.5219 47.1634 96.4647 47.4211 96.4687C47.6789 96.4726 47.9321 96.5375 48.1604 96.6581C48.2511 96.6889 48.3297 96.7479 48.385 96.8267C48.4402 96.9054 48.4692 96.9999 48.4677 97.0963C48.4663 97.1928 48.4344 97.2862 48.3768 97.3633C48.3192 97.4403 48.2388 97.497 48.1472 97.525C47.9154 97.6386 47.6603 97.6958 47.4026 97.6919C47.1448 97.688 46.8916 97.6231 46.6633 97.5025C46.5726 97.4717 46.494 97.4127 46.4387 97.3339C46.3835 97.2551 46.3545 97.1607 46.356 97.0643C46.3574 96.9678 46.3892 96.8743 46.4469 96.7973C46.5045 96.7202 46.5849 96.6636 46.6765 96.6356Z" fill="#065566"/>
<path d="M52.0764 94.4623C52.1671 94.4931 52.2458 94.5521 52.301 94.6309C52.3562 94.7096 52.3852 94.804 52.3837 94.9005C52.3823 94.9969 52.3505 95.0904 52.2929 95.1675C52.2352 95.2445 52.1548 95.3012 52.0633 95.3292C51.8314 95.4428 51.5763 95.5 51.3186 95.4961C51.0608 95.4922 50.8076 95.4273 50.5793 95.3067C50.4886 95.2759 50.41 95.2168 50.3547 95.1381C50.2995 95.0593 50.2705 94.9649 50.272 94.8685C50.2734 94.772 50.3053 94.6785 50.3629 94.6015C50.4205 94.5244 50.5009 94.4678 50.5925 94.4398C50.8243 94.3261 51.0794 94.2689 51.3371 94.2729C51.5949 94.2768 51.8481 94.3416 52.0764 94.4623Z" fill="#065566"/>
<path d="M42.829 94.3219C43.0609 94.2083 43.316 94.1511 43.5737 94.155C43.8315 94.1589 44.0847 94.2238 44.313 94.3444C44.718 94.589 44.7228 94.9793 44.2998 95.2113C44.068 95.325 43.8129 95.3822 43.5552 95.3782C43.2974 95.3743 43.0442 95.3095 42.8159 95.1888C42.4216 94.9444 42.4168 94.5541 42.829 94.3219Z" fill="#065566"/>
<path d="M47.47 93.1772C48.046 93.186 48.5171 92.9214 48.5222 92.5862C48.5273 92.2511 48.0644 91.9723 47.4884 91.9636C46.9123 91.9548 46.4412 92.2194 46.4361 92.5546C46.431 92.8897 46.8939 93.1685 47.47 93.1772Z" fill="#065566"/>
<path d="M38.9909 92.0081C39.2227 91.8945 39.4778 91.8373 39.7356 91.8412C39.9933 91.8451 40.2466 91.91 40.4748 92.0306C40.5656 92.0614 40.6442 92.1205 40.6994 92.1992C40.7547 92.278 40.7837 92.3724 40.7822 92.4689C40.7807 92.5653 40.7489 92.6588 40.6913 92.7359C40.6337 92.8129 40.5533 92.8695 40.4617 92.8975C40.2299 93.0112 39.9748 93.0684 39.717 93.0645C39.4593 93.0606 39.206 92.9957 38.9778 92.875C38.8871 92.8442 38.8084 92.7852 38.7532 92.7064C38.6979 92.6277 38.6689 92.5333 38.6704 92.4368C38.6719 92.3404 38.7037 92.2469 38.7613 92.1698C38.8189 92.0928 38.8993 92.0362 38.9909 92.0081Z" fill="#065566"/>
<path d="M44.4024 89.8131C44.4893 89.8462 44.5639 89.9055 44.6161 89.9829C44.6682 90.0603 44.6955 90.1521 44.6941 90.2456C44.6926 90.3392 44.6626 90.4301 44.6081 90.5059C44.5536 90.5817 44.4772 90.6387 44.3894 90.6691C44.1576 90.7828 43.9025 90.84 43.6448 90.8361C43.387 90.8321 43.1338 90.7673 42.9055 90.6466C42.8186 90.6135 42.744 90.5542 42.6919 90.4768C42.6397 90.3994 42.6124 90.3077 42.6139 90.2141C42.6153 90.1205 42.6453 90.0297 42.6998 89.9539C42.7543 89.8781 42.8307 89.8211 42.9185 89.7906C43.1503 89.6769 43.4054 89.6198 43.6632 89.6237C43.9209 89.6276 44.1741 89.6925 44.4024 89.8131Z" fill="#065566"/>
<path d="M40.4942 88.1783C40.5811 88.2115 40.6557 88.2708 40.7078 88.3482C40.76 88.4256 40.7873 88.5173 40.7859 88.6109C40.7844 88.7045 40.7544 88.7953 40.6999 88.8711C40.6454 88.9469 40.569 89.0039 40.4812 89.0344C40.2494 89.148 39.9943 89.2052 39.7366 89.2013C39.4788 89.1974 39.2256 89.1325 38.9973 89.0119C38.9104 88.9787 38.8358 88.9194 38.7837 88.842C38.7315 88.7646 38.7042 88.6729 38.7056 88.5793C38.7071 88.4857 38.7371 88.3949 38.7916 88.3191C38.8461 88.2433 38.9225 88.1863 39.0103 88.1558C39.2421 88.0422 39.4972 87.985 39.7549 87.9889C40.0127 87.9928 40.2659 88.0577 40.4942 88.1783Z" fill="#065566"/>
<path d="M36.5997 85.7565C36.6865 85.7896 36.7611 85.8489 36.8133 85.9263C36.8655 86.0037 36.8927 86.0954 36.8913 86.189C36.8899 86.2826 36.8599 86.3735 36.8054 86.4492C36.7509 86.525 36.6745 86.582 36.5867 86.6125C36.3549 86.7262 36.0998 86.7833 35.842 86.7794C35.5843 86.7755 35.331 86.7106 35.1028 86.59C35.0159 86.5569 34.9413 86.4976 34.8891 86.4202C34.8369 86.3428 34.8097 86.251 34.8111 86.1575C34.8125 86.0639 34.8425 85.973 34.8971 85.8972C34.9516 85.8214 35.0279 85.7644 35.1157 85.734C35.3476 85.6203 35.6027 85.5631 35.8604 85.567C36.1182 85.571 36.3714 85.6358 36.5997 85.7565Z" fill="#065566"/>
<path d="M32.7032 83.3346C32.79 83.3677 32.8646 83.427 32.9168 83.5044C32.969 83.5818 32.9963 83.6736 32.9948 83.7671C32.9934 83.8607 32.9634 83.9516 32.9089 84.0274C32.8544 84.1031 32.778 84.1602 32.6902 84.1906C32.4584 84.3043 32.2033 84.3615 31.9455 84.3575C31.6878 84.3536 31.4346 84.2888 31.2063 84.1681C31.1194 84.135 31.0448 84.0757 30.9926 83.9983C30.9405 83.9209 30.9132 83.8292 30.9146 83.7356C30.9161 83.642 30.9461 83.5511 31.0006 83.4754C31.0551 83.3996 31.1314 83.3426 31.2193 83.3121C31.4511 83.1984 31.7062 83.1413 31.9639 83.1452C32.2217 83.1491 32.4749 83.214 32.7032 83.3346Z" fill="#065566"/>
<path d="M28.8087 80.9127C28.8955 80.9458 28.9701 81.0051 29.0223 81.0825C29.0745 81.1599 29.1017 81.2517 29.1003 81.3453C29.0989 81.4388 29.0689 81.5297 29.0144 81.6055C28.9599 81.6813 28.8835 81.7383 28.7957 81.7688C28.5638 81.8824 28.3088 81.9396 28.051 81.9357C27.7933 81.9318 27.54 81.8669 27.3117 81.7462C27.2249 81.7131 27.1503 81.6538 27.0981 81.5764C27.0459 81.499 27.0187 81.4073 27.0201 81.3137C27.0215 81.2201 27.0515 81.1293 27.106 81.0535C27.1606 80.9777 27.2369 80.9207 27.3247 80.8902C27.5566 80.7766 27.8116 80.7194 28.0694 80.7233C28.3272 80.7272 28.5804 80.7921 28.8087 80.9127Z" fill="#065566"/>
<path d="M24.9122 78.4908C24.999 78.524 25.0736 78.5833 25.1258 78.6607C25.178 78.7381 25.2052 78.8298 25.2038 78.9234C25.2024 79.017 25.1724 79.1078 25.1179 79.1836C25.0634 79.2594 24.987 79.3164 24.8992 79.3469C24.6674 79.4605 24.4123 79.5177 24.1545 79.5138C23.8968 79.5099 23.6435 79.445 23.4153 79.3244C23.3284 79.2912 23.2538 79.2319 23.2016 79.1545C23.1494 79.0771 23.1222 78.9854 23.1236 78.8918C23.125 78.7982 23.155 78.7074 23.2096 78.6316C23.2641 78.5558 23.3404 78.4988 23.4282 78.4683C23.6601 78.3547 23.9152 78.2975 24.1729 78.3014C24.4307 78.3053 24.6839 78.3702 24.9122 78.4908Z" fill="#065566"/>
<path d="M21.0176 76.069C21.1045 76.1021 21.1791 76.1614 21.2313 76.2388C21.2835 76.3162 21.3107 76.4079 21.3093 76.5015C21.3079 76.5951 21.2779 76.686 21.2234 76.7617C21.1688 76.8375 21.0925 76.8945 21.0047 76.925C20.7728 77.0387 20.5177 77.0958 20.26 77.0919C20.0022 77.088 19.749 77.0231 19.5207 76.9025C19.4339 76.8694 19.3593 76.8101 19.3071 76.7327C19.2549 76.6553 19.2277 76.5635 19.2291 76.47C19.2305 76.3764 19.2605 76.2855 19.315 76.2097C19.3695 76.1339 19.4459 76.0769 19.5337 76.0465C19.7655 75.9328 20.0206 75.8756 20.2784 75.8795C20.5361 75.8835 20.7894 75.9483 21.0176 76.069Z" fill="#065566"/>
<path d="M17.1212 73.6471C17.208 73.6802 17.2826 73.7395 17.3348 73.8169C17.387 73.8943 17.4142 73.9861 17.4128 74.0796C17.4114 74.1732 17.3814 74.2641 17.3269 74.3399C17.2724 74.4156 17.196 74.4727 17.1082 74.5031C16.8763 74.6168 16.6213 74.674 16.3635 74.67C16.1058 74.6661 15.8525 74.6013 15.6242 74.4806C15.5374 74.4475 15.4628 74.3882 15.4106 74.3108C15.3584 74.2334 15.3312 74.1417 15.3326 74.0481C15.334 73.9545 15.364 73.8636 15.4185 73.7879C15.4731 73.7121 15.5494 73.6551 15.6372 73.6246C15.8691 73.5109 16.1241 73.4538 16.3819 73.4577C16.6397 73.4616 16.8929 73.5265 17.1212 73.6471Z" fill="#065566"/>
<path d="M13.2266 71.2252C13.3135 71.2583 13.3881 71.3176 13.4403 71.395C13.4925 71.4724 13.5197 71.5642 13.5183 71.6578C13.5169 71.7513 13.4868 71.8422 13.4323 71.918C13.3778 71.9938 13.3015 72.0508 13.2136 72.0813C12.9818 72.1949 12.7267 72.2521 12.469 72.2482C12.2112 72.2443 11.958 72.1794 11.7297 72.0587C11.6429 72.0256 11.5683 71.9663 11.5161 71.8889C11.4639 71.8115 11.4367 71.7198 11.4381 71.6262C11.4395 71.5326 11.4695 71.4418 11.524 71.366C11.5785 71.2902 11.6549 71.2332 11.7427 71.2027C11.9745 71.0891 12.2296 71.0319 12.4874 71.0358C12.7451 71.0397 12.9983 71.1046 13.2266 71.2252Z" fill="#065566"/>
<path d="M10.1173 68.8151C10.2041 68.8482 10.2787 68.9075 10.3309 68.9849C10.3831 69.0623 10.4103 69.154 10.4089 69.2476C10.4075 69.3412 10.3775 69.432 10.323 69.5078C10.2684 69.5836 10.1921 69.6406 10.1043 69.6711C9.87243 69.7848 9.61736 69.8419 9.3596 69.838C9.10185 69.8341 8.84862 69.7692 8.62034 69.6486C8.53349 69.6155 8.45889 69.5562 8.4067 69.4788C8.35451 69.4014 8.32728 69.3096 8.32869 69.216C8.33011 69.1225 8.36012 69.0316 8.41464 68.9558C8.46915 68.88 8.54551 68.823 8.63332 68.7926C8.86516 68.6789 9.12024 68.6217 9.37799 68.6256C9.63575 68.6296 9.88897 68.6944 10.1173 68.8151Z" fill="#065566"/>
<path d="M35.1546 89.673C35.3843 89.5586 35.6377 89.5009 35.8939 89.5048C36.1501 89.5087 36.4016 89.574 36.6278 89.6953C37.0435 89.9401 37.0376 90.3302 36.6146 90.5622C36.3828 90.6759 36.1277 90.7331 35.8699 90.7292C35.6122 90.7252 35.359 90.6604 35.1307 90.5397C35.0403 90.5078 34.9624 90.4478 34.9081 90.3683C34.8538 90.2889 34.826 90.1941 34.8287 90.0976C34.8313 90.0012 34.8643 89.9081 34.9229 89.8318C34.9815 89.7555 35.0626 89.6999 35.1546 89.673Z" fill="#065566"/>
<path d="M31.2601 87.2506C31.4898 87.1362 31.7432 87.0785 31.9994 87.0824C32.2555 87.0863 32.5071 87.1516 32.7332 87.273C33.149 87.5177 33.1431 87.9078 32.7201 88.1399C32.4882 88.2535 32.2332 88.3107 31.9754 88.3068C31.7177 88.3029 31.4644 88.238 31.2361 88.1174C31.1458 88.0855 31.0679 88.0254 31.0136 87.946C30.9593 87.8665 30.9315 87.7717 30.9342 87.6753C30.9368 87.5788 30.9698 87.4857 31.0284 87.4094C31.087 87.3331 31.1681 87.2775 31.2601 87.2506Z" fill="#065566"/>
<path d="M27.3519 85.6164C27.5815 85.5019 27.835 85.4443 28.0912 85.4481C28.3473 85.452 28.5989 85.5174 28.825 85.6387C29.2408 85.8835 29.2349 86.2736 28.8119 86.5056C28.58 86.6193 28.325 86.6764 28.0672 86.6725C27.8095 86.6686 27.5562 86.6037 27.3279 86.4831C27.2376 86.4512 27.1597 86.3912 27.1054 86.3117C27.0511 86.2322 27.0233 86.1374 27.026 86.041C27.0286 85.9446 27.0616 85.8515 27.1202 85.7751C27.1788 85.6988 27.2599 85.6432 27.3519 85.6164Z" fill="#065566"/>
<path d="M23.4554 83.1945C23.6851 83.08 23.9385 83.0224 24.1947 83.0263C24.4509 83.0302 24.7024 83.0955 24.9285 83.2168C25.3443 83.4616 25.3384 83.8517 24.9154 84.0837C24.6836 84.1974 24.4285 84.2546 24.1707 84.2507C23.913 84.2467 23.6597 84.1819 23.4315 84.0612C23.3411 84.0293 23.2632 83.9693 23.2089 83.8898C23.1546 83.8104 23.1268 83.7156 23.1295 83.6191C23.1321 83.5227 23.1651 83.4296 23.2237 83.3533C23.2823 83.2769 23.3634 83.2213 23.4554 83.1945Z" fill="#065566"/>
<path d="M19.5608 80.7726C19.7905 80.6582 20.044 80.6005 20.3001 80.6044C20.5563 80.6083 20.8079 80.6736 21.034 80.795C21.4498 81.0397 21.4439 81.4298 21.0209 81.6619C20.789 81.7755 20.534 81.8327 20.2762 81.8288C20.0184 81.8249 19.7652 81.76 19.5369 81.6393C19.4466 81.6074 19.3687 81.5474 19.3144 81.4679C19.2601 81.3885 19.2323 81.2937 19.2349 81.1973C19.2376 81.1008 19.2706 81.0077 19.3292 80.9314C19.3878 80.8551 19.4689 80.7995 19.5608 80.7726Z" fill="#065566"/>
<path d="M15.6644 78.3502C15.894 78.2358 16.1475 78.1781 16.4037 78.182C16.6598 78.1859 16.9114 78.2512 17.1375 78.3726C17.5533 78.6174 17.5474 79.0075 17.1244 79.2395C16.8925 79.3531 16.6375 79.4103 16.3797 79.4064C16.122 79.4025 15.8687 79.3376 15.6404 79.217C15.5501 79.1851 15.4722 79.125 15.4179 79.0456C15.3636 78.9661 15.3358 78.8713 15.3385 78.7749C15.3411 78.6785 15.3741 78.5854 15.4327 78.509C15.4913 78.4327 15.5724 78.3771 15.6644 78.3502Z" fill="#065566"/>
<path d="M11.7698 75.9284C11.9995 75.8139 12.2529 75.7563 12.5091 75.7602C12.7653 75.764 13.0169 75.8294 13.243 75.9507C13.6588 76.1955 13.6528 76.5856 13.2298 76.8176C12.998 76.9313 12.7429 76.9884 12.4852 76.9845C12.2274 76.9806 11.9742 76.9157 11.7459 76.7951C11.6556 76.7632 11.5776 76.7032 11.5234 76.6237C11.4691 76.5443 11.4413 76.4495 11.4439 76.353C11.4466 76.2566 11.4796 76.1635 11.5382 76.0872C11.5967 76.0108 11.6779 75.9552 11.7698 75.9284Z" fill="#065566"/>
<path d="M7.87334 73.5065C8.10303 73.3921 8.35646 73.3344 8.61265 73.3383C8.86883 73.3422 9.12039 73.4075 9.34651 73.5288C9.76227 73.7736 9.75635 74.1637 9.33336 74.3957C9.10153 74.5094 8.84645 74.5666 8.58869 74.5627C8.33094 74.5587 8.07771 74.4939 7.84943 74.3732C7.75909 74.3413 7.68116 74.2813 7.62688 74.2018C7.5726 74.1224 7.54478 74.0276 7.54744 73.9311C7.5501 73.8347 7.5831 73.7416 7.64168 73.6653C7.70025 73.5889 7.78137 73.5333 7.87334 73.5065Z" fill="#065566"/>
<path d="M4.76591 71.0968C4.99561 70.9824 5.24904 70.9247 5.50522 70.9286C5.76141 70.9325 6.01297 70.9978 6.23909 71.1192C6.65485 71.3639 6.64893 71.754 6.22594 71.9861C5.99411 72.0997 5.73903 72.1569 5.48127 72.153C5.22352 72.1491 4.97029 72.0842 4.74201 71.9636C4.65167 71.9316 4.57373 71.8716 4.51945 71.7922C4.46518 71.7127 4.43736 71.6179 4.44002 71.5215C4.44268 71.425 4.47568 71.3319 4.53425 71.2556C4.59283 71.1793 4.67395 71.1237 4.76591 71.0968Z" fill="#065566"/>
<path d="M85.2761 119.451C85.5079 119.337 85.763 119.28 86.0208 119.284C86.2785 119.288 86.5317 119.353 86.76 119.473C86.8507 119.504 86.9294 119.563 86.9846 119.642C87.0399 119.721 87.0688 119.815 87.0674 119.912C87.0659 120.008 87.0341 120.102 86.9765 120.179C86.9189 120.256 86.8385 120.312 86.7469 120.34C86.5172 120.455 86.2637 120.512 86.0076 120.509C85.7514 120.505 85.4998 120.439 85.2737 120.318C84.8149 120.073 84.8205 119.704 85.2761 119.451Z" fill="#065566"/>
<path d="M90.6758 117.277C90.7627 117.311 90.8373 117.37 90.8895 117.447C90.9417 117.525 90.9689 117.616 90.9675 117.71C90.9661 117.804 90.9361 117.894 90.8815 117.97C90.827 118.046 90.7507 118.103 90.6629 118.134C90.431 118.247 90.1759 118.304 89.9182 118.3C89.6604 118.297 89.4072 118.232 89.1789 118.111C89.0921 118.078 89.0175 118.019 88.9653 117.941C88.9131 117.864 88.8859 117.772 88.8873 117.678C88.8887 117.585 88.9187 117.494 88.9732 117.418C89.0277 117.342 89.1041 117.285 89.1919 117.255C89.4238 117.141 89.6788 117.084 89.9366 117.088C90.1943 117.092 90.4476 117.157 90.6758 117.277Z" fill="#065566"/>
<path d="M81.4382 117.137C81.67 117.023 81.9251 116.966 82.1828 116.97C82.4406 116.974 82.6938 117.039 82.9221 117.16C83.0128 117.19 83.0915 117.249 83.1467 117.328C83.2019 117.407 83.2309 117.501 83.2295 117.598C83.228 117.694 83.1962 117.788 83.1386 117.865C83.081 117.942 83.0006 117.998 82.909 118.026C82.6771 118.14 82.4221 118.197 82.1643 118.193C81.9065 118.189 81.6533 118.125 81.425 118.004C81.3343 117.973 81.2557 117.914 81.2004 117.835C81.1452 117.757 81.1162 117.662 81.1177 117.566C81.1191 117.469 81.151 117.376 81.2086 117.299C81.2662 117.222 81.3466 117.165 81.4382 117.137Z" fill="#065566"/>
<path d="M86.838 114.964C86.9248 114.997 86.9994 115.056 87.0516 115.133C87.1038 115.211 87.131 115.302 87.1296 115.396C87.1282 115.49 87.0982 115.581 87.0437 115.656C86.9892 115.732 86.9128 115.789 86.825 115.82C86.5931 115.933 86.3381 115.99 86.0803 115.987C85.8226 115.983 85.5693 115.918 85.341 115.797C85.2542 115.764 85.1796 115.705 85.1274 115.627C85.0752 115.55 85.048 115.458 85.0494 115.365C85.0508 115.271 85.0808 115.18 85.1353 115.104C85.1899 115.028 85.2662 114.971 85.354 114.941C85.5859 114.827 85.8409 114.77 86.0987 114.774C86.3565 114.778 86.6097 114.843 86.838 114.964Z" fill="#065566"/>
<path d="M77.5908 114.823C77.8226 114.71 78.0777 114.653 78.3354 114.656C78.5932 114.66 78.8464 114.725 79.0747 114.846C79.4797 115.09 79.4847 115.47 79.0617 115.702C78.8299 115.816 78.5748 115.873 78.317 115.869C78.0593 115.865 77.806 115.8 77.5778 115.679C77.1834 115.446 77.1785 115.056 77.5908 114.823Z" fill="#065566"/>
<path d="M82.9903 112.65C83.0771 112.683 83.1517 112.742 83.2039 112.819C83.2561 112.897 83.2834 112.989 83.2819 113.082C83.2805 113.176 83.2505 113.267 83.196 113.342C83.1415 113.418 83.0651 113.475 82.9773 113.506C82.7455 113.619 82.4904 113.676 82.2326 113.673C81.9749 113.669 81.7217 113.604 81.4934 113.483C81.4065 113.45 81.3319 113.391 81.2797 113.313C81.2276 113.236 81.2003 113.144 81.2017 113.051C81.2032 112.957 81.2332 112.866 81.2877 112.79C81.3422 112.715 81.4186 112.658 81.5064 112.627C81.7382 112.513 81.9933 112.456 82.251 112.46C82.5088 112.464 82.762 112.529 82.9903 112.65Z" fill="#065566"/>
<path d="M73.7544 112.509C73.9863 112.396 74.2413 112.339 74.4991 112.342C74.7568 112.346 75.0101 112.411 75.2383 112.532C75.3252 112.565 75.3998 112.624 75.452 112.702C75.5042 112.779 75.5314 112.871 75.53 112.964C75.5286 113.058 75.4986 113.149 75.444 113.225C75.3895 113.3 75.3132 113.357 75.2253 113.388C74.9928 113.499 74.7381 113.555 74.4807 113.551C74.2234 113.547 73.9705 113.484 73.7414 113.365C73.6546 113.332 73.58 113.273 73.5278 113.196C73.4756 113.118 73.4484 113.026 73.4498 112.933C73.4512 112.839 73.4812 112.748 73.5357 112.673C73.5902 112.597 73.6666 112.54 73.7544 112.509Z" fill="#065566"/>
<path d="M79.1544 110.336C79.2412 110.369 79.3158 110.429 79.368 110.506C79.4202 110.583 79.4474 110.675 79.446 110.769C79.4446 110.862 79.4146 110.953 79.3601 111.029C79.3056 111.105 79.2292 111.162 79.1414 111.192C78.9096 111.306 78.6545 111.363 78.3967 111.359C78.139 111.355 77.8857 111.29 77.6575 111.17C77.5706 111.136 77.496 111.077 77.4438 111C77.3916 110.922 77.3644 110.831 77.3658 110.737C77.3672 110.643 77.3972 110.553 77.4517 110.477C77.5063 110.401 77.5826 110.344 77.6704 110.314C77.9023 110.2 78.1574 110.143 78.4151 110.147C78.6729 110.151 78.9261 110.215 79.1544 110.336Z" fill="#065566"/>
<path d="M91.5491 115.37L15.7432 66.288C14.7199 65.737 13.9328 64.1627 13.9328 62.8245L12.4395 3.95665C12.4395 2.68547 16.2943 1.51411 17.3176 2.14384L93.2764 44.2291C94.2997 44.7801 95.0869 46.3544 95.0869 47.6926L95.874 112.546C95.874 113.884 92.4937 116 91.5491 115.37Z" fill="url(#paint0_linear_1671_32808)"/>
<path fill-rule="evenodd" clip-rule="evenodd" d="M12.4405 3.95653C12.4405 2.68535 16.2953 0.726835 17.3186 1.35656L93.2775 44.2289C94.3008 44.78 95.0879 46.3543 95.0879 47.6925L95.8751 112.546C95.8751 113.884 92.4947 116 91.5501 115.37L15.7443 66.2879C14.721 65.7369 13.9338 64.1626 13.9338 62.8244L12.4405 3.95653ZM12.7531 62.8405L11.2598 3.9715V3.95653C11.2598 3.04416 11.9156 2.42496 12.3573 2.09868C12.8632 1.72502 13.4973 1.43073 14.114 1.21998C14.7371 1.00705 15.4114 0.0687938 16.0289 0.0185377C16.5658 -0.0251559 17.3153 -0.0172162 17.9088 0.333679L93.8372 43.1893C93.8396 43.1906 93.842 43.1919 93.8443 43.1932C94.6313 43.6195 95.2257 44.3677 95.6159 45.1244C96.0126 45.8938 96.2671 46.803 96.2687 47.6845C96.2687 47.6871 96.2687 47.6898 96.2687 47.6925L97.0558 112.539V112.546C97.0558 113.326 96.5985 113.989 96.2183 114.42C95.7977 114.898 95.2548 115.337 94.7041 115.69C94.1551 116.042 93.5402 116.346 92.9539 116.516C92.6611 116.602 92.3365 116.665 92.0085 116.665C91.69 116.665 91.2807 116.606 90.9043 116.359C90.9012 116.357 90.8982 116.355 90.8952 116.353L15.138 67.302C14.3706 66.8723 13.7895 66.1365 13.4059 65.3924C13.0104 64.6254 12.7562 63.7194 12.7531 62.8405Z" fill="#065566"/>
<path d="M90.1288 114.671L12.5956 69.4364C11.5723 68.8854 10.7852 67.3111 10.7852 65.9729V3.93591C10.7852 2.59774 11.8108 2.12542 12.8341 2.75515L90.1288 47.3774C91.1521 47.9285 91.9393 49.5028 91.9393 50.841V113.333C91.9393 114.671 91.0734 115.301 90.1288 114.671Z" fill="#F2F5FA"/>
<path d="M90.9316 116.089C90.4486 116.089 90.0864 115.968 89.6034 115.727L14.3752 71.5713C12.6848 70.6054 11.3566 68.0697 11.3566 65.8963L10.3906 4.90338C10.3906 3.69593 10.8736 2.72996 11.5981 2.24698C12.2018 1.88474 13.047 1.88474 13.8922 2.36772L89.9075 46.5228C91.598 47.4888 92.139 50.0244 92.139 52.1979L93.105 113.07C93.105 114.278 92.622 115.244 91.8976 115.727C91.6561 115.968 91.2938 116.089 90.9316 116.089ZM12.564 2.8507C12.4433 2.8507 12.2018 2.85071 12.0811 2.97145C11.5981 3.21294 11.3566 3.93742 11.3566 4.78264L12.3226 65.6548C12.3226 67.466 13.53 69.7601 14.8582 70.4846L90.0864 114.64C90.4486 114.881 90.9316 115.002 91.4146 114.761C91.8975 114.519 92.139 113.795 92.139 112.949L91.173 52.1979C91.173 50.3867 90.7528 48.0925 89.4246 47.368L13.4093 3.21294C13.1678 2.97145 12.9263 2.8507 12.564 2.8507Z" fill="#065566"/>
<path d="M53.2123 39.9554L16.2944 18.6234C15.4286 18.1511 14.7988 16.8129 14.7988 15.7109C14.7988 14.6089 15.5073 14.0579 16.2944 14.5302L53.2123 35.8622C54.0781 36.3345 54.7079 37.6727 54.7079 38.7747C54.7866 39.8767 54.0781 40.4277 53.2123 39.9554Z" fill="white"/>
<path d="M52.8971 38.5386C52.6609 38.5386 52.4248 38.4599 52.1099 38.3025L15.1921 16.9704C14.2475 16.4194 13.5391 15.0812 13.5391 13.8218C13.5391 13.1133 13.7752 12.5623 14.2475 12.3262C14.6411 12.09 15.1134 12.1687 15.5857 12.4049L52.5035 33.7369C53.4481 34.288 54.1565 35.7048 54.1565 36.8856C54.1565 37.594 53.9204 38.145 53.4481 38.3812C53.2907 38.4599 53.1332 38.5386 52.8971 38.5386ZM14.7985 12.7985C14.7198 12.7985 14.6411 12.7985 14.5624 12.8772C14.3262 12.9559 14.1688 13.3495 14.1688 13.8218C14.1688 14.8451 14.7985 16.0258 15.507 16.4194L52.4248 37.7515C52.5822 37.8302 52.8971 37.9876 53.1332 37.8302C53.3694 37.6727 53.5268 37.3579 53.5268 36.8856C53.5268 35.8623 52.8971 34.6815 52.1886 34.288L15.1921 12.9559C15.1134 12.8772 14.956 12.7985 14.7985 12.7985Z" fill="#065566"/>
<path d="M53.2123 47.6698L16.2944 26.3378C15.4286 25.8655 14.7988 24.5273 14.7988 23.4253C14.7988 22.3232 15.5073 21.7722 16.2944 22.2445L53.2123 43.6553C54.0781 44.1276 54.7079 45.4657 54.7079 46.5678C54.7866 47.6698 54.0781 48.1421 53.2123 47.6698Z" fill="white"/>
<path d="M52.8971 46.253C52.6609 46.253 52.4248 46.1743 52.1099 46.0168L15.1921 24.7635C14.2475 24.2125 13.5391 22.7956 13.5391 21.6149C13.5391 20.8277 13.7752 20.2767 14.2475 20.0405C14.6411 19.8044 15.1134 19.8831 15.5857 20.1193L52.5035 41.4513C53.4481 42.0023 54.1565 43.4192 54.1565 44.5999C54.1565 45.3084 53.9204 45.8594 53.4481 46.0955C53.2907 46.253 53.1332 46.253 52.8971 46.253ZM14.7985 20.5128C14.7198 20.5128 14.6411 20.5128 14.5624 20.5915C14.3262 20.749 14.1688 21.0638 14.1688 21.5361C14.1688 22.5594 14.7985 23.7402 15.507 24.1338L52.4248 45.4658C52.5822 45.5445 52.8971 45.702 53.1332 45.5445C53.3694 45.3871 53.5268 45.0722 53.5268 44.5999C53.5268 43.5766 52.8971 42.3959 52.1886 42.0023L15.1921 20.6703C15.1134 20.5915 14.956 20.5128 14.7985 20.5128Z" fill="#065566"/>
<path d="M53.2123 55.3836L16.2944 34.1302C15.4286 33.6579 14.7988 32.3198 14.7988 31.2177C14.7988 30.1157 15.5073 29.5647 16.2944 30.037L53.2123 51.369C54.0781 51.8413 54.7079 53.1795 54.7079 54.2815C54.7866 55.3836 54.0781 55.9346 53.2123 55.3836Z" fill="white"/>
<path d="M52.8971 54.0455C52.6609 54.0455 52.4248 53.9667 52.1099 53.8093L15.1921 32.4773C14.2475 31.9262 13.5391 30.5094 13.5391 29.3286C13.5391 28.6202 13.7752 28.0692 14.2475 27.833C14.6411 27.5969 15.1134 27.6756 15.5857 27.9117L52.4248 49.1651C53.3694 49.7161 54.0778 51.133 54.0778 52.3137C54.0778 53.0221 53.8417 53.5732 53.3694 53.8093C53.2907 53.9667 53.1332 54.0455 52.8971 54.0455ZM14.7985 28.3053C14.7198 28.3053 14.6411 28.3053 14.5624 28.384C14.3262 28.5415 14.1688 28.8563 14.1688 29.3286C14.1688 30.3519 14.7985 31.5327 15.507 31.9262L52.4248 53.2583C52.5822 53.337 52.8971 53.4944 53.1332 53.337C53.3694 53.1796 53.5268 52.8647 53.5268 52.3924C53.5268 51.3691 52.8971 50.1884 52.1886 49.7948L15.1921 28.384C15.1134 28.3053 14.956 28.3053 14.7985 28.3053Z" fill="#065566"/>
<path d="M53.2123 63.1766L16.2944 41.8446C15.4286 41.3723 14.7988 40.0341 14.7988 38.9321C14.7988 37.8301 15.5073 37.2791 16.2944 37.7514L53.2123 59.0834C54.0781 59.5557 54.7079 60.8939 54.7079 61.9959C54.7866 63.0979 54.0781 63.6489 53.2123 63.1766Z" fill="white"/>
<path d="M52.8971 61.7598C52.6609 61.7598 52.4248 61.6811 52.1099 61.5237L15.1921 40.1916C14.2475 39.6406 13.5391 38.2237 13.5391 37.043C13.5391 36.3345 13.7752 35.7835 14.2475 35.5474C14.6411 35.3112 15.1134 35.3899 15.5857 35.6261L52.5035 56.9581C53.4481 57.5091 54.1565 58.926 54.1565 60.1068C54.1565 60.8152 53.9204 61.3662 53.4481 61.6024C53.2907 61.6811 53.1332 61.7598 52.8971 61.7598ZM14.7985 36.0197C14.7198 36.0197 14.6411 36.0197 14.5624 36.0984C14.3262 36.1771 14.1688 36.5707 14.1688 37.043C14.1688 38.0663 14.7985 39.247 15.507 39.6406L52.4248 60.9727C52.5822 61.0514 52.8971 61.2088 53.1332 61.0514C53.3694 60.8939 53.5268 60.5791 53.5268 60.1068C53.5268 59.0835 52.8971 57.9027 52.1886 57.5091L15.1921 36.1771C15.1134 36.0984 14.956 36.0197 14.7985 36.0197Z" fill="#065566"/>
<path d="M53.2123 70.891L16.2944 49.5589C15.4286 49.0866 14.7988 47.7485 14.7988 46.6465C14.7988 45.5444 15.5073 44.9934 16.2944 45.4657L53.2123 66.7978C54.0781 67.2701 54.7079 68.6082 54.7079 69.7102C54.7866 70.891 54.0781 71.3633 53.2123 70.891Z" fill="white"/>
<path d="M52.8971 69.4742C52.6609 69.4742 52.4248 69.3955 52.1099 69.238L15.1921 47.9847C14.2475 47.4337 13.5391 46.0168 13.5391 44.7573C13.5391 44.0489 13.7752 43.4979 14.2475 43.2617C14.6411 43.0256 15.1134 43.1043 15.5857 43.3404L52.5035 64.6725C53.4481 65.2235 54.1565 66.6404 54.1565 67.8211C54.1565 68.5296 53.9204 69.0806 53.4481 69.3167C53.2907 69.4742 53.1332 69.4742 52.8971 69.4742ZM14.7985 43.734C14.7198 43.734 14.6411 43.734 14.5624 43.8127C14.3262 43.9702 14.1688 44.285 14.1688 44.7573C14.1688 45.7806 14.7985 46.9614 15.507 47.355L52.4248 68.687C52.5822 68.7657 52.8971 68.9232 53.1332 68.7657C53.3694 68.6083 53.5268 68.2934 53.5268 67.8211C53.5268 66.7978 52.8971 65.6171 52.1886 65.2235L15.1921 43.8915C15.1134 43.8127 14.956 43.734 14.7985 43.734Z" fill="#065566"/>
<path d="M53.2123 78.6052L16.2944 57.3519C15.4286 56.8796 14.7988 55.5414 14.7988 54.4394C14.7988 53.3374 15.5073 52.7864 16.2944 53.2587L53.2123 74.5907C54.0781 75.063 54.7079 76.4012 54.7079 77.5032C54.7866 78.6052 54.0781 79.1563 53.2123 78.6052Z" fill="white"/>
<path d="M52.8971 77.2671C52.6609 77.2671 52.4248 77.1884 52.1099 77.031L15.1921 55.6989C14.2475 55.1479 13.5391 53.731 13.5391 52.5503C13.5391 51.8419 13.7752 51.2908 14.2475 51.0547C14.6411 50.8185 15.1134 50.8973 15.5857 51.1334L52.5035 72.4655C53.4481 73.0165 54.1565 74.4334 54.1565 75.6141C54.1565 76.3225 53.9204 76.8736 53.4481 77.1097C53.2907 77.1884 53.1332 77.2671 52.8971 77.2671ZM14.7985 51.527C14.7198 51.527 14.6411 51.527 14.5624 51.6057C14.3262 51.7631 14.1688 52.078 14.1688 52.5503C14.1688 53.5736 14.7985 54.7543 15.507 55.1479L52.4248 76.48C52.5822 76.5587 52.8971 76.7161 53.1332 76.5587C53.3694 76.4013 53.5268 76.0864 53.5268 75.6141C53.5268 74.5908 52.8971 73.4101 52.1886 73.0165L15.1921 51.6057C15.1134 51.527 14.956 51.527 14.7985 51.527Z" fill="#065566"/>
<path d="M88.0449 84.3374C87.1003 80.2441 84.975 73.8681 80.8818 71.5067C80.0946 71.0344 79.0713 70.4046 78.4416 70.0898L78.2054 67.3347C78.4416 67.256 78.6777 67.0986 78.9139 66.9411L78.9926 66.8624C79.5436 66.4688 80.0159 65.9965 80.1733 65.2094L80.4882 63.7925L81.5902 58.8334C81.6689 58.6759 81.6689 58.5185 81.6689 58.3611V58.2036C81.7476 57.8101 81.7476 57.4165 81.7476 57.0229C81.8264 52.6148 78.7564 47.2621 75.0568 45.0581C73.325 44.0348 71.9081 43.7986 70.7274 44.2709L70.57 44.3496L70.4912 44.4283C70.3338 44.5071 70.1764 44.5858 70.0977 44.6645L66.949 46.3962L66.7916 46.7111L68.3659 47.8918C68.2872 48.2067 68.2872 48.5216 68.2872 48.9152C68.2872 49.3087 68.2872 49.6236 68.3659 50.0959V50.1746V50.4108C68.3659 50.6469 68.4446 50.8043 68.4446 51.0405L69.7041 58.9908C69.9402 60.4077 70.6487 62.2969 71.5933 63.7138L71.2784 65.8391C70.6487 65.5242 69.6254 64.8158 68.8382 64.3435C67.2639 63.3989 66.0831 63.3202 64.9811 63.8712L64.8237 63.9499L64.4301 64.1861L61.675 65.7604L62.3048 66.7837C61.9899 67.4134 61.675 68.0432 61.4389 68.6729C60.9666 70.0111 61.9899 72.2938 63.4068 73.1597L74.427 79.6931L74.8993 80.008L83.4007 85.0458C83.4794 86.0691 83.7155 87.4073 83.7942 88.1945C83.7942 88.4306 84.1091 88.588 84.2665 88.4306L87.3365 86.6989C88.0449 86.3053 88.2811 85.4394 88.0449 84.3374Z" fill="#D2FCE3"/>
<path d="M87.7299 85.9115C86.7853 81.8183 84.6599 75.4423 80.5667 73.0808C79.7796 72.6085 78.7562 71.9788 78.1265 71.6639L71.2782 75.4423L70.7272 71.2703L73.8759 69.3024L77.6542 68.5152L77.8904 67.4132C78.4414 67.0196 78.5201 66.6261 78.7562 65.7602L80.2518 65.4453L81.3539 60.4862C81.4326 60.3288 81.4326 60.1713 81.4326 60.0139V59.8565C81.5113 59.4629 81.5113 59.0693 81.5113 58.6757C81.59 54.2676 78.5201 48.915 74.8204 46.7109C73.0887 45.6876 71.6718 45.4514 70.4911 45.9237L70.3336 46.0025L70.2549 46.0812C70.0975 46.1599 69.94 46.2386 69.8613 46.3173L66.7127 48.0491L66.5553 48.3639L68.1296 49.5447C68.0509 49.8595 68.0509 50.1744 68.0509 50.568C68.0509 50.9616 68.0509 51.2764 68.1296 51.7487V51.8274V52.0636C68.1296 52.2997 68.2083 52.4572 68.2083 52.6933L69.4677 60.6436C69.7039 62.0605 70.4123 63.9497 71.3569 65.3666L71.0421 67.4919C70.4123 67.1771 69.389 66.4686 68.6019 65.9963C67.0276 65.0517 65.8468 64.973 64.7448 65.524L64.5874 65.6028L64.1938 65.8389L61.4387 67.4132L62.0684 68.4365C61.7536 69.0663 61.4387 69.696 61.2026 70.3257C60.7303 71.6639 61.7536 73.9467 63.1705 74.8125L74.1907 81.346L74.663 81.6608L83.1643 86.6987C83.2431 87.722 83.4005 86.6987 83.4792 87.4071C83.4792 87.6432 83.7941 87.8007 83.9515 87.6432L86.2343 87.4858L86.313 86.4625C86.9427 85.9115 87.966 87.0135 87.7299 85.9115Z" fill="white"/>
<path d="M84.1875 88.6666C84.1088 88.6666 84.0301 88.6666 83.8726 88.5879C83.7152 88.5092 83.5578 88.3518 83.5578 88.1156C83.4791 87.4072 83.3216 86.1477 83.1642 85.1244L63.249 73.317C61.6747 72.3724 60.6514 69.9322 61.1237 68.5153C61.3598 67.8856 61.596 67.2559 61.9109 66.7048L61.2024 65.6028L64.8234 63.6349C66.0041 63.0052 67.3423 63.1626 68.9166 64.1072C69.3102 64.3434 69.8612 64.6582 70.3335 64.9731C70.5696 65.1305 70.8058 65.288 71.0419 65.3667L71.2781 63.7924C70.3335 62.3755 69.625 60.4863 69.3889 58.9907L68.1294 50.8829C68.1294 50.7255 68.0507 50.6468 68.0507 50.4106L67.972 50.0958C67.8933 49.6235 67.8933 49.2299 67.8933 48.8363C67.8933 48.5214 67.8933 48.2853 67.972 47.9704L66.3977 46.7897L66.7125 46.16L69.9399 44.3495C70.0973 44.2708 70.176 44.1921 70.3335 44.1133L70.4909 44.0346L70.7271 43.9559C71.9865 43.4049 73.4821 43.641 75.2926 44.7431C79.1497 47.0258 82.2196 52.4572 82.1409 56.9441C82.1409 57.2589 82.1409 57.6525 82.0622 57.9674L81.9835 58.2822C81.9835 58.4397 81.9047 58.5971 81.9047 58.7545L80.4878 65.1305C80.2517 66.1538 79.7007 66.6261 79.2284 66.941L79.1497 67.0197C78.9135 67.1771 78.7561 67.2559 78.5987 67.3346L78.8348 69.6961L81.1176 71.0342C85.1321 73.3957 87.3361 79.4568 88.3594 84.1011C88.6743 85.2818 88.3595 86.3051 87.651 86.6987L84.5811 88.4305C84.4236 88.5879 84.2662 88.6666 84.1875 88.6666ZM62.147 65.7603L62.698 66.6261L62.6193 66.8623C62.3044 67.4133 62.0683 68.043 61.7534 68.7515C61.2811 69.9322 62.3044 72.0575 63.6426 72.8447L83.7939 84.8095V84.967C83.8726 85.9903 84.1088 87.3285 84.1875 88.0369L87.3361 86.3051C87.8084 86.069 87.9659 85.2818 87.7297 84.416C86.8638 80.7163 84.8172 74.1829 80.724 71.7427L78.2051 70.2471L77.8902 67.1771L78.0476 67.0984C78.2838 67.0197 78.5199 66.8623 78.6774 66.7048L78.7561 66.6261C79.3858 66.2326 79.7007 65.7603 79.7794 65.1305L81.1963 58.7545C81.275 58.5971 81.275 58.4397 81.275 58.2822V58.1248C81.3537 57.7312 81.3537 57.3376 81.3537 56.9441C81.4324 52.6934 78.4412 47.4194 74.7416 45.2154C73.0885 44.2708 71.7504 44.0346 70.6483 44.5069L70.4122 44.5856C70.2548 44.6644 70.176 44.7431 70.0186 44.8218L66.87 46.6323L68.3656 47.7343V47.8917C68.2869 48.2853 68.2869 48.6002 68.2869 48.915C68.2869 49.3873 68.2869 49.6235 68.3656 50.017V50.0958V50.4106C68.3656 50.5681 68.4443 50.6468 68.4443 50.8042V50.9616L69.7037 58.912C69.9399 60.3289 70.6483 62.218 71.5929 63.5562L71.6717 63.6349L71.2781 66.3113L70.8845 66.0751C70.5696 65.9177 70.2548 65.6815 69.7825 65.4454C69.3102 65.1305 68.8379 64.8157 68.4443 64.5795C67.0274 63.7136 65.9254 63.6349 64.9021 64.1072L64.7446 64.1859L62.147 65.7603Z" fill="#065566"/>
<path d="M84.5812 86.2264C83.6367 82.1332 81.5113 75.7572 77.4181 73.3957C76.6309 72.9234 75.6076 72.2937 74.9779 71.9788L74.7417 69.2238C75.5289 68.8302 76.4735 68.2792 76.7097 67.0984L77.0245 65.6816L78.1265 60.7225C78.2053 60.565 78.2053 60.4076 78.2053 60.2502V60.0927C78.284 59.6991 78.284 59.3056 78.284 58.912C78.3627 54.5039 75.2928 49.1512 71.5931 46.9471C67.8147 44.7431 64.7448 46.4748 64.6661 50.8042C64.6661 51.1978 64.6661 51.5127 64.7448 51.985V52.0637V52.2998C64.7448 52.536 64.8235 52.6934 64.8235 52.9296L66.083 60.8799C66.3191 62.2968 67.0276 64.186 67.9722 65.6028L67.6573 67.7282C67.0276 67.4133 66.0043 66.7049 65.2171 66.2326C61.1239 63.7924 58.9198 67.5707 57.8178 70.4832C57.3455 71.8214 58.3688 74.1042 59.7857 74.9701L70.8059 81.5035L71.2782 81.8184L82.2985 88.3518C84.0302 89.2177 85.0535 88.1156 84.5812 86.2264Z" fill="#D2FCE3"/>
<path d="M83.4791 88.9026C83.1642 88.9026 82.7706 88.8239 82.3771 88.5877L59.8643 75.2847C58.2899 74.3401 57.2666 71.8999 57.7389 70.483C58.4474 68.5938 59.6281 66.1536 61.6747 65.4452C62.8555 65.0516 64.1936 65.209 65.5318 66.0749C65.9254 66.3111 66.4764 66.6259 66.87 66.9408C67.1061 67.0982 67.3423 67.2557 67.5784 67.3344L67.8146 65.7601C66.87 64.3432 66.1615 62.454 65.9254 60.9584L64.6659 52.8506C64.6659 52.6932 64.5872 52.6145 64.5872 52.3783L64.5085 52.0635C64.4298 51.5912 64.4298 51.1976 64.4298 50.804C64.4298 48.6 65.217 46.9469 66.6338 46.1598C68.0507 45.3726 69.8612 45.53 71.7504 46.7108C75.6075 48.9935 78.6774 54.5037 78.5987 58.9118C78.5987 59.2266 78.5987 59.6202 78.52 59.9351L78.4413 60.2499C78.4413 60.4074 78.3625 60.5648 78.3625 60.7222L76.9456 67.0982C76.7095 68.279 75.8436 68.9087 74.9777 69.3023L75.2139 71.6638L77.5754 73.1594C81.5899 75.5208 83.7939 81.582 84.8172 86.2262C85.0534 87.3283 84.896 88.2728 84.2662 88.6664C84.1088 88.8239 83.7939 88.9026 83.4791 88.9026ZM62.9342 65.7601C62.5406 65.7601 62.2257 65.8388 61.9109 65.9175C60.1004 66.5472 58.9984 68.83 58.3687 70.5617C57.8964 71.7425 58.9197 73.8678 60.2578 74.655L82.7706 87.958C83.3217 88.2729 83.7152 88.2728 84.0301 88.1154C84.4237 87.8005 84.5811 87.0921 84.345 86.2262C83.4791 82.5266 81.4325 75.9931 77.3392 73.5529L74.8203 72.0573L74.5054 68.9874L74.6629 68.9087C75.45 68.5151 76.3159 67.9641 76.4734 67.0195L77.8902 60.6435C77.969 60.4861 77.969 60.3287 77.969 60.1712V60.0138C78.0477 59.6202 78.0477 59.2266 78.0477 58.833C78.1264 54.5824 75.1352 49.3084 71.4355 47.1044C69.7038 46.081 68.1295 45.9236 66.87 46.5533C65.6893 47.2618 64.9808 48.6787 64.9808 50.7253C64.9808 51.1976 64.9808 51.4337 65.0595 51.8273V51.906V52.2209C65.0595 52.3783 65.1382 52.457 65.1382 52.6145V52.7719L66.3977 60.7222C66.6338 62.1391 67.3423 64.0283 68.2869 65.3665L68.3656 65.4452L67.972 68.1215L67.5784 67.8854C67.2636 67.728 66.9487 67.4918 66.4764 67.2557C66.0041 66.9408 65.5318 66.6259 65.1382 66.3898C64.4298 65.9962 63.7214 65.7601 62.9342 65.7601Z" fill="#065566"/>
<path d="M81.9053 57.5737L81.5905 54.5825L78.2057 56.4717L78.5993 58.5183L77.025 65.9176L76.9462 65.9963L76.5527 67.5707L75.2932 68.9876L74.7422 69.2237L75.0571 71.9788L78.4418 70.0109L78.2057 67.3345L79.7013 66.4686L80.2523 64.6582L80.4097 64.0284L81.9053 57.5737Z" fill="#065566"/>
<path d="M83.793 83.2354L87.099 81.3462L87.9649 83.7864L88.1223 85.282L87.8075 86.4627L84.344 88.2732L84.6588 86.8563L84.0291 83.8651L83.793 83.2354Z" fill="#065566"/>
<defs>
<linearGradient id="paint0_linear_1671_32808" x1="14.8009" y1="0.444772" x2="94.6977" y2="115.37" gradientUnits="userSpaceOnUse">
<stop stop-color="white"/>
<stop offset="0.583333" stop-color="white"/>
<stop offset="0.583433" stop-color="#065566"/>
<stop offset="1" stop-color="#065566"/>
</linearGradient>
</defs>
</svg>
