<svg width="180" height="36" viewBox="0 0 180 36" fill="none" xmlns="http://www.w3.org/2000/svg">
<path d="M180 35.9755H169.744C164.204 35.9755 159.894 21.4421 153.709 17.9983C157.344 15.9746 160.334 10.1163 163.305 5.63554C165.512 2.30398 167.306 0.0249023 171.639 0.0249023H180C172.9 1.82804 168.039 15.1968 164.952 17.9983C168.031 20.7997 172.904 34.1724 180 35.9755Z" fill="url(#paint0_linear_1880_1846)"/>
<path d="M164.968 17.9865C166.511 19.3872 168.483 23.4308 170.971 27.3505C173.46 31.2702 176.45 35.0622 180 35.9638H169.744C166.974 35.9638 164.512 32.3304 161.97 28.2675C159.427 24.2047 156.803 19.7084 153.709 17.9865C153.941 17.8581 154.167 17.7173 154.384 17.5648C157.594 15.2819 161.934 15.4518 164.956 17.9788L164.968 17.9865Z" fill="url(#paint1_radial_1880_1846)"/>
<path d="M12.8483 19.9331C12.8483 21.6833 11.4335 23.1022 9.68828 23.1022H0V25.1762H9.68828C12.5773 25.1741 14.9211 22.8304 14.9318 19.9331V10.8091H12.8483V19.9331Z" fill="#409EDC"/>
<path d="M74.104 19.9331C74.104 21.6833 72.6892 23.1022 70.944 23.1022H62.2126C63.5119 21.4713 63.7563 19.235 62.8399 17.3607C61.9236 15.4863 60.0111 14.3105 57.9298 14.3418H53.9558V16.4313H57.9298C59.7688 16.4313 61.2596 17.9264 61.2596 19.7706C61.2596 21.6149 59.7688 23.1099 57.9298 23.1099H51.9417C50.2252 23.07 48.8546 21.6628 48.855 19.9409V14.3418H46.7715V19.9331C46.7715 20.7756 46.437 21.5835 45.8419 22.1781C45.2468 22.7727 44.4401 23.1053 43.6 23.1022H37.4652C35.72 23.1022 34.3053 21.6833 34.3053 19.9331V14.3418H32.2218V19.9331C32.2218 21.6833 30.807 23.1022 29.0618 23.1022H22.8499C21.1342 23.0602 19.7648 21.6542 19.7632 19.9331V10.8091H17.6797V19.9331C17.6903 22.8289 20.0318 25.1719 22.9193 25.1762H29.0618C30.7171 25.1759 32.2749 24.3911 33.2635 23.0596C34.2509 24.3926 35.8095 25.1777 37.4652 25.1762H43.6C45.2553 25.1759 46.8132 24.3911 47.8017 23.0596C48.7907 24.3948 50.3527 25.1802 52.0112 25.1762H57.9298C59.1316 25.1763 60.2997 24.7777 61.2519 24.0424V25.1762H70.944C73.8369 25.174 76.1815 22.8227 76.1836 19.9215V14.3418H74.104V19.9331Z" fill="#409EDC"/>
<path d="M82.9038 14.3416H78.9297V16.4311H82.9038C84.7427 16.4311 86.2335 17.9261 86.2335 19.7704C86.2335 21.6146 84.7427 23.1097 82.9038 23.1097H78.9297V25.1759H82.9038C85.8924 25.1759 88.3151 22.7463 88.3151 19.7491C88.3151 16.7519 85.8924 14.3223 82.9038 14.3223V14.3416Z" fill="#409EDC"/>
<path d="M106.71 19.9331C106.707 21.6825 105.294 23.1 103.55 23.1022H93.8574V25.1762H103.55C106.444 25.1826 108.796 22.8358 108.805 19.9331V10.8091H106.725L106.71 19.9331Z" fill="#0F367B"/>
<path d="M137.214 14.3417H136.296L141.293 9.31152H138.349L133.24 14.4501V16.4235H137.214C139.053 16.4235 140.544 17.9185 140.544 19.7628C140.544 21.607 139.053 23.1021 137.214 23.1021H129.529C127.813 23.0601 126.443 21.6541 126.442 19.933V14.3417H124.358V19.933C124.358 21.6832 122.944 23.1021 121.198 23.1021H116.707C114.992 23.0601 113.622 21.6541 113.621 19.933V10.809H111.541V19.933C111.55 22.8282 113.89 25.1718 116.777 25.1761H121.195C122.848 25.1804 124.407 24.3997 125.396 23.0711C126.387 24.3983 127.945 25.1785 129.598 25.1761H137.214C139.148 25.1761 140.934 24.1417 141.901 22.4627C142.867 20.7836 142.867 18.7149 141.901 17.0358C140.934 15.3568 139.148 14.3224 137.214 14.3224V14.3417Z" fill="#0F367B"/>
<path d="M98.8965 10.8091H102.33V13.2352H98.8965V10.8091Z" fill="#0F367B"/>
<path d="M21.9453 10.8091H25.3792V13.2352H21.9453V10.8091Z" fill="#409EDC"/>
<path d="M26.5176 10.8091H29.9554V13.2352H26.5176V10.8091Z" fill="#409EDC"/>
<path d="M57.8125 27.3813H61.2464V29.8075H57.8125V27.3813Z" fill="#409EDC"/>
<path d="M116.344 27.3813H119.778V29.8075H116.344V27.3813Z" fill="#0F367B"/>
<path d="M120.92 27.3813H124.354V29.8075H120.92V27.3813Z" fill="#0F367B"/>
<path d="M66.0938 27.3813H69.5277V29.8075H66.0938V27.3813Z" fill="#409EDC"/>
<path d="M70.6699 27.3813H74.1038V29.8075H70.6699V27.3813Z" fill="#409EDC"/>
<path d="M38.7578 27.3813H42.1956V29.8075H38.7578V27.3813Z" fill="#409EDC"/>
<path d="M43.332 27.3813H46.7698V29.8075H43.332V27.3813Z" fill="#409EDC"/>
<defs>
<linearGradient id="paint0_linear_1880_1846" x1="171.716" y1="10.4955" x2="160.879" y2="30.1612" gradientUnits="userSpaceOnUse">
<stop stop-color="#409EDC"/>
<stop offset="1" stop-color="white"/>
</linearGradient>
<radialGradient id="paint1_radial_1880_1846" cx="0" cy="0" r="1" gradientUnits="userSpaceOnUse" gradientTransform="translate(130.489 31.808) scale(18.6705 18.6705)">
<stop offset="0.19" stop-color="#0F367B"/>
<stop offset="0.91" stop-color="#1D71B8"/>
</radialGradient>
</defs>
</svg>
