<svg width="127" height="11" viewBox="0 0 127 11" fill="none" xmlns="http://www.w3.org/2000/svg">
<path d="M1.94961 9.9502L2.74961 7.7502H6.74961L7.64961 9.9502H8.24961L5.04961 1.7502H4.44961L1.34961 9.9502H1.94961ZM6.64961 7.3502H2.94961L4.74961 2.4502L6.64961 7.3502ZM62.3496 9.9502V6.2502H64.1496C65.0496 6.2502 65.7496 6.0502 66.2496 5.6502C66.7496 5.2502 66.9496 4.6502 66.9496 3.8502C66.9496 3.0502 66.7496 2.4502 66.2496 2.0502C65.7496 1.6502 65.0496 1.4502 64.1496 1.4502H61.8496V9.9502H62.3496ZM64.0496 5.7502H62.3496V1.9502H64.1496C64.9496 1.9502 65.5496 2.1502 65.8496 2.4502C66.1496 2.7502 66.3496 3.2502 66.3496 3.9502C66.3496 5.1502 65.5496 5.7502 64.0496 5.7502ZM73.4496 9.9502V9.5502H70.3496V1.5502H69.8496V9.9502H73.4496ZM76.1496 9.9502L76.9496 7.7502H80.9496L81.8496 9.9502H82.3496L79.2496 1.7502H78.6496L75.5496 9.9502H76.1496ZM80.8496 7.3502H77.1496L78.9496 2.4502L80.8496 7.3502ZM87.4496 9.9502V1.9502H89.8496V1.4502H84.4496V1.9502H86.8496V9.9502H87.4496ZM93.0496 9.9502V5.9502H96.4496V5.5502H93.0496V1.9502H96.8496V1.4502H92.4496V9.9502H93.0496ZM103.65 10.0502C104.45 10.0502 105.15 9.85019 105.75 9.4502C106.35 9.0502 106.85 8.5502 107.25 7.9502C107.65 7.3502 107.75 6.5502 107.75 5.7502C107.75 4.9502 107.55 4.1502 107.25 3.5502C106.95 2.9502 106.35 2.3502 105.65 1.9502C105.05 1.5502 104.35 1.4502 103.55 1.4502C102.75 1.4502 102.05 1.6502 101.45 1.9502C100.85 2.3502 100.35 2.8502 99.9496 3.4502C99.5496 4.1502 99.4496 4.8502 99.4496 5.6502C99.4496 6.4502 99.6496 7.2502 99.9496 7.8502C100.35 8.5502 100.75 9.05019 101.45 9.35019C102.15 9.85019 102.85 10.0502 103.65 10.0502ZM103.65 9.5502C102.95 9.5502 102.35 9.3502 101.85 9.0502C101.35 8.7502 100.85 8.2502 100.55 7.7502C100.25 7.1502 100.05 6.5502 100.05 5.7502C100.05 4.9502 100.25 4.3502 100.55 3.7502C100.85 3.1502 101.25 2.7502 101.85 2.4502C102.35 2.1502 102.95 1.9502 103.65 1.9502C104.35 1.9502 104.95 2.1502 105.45 2.4502C105.95 2.7502 106.45 3.2502 106.75 3.7502C107.05 4.2502 107.25 4.9502 107.25 5.7502C107.25 6.5502 107.05 7.1502 106.75 7.7502C106.45 8.3502 106.05 8.7502 105.45 9.0502C104.85 9.3502 104.25 9.5502 103.65 9.5502ZM111.35 9.9502V6.3502H112.95L115.35 9.9502H115.95L113.45 6.3502C114.25 6.2502 114.85 6.0502 115.25 5.6502C115.65 5.2502 115.85 4.6502 115.85 3.9502C115.85 3.1502 115.65 2.6502 115.15 2.1502C114.65 1.7502 114.05 1.4502 113.05 1.4502H110.65V9.9502H111.35ZM113.15 5.9502H111.35V1.9502H113.15C113.95 1.9502 114.55 2.1502 114.85 2.4502C115.25 2.7502 115.35 3.2502 115.35 3.9502C115.45 5.2502 114.65 5.9502 113.15 5.9502ZM119.45 9.9502V2.7502L122.55 9.9502H123.05L126.15 2.6502V9.9502H126.65V1.7502H126.05L122.75 9.35019L119.45 1.7502H118.85V9.9502H119.45Z" fill="#8F97B2" stroke="#8F97B2" stroke-width="0.5"/>
<path d="M29.2734 0.950195H27.2734V9.9502H29.2734V2.77162" fill="#8F97B2"/>
<path d="M18.2734 0.950195H16.2734V9.9502H18.2734V0.950195Z" fill="#8F97B2"/>
<path d="M38.3399 2.87877L42.2734 9.9502H40.1128L37.2596 4.83412L34.4341 9.9502H32.2734L37.038 1.35198L37.2596 0.950195L37.5089 1.35198L38.3399 2.87877Z" fill="#8F97B2"/>
<path d="M50.3119 0.950195V6.14662L43.2734 0.950195V9.9502H45.2638V4.75377L52.2734 9.9502V0.950195H50.3119Z" fill="#8F97B2"/>
<path d="M22.2654 5.4502C23.0839 6.14662 24.3823 9.49484 26.2734 9.9502H23.5355C22.0678 9.9502 20.9105 6.30734 19.2734 5.4502C20.2331 4.94127 21.0234 3.46805 21.8138 2.34305C22.4065 1.5127 22.8863 0.950195 24.0436 0.950195H26.2734C24.3823 1.40555 23.0839 4.75377 22.2654 5.4502Z" fill="#62CCF5"/>
</svg>
