<svg width="151" height="26" viewBox="0 0 151 26" fill="none" xmlns="http://www.w3.org/2000/svg">
<path d="M150.577 25.25H143.454C139.606 25.25 136.612 15.1434 132.316 12.7487C134.841 11.3414 136.918 7.26754 138.981 4.15163C140.514 1.83487 141.76 0.25 144.77 0.25H150.577C145.646 1.5039 142.27 10.8005 140.126 12.7487C142.264 14.6968 145.649 23.9961 150.577 25.25Z" fill="black"/>
<path d="M140.136 12.7403C141.208 13.7143 142.578 16.5262 144.306 19.252C146.035 21.9777 148.112 24.6147 150.577 25.2416H143.454C141.53 25.2416 139.82 22.715 138.054 19.8897C136.288 17.0644 134.466 13.9377 132.316 12.7403C132.478 12.6509 132.634 12.553 132.785 12.447C135.015 10.8595 138.029 10.9777 140.128 12.7349L140.136 12.7403Z" fill="black"/>
<path d="M11.4121 13.0759C11.4121 14.6004 10.1813 15.8362 8.66296 15.8362H0.234375V17.6426H8.66296C11.1763 17.6408 13.2154 15.5995 13.2247 13.0759V5.12891H11.4121V13.0759Z" fill="black"/>
<path d="M64.7012 13.0759C64.7012 14.6004 63.4703 15.8362 61.952 15.8362H54.3559C55.4863 14.4157 55.6989 12.4679 54.9017 10.8353C54.1045 9.20278 52.4407 8.17864 50.63 8.20594H47.1727V10.0259H50.63C52.2299 10.0259 53.5268 11.3281 53.5268 12.9344C53.5268 14.5407 52.2299 15.8429 50.63 15.8429H45.4205C43.9271 15.8081 42.7347 14.5825 42.7351 13.0827V8.20594H40.9225V13.0759C40.9225 13.8098 40.6315 14.5134 40.1138 15.0313C39.596 15.5492 38.8942 15.8389 38.1634 15.8362H32.8263C31.308 15.8362 30.0772 14.6004 30.0772 13.0759V8.20594H28.2646V13.0759C28.2646 14.6004 27.0337 15.8362 25.5154 15.8362H20.1112C18.6187 15.7996 17.4273 14.575 17.4259 13.0759V5.12891H15.6133V13.0759C15.6225 15.5982 17.6596 17.6389 20.1716 17.6426H25.5154C26.9555 17.6424 28.3108 16.9589 29.1709 15.7991C30.0298 16.9601 31.3858 17.644 32.8263 17.6426H38.1634C39.6035 17.6424 40.9587 16.9589 41.8188 15.7991C42.6791 16.962 44.0381 17.6461 45.4809 17.6426H50.63C51.6755 17.6428 52.6917 17.2956 53.5201 16.6551V17.6426H61.952C64.4688 17.6408 66.5085 15.5928 66.5104 13.0658V8.20594H64.7012V13.0759Z" fill="black"/>
<path d="M72.3597 8.20435H68.9023V10.0243H72.3597C73.9596 10.0243 75.2565 11.3265 75.2565 12.9328C75.2565 14.5391 73.9596 15.8413 72.3597 15.8413H68.9023V17.641H72.3597C74.9597 17.641 77.0674 15.5248 77.0674 12.9143C77.0674 10.3037 74.9597 8.1875 72.3597 8.1875V8.20435Z" fill="black"/>
<path d="M93.0717 13.0759C93.0698 14.5996 91.8401 15.8343 90.3226 15.8362H81.8906V17.6426H90.3226C92.8406 17.6482 94.8869 15.6042 94.8943 13.0759V5.12891H93.0851L93.0717 13.0759Z" fill="black"/>
<path d="M119.609 8.20554H118.81L123.157 3.82422H120.596L116.151 8.29991V10.0187H119.609C121.209 10.0187 122.505 11.3209 122.505 12.9273C122.505 14.5336 121.209 15.8358 119.609 15.8358H112.922C111.43 15.7992 110.238 14.5746 110.237 13.0755V8.20554H108.424V13.0755C108.424 14.6 107.193 15.8358 105.675 15.8358H101.768C100.275 15.7992 99.0841 14.5746 99.0827 13.0755V5.1285H97.2734V13.0755C97.2808 15.5972 99.3169 17.6385 101.828 17.6422H105.672C107.111 17.646 108.466 16.966 109.327 15.8088C110.189 16.9648 111.544 17.6444 112.983 17.6422H119.609C121.291 17.6422 122.845 16.7413 123.686 15.2788C124.527 13.8164 124.527 12.0145 123.686 10.5521C122.845 9.0896 121.291 8.18869 119.609 8.18869V8.20554Z" fill="black"/>
<path d="M86.2734 5.12891H89.2609V7.24205H86.2734V5.12891Z" fill="black"/>
<path d="M19.3281 5.12891H22.3156V7.24205H19.3281V5.12891Z" fill="black"/>
<path d="M23.3047 5.12891H26.2955V7.24205H23.3047V5.12891Z" fill="black"/>
<path d="M50.5312 19.5625H53.5187V21.6756H50.5312V19.5625Z" fill="black"/>
<path d="M101.453 19.5625H104.441V21.6756H101.453V19.5625Z" fill="black"/>
<path d="M105.434 19.5625H108.421V21.6756H105.434V19.5625Z" fill="black"/>
<path d="M57.7344 19.5625H60.7218V21.6756H57.7344V19.5625Z" fill="black"/>
<path d="M61.7148 19.5625H64.7023V21.6756H61.7148V19.5625Z" fill="black"/>
<path d="M33.9531 19.5625H36.9439V21.6756H33.9531V19.5625Z" fill="black"/>
<path d="M37.9336 19.5625H40.9244V21.6756H37.9336V19.5625Z" fill="black"/>
</svg>
