<svg width="136" height="173" viewBox="0 0 136 173" fill="none" xmlns="http://www.w3.org/2000/svg">
<g clip-path="url(#clip0_2727_13778)">
<path d="M75.2878 169.351C75.4258 169.402 75.545 169.494 75.6292 169.615C75.7134 169.736 75.7586 169.881 75.7586 170.029C75.7586 170.176 75.7134 170.321 75.6292 170.442C75.545 170.563 75.4258 170.655 75.2878 170.706C74.9269 170.899 74.5244 171 74.1156 171C73.7069 171 73.3043 170.899 72.9434 170.706C72.8054 170.655 72.6862 170.563 72.602 170.442C72.5178 170.321 72.4727 170.176 72.4727 170.029C72.4727 169.881 72.5178 169.736 72.602 169.615C72.6862 169.494 72.8054 169.402 72.9434 169.351C73.3075 169.168 73.7088 169.073 74.1156 169.073C74.5225 169.073 74.9238 169.168 75.2878 169.351Z" fill="#065566"/>
<path d="M80.2357 167.449C81.1469 167.449 81.8855 167.019 81.8855 166.488C81.8855 165.957 81.1469 165.526 80.2357 165.526C79.3246 165.526 78.5859 165.957 78.5859 166.488C78.5859 167.019 79.3246 167.449 80.2357 167.449Z" fill="#065566"/>
<path d="M86.3373 163.887C87.2484 163.887 87.987 163.456 87.987 162.925C87.987 162.394 87.2484 161.964 86.3373 161.964C85.4261 161.964 84.6875 162.394 84.6875 162.925C84.6875 163.456 85.4261 163.887 86.3373 163.887Z" fill="#065566"/>
<path d="M91.3373 168.887C92.2484 168.887 92.987 168.456 92.987 167.925C92.987 167.394 92.2484 166.964 91.3373 166.964C90.4261 166.964 89.6875 167.394 89.6875 167.925C89.6875 168.456 90.4261 168.887 91.3373 168.887Z" fill="#065566"/>
<path d="M92.4584 160.325C93.3695 160.325 94.1081 159.894 94.1081 159.363C94.1081 158.832 93.3695 158.402 92.4584 158.402C91.5472 158.402 90.8086 158.832 90.8086 159.363C90.8086 159.894 91.5472 160.325 92.4584 160.325Z" fill="#065566"/>
<path d="M97.4584 165.325C98.3695 165.325 99.1081 164.894 99.1081 164.363C99.1081 163.832 98.3695 163.402 97.4584 163.402C96.5472 163.402 95.8086 163.832 95.8086 164.363C95.8086 164.894 96.5472 165.325 97.4584 165.325Z" fill="#065566"/>
<path d="M99.7526 155.145C99.8906 155.196 100.01 155.288 100.094 155.409C100.178 155.531 100.223 155.675 100.223 155.823C100.223 155.971 100.178 156.115 100.094 156.236C100.01 156.357 99.8906 156.45 99.7526 156.5C99.3886 156.683 98.9873 156.778 98.5804 156.778C98.1736 156.778 97.7723 156.683 97.4082 156.5C97.2702 156.45 97.1511 156.357 97.0669 156.236C96.9827 156.115 96.9375 155.971 96.9375 155.823C96.9375 155.675 96.9827 155.531 97.0669 155.409C97.1511 155.288 97.2702 155.196 97.4082 155.145C97.7691 154.952 98.1717 154.851 98.5804 154.851C98.9892 154.851 99.3917 154.952 99.7526 155.145Z" fill="#065566"/>
<path d="M104.753 160.145C104.891 160.196 105.01 160.288 105.094 160.409C105.178 160.531 105.223 160.675 105.223 160.823C105.223 160.971 105.178 161.115 105.094 161.236C105.01 161.357 104.891 161.45 104.753 161.5C104.389 161.683 103.987 161.778 103.58 161.778C103.174 161.778 102.772 161.683 102.408 161.5C102.27 161.45 102.151 161.357 102.067 161.236C101.983 161.115 101.938 160.971 101.938 160.823C101.938 160.675 101.983 160.531 102.067 160.409C102.151 160.288 102.27 160.196 102.408 160.145C102.769 159.952 103.172 159.851 103.58 159.851C103.989 159.851 104.392 159.952 104.753 160.145Z" fill="#065566"/>
<path d="M117.753 144.145C117.891 144.196 118.01 144.288 118.094 144.409C118.178 144.531 118.223 144.675 118.223 144.823C118.223 144.971 118.178 145.115 118.094 145.236C118.01 145.357 117.891 145.45 117.753 145.5C117.389 145.683 116.987 145.778 116.58 145.778C116.174 145.778 115.772 145.683 115.408 145.5C115.27 145.45 115.151 145.357 115.067 145.236C114.983 145.115 114.938 144.971 114.938 144.823C114.938 144.675 114.983 144.531 115.067 144.409C115.151 144.288 115.27 144.196 115.408 144.145C115.769 143.952 116.172 143.851 116.58 143.851C116.989 143.851 117.392 143.952 117.753 144.145Z" fill="#065566"/>
<path d="M122.753 149.145C122.891 149.196 123.01 149.288 123.094 149.409C123.178 149.531 123.223 149.675 123.223 149.823C123.223 149.971 123.178 150.115 123.094 150.236C123.01 150.357 122.891 150.45 122.753 150.5C122.389 150.683 121.987 150.778 121.58 150.778C121.174 150.778 120.772 150.683 120.408 150.5C120.27 150.45 120.151 150.357 120.067 150.236C119.983 150.115 119.938 149.971 119.938 149.823C119.938 149.675 119.983 149.531 120.067 149.409C120.151 149.288 120.27 149.196 120.408 149.145C120.769 148.952 121.172 148.851 121.58 148.851C121.989 148.851 122.392 148.952 122.753 149.145Z" fill="#065566"/>
<path d="M105.852 151.562C105.99 151.613 106.109 151.705 106.193 151.826C106.278 151.947 106.323 152.091 106.323 152.239C106.323 152.387 106.278 152.531 106.193 152.653C106.109 152.774 105.99 152.866 105.852 152.917C105.492 153.099 105.094 153.194 104.691 153.194C104.287 153.194 103.89 153.099 103.529 152.917C103.391 152.866 103.272 152.774 103.188 152.653C103.104 152.531 103.059 152.387 103.059 152.239C103.059 152.091 103.104 151.947 103.188 151.826C103.272 151.705 103.391 151.613 103.529 151.562C103.89 151.379 104.287 151.284 104.691 151.284C105.094 151.284 105.492 151.379 105.852 151.562Z" fill="#065566"/>
<path d="M110.852 156.562C110.99 156.613 111.109 156.705 111.193 156.826C111.278 156.947 111.323 157.091 111.323 157.239C111.323 157.387 111.278 157.531 111.193 157.653C111.109 157.774 110.99 157.866 110.852 157.917C110.492 158.099 110.094 158.194 109.691 158.194C109.287 158.194 108.89 158.099 108.529 157.917C108.391 157.866 108.272 157.774 108.188 157.653C108.104 157.531 108.059 157.387 108.059 157.239C108.059 157.091 108.104 156.947 108.188 156.826C108.272 156.705 108.391 156.613 108.529 156.562C108.89 156.379 109.287 156.284 109.691 156.284C110.094 156.284 110.492 156.379 110.852 156.562Z" fill="#065566"/>
<path d="M123.852 140.562C123.99 140.613 124.109 140.705 124.193 140.826C124.278 140.947 124.323 141.091 124.323 141.239C124.323 141.387 124.278 141.531 124.193 141.653C124.109 141.774 123.99 141.866 123.852 141.917C123.492 142.099 123.094 142.194 122.691 142.194C122.287 142.194 121.89 142.099 121.529 141.917C121.391 141.866 121.272 141.774 121.188 141.653C121.104 141.531 121.059 141.387 121.059 141.239C121.059 141.091 121.104 140.947 121.188 140.826C121.272 140.705 121.391 140.613 121.529 140.562C121.89 140.379 122.287 140.284 122.691 140.284C123.094 140.284 123.492 140.379 123.852 140.562Z" fill="#065566"/>
<path d="M128.852 145.562C128.99 145.613 129.109 145.705 129.193 145.826C129.278 145.947 129.323 146.091 129.323 146.239C129.323 146.387 129.278 146.531 129.193 146.653C129.109 146.774 128.99 146.866 128.852 146.917C128.492 147.099 128.094 147.194 127.691 147.194C127.287 147.194 126.89 147.099 126.529 146.917C126.391 146.866 126.272 146.774 126.188 146.653C126.104 146.531 126.059 146.387 126.059 146.239C126.059 146.091 126.104 145.947 126.188 145.826C126.272 145.705 126.391 145.613 126.529 145.562C126.89 145.379 127.287 145.284 127.691 145.284C128.094 145.284 128.492 145.379 128.852 145.562Z" fill="#065566"/>
<path d="M110.802 149.66C111.713 149.66 112.452 149.23 112.452 148.699C112.452 148.168 111.713 147.737 110.802 147.737C109.891 147.737 109.152 148.168 109.152 148.699C109.152 149.23 109.891 149.66 110.802 149.66Z" fill="#065566"/>
<path d="M115.802 154.66C116.713 154.66 117.452 154.23 117.452 153.699C117.452 153.168 116.713 152.737 115.802 152.737C114.891 152.737 114.152 153.168 114.152 153.699C114.152 154.23 114.891 154.66 115.802 154.66Z" fill="#065566"/>
<path d="M128.802 138.66C129.713 138.66 130.452 138.23 130.452 137.699C130.452 137.168 129.713 136.737 128.802 136.737C127.891 136.737 127.152 137.168 127.152 137.699C127.152 138.23 127.891 138.66 128.802 138.66Z" fill="#065566"/>
<path d="M133.802 143.66C134.713 143.66 135.452 143.23 135.452 142.699C135.452 142.168 134.713 141.737 133.802 141.737C132.891 141.737 132.152 142.168 132.152 142.699C132.152 143.23 132.891 143.66 133.802 143.66Z" fill="#065566"/>
<path d="M85.0456 171.351C85.1836 171.402 85.3028 171.494 85.387 171.615C85.4712 171.736 85.5164 171.881 85.5164 172.029C85.5164 172.176 85.4712 172.321 85.387 172.442C85.3028 172.563 85.1836 172.655 85.0456 172.706C84.6847 172.899 84.2822 173 83.8734 173C83.4647 173 83.0621 172.899 82.7012 172.706C82.5632 172.655 82.4441 172.563 82.3598 172.442C82.2756 172.321 82.2305 172.176 82.2305 172.029C82.2305 171.881 82.2756 171.736 82.3598 171.615C82.4441 171.494 82.5632 171.402 82.7012 171.351C83.0653 171.168 83.4666 171.073 83.8734 171.073C84.2803 171.073 84.6815 171.168 85.0456 171.351Z" fill="#065566"/>
<path d="M69.1648 165.788C69.8161 166.182 69.8161 166.793 69.1648 167.165C68.8008 167.348 68.3995 167.443 67.9927 167.443C67.5858 167.443 67.1845 167.348 66.8204 167.165C66.1692 166.793 66.1692 166.182 66.8204 165.788C67.1845 165.605 67.5858 165.51 67.9927 165.51C68.3995 165.51 68.8008 165.605 69.1648 165.788Z" fill="#065566"/>
<path d="M75.2878 162.249C75.4258 162.299 75.545 162.392 75.6292 162.513C75.7134 162.634 75.7586 162.778 75.7586 162.926C75.7586 163.074 75.7134 163.218 75.6292 163.339C75.545 163.461 75.4258 163.553 75.2878 163.604C74.9238 163.786 74.5225 163.881 74.1156 163.881C73.7088 163.881 73.3075 163.786 72.9434 163.604C72.8054 163.553 72.6862 163.461 72.602 163.339C72.5178 163.218 72.4727 163.074 72.4727 162.926C72.4727 162.778 72.5178 162.634 72.602 162.513C72.6862 162.392 72.8054 162.299 72.9434 162.249C73.3075 162.066 73.7088 161.971 74.1156 161.971C74.5225 161.971 74.9238 162.066 75.2878 162.249Z" fill="#065566"/>
<path d="M81.3872 158.687C81.5252 158.738 81.6444 158.83 81.7286 158.951C81.8128 159.072 81.8579 159.216 81.8579 159.364C81.8579 159.512 81.8128 159.656 81.7286 159.778C81.6444 159.899 81.5252 159.991 81.3872 160.042C81.0302 160.235 80.6312 160.336 80.2258 160.336C79.8205 160.336 79.4215 160.235 79.0645 160.042C78.9265 159.991 78.8073 159.899 78.7231 159.778C78.6389 159.656 78.5938 159.512 78.5938 159.364C78.5938 159.216 78.6389 159.072 78.7231 158.951C78.8073 158.83 78.9265 158.738 79.0645 158.687C79.4248 158.504 79.8225 158.409 80.2258 158.409C80.6292 158.409 81.0269 158.504 81.3872 158.687Z" fill="#065566"/>
<path d="M87.5105 155.145C87.6485 155.196 87.7677 155.288 87.8519 155.409C87.9361 155.531 87.9812 155.675 87.9812 155.823C87.9812 155.971 87.9361 156.115 87.8519 156.236C87.7677 156.357 87.6485 156.45 87.5105 156.5C87.1464 156.683 86.7451 156.778 86.3383 156.778C85.9314 156.778 85.5302 156.683 85.1661 156.5C85.0281 156.45 84.9089 156.357 84.8247 156.236C84.7405 156.115 84.6953 155.971 84.6953 155.823C84.6953 155.675 84.7405 155.531 84.8247 155.409C84.9089 155.288 85.0281 155.196 85.1661 155.145C85.527 154.952 85.9295 154.851 86.3383 154.851C86.7471 154.851 87.1496 154.952 87.5105 155.145Z" fill="#065566"/>
<path d="M93.6316 151.562C93.7696 151.612 93.8888 151.705 93.973 151.826C94.0572 151.947 94.1024 152.091 94.1024 152.239C94.1024 152.387 94.0572 152.531 93.973 152.652C93.8888 152.774 93.7696 152.866 93.6316 152.917C93.2675 153.099 92.8662 153.194 92.4594 153.194C92.0525 153.194 91.6513 153.099 91.2872 152.917C91.1492 152.866 91.03 152.774 90.9458 152.652C90.8616 152.531 90.8164 152.387 90.8164 152.239C90.8164 152.091 90.8616 151.947 90.9458 151.826C91.03 151.705 91.1492 151.612 91.2872 151.562C91.6513 151.379 92.0525 151.284 92.4594 151.284C92.8662 151.284 93.2675 151.379 93.6316 151.562Z" fill="#065566"/>
<path d="M99.7526 148.021C99.8906 148.072 100.01 148.164 100.094 148.285C100.178 148.406 100.223 148.551 100.223 148.699C100.223 148.846 100.178 148.991 100.094 149.112C100.01 149.233 99.8906 149.325 99.7526 149.376C99.3917 149.569 98.9892 149.67 98.5804 149.67C98.1717 149.67 97.7691 149.569 97.4082 149.376C97.2702 149.325 97.1511 149.233 97.0669 149.112C96.9827 148.991 96.9375 148.846 96.9375 148.699C96.9375 148.551 96.9827 148.406 97.0669 148.285C97.1511 148.164 97.2702 148.072 97.4082 148.021C97.7723 147.838 98.1736 147.743 98.5804 147.743C98.9873 147.743 99.3886 147.838 99.7526 148.021Z" fill="#065566"/>
<path d="M105.852 144.481C105.99 144.532 106.109 144.624 106.193 144.745C106.278 144.866 106.323 145.01 106.323 145.158C106.323 145.306 106.278 145.45 106.193 145.572C106.109 145.693 105.99 145.785 105.852 145.836C105.492 146.018 105.094 146.113 104.691 146.113C104.287 146.113 103.89 146.018 103.529 145.836C103.391 145.785 103.272 145.693 103.188 145.572C103.104 145.45 103.059 145.306 103.059 145.158C103.059 145.01 103.104 144.866 103.188 144.745C103.272 144.624 103.391 144.532 103.529 144.481C103.886 144.288 104.285 144.187 104.691 144.187C105.096 144.187 105.495 144.288 105.852 144.481Z" fill="#065566"/>
<path d="M110.802 142.558C111.713 142.558 112.452 142.128 112.452 141.597C112.452 141.066 111.713 140.635 110.802 140.635C109.891 140.635 109.152 141.066 109.152 141.597C109.152 142.128 109.891 142.558 110.802 142.558Z" fill="#065566"/>
<path d="M63.0456 162.249C63.1836 162.299 63.3028 162.392 63.387 162.513C63.4712 162.634 63.5164 162.778 63.5164 162.926C63.5164 163.074 63.4712 163.218 63.387 163.339C63.3028 163.461 63.1836 163.553 63.0456 163.604C62.6815 163.786 62.2803 163.881 61.8734 163.881C61.4666 163.881 61.0653 163.786 60.7012 163.604C60.5632 163.553 60.4441 163.461 60.3598 163.339C60.2756 163.218 60.2305 163.074 60.2305 162.926C60.2305 162.778 60.2756 162.634 60.3598 162.513C60.4441 162.392 60.5632 162.299 60.7012 162.249C61.0653 162.066 61.4666 161.971 61.8734 161.971C62.2803 161.971 62.6815 162.066 63.0456 162.249Z" fill="#065566"/>
<path d="M69.1667 158.686C69.3047 158.736 69.4239 158.829 69.5081 158.95C69.5923 159.071 69.6375 159.215 69.6375 159.363C69.6375 159.511 69.5923 159.655 69.5081 159.776C69.4239 159.898 69.3047 159.99 69.1667 160.041C68.8058 160.234 68.4033 160.335 67.9945 160.335C67.5858 160.335 67.1832 160.234 66.8223 160.041C66.6843 159.99 66.5651 159.898 66.4809 159.776C66.3967 159.655 66.3516 159.511 66.3516 159.363C66.3516 159.215 66.3967 159.071 66.4809 158.95C66.5651 158.829 66.6843 158.736 66.8223 158.686C67.1864 158.503 67.5877 158.408 67.9945 158.408C68.4014 158.408 68.8026 158.503 69.1667 158.686Z" fill="#065566"/>
<path d="M75.2878 155.145C75.4258 155.196 75.545 155.288 75.6292 155.409C75.7134 155.531 75.7586 155.675 75.7586 155.823C75.7586 155.971 75.7134 156.115 75.6292 156.236C75.545 156.357 75.4258 156.45 75.2878 156.5C74.9238 156.683 74.5225 156.778 74.1156 156.778C73.7088 156.778 73.3075 156.683 72.9434 156.5C72.8054 156.45 72.6862 156.357 72.602 156.236C72.5178 156.115 72.4727 155.971 72.4727 155.823C72.4727 155.675 72.5178 155.531 72.602 155.409C72.6862 155.288 72.8054 155.196 72.9434 155.145C73.3043 154.952 73.7069 154.851 74.1156 154.851C74.5244 154.851 74.9269 154.952 75.2878 155.145Z" fill="#065566"/>
<path d="M81.3872 151.562C81.5252 151.613 81.6444 151.705 81.7286 151.826C81.8128 151.947 81.8579 152.091 81.8579 152.239C81.8579 152.387 81.8128 152.531 81.7286 152.653C81.6444 152.774 81.5252 152.866 81.3872 152.917C81.0269 153.099 80.6292 153.194 80.2258 153.194C79.8225 153.194 79.4248 153.099 79.0645 152.917C78.9265 152.866 78.8073 152.774 78.7231 152.653C78.6389 152.531 78.5938 152.387 78.5938 152.239C78.5938 152.091 78.6389 151.947 78.7231 151.826C78.8073 151.705 78.9265 151.613 79.0645 151.562C79.4248 151.379 79.8225 151.284 80.2258 151.284C80.6292 151.284 81.0269 151.379 81.3872 151.562Z" fill="#065566"/>
<path d="M86.3373 149.66C87.2484 149.66 87.987 149.23 87.987 148.699C87.987 148.168 87.2484 147.737 86.3373 147.737C85.4261 147.737 84.6875 148.168 84.6875 148.699C84.6875 149.23 85.4261 149.66 86.3373 149.66Z" fill="#065566"/>
<path d="M93.6316 144.481C93.7696 144.532 93.8888 144.624 93.973 144.745C94.0572 144.866 94.1024 145.01 94.1024 145.158C94.1024 145.306 94.0572 145.45 93.973 145.572C93.8888 145.693 93.7696 145.785 93.6316 145.836C93.2675 146.018 92.8662 146.114 92.4594 146.114C92.0525 146.114 91.6513 146.018 91.2872 145.836C91.1492 145.785 91.03 145.693 90.9458 145.572C90.8616 145.45 90.8164 145.306 90.8164 145.158C90.8164 145.01 90.8616 144.866 90.9458 144.745C91.03 144.624 91.1492 144.532 91.2872 144.481C91.6481 144.288 92.0506 144.187 92.4594 144.187C92.8682 144.187 93.2707 144.288 93.6316 144.481Z" fill="#065566"/>
<path d="M99.7526 140.919C99.8906 140.969 100.01 141.061 100.094 141.183C100.178 141.304 100.223 141.448 100.223 141.596C100.223 141.744 100.178 141.888 100.094 142.009C100.01 142.131 99.8906 142.223 99.7526 142.273C99.3886 142.456 98.9873 142.551 98.5804 142.551C98.1736 142.551 97.7723 142.456 97.4082 142.273C97.2702 142.223 97.1511 142.131 97.0669 142.009C96.9827 141.888 96.9375 141.744 96.9375 141.596C96.9375 141.448 96.9827 141.304 97.0669 141.183C97.1511 141.061 97.2702 140.969 97.4082 140.919C97.7723 140.736 98.1736 140.641 98.5804 140.641C98.9873 140.641 99.3886 140.736 99.7526 140.919Z" fill="#065566"/>
<path d="M105.852 137.357C105.99 137.407 106.109 137.5 106.193 137.621C106.278 137.742 106.323 137.886 106.323 138.034C106.323 138.182 106.278 138.326 106.193 138.448C106.109 138.569 105.99 138.661 105.852 138.712C105.495 138.905 105.096 139.006 104.691 139.006C104.285 139.006 103.886 138.905 103.529 138.712C103.391 138.661 103.272 138.569 103.188 138.448C103.104 138.326 103.059 138.182 103.059 138.034C103.059 137.886 103.104 137.742 103.188 137.621C103.272 137.5 103.391 137.407 103.529 137.357C103.89 137.174 104.287 137.079 104.691 137.079C105.094 137.079 105.492 137.174 105.852 137.357Z" fill="#065566"/>
<path d="M111.995 133.817C112.133 133.867 112.252 133.96 112.336 134.081C112.42 134.202 112.466 134.346 112.466 134.494C112.466 134.642 112.42 134.786 112.336 134.908C112.252 135.029 112.133 135.121 111.995 135.172C111.631 135.354 111.229 135.45 110.823 135.45C110.416 135.45 110.015 135.354 109.65 135.172C109.512 135.121 109.393 135.029 109.309 134.908C109.225 134.786 109.18 134.642 109.18 134.494C109.18 134.346 109.225 134.202 109.309 134.081C109.393 133.96 109.512 133.867 109.65 133.817C110.011 133.624 110.414 133.522 110.823 133.522C111.231 133.522 111.634 133.624 111.995 133.817Z" fill="#065566"/>
<path d="M56.9441 158.686C57.0821 158.736 57.2013 158.829 57.2855 158.95C57.3697 159.071 57.4148 159.215 57.4148 159.363C57.4148 159.511 57.3697 159.655 57.2855 159.776C57.2013 159.898 57.0821 159.99 56.9441 160.041C56.5832 160.234 56.1806 160.335 55.7719 160.335C55.3631 160.335 54.9606 160.234 54.5997 160.041C54.4617 159.99 54.3425 159.898 54.2583 159.776C54.1741 159.655 54.1289 159.511 54.1289 159.363C54.1289 159.215 54.1741 159.071 54.2583 158.95C54.3425 158.829 54.4617 158.736 54.5997 158.686C54.9637 158.503 55.365 158.408 55.7719 158.408C56.1787 158.408 56.58 158.503 56.9441 158.686Z" fill="#065566"/>
<path d="M63.0456 155.145C63.1836 155.196 63.3028 155.288 63.387 155.409C63.4712 155.531 63.5164 155.675 63.5164 155.823C63.5164 155.971 63.4712 156.115 63.387 156.236C63.3028 156.357 63.1836 156.45 63.0456 156.5C62.6815 156.683 62.2803 156.778 61.8734 156.778C61.4666 156.778 61.0653 156.683 60.7012 156.5C60.5632 156.45 60.4441 156.357 60.3598 156.236C60.2756 156.115 60.2305 155.971 60.2305 155.823C60.2305 155.675 60.2756 155.531 60.3598 155.409C60.4441 155.288 60.5632 155.196 60.7012 155.145C61.0621 154.952 61.4647 154.851 61.8734 154.851C62.2822 154.851 62.6847 154.952 63.0456 155.145Z" fill="#065566"/>
<path d="M69.1667 151.562C69.3047 151.612 69.4239 151.705 69.5081 151.826C69.5923 151.947 69.6375 152.091 69.6375 152.239C69.6375 152.387 69.5923 152.531 69.5081 152.652C69.4239 152.774 69.3047 152.866 69.1667 152.917C68.8026 153.099 68.4014 153.194 67.9945 153.194C67.5877 153.194 67.1864 153.099 66.8223 152.917C66.6843 152.866 66.5651 152.774 66.4809 152.652C66.3967 152.531 66.3516 152.387 66.3516 152.239C66.3516 152.091 66.3967 151.947 66.4809 151.826C66.5651 151.705 66.6843 151.612 66.8223 151.562C67.1864 151.379 67.5877 151.284 67.9945 151.284C68.4014 151.284 68.8026 151.379 69.1667 151.562Z" fill="#065566"/>
<path d="M75.2861 148.021C75.4241 148.072 75.5433 148.164 75.6275 148.285C75.7117 148.406 75.7569 148.551 75.7569 148.699C75.7569 148.847 75.7117 148.991 75.6275 149.112C75.5433 149.233 75.4241 149.325 75.2861 149.376C74.9225 149.573 74.516 149.676 74.103 149.676C73.6901 149.676 73.2836 149.573 72.92 149.376C72.782 149.325 72.6628 149.233 72.5786 149.112C72.4944 148.991 72.4492 148.847 72.4492 148.699C72.4492 148.551 72.4944 148.406 72.5786 148.285C72.6628 148.164 72.782 148.072 72.92 148.021C73.2869 147.835 73.6921 147.738 74.103 147.738C74.514 147.738 74.9192 147.835 75.2861 148.021Z" fill="#065566"/>
<path d="M80.2357 146.12C81.1469 146.12 81.8855 145.69 81.8855 145.159C81.8855 144.628 81.1469 144.197 80.2357 144.197C79.3246 144.197 78.5859 144.628 78.5859 145.159C78.5859 145.69 79.3246 146.12 80.2357 146.12Z" fill="#065566"/>
<path d="M86.3373 142.558C87.2484 142.558 87.987 142.128 87.987 141.597C87.987 141.066 87.2484 140.635 86.3373 140.635C85.4261 140.635 84.6875 141.066 84.6875 141.597C84.6875 142.128 85.4261 142.558 86.3373 142.558Z" fill="#065566"/>
<path d="M93.6316 137.357C93.7696 137.407 93.8888 137.499 93.973 137.621C94.0572 137.742 94.1024 137.886 94.1024 138.034C94.1024 138.182 94.0572 138.326 93.973 138.447C93.8888 138.569 93.7696 138.661 93.6316 138.711C93.2707 138.905 92.8682 139.006 92.4594 139.006C92.0506 139.006 91.6481 138.905 91.2872 138.711C91.1492 138.661 91.03 138.569 90.9458 138.447C90.8616 138.326 90.8164 138.182 90.8164 138.034C90.8164 137.886 90.8616 137.742 90.9458 137.621C91.03 137.499 91.1492 137.407 91.2872 137.357C91.6513 137.174 92.0525 137.079 92.4594 137.079C92.8662 137.079 93.2675 137.174 93.6316 137.357Z" fill="#065566"/>
<path d="M98.5795 135.456C99.4906 135.456 100.229 135.025 100.229 134.494C100.229 133.963 99.4906 133.533 98.5795 133.533C97.6683 133.533 96.9297 133.963 96.9297 134.494C96.9297 135.025 97.6683 135.456 98.5795 135.456Z" fill="#065566"/>
<path d="M105.852 130.255C105.99 130.305 106.109 130.398 106.193 130.519C106.278 130.64 106.323 130.784 106.323 130.932C106.323 131.08 106.278 131.224 106.193 131.346C106.109 131.467 105.99 131.559 105.852 131.61C105.492 131.792 105.094 131.887 104.691 131.887C104.287 131.887 103.89 131.792 103.529 131.61C103.391 131.559 103.272 131.467 103.188 131.346C103.104 131.224 103.059 131.08 103.059 130.932C103.059 130.784 103.104 130.64 103.188 130.519C103.272 130.398 103.391 130.305 103.529 130.255C103.89 130.072 104.287 129.977 104.691 129.977C105.094 129.977 105.492 130.072 105.852 130.255Z" fill="#065566"/>
<path d="M50.7583 155.102C50.8963 155.153 51.0155 155.245 51.0997 155.366C51.1839 155.487 51.2291 155.631 51.2291 155.779C51.2291 155.927 51.1839 156.072 51.0997 156.193C51.0155 156.314 50.8963 156.406 50.7583 156.457C50.398 156.639 50.0003 156.734 49.597 156.734C49.1936 156.734 48.7959 156.639 48.4356 156.457C48.2976 156.406 48.1784 156.314 48.0942 156.193C48.01 156.072 47.9648 155.927 47.9648 155.779C47.9648 155.631 48.01 155.487 48.0942 155.366C48.1784 155.245 48.2976 155.153 48.4356 155.102C48.7959 154.919 49.1936 154.824 49.597 154.824C50.0003 154.824 50.398 154.919 50.7583 155.102Z" fill="#065566"/>
<path d="M56.8777 151.562C57.0157 151.612 57.1349 151.705 57.2191 151.826C57.3033 151.947 57.3484 152.091 57.3484 152.239C57.3484 152.387 57.3033 152.531 57.2191 152.652C57.1349 152.774 57.0157 152.866 56.8777 152.917C56.5168 153.11 56.1142 153.211 55.7055 153.211C55.2967 153.211 54.8942 153.11 54.5333 152.917C54.3953 152.866 54.2761 152.774 54.1919 152.652C54.1077 152.531 54.0625 152.387 54.0625 152.239C54.0625 152.091 54.1077 151.947 54.1919 151.826C54.2761 151.705 54.3953 151.612 54.5333 151.562C54.8973 151.379 55.2986 151.284 55.7055 151.284C56.1123 151.284 56.5136 151.379 56.8777 151.562Z" fill="#065566"/>
<path d="M75.2211 140.875C75.3591 140.926 75.4782 141.018 75.5625 141.139C75.6467 141.261 75.6918 141.405 75.6918 141.553C75.6918 141.701 75.6467 141.845 75.5625 141.966C75.4782 142.087 75.3591 142.18 75.2211 142.23C74.8602 142.424 74.4576 142.525 74.0489 142.525C73.6401 142.525 73.2376 142.424 72.8767 142.23C72.2471 141.859 74.5698 140.504 75.2211 140.875Z" fill="#065566"/>
<path d="M81.3442 137.336C81.4822 137.386 81.6014 137.478 81.6856 137.6C81.7698 137.721 81.815 137.865 81.815 138.013C81.815 138.161 81.7698 138.305 81.6856 138.426C81.6014 138.548 81.4822 138.64 81.3442 138.691C80.9802 138.873 80.5789 138.968 80.172 138.968C79.7652 138.968 79.3639 138.873 78.9999 138.691C78.3486 138.319 80.693 136.942 81.3442 137.336Z" fill="#065566"/>
<path d="M87.4653 133.773C87.6033 133.824 87.7225 133.916 87.8067 134.037C87.8909 134.158 87.9361 134.302 87.9361 134.45C87.9361 134.598 87.8909 134.743 87.8067 134.864C87.7225 134.985 87.6033 135.077 87.4653 135.128C87.1013 135.311 86.7 135.406 86.2931 135.406C85.8863 135.406 85.485 135.311 85.1209 135.128C84.4697 134.756 86.8141 133.401 87.4653 133.773Z" fill="#065566"/>
<path d="M44.7019 151.562C44.8399 151.612 44.9591 151.705 45.0433 151.826C45.1275 151.947 45.1726 152.091 45.1726 152.239C45.1726 152.387 45.1275 152.531 45.0433 152.652C44.9591 152.774 44.8399 152.866 44.7019 152.917C44.341 153.11 43.9384 153.211 43.5297 153.211C43.1209 153.211 42.7184 153.11 42.3575 152.917C42.2195 152.866 42.1003 152.774 42.0161 152.652C41.9319 152.531 41.8867 152.387 41.8867 152.239C41.8867 152.091 41.9319 151.947 42.0161 151.826C42.1003 151.705 42.2195 151.612 42.3575 151.562C42.7215 151.379 43.1228 151.284 43.5297 151.284C43.9365 151.284 44.3378 151.379 44.7019 151.562Z" fill="#065566"/>
<path d="M50.7583 148C50.8963 148.051 51.0155 148.143 51.0997 148.264C51.1839 148.386 51.2291 148.53 51.2291 148.678C51.2291 148.826 51.1839 148.97 51.0997 149.091C51.0155 149.212 50.8963 149.305 50.7583 149.355C50.398 149.538 50.0003 149.633 49.597 149.633C49.1936 149.633 48.7959 149.538 48.4356 149.355C48.2976 149.305 48.1784 149.212 48.0942 149.091C48.01 148.97 47.9648 148.826 47.9648 148.678C47.9648 148.53 48.01 148.386 48.0942 148.264C48.1784 148.143 48.2976 148.051 48.4356 148C48.7926 147.807 49.1916 147.706 49.597 147.706C50.0023 147.706 50.4013 147.807 50.7583 148Z" fill="#065566"/>
<path d="M44.7019 144.438C44.8399 144.489 44.9591 144.581 45.0433 144.702C45.1275 144.823 45.1726 144.968 45.1726 145.116C45.1726 145.263 45.1275 145.408 45.0433 145.529C44.9591 145.65 44.8399 145.742 44.7019 145.793C44.3378 145.976 43.9365 146.071 43.5297 146.071C43.1228 146.071 42.7215 145.976 42.3575 145.793C42.2195 145.742 42.1003 145.65 42.0161 145.529C41.9319 145.408 41.8867 145.263 41.8867 145.116C41.8867 144.968 41.9319 144.823 42.0161 144.702C42.1003 144.581 42.2195 144.489 42.3575 144.438C42.7215 144.255 43.1228 144.16 43.5297 144.16C43.9365 144.16 44.3378 144.255 44.7019 144.438Z" fill="#065566"/>
<path d="M38.7019 148.438C38.8399 148.489 38.9591 148.581 39.0433 148.702C39.1275 148.823 39.1726 148.968 39.1726 149.116C39.1726 149.263 39.1275 149.408 39.0433 149.529C38.9591 149.65 38.8399 149.742 38.7019 149.793C38.3378 149.976 37.9365 150.071 37.5297 150.071C37.1228 150.071 36.7215 149.976 36.3575 149.793C36.2195 149.742 36.1003 149.65 36.0161 149.529C35.9319 149.408 35.8867 149.263 35.8867 149.116C35.8867 148.968 35.9319 148.823 36.0161 148.702C36.1003 148.581 36.2195 148.489 36.3575 148.438C36.7215 148.255 37.1228 148.16 37.5297 148.16C37.9365 148.16 38.3378 148.255 38.7019 148.438Z" fill="#065566"/>
<path d="M37.46 134.6V28.4001L125.76 26.6001V132.1C126.06 133.1 125.66 134.1 124.46 134.8L84.46 158.5C82.36 159.7 78.76 159.6 76.36 158.2L39.56 137.5C38.06 136.6 37.36 135.6 37.46 134.6Z" fill="#F7F8FA"/>
<path d="M80.7587 159.8C82.1587 159.8 83.5587 159.5 84.6587 158.9L124.659 135.2C125.959 134.4 126.559 133.2 126.159 132V26.1001L36.9587 27.9001V134.6C36.8587 135.8 37.6587 137.1 39.2587 137.9L76.0587 158.6C77.3587 159.4 79.1587 159.8 80.7587 159.8ZM125.259 27.1001V132.2V132.3C125.559 133.1 125.159 133.8 124.159 134.4L84.1587 158.1C82.2587 159.2 78.7587 159.1 76.5587 157.8L39.7587 137C38.5587 136.3 37.9587 135.4 38.0587 134.6V134.5V28.8001L125.259 27.1001Z" fill="#065566" stroke="#065566"/>
<path d="M84.3589 51.7L124.459 28C126.559 26.8 126.259 24.7 123.859 23.3L87.0589 2.60001C84.6589 1.20001 80.9589 1.10001 78.9589 2.30001L38.9589 26C36.8589 27.2 37.1589 29.3 39.5589 30.7L76.2589 51.5C78.6589 52.8 82.3589 52.9 84.3589 51.7Z" fill="#F7F8FA"/>
<path d="M84.3589 56.0003L123.959 32.6003C126.059 31.4003 125.759 29.3003 123.359 28.0003L86.8589 7.40029C84.4589 6.00029 80.8589 5.90029 78.7589 7.20029L39.1589 30.6003C37.0589 31.8003 37.3589 33.9003 39.7589 35.2003L76.2589 55.7003C78.6589 57.1003 82.2589 57.2003 84.3589 56.0003Z" fill="#14151A" fill-opacity="0.05"/>
<path d="M80.7594 53.1002C82.1594 53.1002 83.5594 52.8002 84.6594 52.2002L124.659 28.5002C125.759 27.8002 126.359 26.9002 126.359 26.0002C126.359 24.9002 125.559 23.7002 124.059 22.9002L87.2594 2.20017C84.6594 0.700173 80.8594 0.600173 78.6594 2.00017L38.6594 25.7002C37.5594 26.3002 37.0594 27.2002 37.0594 28.2002C37.0594 29.3002 37.8594 30.5002 39.3594 31.3002L76.0594 51.9002C77.3594 52.7002 79.1594 53.1002 80.7594 53.1002ZM84.1594 51.3002C82.2594 52.4002 78.7594 52.3002 76.5594 51.0002L39.7594 30.3002C38.6594 29.7002 37.9594 28.9002 37.9594 28.1002C37.9594 27.3002 38.5594 26.8002 39.0594 26.5002L79.0594 2.80017C80.9594 1.70017 84.4594 1.80017 86.6594 3.10017L123.559 23.8002C124.659 24.4002 125.359 25.2002 125.359 26.0002C125.359 26.6002 124.959 27.2002 124.259 27.6002L84.1594 51.3002Z" fill="#065566" stroke="#065566"/>
<path d="M83.2552 45.5L107.755 31C109.055 30.2 108.855 29 107.355 28.1L84.8552 15.4C83.3552 14.6 81.1552 14.5 79.8552 15.2L55.3552 29.7C54.0552 30.5 54.2552 31.7 55.7552 32.6L78.2552 45.4C79.7552 46.2 81.9552 46.3 83.2552 45.5Z" fill="#F7F8FA"/>
<path d="M80.857 42.7002C81.757 42.7002 82.657 42.5002 83.357 42.1002L107.857 27.6002C108.557 27.2002 108.957 26.6002 108.957 25.9002C108.957 25.1002 108.357 24.4002 107.457 23.9002L84.957 11.2002C83.357 10.3002 80.857 10.2002 79.457 11.1002L54.957 25.6002C54.257 26.0002 53.857 26.6002 53.857 27.3002C53.857 28.1002 54.457 28.8002 55.357 29.3002L77.857 42.0002C78.757 42.5002 79.857 42.7002 80.857 42.7002ZM82.857 41.3002C81.757 42.0002 79.657 41.9002 78.357 41.1002L55.857 28.4002C55.257 28.1002 54.857 27.6002 54.857 27.2002C54.857 26.8002 55.157 26.5002 55.457 26.4002L79.957 11.9002C81.057 11.2002 83.157 11.3002 84.457 12.1002L107.057 24.8002C107.657 25.1002 108.057 25.6002 108.057 26.0002C108.057 26.4002 107.757 26.7002 107.457 26.8002L82.857 41.3002Z" fill="#065566" stroke="#065566"/>
<path d="M59.257 31.6001L79.957 19.3001C81.057 18.6001 83.157 18.7001 84.457 19.5001L103.557 30.3001L107.857 27.7001C108.557 27.3001 108.957 26.7001 108.957 26.0001C108.957 25.2001 108.357 24.5001 107.457 24.0001L84.957 11.3001C83.357 10.4001 80.857 10.3001 79.457 11.1001L54.957 25.6001C54.257 26.0001 53.857 26.6001 53.857 27.3001C53.857 28.1001 54.457 28.8001 55.357 29.3001L59.257 31.6001ZM81.957 17.9001C81.057 17.9001 80.157 18.1001 79.457 18.5001L59.257 30.4001L55.757 28.5001C55.157 28.2001 54.757 27.7001 54.757 27.3001C54.757 26.9001 55.057 26.6001 55.357 26.5001L79.957 12.0001C81.057 11.3001 83.157 11.4001 84.457 12.2001L107.057 24.8001C107.657 25.1001 108.057 25.6001 108.057 26.0001C108.057 26.4001 107.757 26.7001 107.457 26.8001L103.657 29.1001L85.057 18.6001C84.057 18.1001 82.957 17.9001 81.957 17.9001Z" fill="#065566" stroke="#065566"/>
<path d="M80.5586 52.1001V158.8L78.2586 159.3L39.4586 137.5L37.4586 135.5V29.6001L39.2586 30.6001L77.6586 52.1001H80.5586Z" fill="#065566"/>
<path d="M71.457 70.5003V65.3003L44.557 49.8003V55.0003L71.457 70.5003ZM70.457 65.9003V68.8003L45.557 54.4003V51.5003L70.457 65.9003Z" fill="#F7F8FA"/>
<path d="M53.5586 67.9005V62.7005L44.6586 57.5005V62.7005L53.5586 67.9005ZM52.5586 63.3005V66.2005L45.6586 62.2005V59.3005L52.5586 63.3005Z" fill="#F7F8FA"/>
<path d="M71.457 78.2003V73.0003L55.557 63.8003V69.0003L71.457 78.2003ZM70.457 73.6003V76.5003L56.557 68.4003V65.5003L70.457 73.6003Z" fill="#F7F8FA"/>
<path d="M64.0586 81.4005V76.2005L44.5586 65.0005V70.2005L64.0586 81.4005ZM63.0586 76.8005V79.7005L45.6586 69.6005V66.7005L63.0586 76.8005Z" fill="#F7F8FA"/>
<path d="M71.457 85.7004V80.5004L65.957 77.4004V82.6004L71.457 85.7004ZM70.457 81.1004V84.0004L66.957 82.0004V79.1004L70.457 81.1004Z" fill="#F7F8FA"/>
<path d="M71.457 93.5003V88.3003L44.557 72.8003V78.0003L71.457 93.5003ZM70.457 88.9003V91.8003L45.557 77.4003V74.5003L70.457 88.9003Z" fill="#F7F8FA"/>
<path d="M53.5586 90.9005V85.7005L44.6586 80.5005V85.7005L53.5586 90.9005ZM52.5586 86.3005V89.2005L45.6586 85.2005V82.3005L52.5586 86.3005Z" fill="#F7F8FA"/>
<path d="M71.457 101.2V96.0003L55.557 86.8003V92.0003L71.457 101.2ZM70.457 96.6003V99.5003L56.557 91.4003V88.5003L70.457 96.6003Z" fill="#F7F8FA"/>
<path d="M64.0586 104.4V99.2005L44.5586 88.0005V93.2005L64.0586 104.4ZM63.0586 99.8005V102.7L45.6586 92.6005V89.7005L63.0586 99.8005Z" fill="#F7F8FA"/>
<path d="M71.457 108.7V103.5L65.957 100.4V105.6L71.457 108.7ZM70.457 104.1V107L66.957 105V102.1L70.457 104.1Z" fill="#F7F8FA"/>
<path d="M71.457 116.1V110.9L44.557 95.4004V100.6L71.457 116.1ZM70.457 111.5V114.4L45.557 100V97.1004L70.457 111.5Z" fill="#F7F8FA"/>
<path d="M53.5586 113.4V108.2L44.6586 103V108.2L53.5586 113.4ZM52.5586 108.8V111.7L45.6586 107.7V104.8L52.5586 108.8Z" fill="#F7F8FA"/>
<path d="M71.457 123.8V118.6L55.557 109.4V114.6L71.457 123.8ZM70.457 119.2V122.1L56.557 114V111.1L70.457 119.2Z" fill="#F7F8FA"/>
<path d="M64.0586 127V121.8L44.6586 110.5V115.7L64.0586 127ZM63.0586 122.4V125.3L45.6586 115.2V112.3L63.0586 122.4Z" fill="#F7F8FA"/>
<path d="M71.457 131.2V126L65.957 122.9V128.1L71.457 131.2ZM70.457 126.6V129.5L66.957 127.5V124.6L70.457 126.6Z" fill="#F7F8FA"/>
<path d="M71.457 139V133.8L44.557 118.3V123.5L71.457 139ZM70.457 134.4V137.3L45.557 122.9V120L70.457 134.4Z" fill="#F7F8FA"/>
<path d="M91.357 120.9C91.357 119.3 92.257 117.3 93.557 116.6L123.357 98.9003C123.957 98.6003 124.457 98.5003 124.857 98.8003C124.957 98.8003 124.957 98.9003 125.057 98.9003L132.457 103.3L99.957 127.2L92.457 122.7C92.257 122.7 92.157 122.6 91.957 122.4C91.557 122.2 91.357 121.6 91.357 120.9Z" fill="#F7F8FA"/>
<path d="M91.9578 122.5C91.9578 120.9 92.1578 119.6 93.3578 118.9L123.158 101.3C123.758 101 124.258 100.9 124.658 101.2C124.758 101.2 124.758 101.3 124.858 101.3L132.258 105.7L101.358 126.2L93.6578 123.6C93.4578 123.6 93.0578 123.3 92.4578 122.8C92.0578 122.4 91.9578 123.2 91.9578 122.5Z" fill="#14151A" fill-opacity="0.05"/>
<path d="M99.956 127.8L132.756 103.7C133.056 103.5 132.956 103.1 132.756 102.9L125.356 98.5004C125.356 98.5004 125.256 98.4004 125.156 98.4004C124.556 98.1004 123.856 98.1004 123.156 98.5004L93.356 116.1C91.956 116.9 90.856 119 90.956 120.9C90.956 121.8 91.256 122.4 91.756 122.9C91.956 123.1 92.156 123.2 92.356 123.3L99.956 127.8ZM131.556 103.4L99.956 126.7L92.656 122.3C92.556 122.3 92.456 122.2 92.356 122.1C92.056 121.9 91.956 121.4 91.956 120.8C91.956 119.3 92.856 117.6 93.956 116.9L123.556 99.4004C123.856 99.2004 124.256 99.1004 124.556 99.3004H124.756L131.556 103.4Z" fill="#065566" stroke="#065566"/>
<path d="M101.258 127L131.058 109.4C132.358 108.7 133.258 106.7 133.258 105.1C133.258 103.5 132.158 102.7 130.958 103.5L101.158 121C99.8578 121.7 98.9578 123.7 98.9578 125.3C98.9578 127 100.058 127.7 101.258 127Z" fill="#F7F8FA"/>
<path d="M132.814 102.587L132.823 102.592L132.831 102.596C133.668 103.075 134.108 104.01 134.108 105.1C134.108 106.061 133.842 107.089 133.396 107.982C132.951 108.871 132.311 109.658 131.534 110.103C131.533 110.103 131.532 110.104 131.531 110.104L101.752 127.692C101.289 128.034 100.819 128.15 100.358 128.15C99.9882 128.15 99.634 128.03 99.4013 127.913L99.3926 127.909L99.3842 127.904C98.5499 127.428 98.1103 126.496 98.1078 125.41C98.0562 124.392 98.3239 123.335 98.7832 122.43C99.2421 121.525 99.9081 120.741 100.682 120.298C100.683 120.297 100.683 120.297 100.684 120.296L130.48 102.699L130.48 102.699L130.484 102.696C131.281 102.241 132.105 102.233 132.814 102.587ZM100.252 126.409C100.284 126.431 100.368 126.451 100.527 126.42C100.667 126.392 100.806 126.334 100.891 126.292L130.575 108.802C131.057 108.493 131.518 107.949 131.86 107.289C132.197 106.638 132.403 105.902 132.408 105.225C132.36 104.905 132.293 104.645 132.21 104.449C132.124 104.244 132.034 104.139 131.964 104.092C131.931 104.07 131.848 104.049 131.689 104.081C131.549 104.109 131.41 104.167 131.325 104.208L101.641 121.699C101.159 122.007 100.698 122.552 100.356 123.211C100.019 123.863 99.8128 124.598 99.8079 125.276C99.8552 125.596 99.9229 125.856 100.005 126.052C100.092 126.257 100.182 126.362 100.252 126.409Z" fill="#065566" stroke="#065566" stroke-width="0.7"/>
<path d="M99.7578 122.5L92.0578 118L91.3578 120.9L91.9578 122.5L99.4578 127.2L98.9578 124.7L99.7578 122.5Z" fill="#065566"/>
<path d="M91.357 107.7C91.357 106.1 92.257 104.1 93.557 103.4L123.357 85.8002C123.957 85.5002 124.457 85.4002 124.857 85.7002C124.957 85.7002 124.957 85.8002 125.057 85.8002L132.457 90.2002L99.957 114.1L92.457 109.6C92.257 109.6 92.157 109.5 91.957 109.3C91.557 109 91.357 108.5 91.357 107.7Z" fill="#F7F8FA"/>
<path d="M91.9578 109.4C91.9578 107.8 92.1578 106.5 93.3578 105.8L123.158 88.1002C123.758 87.8002 124.258 87.8002 124.658 88.0002C124.758 88.0002 124.758 88.0002 124.858 88.1002L132.258 92.5002L101.358 113L93.6578 110.4C93.4578 110.4 93.0578 110.1 92.4578 109.6C92.0578 109.3 91.9578 110.1 91.9578 109.4Z" fill="#14151A" fill-opacity="0.05"/>
<path d="M99.956 114.7L132.756 90.6003C133.056 90.4003 132.956 90.0003 132.756 89.8003L125.356 85.4003C125.356 85.4003 125.256 85.3003 125.156 85.3003C124.556 85.0003 123.856 85.0003 123.156 85.4003L93.256 103C91.856 103.8 90.756 105.9 90.856 107.8C90.856 108.7 91.156 109.3 91.656 109.8C91.856 110 92.056 110.1 92.256 110.2L99.956 114.7ZM131.556 90.2003L99.956 113.5L92.656 109.1C92.556 109.1 92.456 109 92.356 108.9C92.056 108.7 91.956 108.2 91.956 107.6C91.956 106.1 92.856 104.4 93.956 103.7L123.556 86.3003C123.856 86.1003 124.256 86.0003 124.556 86.2003H124.756L131.556 90.2003Z" fill="#065566" stroke="#065566"/>
<path d="M101.258 113.9L131.058 96.3003C132.358 95.6003 133.258 93.6003 133.258 92.0003C133.258 90.4003 132.158 89.6003 130.958 90.4003L101.158 108C99.8578 108.7 98.9578 110.7 98.9578 112.3C98.9578 113.9 100.058 114.6 101.258 113.9Z" fill="#F7F8FA"/>
<path d="M132.814 89.4872L132.823 89.4916L132.831 89.4964C133.668 89.9744 134.108 90.91 134.108 92.0003C134.108 92.9607 133.842 93.989 133.396 94.8818C132.951 95.7708 132.311 96.5579 131.534 97.0029C131.533 97.0033 131.532 97.0037 131.531 97.0041L101.752 114.592C101.289 114.934 100.819 115.05 100.358 115.05C99.9882 115.05 99.6341 114.93 99.4013 114.813L99.3926 114.809L99.3842 114.804C98.5499 114.327 98.1103 113.396 98.1078 112.31C98.0562 111.292 98.3239 110.235 98.7832 109.329C99.2421 108.425 99.9081 107.641 100.682 107.198C100.683 107.197 100.683 107.197 100.684 107.196L130.48 89.5989L130.48 89.5989L130.484 89.5964C131.281 89.1408 132.105 89.1327 132.814 89.4872ZM132.073 91.0398L132.014 91.0251L131.964 90.9915C131.931 90.9698 131.848 90.9493 131.689 90.981C131.549 91.009 131.41 91.0665 131.325 91.1083L101.641 108.599C101.159 108.907 100.698 109.452 100.356 110.111C100.019 110.763 99.8128 111.498 99.8079 112.176C99.8552 112.496 99.9229 112.756 100.005 112.952C100.092 113.157 100.182 113.262 100.252 113.309C100.284 113.331 100.368 113.351 100.527 113.32C100.667 113.292 100.805 113.234 100.891 113.192L130.574 95.6021C131.057 95.2935 131.518 94.7491 131.86 94.0893C132.201 93.4295 132.408 92.6844 132.408 92.0003C132.408 91.6781 132.361 91.4317 132.288 91.2674C132.217 91.1078 132.138 91.056 132.073 91.0398Z" fill="#065566" stroke="#065566" stroke-width="0.7"/>
<path d="M99.7578 109.4L92.0578 104.9L91.3578 107.7L91.9578 109.4L99.4578 114.1L98.9578 111.6L99.7578 109.4Z" fill="#065566"/>
<path d="M91.357 94.6005C91.357 93.0005 92.257 91.0005 93.557 90.3005L123.357 72.6005C123.957 72.3005 124.457 72.2005 124.857 72.5005C124.957 72.5005 124.957 72.6005 125.057 72.6005L132.457 77.0005L99.957 100.9L92.457 96.4005C92.257 96.4005 92.157 96.3005 91.957 96.1005C91.557 95.9005 91.357 95.3005 91.357 94.6005Z" fill="#F7F8FA"/>
<path d="M91.9578 96.2008C91.9578 94.6008 92.1578 93.3008 93.3578 92.6008L123.158 74.9008C123.758 74.6008 124.258 74.5008 124.658 74.8008C124.758 74.8008 124.758 74.9008 124.858 74.9008L132.258 79.3008L101.358 99.8008L93.6578 97.2008C93.4578 97.2008 93.0578 96.9008 92.4578 96.4008C92.0578 96.1008 91.9578 96.9008 91.9578 96.2008Z" fill="#14151A" fill-opacity="0.05"/>
<path d="M99.956 101.501L132.756 77.4006C133.056 77.2006 132.956 76.8006 132.756 76.6006L125.356 72.2006C125.356 72.2006 125.256 72.1006 125.156 72.1006C124.556 71.8006 123.856 71.8006 123.156 72.2006L93.356 89.8006C91.956 90.6006 90.856 92.7006 90.956 94.6006C90.956 95.5006 91.256 96.1006 91.756 96.6006C91.956 96.8006 92.156 96.9006 92.356 97.0006L99.956 101.501ZM131.556 77.1006L99.956 100.401L92.656 96.0006C92.556 96.0006 92.456 95.9006 92.356 95.8006C92.056 95.6006 91.956 95.1006 91.956 94.5006C91.956 93.0006 92.856 91.3006 93.956 90.6006L123.556 73.1006C123.856 72.9006 124.256 72.8006 124.556 73.0006H124.756L131.556 77.1006Z" fill="#065566" stroke="#065566"/>
<path d="M101.258 100.701L131.058 83.1006C132.358 82.4006 133.258 80.4006 133.258 78.8006C133.258 77.2006 132.158 76.4006 130.958 77.2006L101.158 94.8006C99.8578 95.5006 98.9578 97.5006 98.9578 99.1006C98.9578 100.701 100.058 101.501 101.258 100.701Z" fill="#F7F8FA"/>
<path d="M132.814 76.2875L132.823 76.2919L132.831 76.2967C133.668 76.7747 134.108 77.7103 134.108 78.8006C134.108 79.761 133.842 80.7893 133.396 81.6821C132.951 82.5711 132.311 83.3582 131.534 83.8032C131.533 83.8036 131.532 83.804 131.531 83.8045L101.752 101.392C101.289 101.734 100.819 101.851 100.358 101.851C99.9882 101.851 99.6341 101.73 99.4013 101.614L99.3926 101.609L99.3842 101.604C98.5499 101.128 98.1103 100.196 98.1078 99.1099C98.0562 98.0921 98.3239 97.0351 98.7832 96.1297C99.2421 95.225 99.9081 94.4409 100.682 93.998C100.683 93.9975 100.683 93.9971 100.684 93.9967L130.48 76.3992L130.48 76.3992L130.484 76.3967C131.281 75.9411 132.105 75.933 132.814 76.2875ZM132.073 77.8401L132.014 77.8254L131.964 77.7918C131.931 77.7701 131.848 77.7496 131.689 77.7813C131.549 77.8093 131.41 77.8668 131.325 77.9086L101.641 95.3989C101.159 95.7075 100.698 96.2519 100.356 96.9115C100.019 97.5634 99.8128 98.2985 99.8079 98.9759C99.8552 99.2963 99.9229 99.5564 100.005 99.7522C100.092 99.9571 100.182 100.062 100.252 100.109C100.284 100.131 100.368 100.152 100.527 100.12C100.667 100.092 100.805 100.035 100.891 99.9927L130.574 82.4024C131.057 82.0938 131.518 81.5494 131.86 80.8896C132.201 80.2298 132.408 79.4847 132.408 78.8006C132.408 78.4784 132.361 78.232 132.288 78.0677C132.217 77.9081 132.138 77.8563 132.073 77.8401Z" fill="#065566" stroke="#065566" stroke-width="0.7"/>
<path d="M99.7578 96.2007L92.0578 91.7007L91.3578 94.6007L91.9578 96.2007L99.4578 100.901L98.9578 98.4007L99.7578 96.2007Z" fill="#065566"/>
<path d="M91.357 81.6006C91.357 80.0006 92.257 78.0006 93.557 77.3006L123.357 59.7006C123.957 59.4006 124.457 59.3006 124.857 59.6006C124.957 59.6006 124.957 59.7006 125.057 59.7006L132.457 64.0006L99.957 87.9006L92.457 83.4006C92.257 83.4006 92.157 83.3006 91.957 83.1006C91.557 82.9006 91.357 82.3006 91.357 81.6006Z" fill="#F7F8FA"/>
<path d="M91.9578 83.2004C91.9578 81.6004 92.1578 80.3004 93.3578 79.6004L123.158 62.0004C123.758 61.7004 124.258 61.6004 124.658 61.9004C124.758 61.9004 124.758 62.0004 124.858 62.0004L132.258 66.4004L101.358 86.9004L93.6578 84.3004C93.4578 84.3004 93.0578 84.0004 92.4578 83.5004C92.0578 83.1004 91.9578 83.9004 91.9578 83.2004Z" fill="#14151A" fill-opacity="0.05"/>
<path d="M99.956 88.5006L132.756 64.4006C133.056 64.2006 132.956 63.8006 132.756 63.6006L125.356 59.2006C125.356 59.2006 125.256 59.1006 125.156 59.1006C124.556 58.8006 123.856 58.8006 123.156 59.2006L93.356 76.8006C91.956 77.6006 90.856 79.7006 90.956 81.6006C90.956 82.5006 91.256 83.1006 91.756 83.6006C91.956 83.8006 92.156 83.9006 92.356 84.0006L99.956 88.5006ZM131.556 64.1006L99.956 87.4006L92.656 83.0006C92.556 83.0006 92.456 82.9006 92.356 82.8006C92.056 82.6006 91.956 82.1006 91.956 81.5006C91.956 80.0006 92.856 78.3006 93.956 77.6006L123.556 60.1006C123.856 59.9006 124.256 59.8006 124.556 60.0006L124.756 60.1006L131.556 64.1006Z" fill="#065566" stroke="#065566"/>
<path d="M101.258 87.7006L131.058 70.1006C132.358 69.4006 133.258 67.4006 133.258 65.8006C133.258 64.2006 132.158 63.4006 130.958 64.2006L101.158 81.8006C99.8578 82.5006 98.9578 84.5006 98.9578 86.1006C98.9578 87.7006 100.058 88.5006 101.258 87.7006Z" fill="#F7F8FA"/>
<path d="M131.547 70.895L131.547 70.8952L131.535 70.9024L101.751 88.3927C101.289 88.7342 100.819 88.8506 100.358 88.8506C99.9882 88.8506 99.6341 88.73 99.4013 88.6136L99.3926 88.6093L99.3842 88.6045C98.5499 88.1278 98.1103 87.1962 98.1078 86.1099C98.0562 85.0921 98.3239 84.0351 98.7832 83.1297C99.2421 82.225 99.9081 81.4409 100.682 80.998C100.683 80.9975 100.683 80.9971 100.684 80.9967L130.48 63.3992L130.48 63.3992L130.484 63.3967C131.281 62.9411 132.105 62.933 132.814 63.2875L132.823 63.2919L132.831 63.2967C133.668 63.7747 134.108 64.7103 134.108 65.8006C134.108 66.7613 133.842 67.7889 133.397 68.6928C132.952 69.5947 132.315 70.4014 131.547 70.895ZM132.001 64.8136L131.982 64.8039L131.964 64.7918C131.931 64.7701 131.848 64.7496 131.689 64.7813C131.549 64.8093 131.41 64.8668 131.325 64.9086L101.641 82.3989C101.159 82.7075 100.698 83.2519 100.356 83.9115C100.019 84.5634 99.8128 85.2985 99.8079 85.9759C99.8552 86.2963 99.9229 86.5564 100.005 86.7522C100.092 86.9571 100.182 87.0624 100.252 87.1093C100.284 87.131 100.368 87.1516 100.527 87.1199C100.667 87.0918 100.805 87.0345 100.891 86.9927L130.574 69.4024C131.057 69.0938 131.518 68.5494 131.86 67.8896C132.201 67.2298 132.408 66.4847 132.408 65.8006C132.408 65.251 132.224 64.9249 132.001 64.8136Z" fill="#065566" stroke="#065566" stroke-width="0.7"/>
<path d="M99.7578 83.2007L92.0578 78.7007L91.3578 81.6007L91.9578 83.2007L99.4578 87.9007L98.9578 85.4007L99.7578 83.2007Z" fill="#065566"/>
<path d="M91.357 68.4004C91.357 66.8004 92.257 64.8004 93.557 64.1004L123.357 46.5004C123.957 46.2004 124.457 46.1004 124.857 46.4004C124.957 46.4004 124.957 46.5004 125.057 46.5004L132.457 50.9004L99.957 74.8004L92.457 70.3004C92.257 70.3004 92.157 70.2004 91.957 70.0004C91.557 69.7004 91.357 69.2004 91.357 68.4004Z" fill="#F7F8FA"/>
<path d="M91.9578 70.0002C91.9578 68.4002 92.1578 67.1002 93.3578 66.4002L123.158 48.8002C123.758 48.5002 124.258 48.4002 124.658 48.7002C124.758 48.7002 124.758 48.8002 124.858 48.8002L132.258 53.2002L101.358 73.7002L93.6578 71.1002C93.4578 71.1002 93.0578 70.8002 92.4578 70.3002C92.0578 70.0002 91.9578 70.8002 91.9578 70.0002Z" fill="#14151A" fill-opacity="0.05"/>
<path d="M99.956 75.4004L132.756 51.2004C133.056 51.0004 132.956 50.6004 132.756 50.4004L125.256 46.0004C125.256 46.0004 125.156 45.9004 125.056 45.9004C124.456 45.6004 123.756 45.6004 123.056 46.0004L93.256 63.6004C91.856 64.4004 90.756 66.5004 90.856 68.4004C90.856 69.3004 91.156 69.9004 91.656 70.4004C91.856 70.6004 92.056 70.7004 92.256 70.8004L99.956 75.4004ZM131.556 50.9004L99.956 74.2004L92.656 69.8004C92.556 69.8004 92.456 69.7004 92.356 69.6004C92.056 69.4004 91.956 68.9004 91.956 68.3004C91.956 66.8004 92.856 65.1004 93.956 64.4004L123.556 46.9004C123.856 46.7004 124.256 46.6004 124.556 46.8004L124.756 46.9004L131.556 50.9004Z" fill="#065566" stroke="#065566"/>
<path d="M101.258 74.6005L131.058 57.0005C132.358 56.3005 133.258 54.3005 133.258 52.7005C133.258 51.1005 132.158 50.3005 130.958 51.1005L101.158 68.7005C99.8578 69.4005 98.9578 71.4005 98.9578 73.0005C98.9578 74.6005 100.058 75.3005 101.258 74.6005Z" fill="#F7F8FA"/>
<path d="M132.814 50.0873L132.823 50.0917L132.831 50.0965C133.668 50.5745 134.108 51.5101 134.108 52.6004C134.108 53.6083 133.844 54.6609 133.397 55.5676C132.952 56.4701 132.311 57.2578 131.534 57.703C131.533 57.7034 131.532 57.7038 131.531 57.7043L101.752 75.2923C101.289 75.6339 100.819 75.7504 100.358 75.7504C100.004 75.7504 99.6235 75.6382 99.3456 75.3817C98.5364 74.8986 98.1103 73.9791 98.1078 72.9097C98.0562 71.8919 98.3239 70.8349 98.7832 69.9295C99.2421 69.0248 99.9081 68.2407 100.682 67.7978C100.683 67.7973 100.683 67.7969 100.684 67.7965L130.48 50.199L130.48 50.199L130.484 50.1965C131.281 49.7409 132.105 49.7328 132.814 50.0873ZM132.001 51.6134L131.982 51.6037L131.964 51.5916C131.931 51.5699 131.848 51.5494 131.689 51.5811C131.549 51.6091 131.41 51.6666 131.325 51.7084L101.641 69.1987C101.159 69.5073 100.698 70.0517 100.356 70.7113C100.019 71.3632 99.8128 72.0983 99.8079 72.7757C99.8552 73.0961 99.9229 73.3562 100.005 73.552C100.092 73.7569 100.182 73.8622 100.252 73.9091C100.284 73.9308 100.368 73.9514 100.527 73.9197C100.667 73.8916 100.806 73.8342 100.891 73.7924L130.575 56.302C131.057 55.9934 131.518 55.4491 131.86 54.7894C132.201 54.1296 132.408 53.3845 132.408 52.7004C132.408 52.0376 132.216 51.721 132.001 51.6134Z" fill="#065566" stroke="#065566" stroke-width="0.7"/>
<path d="M99.7578 70.1006L92.0578 65.6006L91.3578 68.4006L91.9578 70.0006L99.4578 74.8006L98.9578 72.2006L99.7578 70.1006Z" fill="#065566"/>
</g>
<path d="M40.112 124.882C38.313 121.941 35.7936 119.513 32.7954 117.833C29.4585 115.892 26.9148 115.355 25.1643 116.195L4.33594 128.82L19.2426 153.272L40.0299 140.633C41.7804 139.779 42.6557 137.659 42.6557 134.313C42.6882 130.994 41.8078 127.73 40.112 124.882Z" fill="#FFDF87"/>
<path d="M18.9284 154.387L3.21484 128.544L24.7133 115.493C26.8057 114.474 29.5408 115.024 33.1649 117.131C36.2737 118.881 38.8864 121.403 40.755 124.455C42.5185 127.435 43.4362 130.845 43.4081 134.313C43.4081 137.989 42.3825 140.357 40.3448 141.376L18.9284 154.387ZM5.45768 129.095L19.4754 152.142L39.6199 139.944C41.1106 139.187 41.8491 137.314 41.8491 134.313C41.8776 131.143 41.0351 128.027 39.4148 125.309C37.686 122.486 35.2654 120.159 32.3854 118.549C29.3084 116.759 26.9971 116.208 25.5475 116.938L5.45768 129.095Z" fill="#065566"/>
<path d="M1.71127 135.249C1.71127 131.807 2.58653 129.673 4.33703 128.82C6.08754 127.966 8.63125 128.517 11.9682 130.458C14.9554 132.138 17.4614 134.566 19.2437 137.507C20.949 140.351 21.8345 143.616 21.8011 146.938C21.8011 150.284 20.9258 152.445 19.1753 153.271C17.4248 154.097 15.0726 153.671 11.9408 151.895C8.88393 150.176 6.30283 147.715 4.43276 144.735C2.63563 141.904 1.69048 138.609 1.71127 135.249Z" fill="#FFDF87"/>
<path d="M12.1155 135.001C13.2025 135.646 14.2361 136.378 15.2062 137.191L36.0482 124.579C35.0731 123.751 34.0248 123.013 32.9165 122.376C29.5796 120.431 27.0358 119.884 25.2853 120.738L4.48438 133.363C6.23488 132.51 8.77859 133.056 12.1155 135.001Z" fill="#FFDF87"/>
<path d="M17.2724 154.511C15.2355 154.376 13.267 153.717 11.5559 152.597C8.39419 150.801 5.7214 148.247 3.77433 145.162C1.89012 142.205 0.892982 138.763 0.90241 135.25C0.90241 131.491 1.94177 129.082 3.97947 128.09C6.01718 127.099 8.75235 127.664 12.3628 129.756C15.4822 131.503 18.1012 134.031 19.9665 137.094C21.7662 140.057 22.7131 143.465 22.7017 146.938C22.7017 150.614 21.676 152.982 19.6246 154.001C18.8928 154.36 18.0858 154.534 17.2724 154.511ZM6.15393 129.247C5.64864 129.239 5.14828 129.348 4.69062 129.563C3.32303 130.252 2.52983 132.166 2.52983 135.25C2.52339 138.454 3.42992 141.593 5.14192 144.295C6.95634 147.147 9.43507 149.51 12.3628 151.179C15.18 152.817 17.3544 153.272 18.8451 152.556C20.3358 151.84 21.0196 149.954 21.0196 146.952C21.0438 143.783 20.2017 140.668 18.5853 137.948C16.8564 135.125 14.4359 132.798 11.5559 131.188C9.94352 130.099 8.08688 129.432 6.15393 129.247Z" fill="#065566"/>
<path d="M20.582 139.71L41.1231 126.837L42.6548 132.73L41.8479 138.747L34.0938 143.978L21.0197 152.17L21.7445 146.071L20.582 139.71Z" fill="#065566"/>
<path d="M19.6518 124.208L3.77415 114.984L1.3125 60.6421L22.0998 72.7302L19.6518 124.208Z" fill="#FFDF87"/>
<path d="M1.3125 60.6418L21.8263 48.6914C22.2776 49.0631 42.5999 60.7657 42.5999 60.7657L22.0861 72.7299L1.3125 60.6418Z" fill="#FFDF87"/>
<path d="M1.3125 68.118L21.8263 56.1538C22.2913 56.5255 42.6136 68.2282 42.6136 68.2282L22.0998 80.1924L1.3125 68.118Z" fill="#FFDF87"/>
<path d="M42.6685 59.8296C34.6818 55.2174 22.9616 48.4437 22.3872 48.0444L21.9769 47.7002L1.31274 59.7057L0.492188 60.1876V61.1238L2.91281 115.011V115.465L18.8178 124.662L19.6521 125.144L20.4316 124.69L40.9453 112.739L43.3933 61.2477V60.3115L42.6685 59.8296ZM21.8812 49.6415C24.4112 51.1697 35.8442 57.7644 41.0274 60.7658L35.1605 64.2215L22.1 71.8076L9.19003 64.2215L2.94017 60.6419L21.8812 49.6415ZM4.56759 114.501L2.20167 62.1013L21.2658 73.1844L18.8999 122.831L4.56759 114.501Z" fill="#065566"/>
<defs>
<clipPath id="clip0_2727_13778">
<rect width="100" height="173" fill="white" transform="matrix(-1 0 0 1 135.508 0)"/>
</clipPath>
</defs>
</svg>
