<svg width="88" height="125" viewBox="0 0 88 125" fill="none" xmlns="http://www.w3.org/2000/svg">
<path d="M58.2073 117.392C58.1191 117.424 58.0428 117.483 57.989 117.56C57.9351 117.637 57.9062 117.729 57.9062 117.823C57.9062 117.917 57.9351 118.009 57.989 118.086C58.0428 118.163 58.1191 118.222 58.2073 118.254C58.4382 118.378 58.6956 118.442 58.957 118.442C59.2185 118.442 59.4759 118.378 59.7067 118.254C59.795 118.222 59.8712 118.163 59.9251 118.086C59.9789 118.009 60.0078 117.917 60.0078 117.823C60.0078 117.729 59.9789 117.637 59.9251 117.56C59.8712 117.483 59.795 117.424 59.7067 117.392C59.4739 117.275 59.2172 117.215 58.957 117.215C58.6968 117.215 58.4402 117.275 58.2073 117.392Z" fill="#065566"/>
<path d="M55.0425 116.181C54.4598 116.181 53.9874 115.907 53.9874 115.569C53.9874 115.231 54.4598 114.957 55.0425 114.957C55.6253 114.957 56.0977 115.231 56.0977 115.569C56.0977 115.907 55.6253 116.181 55.0425 116.181Z" fill="#065566"/>
<path d="M51.1402 113.913C50.5574 113.913 50.085 113.639 50.085 113.301C50.085 112.963 50.5574 112.689 51.1402 112.689C51.7229 112.689 52.1953 112.963 52.1953 113.301C52.1953 113.639 51.7229 113.913 51.1402 113.913Z" fill="#065566"/>
<path d="M47.2261 111.645C46.6434 111.645 46.171 111.371 46.171 111.033C46.171 110.695 46.6434 110.421 47.2261 110.421C47.8088 110.421 48.2812 110.695 48.2812 111.033C48.2812 111.371 47.8088 111.645 47.2261 111.645Z" fill="#065566"/>
<path d="M42.5589 108.348C42.4706 108.38 42.3944 108.439 42.3406 108.516C42.2867 108.593 42.2578 108.685 42.2578 108.779C42.2578 108.873 42.2867 108.965 42.3406 109.042C42.3944 109.119 42.4706 109.178 42.5589 109.21C42.7918 109.327 43.0484 109.387 43.3086 109.387C43.5688 109.387 43.8255 109.327 44.0583 109.21C44.1466 109.178 44.2228 109.119 44.2766 109.042C44.3305 108.965 44.3594 108.873 44.3594 108.779C44.3594 108.685 44.3305 108.593 44.2766 108.516C44.2228 108.439 44.1466 108.38 44.0583 108.348C43.8275 108.224 43.57 108.16 43.3086 108.16C43.0472 108.16 42.7897 108.224 42.5589 108.348Z" fill="#065566"/>
<path d="M38.6587 106.065C38.5705 106.098 38.4942 106.156 38.4404 106.234C38.3865 106.311 38.3576 106.403 38.3576 106.497C38.3576 106.591 38.3865 106.683 38.4404 106.76C38.4942 106.837 38.5705 106.896 38.6587 106.928C38.8891 107.044 39.1435 107.105 39.4015 107.105C39.6594 107.105 39.9138 107.044 40.1442 106.928C40.2325 106.896 40.3087 106.837 40.3626 106.76C40.4164 106.683 40.4453 106.591 40.4453 106.497C40.4453 106.403 40.4164 106.311 40.3626 106.234C40.3087 106.156 40.2325 106.098 40.1442 106.065C39.9138 105.949 39.6594 105.889 39.4015 105.889C39.1435 105.889 38.8891 105.949 38.6587 106.065Z" fill="#065566"/>
<path d="M35.4917 104.855C34.909 104.855 34.4366 104.581 34.4366 104.243C34.4366 103.905 34.909 103.631 35.4917 103.631C36.0745 103.631 36.5469 103.905 36.5469 104.243C36.5469 104.581 36.0745 104.855 35.4917 104.855Z" fill="#065566"/>
<path d="M31.7574 102.35C31.1746 102.35 30.7022 102.076 30.7022 101.738C30.7022 101.4 31.1746 101.125 31.7574 101.125C32.3401 101.125 32.8125 101.4 32.8125 101.738C32.8125 102.076 32.3401 102.35 31.7574 102.35Z" fill="#065566"/>
<path d="M66.0394 117.392C65.9511 117.424 65.8749 117.483 65.821 117.56C65.7672 117.637 65.7383 117.729 65.7383 117.823C65.7383 117.917 65.7672 118.009 65.821 118.086C65.8749 118.163 65.9511 118.222 66.0394 118.254C66.2702 118.378 66.5276 118.442 66.7891 118.442C67.0505 118.442 67.3079 118.378 67.5388 118.254C67.627 118.222 67.7032 118.163 67.7571 118.086C67.811 118.009 67.8398 117.917 67.8398 117.823C67.8398 117.729 67.811 117.637 67.7571 117.56C67.7032 117.483 67.627 117.424 67.5388 117.392C67.3059 117.275 67.0493 117.215 66.7891 117.215C66.5289 117.215 66.2722 117.275 66.0394 117.392Z" fill="#065566"/>
<path d="M62.1218 115.124C61.7053 115.374 61.7053 115.764 62.1218 116C62.3547 116.117 62.6113 116.177 62.8715 116.177C63.1317 116.177 63.3884 116.117 63.6212 116C64.0377 115.764 64.0377 115.374 63.6212 115.124C63.3884 115.007 63.1317 114.947 62.8715 114.947C62.6113 114.947 62.3547 115.007 62.1218 115.124Z" fill="#065566"/>
<path d="M58.2073 112.87C58.1191 112.902 58.0428 112.961 57.989 113.038C57.9351 113.115 57.9062 113.207 57.9062 113.301C57.9062 113.395 57.9351 113.487 57.989 113.564C58.0428 113.642 58.1191 113.7 58.2073 113.733C58.4402 113.849 58.6968 113.909 58.957 113.909C59.2172 113.909 59.4739 113.849 59.7067 113.733C59.795 113.7 59.8712 113.642 59.9251 113.564C59.9789 113.487 60.0078 113.395 60.0078 113.301C60.0078 113.207 59.9789 113.115 59.9251 113.038C59.8712 112.961 59.795 112.902 59.7067 112.87C59.4739 112.753 59.2172 112.693 58.957 112.693C58.6968 112.693 58.4402 112.753 58.2073 112.87Z" fill="#065566"/>
<path d="M54.3072 110.602C54.2189 110.634 54.1427 110.693 54.0888 110.77C54.035 110.847 54.0061 110.939 54.0061 111.033C54.0061 111.127 54.035 111.219 54.0888 111.296C54.1427 111.373 54.2189 111.432 54.3072 111.464C54.5355 111.587 54.7907 111.652 55.0499 111.652C55.3091 111.652 55.5643 111.587 55.7927 111.464C55.8809 111.432 55.9571 111.373 56.011 111.296C56.0649 111.219 56.0938 111.127 56.0938 111.033C56.0938 110.939 56.0649 110.847 56.011 110.77C55.9571 110.693 55.8809 110.634 55.7927 110.602C55.5622 110.485 55.3079 110.425 55.0499 110.425C54.792 110.425 54.5376 110.485 54.3072 110.602Z" fill="#065566"/>
<path d="M50.3909 108.348C50.3026 108.38 50.2264 108.439 50.1726 108.516C50.1187 108.593 50.0898 108.685 50.0898 108.779C50.0898 108.873 50.1187 108.965 50.1726 109.042C50.2264 109.119 50.3026 109.178 50.3909 109.21C50.6238 109.327 50.8804 109.387 51.1406 109.387C51.4008 109.387 51.6575 109.327 51.8903 109.21C51.9786 109.178 52.0548 109.119 52.1087 109.042C52.1625 108.965 52.1914 108.873 52.1914 108.779C52.1914 108.685 52.1625 108.593 52.1087 108.516C52.0548 108.439 51.9786 108.38 51.8903 108.348C51.6595 108.224 51.4021 108.16 51.1406 108.16C50.8792 108.16 50.6217 108.224 50.3909 108.348Z" fill="#065566"/>
<path d="M46.4769 106.066C46.3886 106.098 46.3124 106.157 46.2585 106.234C46.2047 106.311 46.1758 106.403 46.1758 106.497C46.1758 106.591 46.2047 106.683 46.2585 106.76C46.3124 106.837 46.3886 106.896 46.4769 106.928C46.7097 107.045 46.9664 107.105 47.2266 107.105C47.4868 107.105 47.7434 107.045 47.9763 106.928C48.0645 106.896 48.1407 106.837 48.1946 106.76C48.2485 106.683 48.2773 106.591 48.2773 106.497C48.2773 106.403 48.2485 106.311 48.1946 106.234C48.1407 106.157 48.0645 106.098 47.9763 106.066C47.7434 105.949 47.4868 105.889 47.2266 105.889C46.9664 105.889 46.7097 105.949 46.4769 106.066Z" fill="#065566"/>
<path d="M42.5589 103.812C42.4706 103.844 42.3944 103.903 42.3406 103.98C42.2867 104.057 42.2578 104.149 42.2578 104.243C42.2578 104.337 42.2867 104.429 42.3406 104.506C42.3944 104.583 42.4706 104.642 42.5589 104.674C42.7897 104.797 43.0472 104.862 43.3086 104.862C43.57 104.862 43.8275 104.797 44.0583 104.674C44.1466 104.642 44.2228 104.583 44.2766 104.506C44.3305 104.429 44.3594 104.337 44.3594 104.243C44.3594 104.149 44.3305 104.057 44.2766 103.98C44.2228 103.903 44.1466 103.844 44.0583 103.812C43.8255 103.695 43.5688 103.635 43.3086 103.635C43.0484 103.635 42.7918 103.695 42.5589 103.812Z" fill="#065566"/>
<path d="M38.6587 101.558C38.5705 101.59 38.4942 101.648 38.4404 101.726C38.3865 101.803 38.3576 101.895 38.3576 101.989C38.3576 102.083 38.3865 102.175 38.4404 102.252C38.4942 102.329 38.5705 102.388 38.6587 102.42C38.8891 102.536 39.1435 102.597 39.4015 102.597C39.6594 102.597 39.9138 102.536 40.1442 102.42C40.2325 102.388 40.3087 102.329 40.3626 102.252C40.4164 102.175 40.4453 102.083 40.4453 101.989C40.4453 101.895 40.4164 101.803 40.3626 101.726C40.3087 101.648 40.2325 101.59 40.1442 101.558C39.9159 101.434 39.6607 101.37 39.4015 101.37C39.1422 101.37 38.8871 101.434 38.6587 101.558Z" fill="#065566"/>
<path d="M35.4917 100.333C34.909 100.333 34.4366 100.059 34.4366 99.7206C34.4366 99.3825 34.909 99.1084 35.4917 99.1084C36.0745 99.1084 36.5469 99.3825 36.5469 99.7206C36.5469 100.059 36.0745 100.333 35.4917 100.333Z" fill="#065566"/>
<path d="M69.9382 115.124C69.8512 115.159 69.7767 115.22 69.7243 115.298C69.6718 115.376 69.6438 115.468 69.6438 115.562C69.6438 115.656 69.6718 115.748 69.7243 115.826C69.7767 115.904 69.8512 115.965 69.9382 116C70.1711 116.117 70.4277 116.177 70.6879 116.177C70.9481 116.177 71.2048 116.117 71.4376 116C71.8541 115.764 71.8541 115.374 71.4376 115.124C71.2048 115.007 70.9481 114.947 70.6879 114.947C70.4277 114.947 70.1711 115.007 69.9382 115.124Z" fill="#065566"/>
<path d="M66.0394 112.87C65.9511 112.902 65.8749 112.961 65.821 113.038C65.7672 113.115 65.7383 113.207 65.7383 113.301C65.7383 113.395 65.7672 113.487 65.821 113.564C65.8749 113.642 65.9511 113.7 66.0394 113.733C66.2722 113.849 66.5289 113.909 66.7891 113.909C67.0493 113.909 67.3059 113.849 67.5388 113.733C67.627 113.7 67.7032 113.642 67.7571 113.564C67.811 113.487 67.8398 113.395 67.8398 113.301C67.8398 113.207 67.811 113.115 67.7571 113.038C67.7032 112.961 67.627 112.902 67.5388 112.87C67.3059 112.753 67.0493 112.693 66.7891 112.693C66.5289 112.693 66.2722 112.753 66.0394 112.87Z" fill="#065566"/>
<path d="M62.1253 110.602C62.037 110.634 61.9608 110.693 61.907 110.77C61.8531 110.847 61.8242 110.939 61.8242 111.033C61.8242 111.127 61.8531 111.219 61.907 111.296C61.9608 111.373 62.037 111.432 62.1253 111.464C62.3561 111.587 62.6136 111.652 62.875 111.652C63.1364 111.652 63.3939 111.587 63.6247 111.464C63.713 111.432 63.7892 111.373 63.843 111.296C63.8969 111.219 63.9258 111.127 63.9258 111.033C63.9258 110.939 63.8969 110.847 63.843 110.77C63.7892 110.693 63.713 110.634 63.6247 110.602C63.3918 110.485 63.1352 110.425 62.875 110.425C62.6148 110.425 62.3582 110.485 62.1253 110.602Z" fill="#065566"/>
<path d="M58.2073 108.348C58.1191 108.38 58.0428 108.439 57.989 108.516C57.9351 108.593 57.9062 108.685 57.9062 108.779C57.9062 108.873 57.9351 108.965 57.989 109.042C58.0428 109.119 58.1191 109.178 58.2073 109.21C58.4402 109.327 58.6968 109.387 58.957 109.387C59.2172 109.387 59.4739 109.327 59.7067 109.21C59.795 109.178 59.8712 109.119 59.9251 109.042C59.9789 108.965 60.0078 108.873 60.0078 108.779C60.0078 108.685 59.9789 108.593 59.9251 108.516C59.8712 108.439 59.795 108.38 59.7067 108.348C59.4759 108.224 59.2185 108.16 58.957 108.16C58.6956 108.16 58.4382 108.224 58.2073 108.348Z" fill="#065566"/>
<path d="M54.3072 106.065C54.2189 106.098 54.1427 106.156 54.0888 106.234C54.035 106.311 54.0061 106.403 54.0061 106.497C54.0061 106.591 54.035 106.683 54.0888 106.76C54.1427 106.837 54.2189 106.896 54.3072 106.928C54.5376 107.044 54.792 107.105 55.0499 107.105C55.3079 107.105 55.5622 107.044 55.7927 106.928C55.8809 106.896 55.9571 106.837 56.011 106.76C56.0649 106.683 56.0938 106.591 56.0938 106.497C56.0938 106.403 56.0649 106.311 56.011 106.234C55.9571 106.156 55.8809 106.098 55.7927 106.065C55.5622 105.949 55.3079 105.889 55.0499 105.889C54.792 105.889 54.5376 105.949 54.3072 106.065Z" fill="#065566"/>
<path d="M51.1402 104.855C50.5574 104.855 50.085 104.581 50.085 104.243C50.085 103.905 50.5574 103.631 51.1402 103.631C51.7229 103.631 52.1953 103.905 52.1953 104.243C52.1953 104.581 51.7229 104.855 51.1402 104.855Z" fill="#065566"/>
<path d="M46.4769 101.557C46.3886 101.59 46.3124 101.648 46.2585 101.726C46.2047 101.803 46.1758 101.895 46.1758 101.989C46.1758 102.083 46.2047 102.175 46.2585 102.252C46.3124 102.329 46.3886 102.388 46.4769 102.42C46.7097 102.537 46.9664 102.597 47.2266 102.597C47.4868 102.597 47.7434 102.537 47.9763 102.42C48.0645 102.388 48.1407 102.329 48.1946 102.252C48.2485 102.175 48.2773 102.083 48.2773 101.989C48.2773 101.895 48.2485 101.803 48.1946 101.726C48.1407 101.648 48.0645 101.59 47.9763 101.557C47.7454 101.434 47.488 101.37 47.2266 101.37C46.9651 101.37 46.7077 101.434 46.4769 101.557Z" fill="#065566"/>
<path d="M42.5589 99.2893C42.4706 99.3215 42.3944 99.3802 42.3406 99.4574C42.2867 99.5346 42.2578 99.6264 42.2578 99.7206C42.2578 99.8148 42.2867 99.9067 42.3406 99.9838C42.3944 100.061 42.4706 100.12 42.5589 100.152C42.7918 100.268 43.0484 100.329 43.3086 100.329C43.5688 100.329 43.8255 100.268 44.0583 100.152C44.1466 100.12 44.2228 100.061 44.2766 99.9838C44.3305 99.9067 44.3594 99.8148 44.3594 99.7206C44.3594 99.6264 44.3305 99.5346 44.2766 99.4574C44.2228 99.3802 44.1466 99.3215 44.0583 99.2893C43.8255 99.1729 43.5688 99.1123 43.3086 99.1123C43.0484 99.1123 42.7918 99.1729 42.5589 99.2893Z" fill="#065566"/>
<path d="M38.6587 97.0215C38.5705 97.0538 38.4942 97.1125 38.4404 97.1896C38.3865 97.2668 38.3576 97.3587 38.3576 97.4528C38.3576 97.547 38.3865 97.6389 38.4404 97.716C38.4942 97.7932 38.5705 97.8519 38.6587 97.8842C38.8871 98.0072 39.1422 98.0716 39.4015 98.0716C39.6607 98.0716 39.9159 98.0072 40.1442 97.8842C40.2325 97.8519 40.3087 97.7932 40.3626 97.716C40.4164 97.6389 40.4453 97.547 40.4453 97.4528C40.4453 97.3587 40.4164 97.2668 40.3626 97.1896C40.3087 97.1125 40.2325 97.0538 40.1442 97.0215C39.9138 96.9053 39.6594 96.8447 39.4015 96.8447C39.1435 96.8447 38.8891 96.9053 38.6587 97.0215Z" fill="#065566"/>
<path d="M34.7308 94.7675C34.6425 94.7997 34.5663 94.8584 34.5124 94.9356C34.4586 95.0127 34.4297 95.1046 34.4297 95.1988C34.4297 95.293 34.4586 95.3848 34.5124 95.462C34.5663 95.5392 34.6425 95.5978 34.7308 95.6301C34.9636 95.7465 35.2203 95.8071 35.4805 95.8071C35.7407 95.8071 35.9973 95.7465 36.2302 95.6301C36.3184 95.5978 36.3947 95.5392 36.4485 95.462C36.5024 95.3848 36.5312 95.293 36.5312 95.1988C36.5312 95.1046 36.5024 95.0127 36.4485 94.9356C36.3947 94.8584 36.3184 94.7997 36.2302 94.7675C35.9994 94.6444 35.7419 94.5801 35.4805 94.5801C35.219 94.5801 34.9616 94.6444 34.7308 94.7675Z" fill="#065566"/>
<path d="M30.9925 97.2723C30.9042 97.3046 30.828 97.3633 30.7742 97.4405C30.7203 97.5176 30.6914 97.6095 30.6914 97.7037C30.6914 97.7978 30.7203 97.8897 30.7742 97.9669C30.828 98.044 30.9042 98.1027 30.9925 98.135C31.2253 98.2514 31.482 98.312 31.7422 98.312C32.0024 98.312 32.259 98.2514 32.4919 98.135C32.5802 98.1027 32.6564 98.044 32.7102 97.9669C32.7641 97.8897 32.793 97.7978 32.793 97.7037C32.793 97.6095 32.7641 97.5176 32.7102 97.4405C32.6564 97.3633 32.5802 97.3046 32.4919 97.2723C32.2611 97.1493 32.0036 97.085 31.7422 97.085C31.4808 97.085 31.2233 97.1493 30.9925 97.2723Z" fill="#065566"/>
<path d="M27.2542 99.7777C27.1659 99.81 27.0897 99.8687 27.0359 99.9458C26.982 100.023 26.9531 100.115 26.9531 100.209C26.9531 100.303 26.982 100.395 27.0359 100.472C27.0897 100.549 27.1659 100.608 27.2542 100.64C27.4871 100.757 27.7437 100.817 28.0039 100.817C28.2641 100.817 28.5208 100.757 28.7536 100.64C28.8419 100.608 28.9181 100.549 28.972 100.472C29.0258 100.395 29.0547 100.303 29.0547 100.209C29.0547 100.115 29.0258 100.023 28.972 99.9458C28.9181 99.8687 28.8419 99.81 28.7536 99.7777C28.5228 99.6547 28.2654 99.5903 28.0039 99.5903C27.7425 99.5903 27.485 99.6547 27.2542 99.7777Z" fill="#065566"/>
<path d="M30.9925 92.2621C30.9042 92.2944 30.828 92.3531 30.7742 92.4302C30.7203 92.5074 30.6914 92.5993 30.6914 92.6934C30.6914 92.7876 30.7203 92.8795 30.7742 92.9566C30.828 93.0338 30.9042 93.0925 30.9925 93.1248C31.2253 93.2411 31.482 93.3017 31.7422 93.3017C32.0024 93.3017 32.259 93.2411 32.4919 93.1248C32.5802 93.0925 32.6564 93.0338 32.7102 92.9566C32.7641 92.8795 32.793 92.7876 32.793 92.6934C32.793 92.5993 32.7641 92.5074 32.7102 92.4302C32.6564 92.3531 32.5802 92.2944 32.4919 92.2621C32.2611 92.139 32.0036 92.0747 31.7422 92.0747C31.4808 92.0747 31.2233 92.139 30.9925 92.2621Z" fill="#065566"/>
<path d="M27.2542 94.767C27.1659 94.7992 27.0897 94.8579 27.0359 94.9351C26.982 95.0123 26.9531 95.1041 26.9531 95.1983C26.9531 95.2925 26.982 95.3844 27.0359 95.4615C27.0897 95.5387 27.1659 95.5974 27.2542 95.6296C27.4871 95.746 27.7437 95.8066 28.0039 95.8066C28.2641 95.8066 28.5208 95.746 28.7536 95.6296C28.8419 95.5974 28.9181 95.5387 28.972 95.4615C29.0258 95.3844 29.0547 95.2925 29.0547 95.1983C29.0547 95.1041 29.0258 95.0123 28.972 94.9351C28.9181 94.8579 28.8419 94.7992 28.7536 94.767C28.5228 94.6439 28.2654 94.5796 28.0039 94.5796C27.7425 94.5796 27.485 94.6439 27.2542 94.767Z" fill="#065566"/>
<path d="M23.5159 97.2723C23.4277 97.3046 23.3514 97.3633 23.2976 97.4405C23.2437 97.5176 23.2148 97.6095 23.2148 97.7037C23.2148 97.7978 23.2437 97.8897 23.2976 97.9669C23.3514 98.044 23.4277 98.1027 23.5159 98.135C23.7488 98.2514 24.0054 98.312 24.2656 98.312C24.5258 98.312 24.7825 98.2514 25.0153 98.135C25.1036 98.1027 25.1798 98.044 25.2337 97.9669C25.2875 97.8897 25.3164 97.7978 25.3164 97.7037C25.3164 97.6095 25.2875 97.5176 25.2337 97.4405C25.1798 97.3633 25.1036 97.3046 25.0153 97.2723C24.7845 97.1493 24.5271 97.085 24.2656 97.085C24.0042 97.085 23.7468 97.1493 23.5159 97.2723Z" fill="#065566"/>
<path d="M27.2542 89.7567C27.1659 89.789 27.0897 89.8477 27.0359 89.9249C26.982 90.002 26.9531 90.0939 26.9531 90.1881C26.9531 90.2822 26.982 90.3741 27.0359 90.4513C27.0897 90.5284 27.1659 90.5871 27.2542 90.6194C27.4871 90.7358 27.7437 90.7963 28.0039 90.7963C28.2641 90.7963 28.5208 90.7358 28.7536 90.6194C28.8419 90.5871 28.9181 90.5284 28.972 90.4513C29.0258 90.3741 29.0547 90.2822 29.0547 90.1881C29.0547 90.0939 29.0258 90.002 28.972 89.9249C28.9181 89.8477 28.8419 89.789 28.7536 89.7567C28.5228 89.6337 28.2654 89.5693 28.0039 89.5693C27.7425 89.5693 27.485 89.6337 27.2542 89.7567Z" fill="#065566"/>
<path d="M23.5159 92.2621C23.4277 92.2944 23.3514 92.3531 23.2976 92.4302C23.2437 92.5074 23.2148 92.5993 23.2148 92.6934C23.2148 92.7876 23.2437 92.8795 23.2976 92.9566C23.3514 93.0338 23.4277 93.0925 23.5159 93.1248C23.7488 93.2411 24.0054 93.3017 24.2656 93.3017C24.5258 93.3017 24.7825 93.2411 25.0153 93.1248C25.1036 93.0925 25.1798 93.0338 25.2337 92.9566C25.2875 92.8795 25.3164 92.7876 25.3164 92.6934C25.3164 92.5993 25.2875 92.5074 25.2337 92.4302C25.1798 92.3531 25.1036 92.2944 25.0153 92.2621C24.7845 92.139 24.5271 92.0747 24.2656 92.0747C24.0042 92.0747 23.7468 92.139 23.5159 92.2621Z" fill="#065566"/>
<path d="M19.7816 94.767C19.6933 94.7992 19.6171 94.8579 19.5632 94.9351C19.5094 95.0123 19.4805 95.1041 19.4805 95.1983C19.4805 95.2925 19.5094 95.3844 19.5632 95.4615C19.6171 95.5387 19.6933 95.5974 19.7816 95.6296C20.0144 95.746 20.2711 95.8066 20.5313 95.8066C20.7915 95.8066 21.0481 95.746 21.281 95.6296C21.3692 95.5974 21.4454 95.5387 21.4993 95.4615C21.5532 95.3844 21.582 95.2925 21.582 95.1983C21.582 95.1041 21.5532 95.0123 21.4993 94.9351C21.4454 94.8579 21.3692 94.7992 21.281 94.767C21.0501 94.6439 20.7927 94.5796 20.5313 94.5796C20.2698 94.5796 20.0124 94.6439 19.7816 94.767Z" fill="#065566"/>
<path d="M23.5159 87.2513C23.4277 87.2836 23.3514 87.3423 23.2976 87.4195C23.2437 87.4966 23.2148 87.5885 23.2148 87.6827C23.2148 87.7768 23.2437 87.8687 23.2976 87.9459C23.3514 88.023 23.4277 88.0817 23.5159 88.114C23.7488 88.2304 24.0054 88.291 24.2656 88.291C24.5258 88.291 24.7825 88.2304 25.0153 88.114C25.1036 88.0817 25.1798 88.023 25.2337 87.9459C25.2875 87.8687 25.3164 87.7768 25.3164 87.6827C25.3164 87.5885 25.2875 87.4966 25.2337 87.4195C25.1798 87.3423 25.1036 87.2836 25.0153 87.2513C24.7845 87.1283 24.5271 87.064 24.2656 87.064C24.0042 87.064 23.7468 87.1283 23.5159 87.2513Z" fill="#065566"/>
<path d="M19.7816 89.7567C19.6933 89.789 19.6171 89.8477 19.5632 89.9249C19.5094 90.002 19.4805 90.0939 19.4805 90.1881C19.4805 90.2822 19.5094 90.3741 19.5632 90.4513C19.6171 90.5284 19.6933 90.5871 19.7816 90.6194C20.0144 90.7358 20.2711 90.7963 20.5313 90.7963C20.7915 90.7963 21.0481 90.7358 21.281 90.6194C21.3692 90.5871 21.4454 90.5284 21.4993 90.4513C21.5532 90.3741 21.582 90.2822 21.582 90.1881C21.582 90.0939 21.5532 90.002 21.4993 89.9249C21.4454 89.8477 21.3692 89.789 21.281 89.7567C21.0501 89.6337 20.7927 89.5693 20.5313 89.5693C20.2698 89.5693 20.0124 89.6337 19.7816 89.7567Z" fill="#065566"/>
<path d="M16.0433 92.2621C15.955 92.2944 15.8788 92.3531 15.8249 92.4302C15.7711 92.5074 15.7422 92.5993 15.7422 92.6934C15.7422 92.7876 15.7711 92.8795 15.8249 92.9566C15.8788 93.0338 15.955 93.0925 16.0433 93.1248C16.2761 93.2411 16.5328 93.3017 16.793 93.3017C17.0532 93.3017 17.3098 93.2411 17.5427 93.1248C17.6309 93.0925 17.7072 93.0338 17.761 92.9566C17.8149 92.8795 17.8438 92.7876 17.8438 92.6934C17.8438 92.5993 17.8149 92.5074 17.761 92.4302C17.7072 92.3531 17.6309 92.2944 17.5427 92.2621C17.3119 92.139 17.0544 92.0747 16.793 92.0747C16.5315 92.0747 16.2741 92.139 16.0433 92.2621Z" fill="#065566"/>
<path d="M19.7816 84.746C19.6933 84.7783 19.6171 84.837 19.5632 84.9141C19.5094 84.9913 19.4805 85.0832 19.4805 85.1773C19.4805 85.2715 19.5094 85.3634 19.5632 85.4405C19.6171 85.5177 19.6933 85.5764 19.7816 85.6086C20.0144 85.725 20.2711 85.7856 20.5313 85.7856C20.7915 85.7856 21.0481 85.725 21.281 85.6086C21.3692 85.5764 21.4454 85.5177 21.4993 85.4405C21.5532 85.3634 21.582 85.2715 21.582 85.1773C21.582 85.0832 21.5532 84.9913 21.4993 84.9141C21.4454 84.837 21.3692 84.7783 21.281 84.746C21.0501 84.6229 20.7927 84.5586 20.5313 84.5586C20.2698 84.5586 20.0124 84.6229 19.7816 84.746Z" fill="#065566"/>
<path d="M16.0433 87.2513C15.955 87.2836 15.8788 87.3423 15.8249 87.4195C15.7711 87.4966 15.7422 87.5885 15.7422 87.6827C15.7422 87.7768 15.7711 87.8687 15.8249 87.9459C15.8788 88.023 15.955 88.0817 16.0433 88.114C16.2761 88.2304 16.5328 88.291 16.793 88.291C17.0532 88.291 17.3098 88.2304 17.5427 88.114C17.6309 88.0817 17.7072 88.023 17.761 87.9459C17.8149 87.8687 17.8438 87.7768 17.8438 87.6827C17.8438 87.5885 17.8149 87.4966 17.761 87.4195C17.7072 87.3423 17.6309 87.2836 17.5427 87.2513C17.3119 87.1283 17.0544 87.064 16.793 87.064C16.5315 87.064 16.2741 87.1283 16.0433 87.2513Z" fill="#065566"/>
<path d="M12.305 89.7567C12.2167 89.789 12.1405 89.8477 12.0867 89.9249C12.0328 90.002 12.0039 90.0939 12.0039 90.1881C12.0039 90.2822 12.0328 90.3741 12.0867 90.4513C12.1405 90.5284 12.2167 90.5871 12.305 90.6194C12.5378 90.7358 12.7945 90.7963 13.0547 90.7963C13.3149 90.7963 13.5715 90.7358 13.8044 90.6194C13.8927 90.5871 13.9689 90.5284 14.0227 90.4513C14.0766 90.3741 14.1055 90.2822 14.1055 90.1881C14.1055 90.0939 14.0766 90.002 14.0227 89.9249C13.9689 89.8477 13.8927 89.789 13.8044 89.7567C13.5736 89.6337 13.3161 89.5693 13.0547 89.5693C12.7933 89.5693 12.5358 89.6337 12.305 89.7567Z" fill="#065566"/>
<path d="M73.8558 112.87C73.7675 112.902 73.6913 112.961 73.6374 113.038C73.5836 113.115 73.5547 113.207 73.5547 113.301C73.5547 113.395 73.5836 113.487 73.6374 113.564C73.6913 113.642 73.7675 113.7 73.8558 113.733C74.0886 113.849 74.3453 113.909 74.6055 113.909C74.8657 113.909 75.1223 113.849 75.3552 113.733C75.4434 113.7 75.5197 113.642 75.5735 113.564C75.6274 113.487 75.6562 113.395 75.6562 113.301C75.6562 113.207 75.6274 113.115 75.5735 113.038C75.5197 112.961 75.4434 112.902 75.3552 112.87C75.1223 112.753 74.8657 112.693 74.6055 112.693C74.3453 112.693 74.0886 112.753 73.8558 112.87Z" fill="#065566"/>
<path d="M69.9378 110.602C69.8495 110.634 69.7733 110.693 69.7195 110.77C69.6656 110.847 69.6367 110.939 69.6367 111.033C69.6367 111.127 69.6656 111.219 69.7195 111.296C69.7733 111.373 69.8495 111.432 69.9378 111.464C70.1686 111.587 70.4261 111.652 70.6875 111.652C70.9489 111.652 71.2064 111.587 71.4372 111.464C71.5255 111.432 71.6017 111.373 71.6555 111.296C71.7094 111.219 71.7383 111.127 71.7383 111.033C71.7383 110.939 71.7094 110.847 71.6555 110.77C71.6017 110.693 71.5255 110.634 71.4372 110.602C71.2043 110.485 70.9477 110.425 70.6875 110.425C70.4273 110.425 70.1707 110.485 69.9378 110.602Z" fill="#065566"/>
<path d="M66.0394 108.348C65.9511 108.38 65.8749 108.439 65.821 108.516C65.7672 108.593 65.7383 108.685 65.7383 108.779C65.7383 108.873 65.7672 108.965 65.821 109.042C65.8749 109.119 65.9511 109.178 66.0394 109.21C66.2722 109.327 66.5289 109.387 66.7891 109.387C67.0493 109.387 67.3059 109.327 67.5388 109.21C67.627 109.178 67.7032 109.119 67.7571 109.042C67.811 108.965 67.8398 108.873 67.8398 108.779C67.8398 108.685 67.811 108.593 67.7571 108.516C67.7032 108.439 67.627 108.38 67.5388 108.348C67.3079 108.224 67.0505 108.16 66.7891 108.16C66.5276 108.16 66.2702 108.224 66.0394 108.348Z" fill="#065566"/>
<path d="M62.1253 106.066C62.037 106.098 61.9608 106.157 61.907 106.234C61.8531 106.311 61.8242 106.403 61.8242 106.497C61.8242 106.591 61.8531 106.683 61.907 106.76C61.9608 106.837 62.037 106.896 62.1253 106.928C62.3582 107.045 62.6148 107.105 62.875 107.105C63.1352 107.105 63.3918 107.045 63.6247 106.928C63.713 106.896 63.7892 106.837 63.843 106.76C63.8969 106.683 63.9258 106.591 63.9258 106.497C63.9258 106.403 63.8969 106.311 63.843 106.234C63.7892 106.157 63.713 106.098 63.6247 106.066C63.3918 105.949 63.1352 105.889 62.875 105.889C62.6148 105.889 62.3582 105.949 62.1253 106.066Z" fill="#065566"/>
<path d="M58.2052 103.812C58.1169 103.844 58.0407 103.903 57.9868 103.98C57.933 104.057 57.9041 104.149 57.9041 104.243C57.9041 104.337 57.933 104.429 57.9868 104.506C58.0407 104.584 58.1169 104.642 58.2052 104.674C58.4377 104.8 58.6977 104.866 58.9618 104.866C59.2259 104.866 59.4859 104.8 59.7184 104.674C59.8067 104.642 59.8829 104.584 59.9368 104.506C59.9906 104.429 60.0195 104.337 60.0195 104.243C60.0195 104.149 59.9906 104.057 59.9368 103.98C59.8829 103.903 59.8067 103.844 59.7184 103.812C59.4838 103.693 59.2246 103.631 58.9618 103.631C58.699 103.631 58.4398 103.693 58.2052 103.812Z" fill="#065566"/>
<path d="M55.0425 102.601C54.4598 102.601 53.9874 102.327 53.9874 101.989C53.9874 101.651 54.4598 101.376 55.0425 101.376C55.6253 101.376 56.0977 101.651 56.0977 101.989C56.0977 102.327 55.6253 102.601 55.0425 102.601Z" fill="#065566"/>
<path d="M51.1402 100.333C50.5574 100.333 50.085 100.059 50.085 99.7206C50.085 99.3825 50.5574 99.1084 51.1402 99.1084C51.7229 99.1084 52.1953 99.3825 52.1953 99.7206C52.1953 100.059 51.7229 100.333 51.1402 100.333Z" fill="#065566"/>
<path d="M46.4769 97.0212C46.3886 97.0535 46.3124 97.1122 46.2585 97.1893C46.2047 97.2665 46.1758 97.3584 46.1758 97.4525C46.1758 97.5467 46.2047 97.6386 46.2585 97.7157C46.3124 97.7929 46.3886 97.8516 46.4769 97.8839C46.7077 98.0069 46.9651 98.0713 47.2266 98.0713C47.488 98.0713 47.7454 98.0069 47.9763 97.8839C48.0645 97.8516 48.1407 97.7929 48.1946 97.7157C48.2485 97.6386 48.2773 97.5467 48.2773 97.4525C48.2773 97.3584 48.2485 97.2665 48.1946 97.1893C48.1407 97.1122 48.0645 97.0535 47.9763 97.0212C47.7434 96.9048 47.4868 96.8442 47.2266 96.8442C46.9664 96.8442 46.7097 96.9048 46.4769 97.0212Z" fill="#065566"/>
<path d="M43.312 95.8109C42.7293 95.8109 42.2569 95.5368 42.2569 95.1987C42.2569 94.8605 42.7293 94.5864 43.312 94.5864C43.8948 94.5864 44.3672 94.8605 44.3672 95.1987C44.3672 95.5368 43.8948 95.8109 43.312 95.8109Z" fill="#065566"/>
<path d="M38.6587 92.4995C38.5705 92.5318 38.4942 92.5905 38.4404 92.6677C38.3865 92.7448 38.3576 92.8367 38.3576 92.9309C38.3576 93.025 38.3865 93.1169 38.4404 93.1941C38.4942 93.2712 38.5705 93.3299 38.6587 93.3622C38.8891 93.4784 39.1435 93.539 39.4015 93.539C39.6594 93.539 39.9138 93.4784 40.1442 93.3622C40.2325 93.3299 40.3087 93.2712 40.3626 93.1941C40.4164 93.1169 40.4453 93.025 40.4453 92.9309C40.4453 92.8367 40.4164 92.7448 40.3626 92.6677C40.3087 92.5905 40.2325 92.5318 40.1442 92.4995C39.9138 92.3833 39.6594 92.3228 39.4015 92.3228C39.1435 92.3228 38.8891 92.3833 38.6587 92.4995Z" fill="#065566"/>
<path d="M77.7702 110.574C77.6832 110.609 77.6088 110.67 77.5563 110.748C77.5039 110.826 77.4759 110.918 77.4759 111.012C77.4759 111.106 77.5039 111.198 77.5563 111.276C77.6088 111.354 77.6832 111.415 77.7702 111.451C78.0031 111.567 78.2597 111.627 78.52 111.627C78.7802 111.627 79.0368 111.567 79.2697 111.451C79.6862 111.214 79.6862 110.824 79.2697 110.574C79.0368 110.458 78.7802 110.397 78.52 110.397C78.2597 110.397 78.0031 110.458 77.7702 110.574Z" fill="#065566"/>
<path d="M81.5749 108.305C81.4879 108.341 81.4134 108.401 81.361 108.48C81.3086 108.558 81.2806 108.65 81.2806 108.744C81.2806 108.838 81.3086 108.93 81.361 109.008C81.4134 109.086 81.4879 109.147 81.5749 109.182C81.8078 109.298 82.0644 109.359 82.3246 109.359C82.5848 109.359 82.8415 109.298 83.0743 109.182C83.4908 108.945 83.4908 108.556 83.0743 108.305C82.8415 108.189 82.5848 108.128 82.3246 108.128C82.0644 108.128 81.8078 108.189 81.5749 108.305Z" fill="#065566"/>
<path d="M85.196 105.444C85.109 105.479 85.0345 105.54 84.9821 105.618C84.9297 105.696 84.9017 105.788 84.9017 105.882C84.9017 105.976 84.9297 106.068 84.9821 106.146C85.0345 106.224 85.109 106.285 85.196 106.32C85.4289 106.437 85.6855 106.497 85.9457 106.497C86.2059 106.497 86.4626 106.437 86.6954 106.32C87.1119 106.084 87.1119 105.694 86.6954 105.444C86.4626 105.327 86.2059 105.267 85.9457 105.267C85.6855 105.267 85.4289 105.327 85.196 105.444Z" fill="#065566"/>
<path d="M73.897 108.32C73.8087 108.352 73.7325 108.411 73.6787 108.488C73.6248 108.565 73.5959 108.657 73.5959 108.751C73.5959 108.845 73.6248 108.937 73.6787 109.014C73.7325 109.092 73.8087 109.15 73.897 109.183C74.1274 109.299 74.3818 109.359 74.6398 109.359C74.8977 109.359 75.1521 109.299 75.3825 109.183C75.4708 109.15 75.547 109.092 75.6009 109.014C75.6547 108.937 75.6836 108.845 75.6836 108.751C75.6836 108.657 75.6547 108.565 75.6009 108.488C75.547 108.411 75.4708 108.352 75.3825 108.32C75.1521 108.204 74.8977 108.143 74.6398 108.143C74.3818 108.143 74.1274 108.204 73.897 108.32Z" fill="#065566"/>
<path d="M69.9808 106.066C69.8925 106.098 69.8163 106.157 69.7624 106.234C69.7086 106.311 69.6797 106.403 69.6797 106.497C69.6797 106.591 69.7086 106.683 69.7624 106.76C69.8163 106.837 69.8925 106.896 69.9808 106.928C70.2116 107.051 70.469 107.116 70.7305 107.116C70.9919 107.116 71.2493 107.051 71.4802 106.928C71.5684 106.896 71.6447 106.837 71.6985 106.76C71.7524 106.683 71.7812 106.591 71.7812 106.497C71.7812 106.403 71.7524 106.311 71.6985 106.234C71.6447 106.157 71.5684 106.098 71.4802 106.066C71.2473 105.949 70.9907 105.889 70.7305 105.889C70.4703 105.889 70.2136 105.949 69.9808 106.066Z" fill="#065566"/>
<path d="M58.2485 99.2614C58.1602 99.2936 58.084 99.3523 58.0302 99.4295C57.9763 99.5066 57.9474 99.5985 57.9474 99.6927C57.9474 99.7869 57.9763 99.8787 58.0302 99.9559C58.084 100.033 58.1602 100.092 58.2485 100.124C58.4793 100.247 58.7368 100.311 58.9982 100.311C59.2596 100.311 59.5171 100.247 59.7479 100.124C60.1505 99.8875 58.665 99.0248 58.2485 99.2614Z" fill="#065566"/>
<path d="M54.3345 97.0074C54.2462 97.0397 54.17 97.0984 54.1162 97.1756C54.0623 97.2527 54.0334 97.3446 54.0334 97.4388C54.0334 97.533 54.0623 97.6248 54.1162 97.702C54.17 97.7791 54.2462 97.8378 54.3345 97.8701C54.5674 97.9865 54.824 98.0471 55.0842 98.0471C55.3444 98.0471 55.601 97.9865 55.8339 97.8701C56.2504 97.6336 54.751 96.757 54.3345 97.0074Z" fill="#065566"/>
<path d="M50.4204 94.7394C50.3322 94.7717 50.2559 94.8304 50.2021 94.9075C50.1482 94.9847 50.1194 95.0766 50.1194 95.1707C50.1194 95.2649 50.1482 95.3568 50.2021 95.4339C50.2559 95.5111 50.3322 95.5698 50.4204 95.6021C50.6533 95.7185 50.9099 95.779 51.1701 95.779C51.4303 95.779 51.687 95.7185 51.9198 95.6021C52.3363 95.3655 50.8369 94.5028 50.4204 94.7394Z" fill="#065566"/>
<path d="M77.7659 106.066C77.6777 106.098 77.6014 106.157 77.5476 106.234C77.4937 106.311 77.4649 106.403 77.4649 106.497C77.4649 106.591 77.4937 106.683 77.5476 106.76C77.6014 106.837 77.6777 106.896 77.7659 106.928C77.9968 107.051 78.2542 107.116 78.5156 107.116C78.7771 107.116 79.0345 107.051 79.2653 106.928C79.3536 106.896 79.4298 106.837 79.4837 106.76C79.5375 106.683 79.5664 106.591 79.5664 106.497C79.5664 106.403 79.5375 106.311 79.4837 106.234C79.4298 106.157 79.3536 106.098 79.2653 106.066C79.0325 105.949 78.7758 105.889 78.5156 105.889C78.2554 105.889 77.9988 105.949 77.7659 106.066Z" fill="#065566"/>
<path d="M81.387 103.203C81.2988 103.236 81.2225 103.294 81.1687 103.371C81.1148 103.449 81.0859 103.541 81.0859 103.635C81.0859 103.729 81.1148 103.821 81.1687 103.898C81.2225 103.975 81.2988 104.034 81.387 104.066C81.6178 104.189 81.8753 104.253 82.1367 104.253C82.3982 104.253 82.6556 104.189 82.8864 104.066C82.9747 104.034 83.0509 103.975 83.1048 103.898C83.1586 103.821 83.1875 103.729 83.1875 103.635C83.1875 103.541 83.1586 103.449 83.1048 103.371C83.0509 103.294 82.9747 103.236 82.8864 103.203C82.6536 103.087 82.3969 103.026 82.1367 103.026C81.8765 103.026 81.6199 103.087 81.387 103.203Z" fill="#065566"/>
<path d="M73.897 103.798C73.8087 103.83 73.7325 103.889 73.6787 103.966C73.6248 104.043 73.5959 104.135 73.5959 104.229C73.5959 104.323 73.6248 104.415 73.6787 104.492C73.7325 104.569 73.8087 104.628 73.897 104.66C74.1274 104.777 74.3818 104.837 74.6398 104.837C74.8977 104.837 75.1521 104.777 75.3825 104.66C75.4708 104.628 75.547 104.569 75.6009 104.492C75.6547 104.415 75.6836 104.323 75.6836 104.229C75.6836 104.135 75.6547 104.043 75.6009 103.966C75.547 103.889 75.4708 103.83 75.3825 103.798C75.1542 103.675 74.899 103.61 74.6398 103.61C74.3805 103.61 74.1253 103.675 73.897 103.798Z" fill="#065566"/>
<path d="M77.7659 101.529C77.6777 101.562 77.6014 101.62 77.5476 101.698C77.4937 101.775 77.4649 101.867 77.4649 101.961C77.4649 102.055 77.4937 102.147 77.5476 102.224C77.6014 102.301 77.6777 102.36 77.7659 102.392C77.9988 102.509 78.2554 102.569 78.5156 102.569C78.7758 102.569 79.0325 102.509 79.2653 102.392C79.3536 102.36 79.4298 102.301 79.4837 102.224C79.5375 102.147 79.5664 102.055 79.5664 101.961C79.5664 101.867 79.5375 101.775 79.4837 101.698C79.4298 101.62 79.3536 101.562 79.2653 101.529C79.0325 101.413 78.7758 101.353 78.5156 101.353C78.2554 101.353 77.9988 101.413 77.7659 101.529Z" fill="#065566"/>
<g clip-path="url(#clip0_2727_14373)">
<path d="M23.4778 7.18202C26.8806 5.00819 30.2834 2.83055 33.6216 0.559639C34.176 0.178932 34.6621 0 35.1539 0C35.6893 0.0252124 36.208 0.194174 36.6559 0.489209C48.0491 7.16426 59.4619 13.8095 70.8943 20.4249C73.5426 21.9655 76.1915 23.5054 78.8411 25.0448C79.3348 25.3322 79.6671 25.6996 79.6652 26.3182C79.6538 28.2218 79.6538 30.1253 79.6652 32.0288C79.6787 32.2847 79.6216 32.5394 79.4999 32.7647C79.3783 32.9901 79.197 33.1774 78.9759 33.3061C77.9923 33.9362 77.0372 34.6138 76.0327 35.2096C75.5655 35.4875 75.4402 35.8111 75.444 36.327C75.4643 39.2787 75.4643 42.2298 75.444 45.1803C75.4365 46.7205 75.1188 48.2433 74.5098 49.6574C73.0401 53.0838 70.5222 55.5584 67.37 57.42C66.7738 57.7722 66.1548 58.0882 65.5187 58.4365C66.001 59.0513 66.413 59.6186 66.8668 60.1497C69.2829 62.9549 71.3678 66.0304 73.0799 69.3152C74.599 72.2676 75.5769 75.357 75.4991 78.7586C75.4003 83.0244 75.4839 87.2959 75.4649 91.5637C75.4649 92.1347 75.6016 92.5021 76.1485 92.7838C77.077 93.2616 77.9429 93.8593 78.8563 94.3676C79.1177 94.4977 79.3345 94.7031 79.4789 94.9574C79.6234 95.2117 79.6889 95.5034 79.6671 95.7952C79.6538 97.5997 79.6405 99.4119 79.6671 101.211C79.6905 101.515 79.6275 101.819 79.4854 102.089C79.3432 102.358 79.1277 102.582 78.8639 102.734C75.1699 105.122 71.4811 107.522 67.7973 109.933C67.5514 110.114 67.2559 110.217 66.9505 110.225C66.6451 110.234 66.3443 110.149 66.0883 109.982C65.4997 109.64 64.9072 109.305 64.3186 108.962C57.2156 104.824 50.1119 100.686 43.0076 96.549C36.4502 92.7318 29.8903 88.9203 23.3278 85.1145C22.6214 84.7071 22.3632 84.1627 22.3784 83.388C22.3993 81.7281 22.3784 80.0701 22.3784 78.4121C22.3784 77.2986 22.8189 76.699 23.5538 76.699C23.9635 76.721 24.3609 76.8474 24.7083 77.0664C25.2893 77.3938 25.8647 77.7307 26.6071 78.1571V77.192C26.6071 73.3621 26.6071 69.5341 26.6071 65.7042C26.6003 64.9 26.646 64.0963 26.7439 63.2981C26.9393 61.5322 27.8181 59.9137 29.1915 58.7906C30.9992 57.2963 33.1563 56.7614 35.4141 56.5901C35.9268 56.552 36.4395 56.5406 36.9655 56.5406C37.8161 56.5406 38.6953 56.571 39.6353 56.571C39.3827 56.2589 39.2327 56.0571 39.0656 55.8686C35.1425 51.4125 31.5936 46.6955 29.0016 41.3161C27.5813 38.3714 26.5844 35.3162 26.5939 31.9888C26.609 27.4318 26.5844 22.8747 26.5939 18.3177C26.5939 17.8399 26.4571 17.5563 26.0375 17.3316C25.0596 16.793 24.112 16.1895 23.1455 15.6337C22.5759 15.3082 22.348 14.838 22.3575 14.1851C22.3765 12.5519 22.4088 10.9148 22.3442 9.28352C22.3233 8.31843 22.667 7.69979 23.4778 7.18202ZM76.4295 26.1774C76.4134 26.0981 76.3807 26.0232 76.3336 25.9576C76.2865 25.8919 76.226 25.8371 76.1561 25.7967L74.7737 24.9857C73.8243 24.428 72.8388 23.8436 71.8741 23.2897L49.5872 10.3343L47.7415 9.26258C43.8773 7.01451 39.8821 4.69411 35.9458 2.4251C35.6996 2.29225 35.424 2.22352 35.1444 2.22523C34.9229 2.21715 34.7038 2.27404 34.514 2.38893C32.3132 3.79945 30.0897 5.25755 27.9421 6.66617L26.1894 7.80828L26.0451 7.89585L25.8115 8.03481C25.7272 8.08582 25.6575 8.15788 25.6092 8.24396C25.561 8.33003 25.5358 8.42718 25.5362 8.52592C25.5365 8.6247 25.5624 8.7217 25.6114 8.80744C25.6603 8.89319 25.7306 8.96475 25.8153 9.01512L26.9394 9.68707C27.5623 10.0678 28.149 10.4142 28.7377 10.7569L49.7581 22.9889L58.6619 28.1704L59.9455 28.9146C61.9659 30.091 64.0546 31.3074 66.1282 32.4819C66.3537 32.5975 66.6041 32.6557 66.8574 32.6513C67.1194 32.6575 67.3781 32.5916 67.6055 32.4609C69.9069 30.9895 72.2292 29.4686 74.4756 27.9971L75.9947 27.0016H76.0061C76.1021 26.9321 76.1839 26.8449 76.2472 26.7446C76.2662 26.7199 76.2871 26.6875 76.3156 26.6513C76.3683 26.5857 76.4059 26.5091 76.4256 26.4272C76.4452 26.3452 76.4466 26.2599 76.4295 26.1774ZM76.7941 32.3315C77.2024 32.0745 77.7435 31.6234 77.6771 30.6906C77.6543 30.3213 77.66 29.9425 77.6657 29.5047C77.6657 29.2896 77.6657 29.065 77.6657 28.8214C77.6656 28.7253 77.6414 28.6308 77.5953 28.5467C77.5492 28.4625 77.4826 28.3913 77.4017 28.3398C77.3104 28.2814 77.2043 28.2504 77.096 28.2503C77.0127 28.2502 76.9304 28.2684 76.8549 28.3036C76.739 28.3588 76.6365 28.4026 76.5473 28.4407C76.3725 28.5094 76.2041 28.5935 76.0441 28.6919L75.5162 29.0346C73.1616 30.5574 70.7253 32.1468 68.348 33.7287C68.1582 33.8644 67.9982 34.0376 67.8777 34.2376C67.7572 34.4376 67.6788 34.6602 67.6473 34.8917C67.6089 35.3901 67.5987 35.8903 67.6169 36.3898C67.6169 36.5802 67.6169 36.7705 67.6169 36.9609C67.617 37.0668 67.6466 37.1707 67.7023 37.2608C67.7579 37.3509 67.8375 37.4237 67.9321 37.471L68.0062 37.5091L68.1676 37.5909C68.2458 37.6284 68.3315 37.6479 68.4182 37.648C68.528 37.6481 68.6355 37.6164 68.7277 37.5567L69.8784 36.8105C70.4063 36.4678 70.9361 36.1271 71.464 35.7826L72.9318 34.8308C74.2041 34.0047 75.5048 33.1538 76.7941 32.3372V32.3315ZM72.7419 48.5115C73.1481 47.4049 73.3763 46.2407 73.4179 45.0623C73.4882 43.4176 73.473 41.7482 73.4597 40.1341C73.4597 39.5116 73.4483 38.8682 73.4483 38.2305C73.4483 38.0668 73.4483 37.9107 73.4274 37.7128C73.4274 37.5966 73.4122 37.4653 73.4065 37.3054C73.402 37.2051 73.3712 37.1078 73.3172 37.0232C73.2632 36.9387 73.1879 36.8699 73.0989 36.8238C73.0176 36.7827 72.9279 36.7612 72.8369 36.761C72.7277 36.7613 72.6209 36.793 72.5293 36.8524C72.045 37.1626 71.5665 37.4634 71.1051 37.7527C70.0512 38.4133 69.0562 39.0357 68.0973 39.7381C67.6017 40.0998 67.1991 40.2692 66.8308 40.2692C66.4552 40.2496 66.0972 40.1033 65.8149 39.8542C65.4972 39.6239 65.1575 39.4256 64.8009 39.2622C64.6357 39.1804 64.4648 39.0966 64.2882 38.9995C64.2048 38.9544 64.1114 38.9309 64.0167 38.931C63.921 38.9306 63.8268 38.9549 63.7432 39.0014C63.6596 39.0474 63.5889 39.1137 63.5375 39.1941C63.486 39.2746 63.4556 39.3668 63.4489 39.4621C63.4394 39.5973 63.428 39.721 63.4185 39.8428C63.3976 40.0731 63.3786 40.2901 63.3786 40.5109C63.3786 41.7305 63.3786 42.9506 63.3786 44.1714C63.3786 46.7583 63.3786 49.4309 63.354 52.0616C63.3297 52.8221 63.26 53.5804 63.1451 54.3325C63.0919 54.7303 63.0387 55.1415 62.997 55.5545C62.9742 55.8058 62.9305 56.2722 63.2457 56.5577C63.4164 56.7059 63.6373 56.7829 63.8628 56.7728C64.0485 56.7735 64.2322 56.7353 64.4021 56.6605C68.7391 54.639 71.388 52.0502 72.7419 48.5229V48.5115ZM73.435 77.3919C73.4217 74.9934 72.5463 72.8234 71.783 71.1921C70.2126 67.8438 68.0384 64.5678 64.9471 60.8844C64.8579 60.7778 64.7686 60.6693 64.6813 60.5608C64.3799 60.1735 64.0505 59.8089 63.6957 59.4701C63.3907 59.2018 63.0019 59.0484 62.5963 59.0361C62.4888 59.036 62.3819 59.0521 62.2792 59.0837C58.9448 60.1344 55.3161 60.6446 51.186 60.6446H50.6828C50.5045 60.6461 50.3264 60.6569 50.1493 60.677C49.9865 60.698 49.8364 60.7762 49.7258 60.8978L49.6555 60.9625C49.5975 61.0127 49.5502 61.0742 49.5164 61.1433C49.4826 61.2123 49.4631 61.2875 49.459 61.3643C49.4549 61.4411 49.4664 61.5179 49.4927 61.5902C49.5189 61.6625 49.5595 61.7286 49.6119 61.7848C50.0258 62.2283 50.4455 62.6719 50.8499 63.1021C51.7215 64.0234 52.5437 64.8933 53.3507 65.8089C57.4105 70.4116 60.012 74.2491 61.7893 78.2485C62.9286 80.8182 63.4584 83.2871 63.4033 85.7979C63.3426 88.4837 63.3577 91.2134 63.371 93.8536C63.371 94.9348 63.3824 96.0503 63.3824 97.1486C63.3824 97.358 63.3938 97.5617 63.409 97.8186C63.409 97.9386 63.4242 98.0718 63.4318 98.2241C63.4366 98.3243 63.4676 98.4214 63.5216 98.5057C63.5757 98.5901 63.651 98.6587 63.7399 98.7046C63.8289 98.7505 63.9283 98.7721 64.0282 98.7673C64.1281 98.7625 64.225 98.7314 64.3091 98.6772L65.3117 98.0357C65.7883 97.733 66.2383 97.4456 66.6865 97.1562C67.3865 96.7019 68.0859 96.2457 68.7847 95.7876C70.0399 94.9672 71.3368 94.1182 72.6204 93.294C72.8894 93.1355 73.11 92.9063 73.2583 92.6312C73.4065 92.356 73.4769 92.0454 73.4616 91.7331C73.4616 89.6563 73.4616 87.5453 73.4616 85.499C73.4502 82.8531 73.4502 80.1063 73.435 77.4033V77.3919ZM67.6169 104.803C67.6432 105.15 67.6489 105.498 67.634 105.846C67.634 106.036 67.634 106.253 67.634 106.484C67.634 106.635 67.694 106.78 67.8008 106.887C67.9077 106.994 68.0526 107.055 68.2036 107.055C68.2992 107.054 68.3933 107.03 68.4771 106.984L68.8322 106.794C69.0372 106.687 69.1968 106.603 69.3563 106.499L72.2558 104.612C73.7293 103.661 75.2541 102.659 76.7561 101.692C77.1853 101.416 77.7473 100.931 77.6828 99.9792C77.6581 99.5985 77.6638 99.2025 77.6695 98.7438C77.6695 98.521 77.6695 98.2831 77.6695 98.0261C77.6694 97.9237 77.6419 97.8232 77.5898 97.7352C77.5377 97.6471 77.4629 97.5747 77.3733 97.5255C77.2896 97.4789 77.1955 97.4547 77.0998 97.4551C76.9915 97.4552 76.8855 97.4862 76.7941 97.5445L75.8637 98.1366C75.3434 98.4678 74.8535 98.778 74.3731 99.0883C73.7692 99.483 73.166 99.8789 72.5634 100.276C71.3007 101.108 69.9962 101.968 68.6974 102.781C68.1315 103.162 67.503 103.706 67.6169 104.82V104.803ZM68.0555 101.502C69.9924 100.248 71.9558 98.9608 73.8566 97.7159L75.7364 96.4843C75.8431 96.4112 75.9458 96.3324 76.0441 96.2482L76.2339 96.0864C76.3057 96.0286 76.3624 95.9543 76.3993 95.8697C76.4361 95.7851 76.4519 95.6928 76.4454 95.6007C76.4389 95.5087 76.4102 95.4195 76.3618 95.341C76.3134 95.2625 76.2467 95.1969 76.1675 95.1499C76.0118 95.0585 75.8675 94.9595 75.7269 94.8815C75.4037 94.6735 75.0697 94.4829 74.7262 94.3104C74.5702 94.2389 74.4003 94.2031 74.2287 94.2057C74.0016 94.2017 73.7779 94.2617 73.5831 94.379C71.1982 95.9284 68.7828 97.516 66.4472 99.0522L65.0591 99.9658C64.9475 100.037 64.8616 100.143 64.8142 100.267C64.7704 100.361 64.7531 100.465 64.7642 100.568C64.7752 100.672 64.8142 100.77 64.8768 100.853C65.4237 101.576 66.0446 101.942 66.7244 101.942C67.1996 101.933 67.662 101.786 68.0555 101.519V101.502ZM25.9558 80.1101C25.7963 80.0168 25.6406 79.9426 25.4431 79.8493L25.1735 79.7199C25.096 79.6822 25.0109 79.6627 24.9248 79.6628C24.8178 79.6624 24.713 79.6928 24.6228 79.7503C24.541 79.8016 24.4735 79.8729 24.4267 79.9574C24.3799 80.042 24.3552 80.1371 24.3551 80.2338C24.3551 80.4927 24.3551 80.7421 24.3551 80.9838C24.3551 81.6329 24.3456 82.2478 24.3817 82.8664C24.4159 83.4089 24.9893 83.7668 25.1013 83.8315C33.2513 88.5903 41.5417 93.4101 49.5587 98.0775L53.195 100.198L64.799 106.952C64.9053 107.013 65.0079 107.06 65.1389 107.119L65.418 107.253C65.4956 107.29 65.5806 107.31 65.6668 107.31C65.7737 107.31 65.8786 107.28 65.9687 107.222C66.0505 107.171 66.118 107.1 66.1648 107.015C66.2117 106.93 66.2363 106.835 66.2364 106.739C66.2364 106.474 66.2364 106.219 66.2459 105.977C66.2691 105.41 66.2558 104.841 66.206 104.275C66.151 103.773 65.7275 103.278 65.3402 103.048C62.5545 101.403 59.71 99.7507 56.9605 98.1518L54.8205 96.9069L48.146 93.0218L34.9052 85.3144C31.8195 83.5117 28.806 81.7605 25.9558 80.1101ZM28.5421 78.8918C28.5098 79.8436 29.0377 80.2795 29.5029 80.5479C35.1881 83.841 40.9626 87.2103 46.5471 90.4463L51.3247 93.2254C54.354 94.9906 57.3827 96.7527 60.4107 98.5115C60.5436 98.5896 60.6728 98.6562 60.838 98.74L61.119 98.8846C61.2057 98.9301 61.3026 98.9524 61.4004 98.9494C61.4981 98.9464 61.5935 98.9182 61.6773 98.8675C61.7613 98.8167 61.8308 98.7449 61.8791 98.6592C61.9273 98.5735 61.9526 98.4767 61.9526 98.3783C61.9526 98.0147 61.9526 97.6607 61.9526 97.3142C61.9526 96.3453 61.9526 95.4297 61.9374 94.5122C61.9115 94.1379 61.7797 93.7787 61.5576 93.4767C57.6517 87.8061 54.3666 83.683 50.9069 80.1101C48.6738 77.8049 46.6629 76.0385 44.109 74.9078C42.8926 74.3721 41.6181 73.9805 40.3112 73.7409C38.8349 73.476 37.3373 73.3486 35.8375 73.3602C35.2299 73.3602 34.6052 73.3773 33.9235 73.4097C33.1127 73.4496 32.2961 73.5334 31.5081 73.6134C30.9157 73.6743 30.3023 73.7371 29.7023 73.7809C29.1744 73.817 28.5478 74.0683 28.563 75.0429C28.5687 76.3069 28.5858 77.6127 28.5421 78.8918ZM30.1599 39.108C32.2487 43.8669 35.3514 48.5419 39.9068 53.7995C40.6663 54.6751 41.4809 55.5222 42.269 56.3407C42.6298 56.7214 43.0038 57.1021 43.3684 57.4828C43.695 57.8274 43.6855 58.0672 43.5735 58.3223C43.5304 58.4523 43.4441 58.5635 43.329 58.6373C43.2139 58.7111 43.077 58.743 42.9412 58.7277H42.8823C42.25 58.7011 41.6063 58.6649 40.9834 58.6269C39.8023 58.5583 38.5833 58.486 37.3756 58.486C37.1041 58.486 36.8382 58.486 36.5819 58.4974C35.1449 58.5454 33.7224 58.8018 32.3588 59.2588C29.9966 60.0602 28.6598 61.8267 28.6048 64.248C28.5687 65.9726 28.5763 67.6743 28.5858 69.456C28.5858 70.2403 28.5858 71.0341 28.5858 71.8374C28.5858 71.9888 28.6458 72.1341 28.7526 72.2412C28.8594 72.3483 29.0043 72.4084 29.1554 72.4084H29.2086L30.1068 72.3189C30.7752 72.2523 31.4663 72.1819 32.1404 72.1381C33.5874 72.0468 34.7533 72.003 35.8109 72.003C38.758 72.003 41.1467 72.3456 43.3304 73.0785C45.3015 73.7409 47.6674 74.8963 51.6019 78.8271C55.0901 82.3125 58.096 86.2509 60.3367 89.2813C60.541 89.581 60.828 89.8145 61.1627 89.9533C61.2329 89.9833 61.3085 89.9988 61.3848 89.999C61.5359 89.999 61.6808 89.9388 61.7876 89.8317C61.8945 89.7246 61.9545 89.5794 61.9545 89.4279C61.9545 89.3042 61.9545 89.1785 61.9545 89.0472C61.9545 88.7959 61.9545 88.537 61.9545 88.2858C61.9545 87.808 61.9545 87.315 61.9545 86.8391C61.9835 85.7206 61.9474 84.6013 61.8463 83.487C61.5196 80.4984 60.1582 77.8601 58.8669 75.6825C56.1117 71.0169 52.4754 66.6198 47.0731 61.425L46.8832 61.2347C46.6819 61.0443 46.4731 60.833 46.2395 60.6427C46.0401 60.4809 45.8597 60.2487 46.023 59.7499C46.0572 59.6452 46.1483 59.3692 46.7028 59.354L47.1453 59.3407C48.8865 59.2874 50.6866 59.2303 52.4621 59.196C54.2603 59.1617 56.2997 59.1237 58.2536 58.3546C60.7126 57.3896 61.9602 55.5717 61.964 52.9486C61.964 52.54 61.964 52.1301 61.964 51.7189C61.964 50.8795 61.9507 50.0058 61.9792 49.1625C62.0084 48.8465 61.941 48.529 61.786 48.2523C61.631 47.9755 61.3957 47.7526 61.1114 47.613C41.9621 48.8486 34.0257 43.0436 29.3472 30.9838C29.0506 30.8144 28.6772 28.721 28.5516 30.06C28.2453 33.233 28.8544 36.2032 30.1599 39.11V39.108ZM61.9602 38.4685C61.9795 38.1898 61.916 37.9116 61.7778 37.6691C61.6396 37.4265 61.4328 37.2304 61.1836 37.1055C53.5881 32.695 45.854 28.1989 38.382 23.8512L33.1867 20.8284C32.45 20.4001 31.7113 19.9757 30.9536 19.5397L29.5428 18.7269C29.4562 18.6769 29.3579 18.6507 29.258 18.6508C29.1727 18.6512 29.0885 18.67 29.0111 18.706C28.9285 18.7468 28.8571 18.8071 28.8028 18.8817C28.7486 18.9563 28.7132 19.043 28.6997 19.1343C28.6845 19.2219 28.6712 19.298 28.6579 19.3665C28.6269 19.5112 28.6084 19.6583 28.6029 19.8062C28.6029 20.5201 28.5934 21.232 28.5877 21.9458C28.5877 23.3506 28.5706 24.8011 28.5516 26.2269C28.5265 26.5191 28.5888 26.8122 28.7305 27.0688C28.8722 27.3254 29.0869 27.534 29.3472 27.6678C36.4148 31.7357 43.5887 35.8816 50.5385 39.8923L55.5572 42.7952C56.2256 43.1759 56.8934 43.5629 57.5605 43.9563L60.2189 45.5001C60.4088 45.6048 60.5816 45.6905 60.7886 45.8066L61.0601 45.9474C61.1416 45.99 61.2322 46.0122 61.3241 46.0122C61.4691 46.0124 61.6088 45.9573 61.7146 45.8579C61.8205 45.7585 61.8845 45.6224 61.8937 45.4773C61.8937 45.365 61.9089 45.2679 61.9165 45.1784C61.9298 44.9995 61.9412 44.8434 61.9412 44.6816V42.7895C61.9488 41.3732 61.9469 39.9094 61.9602 38.4704V38.4685ZM24.3798 13.5017C24.4159 14.0309 24.9779 14.4002 25.1488 14.4992C29.5371 17.0728 34.1741 19.7815 39.3257 22.7777C44.0273 25.5149 48.7302 28.2503 53.4343 30.9838L61.2785 35.5522C62.0494 35.9996 62.8166 36.4488 63.6141 36.9152L65.3686 37.9374C65.4557 37.9884 65.5546 38.0153 65.6554 38.0154C65.8065 38.0154 65.9514 37.9552 66.0582 37.8482C66.165 37.7411 66.225 37.5958 66.225 37.4444C66.225 37.1855 66.225 36.938 66.225 36.6963C66.225 35.9977 66.225 35.3391 66.2022 34.6842C66.1795 34.2559 65.8016 33.9818 65.4769 33.7934C60.9025 31.117 56.0756 28.2998 50.286 24.9286L32.0569 14.3222C29.8333 13.0297 27.6078 11.7391 25.2077 10.3476C25.1211 10.2975 25.0229 10.2711 24.9229 10.2711C24.8229 10.2711 24.7246 10.2975 24.638 10.3476C24.5514 10.3977 24.4794 10.4699 24.4294 10.5568C24.3794 10.6437 24.3531 10.7422 24.3532 10.8425C24.3532 11.1147 24.3532 11.3755 24.3532 11.6268C24.3437 12.2816 24.3323 12.8888 24.3798 13.5017Z" fill="#065566"/>
<path d="M28.5426 78.8918C28.5103 79.8435 29.0382 80.2794 29.5034 80.5478C35.1886 83.8409 40.9631 87.2102 46.5476 90.4462L51.3252 93.2253C54.3545 94.9905 57.3832 96.7526 60.4112 98.5114C60.5442 98.5895 60.6733 98.6561 60.8385 98.7399L61.1195 98.8845C61.2062 98.93 61.3031 98.9523 61.4009 98.9493C61.4987 98.9463 61.594 98.9181 61.6778 98.8674C61.7618 98.8165 61.8314 98.7448 61.8796 98.6591C61.9278 98.5734 61.9532 98.4766 61.9531 98.3782C61.9531 98.0146 61.9531 97.6606 61.9531 97.3141C61.9531 96.3452 61.9531 95.4296 61.9379 94.5121C61.912 94.1378 61.7803 93.7786 61.5582 93.4766C57.6522 87.806 54.3672 83.6829 50.9074 80.11C48.6744 77.8048 46.6635 76.0384 44.1095 74.9077C42.8931 74.3721 41.6186 73.9805 40.3118 73.7408C38.8354 73.4759 37.3378 73.3485 35.8381 73.3601C35.2304 73.3601 34.6057 73.3772 33.924 73.4096C33.1132 73.4496 32.2967 73.5333 31.5086 73.6133C30.9162 73.6742 30.3029 73.737 29.7028 73.7808C29.1749 73.817 28.5483 74.0682 28.5635 75.0428C28.5692 76.3068 28.5863 77.6126 28.5426 78.8918Z" fill="#EEF0FA"/>
<path d="M24.3788 82.8663C24.4129 83.4088 24.9864 83.7667 25.0984 83.8314C33.2483 88.5903 41.5388 93.41 49.5558 98.0774L53.1959 100.198L64.7998 106.952C64.9062 107.013 65.0087 107.06 65.1397 107.119L65.4189 107.252C65.4964 107.29 65.5815 107.31 65.6676 107.31C65.7746 107.31 65.8795 107.28 65.9695 107.222C66.0514 107.171 66.1189 107.099 66.1657 107.015C66.2125 106.93 66.2372 106.835 66.2373 106.739C66.2373 106.474 66.2373 106.219 66.2468 105.977C66.2699 105.41 66.2566 104.841 66.2069 104.275C66.1518 103.773 65.7284 103.278 65.341 103.048C62.5554 101.403 59.7109 99.7507 56.9613 98.1517L54.8213 96.9068L48.1468 93.0217L34.9061 85.3143C31.8166 83.5154 28.8031 81.7661 25.9529 80.1138C25.7934 80.0206 25.6377 79.9463 25.4402 79.8531L25.1706 79.7236C25.093 79.686 25.008 79.6664 24.9218 79.6665C24.8149 79.6661 24.7101 79.6965 24.6199 79.7541C24.5381 79.8053 24.4706 79.8766 24.4238 79.9612C24.3769 80.0457 24.3523 80.1408 24.3522 80.2376C24.3522 80.4964 24.3522 80.7458 24.3522 80.9876C24.3465 81.6329 24.3332 82.2477 24.3788 82.8663Z" fill="white"/>
<path d="M67.6165 104.82C67.6428 105.167 67.6485 105.515 67.6336 105.863C67.6336 106.053 67.6336 106.27 67.6336 106.501C67.6336 106.652 67.6936 106.797 67.8005 106.904C67.9073 107.012 68.0522 107.072 68.2033 107.072C68.2989 107.072 68.3929 107.047 68.4767 107.001L68.8318 106.811C69.0369 106.704 69.1964 106.621 69.3559 106.516L72.2555 104.629C73.729 103.678 75.2538 102.676 76.7558 101.709C77.1849 101.433 77.747 100.948 77.6824 99.9963C77.6577 99.6155 77.6634 99.2196 77.6691 98.7609C77.6691 98.5382 77.6691 98.3002 77.6691 98.0432C77.669 97.9408 77.6415 97.8403 77.5894 97.7523C77.5373 97.6642 77.4625 97.5918 77.3729 97.5426C77.2893 97.496 77.1951 97.4718 77.0994 97.4722C76.9911 97.4723 76.8851 97.5033 76.7937 97.5616L75.8633 98.1536C75.343 98.4849 74.8531 98.7951 74.3727 99.1054C73.7688 99.5001 73.1656 99.896 72.5631 100.293C71.3003 101.125 69.9958 101.985 68.697 102.798C68.1311 103.162 67.5026 103.706 67.6165 104.82Z" fill="#065566"/>
<path d="M64.885 100.872C65.4319 101.595 66.0528 101.961 66.7326 101.961C67.2091 101.946 67.671 101.793 68.0618 101.519C69.9987 100.265 71.9621 98.9778 73.8629 97.7329L75.7427 96.5014C75.8494 96.4283 75.9521 96.3495 76.0503 96.2653L76.2402 96.1035C76.312 96.0457 76.3687 95.9714 76.4056 95.8868C76.4424 95.8022 76.4582 95.7099 76.4517 95.6178C76.4452 95.5258 76.4165 95.4366 76.3681 95.3581C76.3197 95.2796 76.253 95.214 76.1738 95.167C76.0181 95.0756 75.8738 94.9767 75.7332 94.8986C75.41 94.6906 75.076 94.5 74.7325 94.3276C74.5765 94.256 74.4066 94.2202 74.235 94.2229C74.0079 94.2188 73.7842 94.2788 73.5894 94.3961C71.2045 95.9455 68.7891 97.5331 66.4535 99.0692L65.0654 99.9829C64.9538 100.054 64.8679 100.16 64.8205 100.284C64.7766 100.378 64.7594 100.483 64.7708 100.587C64.7822 100.69 64.8217 100.789 64.885 100.872Z" fill="white"/>
<path d="M49.4515 61.3735C49.4475 61.4504 49.459 61.5273 49.4855 61.5996C49.5119 61.6719 49.5527 61.7381 49.6053 61.7942C50.0192 62.2377 50.4389 62.6812 50.8433 63.1114C51.7149 64.0327 52.5371 64.9026 53.3441 65.8182C57.4039 70.421 60.0053 74.2585 61.7827 78.2578C62.922 80.8276 63.4518 83.2965 63.3967 85.8072C63.3359 88.4931 63.3511 91.2228 63.3644 93.863C63.3644 94.9442 63.3758 96.0596 63.3758 97.158C63.3758 97.3674 63.3872 97.571 63.4024 97.828C63.4024 97.9479 63.4176 98.0812 63.4252 98.2335C63.4299 98.3336 63.4609 98.4308 63.515 98.5151C63.5691 98.5994 63.6444 98.668 63.7333 98.7139C63.8222 98.7599 63.9217 98.7815 64.0216 98.7767C64.1215 98.7719 64.2184 98.7408 64.3025 98.6865L65.3051 98.045C65.7817 97.7424 66.2317 97.4549 66.6798 97.1656C67.3799 96.7113 68.0793 96.2551 68.7781 95.7969C70.0332 94.9765 71.3302 94.1276 72.6138 93.3033C72.8828 93.1449 73.1034 92.9157 73.2516 92.6405C73.3999 92.3654 73.4702 92.0548 73.455 91.7424C73.455 89.6657 73.455 87.5547 73.455 85.5084C73.455 82.8434 73.455 80.1061 73.4417 77.4031C73.4284 75.0047 72.553 72.8346 71.7897 71.2033C70.2193 67.855 68.0451 64.579 64.9538 60.8957C64.8645 60.7891 64.7753 60.6806 64.6879 60.5721C64.3866 60.1848 64.0572 59.8202 63.7024 59.4814C63.3974 59.2131 63.0086 59.0596 62.603 59.0474C62.4955 59.0473 62.3886 59.0633 62.2859 59.095C58.9515 60.1457 55.3227 60.6559 51.1927 60.6559H50.6895C50.5112 60.6574 50.3331 60.6682 50.1559 60.6882C49.9932 60.7092 49.8431 60.7875 49.7325 60.909L49.6622 60.9737C49.6018 61.0225 49.5519 61.0831 49.5157 61.1518C49.4795 61.2205 49.4576 61.296 49.4515 61.3735Z" fill="#065566"/>
<path d="M28.6072 64.2482C28.5711 65.9728 28.5787 67.6745 28.5882 69.4562C28.5882 70.2405 28.5882 71.0343 28.5882 71.8376C28.5882 71.989 28.6483 72.1343 28.7551 72.2414C28.8619 72.3484 29.0068 72.4086 29.1579 72.4086H29.2111L30.1092 72.3191C30.7776 72.2525 31.4688 72.1821 32.1429 72.1383C33.5898 72.0469 34.7557 72.0032 35.8134 72.0032C38.7604 72.0032 41.1492 72.3458 43.3329 73.0787C45.3039 73.7411 47.6699 74.8965 51.6044 78.8273C55.0926 82.3127 58.0985 86.2511 60.3391 89.2815C60.5435 89.5812 60.8305 89.8147 61.1651 89.9535C61.2354 89.9835 61.3109 89.999 61.3873 89.9991C61.5384 89.9991 61.6833 89.939 61.7901 89.8319C61.8969 89.7248 61.957 89.5795 61.957 89.4281C61.957 89.3044 61.957 89.1787 61.957 89.0474C61.957 88.7961 61.957 88.5372 61.957 88.286C61.957 87.8082 61.957 87.3152 61.957 86.8393C61.986 85.7207 61.9498 84.6015 61.8487 83.4872C61.5221 80.4986 60.1606 77.8603 58.8694 75.6827C56.1142 71.0171 52.4778 66.62 47.0756 61.4253L46.8857 61.2349C46.6844 61.0445 46.4755 60.8333 46.242 60.6429C46.0426 60.4811 45.8622 60.2489 46.0255 59.7501C46.0597 59.6454 46.1508 59.3694 46.7053 59.3542L47.1477 59.3409C48.889 59.2876 50.6891 59.2305 52.4645 59.1962C54.2628 59.162 56.3021 59.1239 58.2561 58.3549C60.7151 57.3898 61.9626 55.5719 61.9664 52.9488C61.9664 52.5402 61.9664 52.1303 61.9664 51.7191C61.9664 50.8797 61.9532 50.006 61.9816 49.1627C62.0108 48.8467 61.9434 48.5292 61.7885 48.2525C61.6335 47.9757 61.3982 47.7528 61.1139 47.6132C57.4816 46.9442 50.1084 49.5215 41.6049 44.5618C37.2916 42.1889 29.0769 30.9299 28.4736 28.7412C28.3796 28.7411 28.287 28.7643 28.204 28.8088C28.1211 28.8533 28.0505 28.9177 27.9984 28.9962C27.9463 29.0747 27.9145 29.1649 27.9057 29.2588C27.6044 32.4325 28.8672 36.2035 30.1776 39.1082C32.2663 43.8671 35.3691 48.5422 39.9244 53.7997C40.684 54.6753 41.4986 55.5224 42.2866 56.3409C42.6474 56.7216 43.0215 57.1023 43.3861 57.483C43.7127 57.8276 43.7032 58.0674 43.5912 58.3225C43.5476 58.4553 43.4589 58.5687 43.3406 58.6427C43.2223 58.7168 43.0818 58.747 42.9436 58.7279H42.8848C42.2525 58.7013 41.6087 58.6651 40.9859 58.6271C39.8048 58.5585 38.5857 58.4862 37.3781 58.4862C37.1065 58.4862 36.8407 58.4862 36.5844 58.4976C35.1474 58.5456 33.7249 58.8021 32.3613 59.259C29.9991 60.0604 28.6623 61.8269 28.6072 64.2482Z" fill="white"/>
<path d="M28.5485 26.2289C28.5234 26.5211 28.5857 26.8142 28.7274 27.0708C37.3294 40.9295 42.7804 48.6569 61.3248 46.0123C61.4698 46.0126 61.6095 45.9574 61.7154 45.858C61.8212 45.7586 61.8853 45.6225 61.8945 45.4774C61.8945 45.3651 61.9096 45.268 61.9172 45.1785C61.9305 44.9996 61.9419 44.8435 61.9419 44.6817V42.7896C61.9419 41.3734 61.9419 39.9096 61.9419 38.4705C61.9612 38.1918 61.8977 37.9137 61.7595 37.6711C61.6213 37.4286 61.4145 37.2325 61.1653 37.1076C53.5698 32.6971 45.8358 28.2009 38.3637 23.8533L33.1685 20.8305C32.4317 20.4022 31.693 19.9777 30.9354 19.5418L29.5245 18.729C29.4379 18.679 29.3397 18.6527 29.2397 18.6528C29.1544 18.6532 29.0702 18.672 28.9929 18.708C28.9141 18.751 28.8465 18.812 28.7957 18.8861C28.7449 18.9602 28.7122 19.0453 28.7004 19.1344C28.6852 19.222 28.6719 19.2981 28.6587 19.3667C28.6276 19.5113 28.6092 19.6585 28.6036 19.8064C28.6036 20.5202 28.5941 21.2321 28.5884 21.9459C28.577 23.3526 28.5675 24.8031 28.5485 26.2289Z" fill="#EEF0FA"/>
<path d="M63.2493 56.5673C63.42 56.7155 63.6408 56.7924 63.8664 56.7824C64.052 56.7831 64.2357 56.7449 64.4057 56.6701C68.7408 54.639 71.3897 52.0502 72.7436 48.523C73.1498 47.4164 73.378 46.2521 73.4196 45.0738C73.4899 43.4291 73.4747 41.7597 73.4614 40.1455C73.4614 39.5231 73.45 38.8797 73.45 38.242C73.45 38.0783 73.45 37.9222 73.4291 37.7242C73.4291 37.6081 73.4139 37.4768 73.4082 37.3169C73.4037 37.2166 73.3729 37.1192 73.3189 37.0347C73.2649 36.9501 73.1896 36.8814 73.1006 36.8353C73.0193 36.7942 72.9296 36.7727 72.8385 36.7725C72.7294 36.7727 72.6226 36.8045 72.5309 36.8638C72.0467 37.1741 71.5682 37.4749 71.1068 37.7642C70.0529 38.4247 69.0579 39.0472 68.099 39.7496C67.6034 40.1113 67.2008 40.2807 66.8324 40.2807C66.4568 40.261 66.0989 40.1148 65.8166 39.8657C65.4988 39.6353 65.1592 39.437 64.8026 39.2737C64.6374 39.1918 64.4665 39.1081 64.2899 39.011C64.2064 38.9659 64.1131 38.9423 64.0183 38.9425C63.9227 38.9421 63.8285 38.9663 63.7449 39.0129C63.6613 39.0589 63.5905 39.1251 63.5391 39.2056C63.4877 39.2861 63.4573 39.3782 63.4506 39.4736C63.4411 39.6087 63.4297 39.7325 63.4202 39.8543C63.3993 40.0846 63.3803 40.3016 63.3803 40.5224C63.3803 41.7419 63.3803 42.9621 63.3803 44.1829C63.3803 46.7698 63.3803 49.4424 63.3556 52.0731C63.3314 52.8335 63.2617 53.5919 63.1467 54.344C63.0936 54.7418 63.0404 55.153 62.9986 55.566C62.9777 55.8154 62.9341 56.2818 63.2493 56.5673Z" fill="#065566"/>
<path d="M67.6272 36.3956C67.6272 36.586 67.6272 36.7763 67.6272 36.9667C67.6274 37.0727 67.6569 37.1765 67.7126 37.2666C67.7683 37.3567 67.8478 37.4295 67.9424 37.4768L68.0165 37.5149L68.1779 37.5967C68.2562 37.6342 68.3418 37.6537 68.4285 37.6539C68.5383 37.6539 68.6458 37.6222 68.7381 37.5625L69.8888 36.8163C70.4167 36.4737 70.9464 36.1329 71.4743 35.7884L72.9421 34.8366C74.2011 34.0143 75.5018 33.1634 76.7911 32.3468C77.1994 32.0898 77.7406 31.6387 77.6741 30.706C77.6513 30.3367 77.657 29.9579 77.6627 29.5201C77.6627 29.305 77.6627 29.0803 77.6627 28.8367C77.6627 28.7406 77.6385 28.6462 77.5923 28.562C77.5462 28.4778 77.4796 28.4066 77.3988 28.3551C77.3074 28.2967 77.2014 28.2657 77.0931 28.2656C77.0098 28.2655 76.9274 28.2837 76.8519 28.3189C76.7361 28.3741 76.6335 28.4179 76.5443 28.456C76.3695 28.5247 76.2011 28.6088 76.0411 28.7072L75.5132 29.0499C73.1586 30.5727 70.7224 32.1622 68.345 33.744C68.1553 33.8797 67.9952 34.0529 67.8747 34.2529C67.7542 34.4529 67.6758 34.6755 67.6443 34.907C67.6107 35.4025 67.605 35.8995 67.6272 36.3956Z" fill="#065566"/>
<path d="M24.3813 13.5017C24.4174 14.0308 24.9794 14.4001 25.1503 14.4991C29.5386 17.0727 34.1756 19.7814 39.3273 22.7776C44.0288 25.5148 48.7317 28.2502 53.4358 30.9837L61.28 35.5522C62.051 35.9995 62.8181 36.4487 63.6156 36.9151L65.3702 37.9373C65.4572 37.9883 65.5561 38.0152 65.6569 38.0153C65.808 38.0153 65.9529 37.9552 66.0597 37.8481C66.1665 37.741 66.2266 37.5957 66.2266 37.4443C66.2266 37.1854 66.2266 36.9379 66.2266 36.6962C66.2266 35.9976 66.2266 35.339 66.2038 34.6841C66.181 34.2558 65.8031 33.9817 65.4784 33.7933C60.904 31.1169 56.0771 28.2997 50.2875 24.9285L32.0584 14.3221C29.8348 13.0296 27.6094 11.739 25.2092 10.3475C25.1226 10.2974 25.0244 10.271 24.9244 10.271C24.8244 10.271 24.7261 10.2974 24.6395 10.3475C24.5529 10.3977 24.481 10.4698 24.431 10.5567C24.381 10.6436 24.3547 10.7421 24.3547 10.8424C24.3547 11.1146 24.3547 11.3754 24.3547 11.6267C24.3452 12.2815 24.3338 12.8887 24.3813 13.5017Z" fill="white"/>
<path d="M25.5457 8.53367C25.5461 8.63245 25.572 8.72945 25.6209 8.81519C25.6698 8.90094 25.7401 8.9725 25.8248 9.02288L26.949 9.69482C27.5718 10.0755 28.1586 10.422 28.7472 10.7646L49.7581 22.9891L58.6619 28.1705L59.9455 28.9148C61.9659 30.0912 64.0547 31.3075 66.1282 32.482C66.3537 32.5976 66.6041 32.6558 66.8574 32.6514C67.1194 32.6576 67.3782 32.5918 67.6055 32.4611C69.907 30.9896 72.2293 29.4687 74.4756 27.9973L75.9947 27.0017H76.0061C76.1021 26.9323 76.1839 26.845 76.2473 26.7447C76.2662 26.72 76.2871 26.6876 76.3156 26.6515C76.3658 26.5874 76.4018 26.5134 76.4212 26.4342C76.4405 26.3551 76.4427 26.2728 76.4276 26.1927C76.4116 26.1135 76.3789 26.0386 76.3317 25.9729C76.2846 25.9073 76.2241 25.8524 76.1542 25.812L74.7718 25.0011C73.8224 24.4434 72.8369 23.859 71.8723 23.3051L49.5872 10.3344L47.7415 9.26272C43.8773 7.01465 39.8821 4.69425 35.9458 2.42524C35.6996 2.29238 35.4241 2.22366 35.1445 2.22537C34.9229 2.21728 34.7038 2.27418 34.514 2.38907C32.3133 3.79959 30.0897 5.25769 27.9421 6.6663L26.1894 7.80842L26.0451 7.89598L25.8116 8.03494C25.7279 8.08778 25.6593 8.16156 25.6127 8.249C25.5661 8.33645 25.543 8.43456 25.5457 8.53367Z" fill="white"/>
</g>
<path d="M20.7428 124.201C20.81 124.226 20.8681 124.27 20.9091 124.329C20.9502 124.388 20.9722 124.458 20.9722 124.529C20.9722 124.601 20.9502 124.671 20.9091 124.73C20.8681 124.788 20.81 124.833 20.7428 124.857C20.5669 124.951 20.3708 125 20.1716 125C19.9725 125 19.7763 124.951 19.6005 124.857C19.5332 124.833 19.4752 124.788 19.4341 124.73C19.3931 124.671 19.3711 124.601 19.3711 124.529C19.3711 124.458 19.3931 124.388 19.4341 124.329C19.4752 124.27 19.5332 124.226 19.6005 124.201C19.7779 124.113 19.9734 124.066 20.1716 124.066C20.3699 124.066 20.5654 124.113 20.7428 124.201Z" fill="#065566"/>
<path d="M23.1554 123.28C23.5994 123.28 23.9593 123.071 23.9593 122.814C23.9593 122.557 23.5994 122.348 23.1554 122.348C22.7115 122.348 22.3516 122.557 22.3516 122.814C22.3516 123.071 22.7115 123.28 23.1554 123.28Z" fill="#065566"/>
<path d="M26.1281 121.554C26.572 121.554 26.9319 121.346 26.9319 121.088C26.9319 120.831 26.572 120.623 26.1281 120.623C25.6841 120.623 25.3242 120.831 25.3242 121.088C25.3242 121.346 25.6841 121.554 26.1281 121.554Z" fill="#065566"/>
<path d="M29.1124 119.829C29.5564 119.829 29.9163 119.62 29.9163 119.363C29.9163 119.106 29.5564 118.897 29.1124 118.897C28.6685 118.897 28.3086 119.106 28.3086 119.363C28.3086 119.62 28.6685 119.829 29.1124 119.829Z" fill="#065566"/>
<path d="M32.6647 117.319C32.7319 117.344 32.79 117.389 32.831 117.447C32.872 117.506 32.894 117.576 32.894 117.648C32.894 117.719 32.872 117.789 32.831 117.848C32.79 117.907 32.7319 117.951 32.6647 117.976C32.4873 118.064 32.2917 118.11 32.0935 118.11C31.8953 118.11 31.6997 118.064 31.5223 117.976C31.4551 117.951 31.397 117.907 31.356 117.848C31.315 117.789 31.293 117.719 31.293 117.648C31.293 117.576 31.315 117.506 31.356 117.447C31.397 117.389 31.4551 117.344 31.5223 117.319C31.6982 117.226 31.8943 117.177 32.0935 117.177C32.2927 117.177 32.4888 117.226 32.6647 117.319Z" fill="#065566"/>
<path d="M35.6385 115.583C35.7057 115.607 35.7638 115.652 35.8048 115.711C35.8458 115.769 35.8678 115.839 35.8678 115.911C35.8678 115.983 35.8458 116.053 35.8048 116.111C35.7638 116.17 35.7057 116.215 35.6385 116.239C35.4629 116.328 35.2691 116.374 35.0726 116.374C34.8761 116.374 34.6823 116.328 34.5067 116.239C34.4395 116.215 34.3814 116.17 34.3404 116.111C34.2993 116.053 34.2773 115.983 34.2773 115.911C34.2773 115.839 34.2993 115.769 34.3404 115.711C34.3814 115.652 34.4395 115.607 34.5067 115.583C34.6823 115.494 34.8761 115.448 35.0726 115.448C35.2691 115.448 35.4629 115.494 35.6385 115.583Z" fill="#065566"/>
<path d="M38.0499 114.662C38.4939 114.662 38.8538 114.453 38.8538 114.196C38.8538 113.939 38.4939 113.73 38.0499 113.73C37.606 113.73 37.2461 113.939 37.2461 114.196C37.2461 114.453 37.606 114.662 38.0499 114.662Z" fill="#065566"/>
<path d="M14.7779 124.201C14.8452 124.226 14.9033 124.27 14.9443 124.329C14.9853 124.388 15.0073 124.458 15.0073 124.529C15.0073 124.601 14.9853 124.671 14.9443 124.73C14.9033 124.788 14.8452 124.833 14.7779 124.857C14.6021 124.951 14.406 125 14.2068 125C14.0076 125 13.8115 124.951 13.6356 124.857C13.5684 124.833 13.5103 124.788 13.4693 124.73C13.4283 124.671 13.4062 124.601 13.4062 124.529C13.4062 124.458 13.4283 124.388 13.4693 124.329C13.5103 124.27 13.5684 124.226 13.6356 124.201C13.813 124.113 14.0086 124.066 14.2068 124.066C14.405 124.066 14.6005 124.113 14.7779 124.201Z" fill="#065566"/>
<path d="M17.7631 122.475C18.0804 122.666 18.0804 122.962 17.7631 123.142C17.5857 123.231 17.3902 123.277 17.192 123.277C16.9937 123.277 16.7982 123.231 16.6208 123.142C16.3035 122.962 16.3035 122.666 16.6208 122.475C16.7982 122.387 16.9937 122.341 17.192 122.341C17.3902 122.341 17.5857 122.387 17.7631 122.475Z" fill="#065566"/>
<path d="M20.7428 120.76C20.81 120.785 20.8681 120.829 20.9091 120.888C20.9502 120.947 20.9722 121.017 20.9722 121.088C20.9722 121.16 20.9502 121.23 20.9091 121.289C20.8681 121.347 20.81 121.392 20.7428 121.417C20.5654 121.505 20.3699 121.551 20.1716 121.551C19.9734 121.551 19.7779 121.505 19.6005 121.417C19.5332 121.392 19.4752 121.347 19.4341 121.289C19.3931 121.23 19.3711 121.16 19.3711 121.088C19.3711 121.017 19.3931 120.947 19.4341 120.888C19.4752 120.829 19.5332 120.785 19.6005 120.76C19.7779 120.672 19.9734 120.625 20.1716 120.625C20.3699 120.625 20.5654 120.672 20.7428 120.76Z" fill="#065566"/>
<path d="M23.7166 119.034C23.7838 119.059 23.8419 119.104 23.8829 119.162C23.924 119.221 23.946 119.291 23.946 119.363C23.946 119.434 23.924 119.504 23.8829 119.563C23.8419 119.622 23.7838 119.666 23.7166 119.691C23.5426 119.784 23.3482 119.833 23.1507 119.833C22.9532 119.833 22.7588 119.784 22.5848 119.691C22.5176 119.666 22.4595 119.622 22.4185 119.563C22.3775 119.504 22.3555 119.434 22.3555 119.363C22.3555 119.291 22.3775 119.221 22.4185 119.162C22.4595 119.104 22.5176 119.059 22.5848 119.034C22.7604 118.946 22.9542 118.9 23.1507 118.9C23.3472 118.9 23.541 118.946 23.7166 119.034Z" fill="#065566"/>
<path d="M26.6998 117.319C26.7671 117.344 26.8251 117.389 26.8662 117.447C26.9072 117.506 26.9292 117.576 26.9292 117.648C26.9292 117.719 26.9072 117.789 26.8662 117.848C26.8251 117.907 26.7671 117.951 26.6998 117.976C26.5224 118.064 26.3269 118.11 26.1287 118.11C25.9304 118.11 25.7349 118.064 25.5575 117.976C25.4903 117.951 25.4322 117.907 25.3912 117.848C25.3501 117.789 25.3281 117.719 25.3281 117.648C25.3281 117.576 25.3501 117.506 25.3912 117.447C25.4322 117.389 25.4903 117.344 25.5575 117.319C25.7334 117.226 25.9295 117.177 26.1287 117.177C26.3278 117.177 26.524 117.226 26.6998 117.319Z" fill="#065566"/>
<path d="M29.6803 115.583C29.7475 115.607 29.8056 115.652 29.8466 115.711C29.8877 115.77 29.9097 115.839 29.9097 115.911C29.9097 115.983 29.8877 116.053 29.8466 116.111C29.8056 116.17 29.7475 116.215 29.6803 116.239C29.5029 116.328 29.3074 116.374 29.1091 116.374C28.9109 116.374 28.7154 116.328 28.538 116.239C28.4707 116.215 28.4127 116.17 28.3716 116.111C28.3306 116.053 28.3086 115.983 28.3086 115.911C28.3086 115.839 28.3306 115.77 28.3716 115.711C28.4127 115.652 28.4707 115.607 28.538 115.583C28.7154 115.494 28.9109 115.448 29.1091 115.448C29.3074 115.448 29.5029 115.494 29.6803 115.583Z" fill="#065566"/>
<path d="M32.6647 113.868C32.7319 113.892 32.79 113.937 32.831 113.995C32.872 114.054 32.894 114.124 32.894 114.196C32.894 114.267 32.872 114.337 32.831 114.396C32.79 114.455 32.7319 114.499 32.6647 114.524C32.4888 114.618 32.2927 114.667 32.0935 114.667C31.8943 114.667 31.6982 114.618 31.5223 114.524C31.4551 114.499 31.397 114.455 31.356 114.396C31.315 114.337 31.293 114.267 31.293 114.196C31.293 114.124 31.315 114.054 31.356 113.995C31.397 113.937 31.4551 113.892 31.5223 113.868C31.6997 113.779 31.8953 113.733 32.0935 113.733C32.2917 113.733 32.4873 113.779 32.6647 113.868Z" fill="#065566"/>
<path d="M35.6385 112.152C35.7057 112.177 35.7638 112.222 35.8048 112.28C35.8458 112.339 35.8678 112.409 35.8678 112.481C35.8678 112.552 35.8458 112.622 35.8048 112.681C35.7638 112.74 35.7057 112.784 35.6385 112.809C35.4629 112.897 35.2691 112.943 35.0726 112.943C34.8761 112.943 34.6823 112.897 34.5067 112.809C34.4395 112.784 34.3814 112.74 34.3404 112.681C34.2993 112.622 34.2773 112.552 34.2773 112.481C34.2773 112.409 34.2993 112.339 34.3404 112.28C34.3814 112.222 34.4395 112.177 34.5067 112.152C34.6807 112.059 34.8751 112.01 35.0726 112.01C35.2701 112.01 35.4645 112.059 35.6385 112.152Z" fill="#065566"/>
<path d="M38.0499 111.221C38.4939 111.221 38.8538 111.012 38.8538 110.755C38.8538 110.498 38.4939 110.289 38.0499 110.289C37.606 110.289 37.2461 110.498 37.2461 110.755C37.2461 111.012 37.606 111.221 38.0499 111.221Z" fill="#065566"/>
<path d="M11.8061 122.475C11.8724 122.502 11.9291 122.549 11.9691 122.608C12.009 122.667 12.0304 122.737 12.0304 122.809C12.0304 122.881 12.009 122.951 11.9691 123.01C11.9291 123.069 11.8724 123.116 11.8061 123.142C11.6287 123.231 11.4332 123.277 11.2349 123.277C11.0367 123.277 10.8412 123.231 10.6638 123.142C10.3465 122.962 10.3465 122.666 10.6638 122.475C10.8412 122.387 11.0367 122.341 11.2349 122.341C11.4332 122.341 11.6287 122.387 11.8061 122.475Z" fill="#065566"/>
<path d="M14.7779 120.76C14.8452 120.785 14.9033 120.829 14.9443 120.888C14.9853 120.947 15.0073 121.017 15.0073 121.088C15.0073 121.16 14.9853 121.23 14.9443 121.289C14.9033 121.347 14.8452 121.392 14.7779 121.417C14.6005 121.505 14.405 121.551 14.2068 121.551C14.0086 121.551 13.813 121.505 13.6356 121.417C13.5684 121.392 13.5103 121.347 13.4693 121.289C13.4283 121.23 13.4062 121.16 13.4062 121.088C13.4062 121.017 13.4283 120.947 13.4693 120.888C13.5103 120.829 13.5684 120.785 13.6356 120.76C13.813 120.672 14.0086 120.625 14.2068 120.625C14.405 120.625 14.6005 120.672 14.7779 120.76Z" fill="#065566"/>
<path d="M17.7623 119.035C17.8296 119.059 17.8876 119.104 17.9287 119.162C17.9697 119.221 17.9917 119.291 17.9917 119.363C17.9917 119.434 17.9697 119.504 17.9287 119.563C17.8876 119.622 17.8296 119.666 17.7623 119.691C17.5865 119.785 17.3903 119.834 17.1912 119.834C16.992 119.834 16.7959 119.785 16.62 119.691C16.5528 119.666 16.4947 119.622 16.4537 119.563C16.4126 119.504 16.3906 119.434 16.3906 119.363C16.3906 119.291 16.4126 119.221 16.4537 119.162C16.4947 119.104 16.5528 119.059 16.62 119.035C16.7974 118.946 16.9929 118.9 17.1912 118.9C17.3894 118.9 17.5849 118.946 17.7623 119.035Z" fill="#065566"/>
<path d="M20.7428 117.319C20.81 117.344 20.8681 117.389 20.9091 117.447C20.9502 117.506 20.9722 117.576 20.9722 117.648C20.9722 117.719 20.9502 117.789 20.9091 117.848C20.8681 117.907 20.81 117.951 20.7428 117.976C20.5654 118.064 20.3699 118.11 20.1716 118.11C19.9734 118.11 19.7779 118.064 19.6005 117.976C19.5332 117.951 19.4752 117.907 19.4341 117.848C19.3931 117.789 19.3711 117.719 19.3711 117.648C19.3711 117.576 19.3931 117.506 19.4341 117.447C19.4752 117.389 19.5332 117.344 19.6005 117.319C19.7763 117.226 19.9725 117.177 20.1716 117.177C20.3708 117.177 20.5669 117.226 20.7428 117.319Z" fill="#065566"/>
<path d="M23.7166 115.583C23.7838 115.607 23.8419 115.652 23.8829 115.711C23.924 115.769 23.946 115.839 23.946 115.911C23.946 115.983 23.924 116.053 23.8829 116.111C23.8419 116.17 23.7838 116.215 23.7166 116.239C23.541 116.328 23.3472 116.374 23.1507 116.374C22.9542 116.374 22.7604 116.328 22.5848 116.239C22.5176 116.215 22.4595 116.17 22.4185 116.111C22.3775 116.053 22.3555 115.983 22.3555 115.911C22.3555 115.839 22.3775 115.769 22.4185 115.711C22.4595 115.652 22.5176 115.607 22.5848 115.583C22.7604 115.494 22.9542 115.448 23.1507 115.448C23.3472 115.448 23.541 115.494 23.7166 115.583Z" fill="#065566"/>
<path d="M26.1281 114.662C26.572 114.662 26.9319 114.453 26.9319 114.196C26.9319 113.939 26.572 113.73 26.1281 113.73C25.6841 113.73 25.3242 113.939 25.3242 114.196C25.3242 114.453 25.6841 114.662 26.1281 114.662Z" fill="#065566"/>
<path d="M29.6803 112.152C29.7475 112.177 29.8056 112.222 29.8466 112.28C29.8877 112.339 29.9097 112.409 29.9097 112.481C29.9097 112.552 29.8877 112.622 29.8466 112.681C29.8056 112.74 29.7475 112.784 29.6803 112.809C29.5029 112.897 29.3074 112.943 29.1091 112.943C28.9109 112.943 28.7154 112.897 28.538 112.809C28.4707 112.784 28.4127 112.74 28.3716 112.681C28.3306 112.622 28.3086 112.552 28.3086 112.481C28.3086 112.409 28.3306 112.339 28.3716 112.28C28.4127 112.222 28.4707 112.177 28.538 112.152C28.7138 112.059 28.91 112.01 29.1091 112.01C29.3083 112.01 29.5044 112.059 29.6803 112.152Z" fill="#065566"/>
<path d="M32.6647 110.427C32.7319 110.451 32.79 110.496 32.831 110.555C32.872 110.613 32.894 110.683 32.894 110.755C32.894 110.827 32.872 110.896 32.831 110.955C32.79 111.014 32.7319 111.059 32.6647 111.083C32.4873 111.172 32.2917 111.218 32.0935 111.218C31.8953 111.218 31.6997 111.172 31.5223 111.083C31.4551 111.059 31.397 111.014 31.356 110.955C31.315 110.896 31.293 110.827 31.293 110.755C31.293 110.683 31.315 110.613 31.356 110.555C31.397 110.496 31.4551 110.451 31.5223 110.427C31.6997 110.338 31.8953 110.292 32.0935 110.292C32.2917 110.292 32.4873 110.338 32.6647 110.427Z" fill="#065566"/>
<path d="M35.6385 108.701C35.7057 108.725 35.7638 108.77 35.8048 108.829C35.8458 108.888 35.8678 108.957 35.8678 109.029C35.8678 109.101 35.8458 109.171 35.8048 109.229C35.7638 109.288 35.7057 109.333 35.6385 109.357C35.4645 109.451 35.2701 109.5 35.0726 109.5C34.8751 109.5 34.6807 109.451 34.5067 109.357C34.4395 109.333 34.3814 109.288 34.3404 109.229C34.2993 109.171 34.2773 109.101 34.2773 109.029C34.2773 108.957 34.2993 108.888 34.3404 108.829C34.3814 108.77 34.4395 108.725 34.5067 108.701C34.6823 108.612 34.8761 108.566 35.0726 108.566C35.2691 108.566 35.4629 108.612 35.6385 108.701Z" fill="#065566"/>
<path d="M8.82483 120.76C8.89207 120.785 8.95014 120.829 8.99117 120.888C9.0322 120.947 9.0542 121.017 9.0542 121.088C9.0542 121.16 9.0322 121.23 8.99117 121.289C8.95014 121.347 8.89207 121.392 8.82483 121.417C8.64743 121.505 8.4519 121.551 8.25366 121.551C8.05543 121.551 7.85991 121.505 7.68251 121.417C7.61526 121.392 7.55719 121.347 7.51616 121.289C7.47513 121.23 7.45312 121.16 7.45312 121.088C7.45312 121.017 7.47513 120.947 7.51616 120.888C7.55719 120.829 7.61526 120.785 7.68251 120.76C7.85991 120.672 8.05543 120.625 8.25366 120.625C8.4519 120.625 8.64743 120.672 8.82483 120.76Z" fill="#065566"/>
<path d="M11.8053 119.035C11.8725 119.059 11.9306 119.104 11.9716 119.162C12.0127 119.221 12.0347 119.291 12.0347 119.363C12.0347 119.434 12.0127 119.504 11.9716 119.563C11.9306 119.622 11.8725 119.666 11.8053 119.691C11.6294 119.785 11.4333 119.834 11.2341 119.834C11.035 119.834 10.8388 119.785 10.663 119.691C10.5957 119.666 10.5377 119.622 10.4966 119.563C10.4556 119.504 10.4336 119.434 10.4336 119.363C10.4336 119.291 10.4556 119.221 10.4966 119.162C10.5377 119.104 10.5957 119.059 10.663 119.035C10.8404 118.946 11.0359 118.9 11.2341 118.9C11.4324 118.9 11.6279 118.946 11.8053 119.035Z" fill="#065566"/>
<path d="M14.7779 117.319C14.8452 117.344 14.9033 117.389 14.9443 117.447C14.9853 117.506 15.0073 117.576 15.0073 117.648C15.0073 117.719 14.9853 117.789 14.9443 117.848C14.9033 117.907 14.8452 117.951 14.7779 117.976C14.6005 118.064 14.405 118.11 14.2068 118.11C14.0086 118.11 13.813 118.064 13.6356 117.976C13.5684 117.951 13.5103 117.907 13.4693 117.848C13.4283 117.789 13.4062 117.719 13.4062 117.648C13.4062 117.576 13.4283 117.506 13.4693 117.447C13.5103 117.389 13.5684 117.344 13.6356 117.319C13.8115 117.226 14.0076 117.177 14.2068 117.177C14.406 117.177 14.6021 117.226 14.7779 117.319Z" fill="#065566"/>
<path d="M17.7623 115.583C17.8296 115.607 17.8876 115.652 17.9287 115.711C17.9697 115.77 17.9917 115.839 17.9917 115.911C17.9917 115.983 17.9697 116.053 17.9287 116.111C17.8876 116.17 17.8296 116.215 17.7623 116.239C17.5849 116.328 17.3894 116.374 17.1912 116.374C16.9929 116.374 16.7974 116.328 16.62 116.239C16.5528 116.215 16.4947 116.17 16.4537 116.111C16.4126 116.053 16.3906 115.983 16.3906 115.911C16.3906 115.839 16.4126 115.77 16.4537 115.711C16.4947 115.652 16.5528 115.607 16.62 115.583C16.7974 115.494 16.9929 115.448 17.1912 115.448C17.3894 115.448 17.5849 115.494 17.7623 115.583Z" fill="#065566"/>
<path d="M20.7456 113.868C20.8128 113.892 20.8709 113.937 20.9119 113.996C20.9529 114.054 20.9749 114.124 20.9749 114.196C20.9749 114.268 20.9529 114.338 20.9119 114.396C20.8709 114.455 20.8128 114.5 20.7456 114.524C20.5684 114.62 20.3703 114.67 20.1691 114.67C19.9679 114.67 19.7698 114.62 19.5927 114.524C19.5254 114.5 19.4674 114.455 19.4263 114.396C19.3853 114.338 19.3633 114.268 19.3633 114.196C19.3633 114.124 19.3853 114.054 19.4263 113.996C19.4674 113.937 19.5254 113.892 19.5927 113.868C19.7714 113.777 19.9689 113.73 20.1691 113.73C20.3693 113.73 20.5668 113.777 20.7456 113.868Z" fill="#065566"/>
<path d="M23.1554 112.946C23.5994 112.946 23.9593 112.738 23.9593 112.48C23.9593 112.223 23.5994 112.015 23.1554 112.015C22.7115 112.015 22.3516 112.223 22.3516 112.48C22.3516 112.738 22.7115 112.946 23.1554 112.946Z" fill="#065566"/>
<path d="M26.1281 111.221C26.572 111.221 26.9319 111.012 26.9319 110.755C26.9319 110.498 26.572 110.289 26.1281 110.289C25.6841 110.289 25.3242 110.498 25.3242 110.755C25.3242 111.012 25.6841 111.221 26.1281 111.221Z" fill="#065566"/>
<path d="M29.6803 108.701C29.7475 108.726 29.8056 108.77 29.8466 108.829C29.8877 108.888 29.9097 108.958 29.9097 109.029C29.9097 109.101 29.8877 109.171 29.8466 109.23C29.8056 109.288 29.7475 109.333 29.6803 109.357C29.5044 109.451 29.3083 109.5 29.1091 109.5C28.91 109.5 28.7138 109.451 28.538 109.357C28.4707 109.333 28.4127 109.288 28.3716 109.23C28.3306 109.171 28.3086 109.101 28.3086 109.029C28.3086 108.958 28.3306 108.888 28.3716 108.829C28.4127 108.77 28.4707 108.726 28.538 108.701C28.7154 108.613 28.9109 108.566 29.1091 108.566C29.3074 108.566 29.5029 108.613 29.6803 108.701Z" fill="#065566"/>
<path d="M32.0929 107.78C32.5369 107.78 32.8968 107.571 32.8968 107.314C32.8968 107.057 32.5369 106.848 32.0929 106.848C31.649 106.848 31.2891 107.057 31.2891 107.314C31.2891 107.571 31.649 107.78 32.0929 107.78Z" fill="#065566"/>
<path d="M5.84124 119.013C5.90753 119.04 5.96427 119.086 6.00422 119.146C6.04417 119.205 6.06551 119.275 6.06551 119.347C6.06551 119.418 6.04417 119.488 6.00422 119.548C5.96427 119.607 5.90753 119.653 5.84124 119.68C5.66384 119.769 5.46832 119.815 5.27008 119.815C5.07185 119.815 4.87632 119.769 4.69892 119.68C4.38161 119.5 4.38161 119.204 4.69892 119.013C4.87632 118.925 5.07185 118.878 5.27008 118.878C5.46832 118.878 5.66384 118.925 5.84124 119.013Z" fill="#065566"/>
<path d="M8.79081 117.298C8.85805 117.323 8.91612 117.367 8.95715 117.426C8.99818 117.485 9.02018 117.555 9.02018 117.626C9.02018 117.698 8.99818 117.768 8.95715 117.827C8.91612 117.885 8.85805 117.93 8.79081 117.954C8.61526 118.043 8.42147 118.089 8.22494 118.089C8.02841 118.089 7.83461 118.043 7.65907 117.954C7.59183 117.93 7.53375 117.885 7.49272 117.827C7.45169 117.768 7.42969 117.698 7.42969 117.626C7.42969 117.555 7.45169 117.485 7.49272 117.426C7.53375 117.367 7.59183 117.323 7.65907 117.298C7.83461 117.21 8.02841 117.164 8.22494 117.164C8.42147 117.164 8.61526 117.21 8.79081 117.298Z" fill="#065566"/>
<path d="M11.774 115.583C11.8413 115.607 11.8994 115.652 11.9404 115.711C11.9814 115.77 12.0034 115.839 12.0034 115.911C12.0034 115.983 11.9814 116.053 11.9404 116.111C11.8994 116.17 11.8413 116.215 11.774 116.239C11.5982 116.333 11.4021 116.382 11.2029 116.382C11.0037 116.382 10.8076 116.333 10.6317 116.239C10.5645 116.215 10.5064 116.17 10.4654 116.111C10.4243 116.053 10.4023 115.983 10.4023 115.911C10.4023 115.839 10.4243 115.77 10.4654 115.711C10.5064 115.652 10.5645 115.607 10.6317 115.583C10.8091 115.494 11.0046 115.448 11.2029 115.448C11.4011 115.448 11.5966 115.494 11.774 115.583Z" fill="#065566"/>
<path d="M20.714 110.405C20.7813 110.43 20.8394 110.475 20.8804 110.533C20.9214 110.592 20.9434 110.662 20.9434 110.734C20.9434 110.805 20.9214 110.875 20.8804 110.934C20.8394 110.993 20.7813 111.037 20.714 111.062C20.5382 111.156 20.3421 111.204 20.1429 111.204C19.9437 111.204 19.7476 111.156 19.5717 111.062C19.265 110.882 20.3967 110.225 20.714 110.405Z" fill="#065566"/>
<path d="M23.6935 108.69C23.7608 108.715 23.8188 108.759 23.8599 108.818C23.9009 108.877 23.9229 108.947 23.9229 109.018C23.9229 109.09 23.9009 109.16 23.8599 109.219C23.8188 109.277 23.7608 109.322 23.6935 109.347C23.5161 109.435 23.3206 109.481 23.1224 109.481C22.9241 109.481 22.7286 109.435 22.5512 109.347C22.2339 109.167 23.3762 108.5 23.6935 108.69Z" fill="#065566"/>
<path d="M26.6779 106.965C26.7451 106.989 26.8032 107.034 26.8443 107.092C26.8853 107.151 26.9073 107.221 26.9073 107.293C26.9073 107.364 26.8853 107.434 26.8443 107.493C26.8032 107.552 26.7451 107.596 26.6779 107.621C26.5005 107.71 26.305 107.756 26.1068 107.756C25.9085 107.756 25.713 107.71 25.5356 107.621C25.2183 107.441 26.3606 106.785 26.6779 106.965Z" fill="#065566"/>
<path d="M5.84044 115.583C5.90768 115.607 5.96575 115.652 6.00678 115.711C6.04781 115.77 6.06982 115.839 6.06982 115.911C6.06982 115.983 6.04781 116.053 6.00678 116.111C5.96575 116.17 5.90768 116.215 5.84044 116.239C5.66459 116.333 5.46846 116.382 5.26928 116.382C5.07011 116.382 4.87398 116.333 4.69812 116.239C4.63088 116.215 4.57282 116.17 4.53179 116.111C4.49076 116.053 4.46875 115.983 4.46875 115.911C4.46875 115.839 4.49076 115.77 4.53179 115.711C4.57282 115.652 4.63088 115.607 4.69812 115.583C4.87552 115.494 5.07105 115.448 5.26928 115.448C5.46752 115.448 5.66304 115.494 5.84044 115.583Z" fill="#065566"/>
<path d="M8.79081 113.857C8.85805 113.882 8.91612 113.926 8.95715 113.985C8.99818 114.044 9.02018 114.114 9.02018 114.185C9.02018 114.257 8.99818 114.327 8.95715 114.385C8.91612 114.444 8.85805 114.489 8.79081 114.513C8.61526 114.602 8.42147 114.648 8.22494 114.648C8.02841 114.648 7.83461 114.602 7.65907 114.513C7.59183 114.489 7.53375 114.444 7.49272 114.385C7.45169 114.327 7.42969 114.257 7.42969 114.185C7.42969 114.114 7.45169 114.044 7.49272 113.985C7.53375 113.926 7.59183 113.882 7.65907 113.857C7.83303 113.763 8.02744 113.714 8.22494 113.714C8.42243 113.714 8.61685 113.763 8.79081 113.857Z" fill="#065566"/>
<path d="M5.84044 112.131C5.90768 112.156 5.96575 112.2 6.00678 112.259C6.04781 112.318 6.06982 112.388 6.06982 112.459C6.06982 112.531 6.04781 112.601 6.00678 112.66C5.96575 112.718 5.90768 112.763 5.84044 112.788C5.66304 112.876 5.46752 112.922 5.26928 112.922C5.07105 112.922 4.87552 112.876 4.69812 112.788C4.63088 112.763 4.57282 112.718 4.53179 112.66C4.49076 112.601 4.46875 112.531 4.46875 112.459C4.46875 112.388 4.49076 112.318 4.53179 112.259C4.57282 112.2 4.63088 112.156 4.69812 112.131C4.87552 112.043 5.07105 111.997 5.26928 111.997C5.46752 111.997 5.66304 112.043 5.84044 112.131Z" fill="#065566"/>
<path d="M31.5016 92.3535C30.1102 90.0913 28.1617 88.2248 25.8429 86.9327C23.2621 85.4399 21.2947 85.027 19.9409 85.6728L3.83203 95.3816L15.361 114.185L31.4381 104.466C32.792 103.809 33.4689 102.179 33.4689 99.606C33.494 97.0531 32.8132 94.5431 31.5016 92.3535Z" fill="#FFDF87"/>
<path d="M15.1179 115.043L2.96484 95.1698L19.592 85.1328C21.2102 84.3493 23.3256 84.7728 26.1286 86.3927C28.5329 87.7387 30.5536 89.6776 31.9988 92.0253C33.3627 94.3167 34.0724 96.9387 34.0508 99.6059C34.0508 102.433 33.2575 104.254 31.6815 105.037L15.1179 115.043ZM4.69948 95.5932L15.5409 113.317L31.1209 103.936C32.2738 103.354 32.845 101.914 32.845 99.6059C32.867 97.1683 32.2154 94.7719 30.9623 92.6817C29.6252 90.511 27.7531 88.7209 25.5257 87.4832C23.1458 86.1068 21.3583 85.6833 20.2372 86.2445L4.69948 95.5932Z" fill="#065566"/>
<path d="M1.80104 100.326C1.80104 97.6791 2.47797 96.038 3.83183 95.3816C5.18569 94.7252 7.15303 95.1487 9.73383 96.6415C12.0442 97.9337 13.9824 99.8008 15.3608 102.062C16.6797 104.249 17.3645 106.76 17.3387 109.315C17.3387 111.888 16.6618 113.55 15.3079 114.185C13.9541 114.82 12.1348 114.492 9.71267 113.126C7.34845 111.805 5.3522 109.912 3.90587 107.621C2.51595 105.443 1.78496 102.91 1.80104 100.326Z" fill="#FFDF87"/>
<path d="M9.85121 100.136C10.6919 100.632 11.4913 101.195 12.2416 101.819L28.361 92.1209C27.6069 91.4835 26.7961 90.9165 25.9389 90.4269C23.3581 88.9305 21.3908 88.5105 20.0369 89.1669L3.94922 98.8757C5.30308 98.2193 7.27041 98.6393 9.85121 100.136Z" fill="#FFDF87"/>
<path d="M13.8365 115.138C12.2612 115.035 10.7388 114.528 9.41535 113.666C6.97006 112.285 4.90289 110.321 3.39701 107.949C1.93974 105.675 1.16854 103.028 1.17583 100.326C1.17583 97.4357 1.97969 95.5828 3.55567 94.8205C5.13165 94.0582 7.24706 94.4923 10.0394 96.1016C12.452 97.4449 14.4776 99.3886 15.9202 101.745C17.3121 104.023 18.0444 106.644 18.0356 109.315C18.0356 112.142 17.2424 113.963 15.6558 114.746C15.0898 115.022 14.4656 115.156 13.8365 115.138ZM5.23742 95.7099C4.84661 95.7042 4.45963 95.7875 4.10567 95.9534C3.04797 96.4828 2.4345 97.9545 2.4345 100.326C2.42952 102.79 3.13063 105.204 4.45471 107.282C5.858 109.475 7.77508 111.293 10.0394 112.576C12.2183 113.836 13.9 114.185 15.0529 113.635C16.2058 113.084 16.7347 111.634 16.7347 109.325C16.7534 106.888 16.1021 104.493 14.8519 102.401C13.5148 100.231 11.6427 98.4405 9.41535 97.2027C8.16833 96.3652 6.73238 95.8521 5.23742 95.7099Z" fill="#065566"/>
<path d="M16.3984 103.756L32.2851 93.8569L33.4698 98.3884L32.8457 103.015L26.8485 107.038L16.7369 113.338L17.2975 108.648L16.3984 103.756Z" fill="#065566"/>
<path d="M15.676 91.8348L3.39605 84.7411L1.49219 42.9521L17.5693 52.248L15.676 91.8348Z" fill="#FFDF87"/>
<path d="M1.49219 42.9522L17.3578 33.7622C17.7068 34.0481 33.4243 43.0475 33.4243 43.0475L17.5587 52.248L1.49219 42.9522Z" fill="#FFDF87"/>
<path d="M1.49219 48.7015L17.3578 39.501C17.7174 39.7868 33.4349 48.7862 33.4349 48.7862L17.5693 57.9868L1.49219 48.7015Z" fill="#FFDF87"/>
<path d="M33.479 42.3276C27.302 38.7808 18.2375 33.5717 17.7932 33.2647L17.4759 33L1.494 42.2323L0.859375 42.6029V43.3228L2.73151 84.7624V85.1118L15.0326 92.1843L15.6778 92.5549L16.2807 92.2055L32.1463 83.0155L34.0396 43.4181V42.6982L33.479 42.3276ZM17.4019 34.4928C19.3586 35.6681 28.201 40.7395 32.2097 43.0476L27.6722 45.705L17.5711 51.5388L7.58638 45.705L2.75267 42.9523L17.4019 34.4928ZM4.01133 84.3707L2.18151 44.0746L16.9259 52.5975L15.0961 90.7762L4.01133 84.3707Z" fill="#065566"/>
<defs>
<clipPath id="clip0_2727_14373">
<rect width="57.3115" height="110.232" fill="white" transform="matrix(-1 0 0 1 79.668 0)"/>
</clipPath>
</defs>
</svg>
