<svg width="24" height="24" viewBox="0 0 24 24" xmlns="http://www.w3.org/2000/svg">
<path fill-rule="evenodd" clip-rule="evenodd" d="M18.7395 5.39158C18.5451 5.42198 18.3802 5.50803 18.2437 5.65044C18.2107 5.68478 16.0495 8.29627 13.441 11.4538C10.8324 14.6113 8.68256 17.2111 8.66347 17.2313C8.61741 17.2799 8.57265 17.3005 8.51311 17.3006C8.45987 17.3007 8.41953 17.2858 8.38079 17.2518C8.36645 17.2392 7.67768 16.3584 6.85017 15.2945C6.02266 14.2305 5.32174 13.3348 5.29256 13.304C5.17631 13.1812 5.02073 13.0957 4.84172 13.0564C4.79588 13.0463 4.75547 13.0437 4.6471 13.0438C4.52077 13.044 4.50511 13.0454 4.44194 13.0622C4.32648 13.0931 4.23306 13.1374 4.13763 13.2068C3.88487 13.3904 3.75635 13.661 3.77032 13.9799C3.77765 14.1474 3.82373 14.2841 3.92072 14.4262C3.96374 14.4892 6.93402 18.3093 7.00649 18.3948C7.12256 18.5318 7.301 18.6857 7.45429 18.7811C7.79625 18.9938 8.16632 19.0945 8.56554 19.0834C8.88603 19.0745 9.14701 19.0065 9.43403 18.8571C9.62558 18.7574 9.77231 18.6479 9.92667 18.4897C9.99014 18.4246 11.3857 16.7404 14.7681 12.6471C17.3819 9.48394 19.5415 6.86977 19.5672 6.8378C19.7155 6.65376 19.778 6.46711 19.7683 6.2378C19.7575 5.98226 19.6628 5.77947 19.4746 5.60891C19.3497 5.49577 19.1935 5.41916 19.0323 5.39205C18.9559 5.37919 18.8202 5.37897 18.7395 5.39158Z" fill="#000"/>
</svg>
