<svg width="205" height="31" viewBox="0 0 205 31" fill="none" xmlns="http://www.w3.org/2000/svg">
<path d="M18.8445 15.7954C18.8445 18.327 16.8245 20.3792 14.3327 20.3792H0.5V23.3791H14.3327C18.4576 23.3761 21.8041 19.9861 21.8193 15.7954V2.59814H18.8445V15.7954Z" fill="#409EDC"/>
<path d="M106.304 15.7954C106.304 18.327 104.284 20.3792 101.792 20.3792H89.3254C91.1806 18.0203 91.5294 14.7856 90.2211 12.0745C88.9128 9.36344 86.1822 7.66269 83.2106 7.70804H77.5365V10.7303H83.2106C85.8362 10.7303 87.9647 12.8928 87.9647 15.5604C87.9647 18.2279 85.8362 20.3904 83.2106 20.3904H74.6608C72.21 20.3326 70.2531 18.2972 70.2537 15.8066V7.70804H67.279V15.7954C67.279 17.014 66.8014 18.1825 65.9517 19.0426C65.102 19.9027 63.9501 20.3837 62.7507 20.3792H53.9916C51.4998 20.3792 49.4798 18.327 49.4798 15.7954V7.70804H46.5051V15.7954C46.5051 18.327 44.4851 20.3792 41.9933 20.3792H33.1241C30.6745 20.3185 28.7192 18.2848 28.717 15.7954V2.59814H25.7422V15.7954C25.7573 19.9839 29.1005 23.373 33.2232 23.3791H41.9933C44.3568 23.3787 46.581 22.2436 47.9925 20.3177C49.4022 22.2457 51.6275 23.3814 53.9916 23.3791H62.7507C65.1141 23.3787 67.3384 22.2436 68.7498 20.3177C70.1619 22.2489 72.3921 23.3849 74.76 23.3791H83.2106C84.9264 23.3793 86.5941 22.8028 87.9537 21.7392V23.3791H101.792C105.922 23.376 109.27 19.975 109.273 15.7786V7.70804H106.304V15.7954Z" fill="#409EDC"/>
<path d="M118.869 7.70816H113.195V10.7304H118.869C121.495 10.7304 123.624 12.8929 123.624 15.5605C123.624 18.2281 121.495 20.3905 118.869 20.3905H113.195V23.3792H118.869C123.136 23.3792 126.596 19.8649 126.596 15.5297C126.596 11.1945 123.136 7.68018 118.869 7.68018V7.70816Z" fill="#409EDC"/>
<path d="M152.858 15.7954C152.855 18.3257 150.837 20.3761 148.346 20.3792H134.508V23.3791H148.346C152.479 23.3884 155.837 19.994 155.849 15.7954V2.59814H152.88L152.858 15.7954Z" fill="white"/>
<path d="M196.414 7.70799H195.103L202.237 0.432129H198.033L190.74 7.8647V10.7191H196.414C199.039 10.7191 201.168 12.8816 201.168 15.5491C201.168 18.2167 199.039 20.3792 196.414 20.3792H185.44C182.991 20.3185 181.035 18.2848 181.033 15.7954V7.70799H178.058V15.7954C178.058 18.3269 176.038 20.3792 173.546 20.3792H167.134C164.685 20.3185 162.729 18.2848 162.727 15.7954V2.5981H159.758V15.7954C159.77 19.983 163.112 23.3729 167.233 23.3791H173.541C175.902 23.3853 178.127 22.2561 179.54 20.3344C180.955 22.254 183.179 23.3826 185.539 23.3791H196.414C199.174 23.3791 201.725 21.883 203.105 19.4543C204.485 17.0256 204.485 14.0334 203.105 11.6048C201.725 9.17612 199.174 7.68 196.414 7.68V7.70799Z" fill="white"/>
<path d="M141.703 2.59814H146.605V6.10735H141.703V2.59814Z" fill="white"/>
<path d="M31.834 2.59814H36.7362V6.10735H31.834V2.59814Z" fill="#409EDC"/>
<path d="M38.3633 2.59814H43.2711V6.10735H38.3633V2.59814Z" fill="#409EDC"/>
<path d="M83.0449 26.5693H87.9472V30.0785H83.0449V26.5693Z" fill="#409EDC"/>
<path d="M166.613 26.5693H171.516V30.0785H166.613V26.5693Z" fill="white"/>
<path d="M173.146 26.5693H178.049V30.0785H173.146V26.5693Z" fill="white"/>
<path d="M94.8672 26.5693H99.7695V30.0785H94.8672V26.5693Z" fill="#409EDC"/>
<path d="M101.398 26.5693H106.301V30.0785H101.398V26.5693Z" fill="#409EDC"/>
<path d="M55.8359 26.5693H60.7437V30.0785H55.8359V26.5693Z" fill="#409EDC"/>
<path d="M62.3711 26.5693H67.2789V30.0785H62.3711V26.5693Z" fill="#409EDC"/>
</svg>
