<svg width="24" height="24" viewBox="0 0 24 24" xmlns="http://www.w3.org/2000/svg">
<path fill-rule="evenodd" clip-rule="evenodd" d="M11.6511 4.00656C10.0718 4.08072 8.55376 4.61104 7.29719 5.52757C6.93288 5.7933 6.66877 6.01969 6.34454 6.34417C5.94221 6.74682 5.65617 7.09621 5.34299 7.56757C4.59484 8.69362 4.15553 9.93807 4.03082 11.2847C4.00696 11.5424 4.00274 11.65 4.00294 11.9963C4.00319 12.4209 4.01389 12.6008 4.0619 12.9871C4.08417 13.1664 4.12981 13.4475 4.1478 13.5164C4.17162 13.6074 4.23101 13.7055 4.29912 13.7662C4.45093 13.9015 4.64842 13.9438 4.84082 13.8823C5.01783 13.8257 5.15804 13.6674 5.19846 13.4784C5.21323 13.4093 5.2103 13.334 5.18783 13.2053C5.07855 12.5793 5.05261 11.9803 5.10855 11.3745C5.29333 9.37335 6.33579 7.54964 7.96358 6.37983C9.19038 5.49819 10.6899 5.0402 12.2038 5.08474C13.8045 5.13184 15.3236 5.72704 16.548 6.78683L16.6358 6.86284L15.7118 6.86647L14.7878 6.87011L14.7341 6.88524C14.6365 6.91271 14.5692 6.95056 14.499 7.0173C14.427 7.08583 14.3781 7.16456 14.3481 7.26028C14.3343 7.30441 14.3319 7.32601 14.3322 7.40866C14.3325 7.51142 14.3409 7.55723 14.373 7.62979C14.4252 7.74771 14.5441 7.86283 14.664 7.91135C14.7589 7.94979 14.6585 7.94757 16.3044 7.94757H17.8279L17.8818 7.93194C17.98 7.90349 18.061 7.85321 18.1335 7.77571C18.217 7.68639 18.2612 7.58651 18.274 7.45781C18.2785 7.41266 18.2802 6.86957 18.2789 5.92319L18.2769 4.45845L18.2616 4.40459C18.2049 4.20487 18.048 4.05462 17.8521 4.01235C17.7922 3.99943 17.6673 4.00083 17.6086 4.01508C17.4255 4.05954 17.2726 4.20677 17.215 4.39393L17.1995 4.44463L17.1958 5.17876L17.1922 5.9129L17.0817 5.82223C15.8319 4.79716 14.2993 4.17012 12.7013 4.03008C12.3784 4.00179 11.9549 3.9923 11.6511 4.00656ZM19.2581 10.0932C19.1974 10.1024 19.1118 10.1309 19.0665 10.1569C18.9335 10.2332 18.8338 10.3703 18.8015 10.5212C18.7868 10.5903 18.7897 10.6656 18.8122 10.7943C18.9637 11.662 18.9556 12.4952 18.7874 13.3402C18.6096 14.2337 18.271 15.0557 17.7657 15.8206C17.2438 16.6104 16.5822 17.2689 15.7853 17.7919C15.5503 17.9461 15.3453 18.0628 15.0677 18.2002C14.3037 18.5786 13.4685 18.8133 12.608 18.8915C12.232 18.9257 11.7678 18.9256 11.3851 18.8913C9.93626 18.7615 8.54204 18.1664 7.45259 17.2127L7.36577 17.1367L8.28896 17.1331L9.21216 17.1295L9.26592 17.1144C9.37318 17.0841 9.45043 17.0373 9.52431 16.9578C9.63166 16.8422 9.678 16.715 9.66923 16.5598C9.6632 16.4531 9.63912 16.3783 9.58424 16.2958C9.52296 16.2036 9.42769 16.1253 9.32968 16.0866C9.22835 16.0466 9.30189 16.0482 7.66774 16.0502L6.16522 16.0521L6.11451 16.0678C5.95253 16.118 5.81331 16.2451 5.75866 16.3926C5.72097 16.4944 5.72303 16.3993 5.72303 18.0315V19.548L5.74239 19.6102C5.77071 19.7012 5.8098 19.7659 5.87849 19.8354C6.01821 19.9768 6.1973 20.028 6.39481 19.983C6.57635 19.9417 6.73678 19.782 6.78857 19.5912C6.79911 19.5524 6.80065 19.4751 6.80403 18.8175L6.80777 18.087L6.91832 18.1773C7.5148 18.6646 8.16945 19.0621 8.85979 19.3562C10.5592 20.0802 12.4242 20.1967 14.2006 19.6898C15.3729 19.3553 16.414 18.7804 17.3477 17.9519C17.4782 17.8361 17.8311 17.4831 17.9485 17.3509C18.4178 16.8227 18.8051 16.2582 19.1241 15.6375C19.5873 14.736 19.8737 13.7455 19.9692 12.7149C19.993 12.4572 19.9973 12.3496 19.9971 12.0032C19.9968 11.5787 19.9861 11.3988 19.9381 11.0125C19.9161 10.8354 19.8705 10.5537 19.8524 10.4832C19.8375 10.4252 19.7935 10.3387 19.7541 10.29C19.6865 10.2065 19.5602 10.126 19.4619 10.1038C19.4019 10.0902 19.3091 10.0854 19.2581 10.0932Z" fill="#000"/>
</svg>
