<svg width="24" height="24" viewBox="0 0 24 24" xmlns="http://www.w3.org/2000/svg">
<path fill-rule="evenodd" clip-rule="evenodd" d="M4.74445 4.00859C4.55077 4.04334 4.41075 4.11497 4.27024 4.25116C4.11942 4.39736 4.0353 4.56241 4.00543 4.77074C4.0003 4.8065 3.99868 4.86434 4.00111 4.92461C4.00876 5.11375 4.05512 5.25217 4.1617 5.40415C4.19112 5.4461 4.96295 6.22207 7.46924 8.72942L10.7384 12L7.46924 15.2705C4.96295 17.7779 4.19112 18.5539 4.1617 18.5958C4.05512 18.7478 4.00876 18.8862 4.00111 19.0754C3.99039 19.3408 4.07959 19.564 4.27024 19.7488C4.45654 19.9294 4.66885 20.01 4.92909 19.999C5.11424 19.9912 5.2539 19.944 5.40437 19.8385C5.44631 19.8091 6.22229 19.0372 8.72964 16.5309L12.0002 13.2618L15.2708 16.5309C17.7781 19.0372 18.5541 19.8091 18.596 19.8385C18.7465 19.944 18.8862 19.9912 19.0713 19.999C19.3392 20.0103 19.5636 19.9212 19.749 19.7299C19.9296 19.5436 20.0102 19.3313 19.9992 19.0711C19.9914 18.8859 19.9442 18.7463 19.8387 18.5958C19.8093 18.5539 19.0374 17.7779 16.5312 15.2705L13.262 12L16.5312 8.72942C19.0374 6.22207 19.8093 5.4461 19.8387 5.40415C19.9442 5.25369 19.9914 5.11403 19.9992 4.92887C20.0102 4.66863 19.9296 4.45632 19.749 4.27003C19.5636 4.07875 19.3392 3.98964 19.0713 4.00096C18.8862 4.00879 18.7465 4.05595 18.596 4.16149C18.5541 4.1909 17.7781 4.96274 15.2708 7.46902L12.0002 10.7382L8.72964 7.46902C6.22229 4.96274 5.44631 4.1909 5.40437 4.16149C5.29655 4.08586 5.20849 4.04666 5.08296 4.01839C5.00329 4.00045 4.81945 3.99513 4.74445 4.00859Z" fill="#000"/>
</svg>
